<svg xmlns="http://www.w3.org/2000/svg" viewBox="0 0 400 120"><g fill="#fff"><path d="M243.5 36.6q0 2.4-.9 4.6l-.2.5-30.2 67-2 4.3a12 12 0 0 0 0-9l-.3-.5L199.2 80 220.9 32l.3-.6a11.8 11.8 0 0 1 22.3 5.2"/><path d="M211.5 107.8q0 2.2-.8 4.3l-.5 1.2a12 12 0 0 1-21 0l-.8-1.4-1.9-4.2L157 42.1l-.6-1.3a11.9 11.9 0 0 1 14.8-15.3q4.3 1.4 6.6 5.4l.7 1.6 21 46.4 10.8 23.6.2.6q1 2.2 1 4.7"/></g><g fill="#fff"><path d="M167.8 107.8a12 12 0 0 1-21.7 6.7l-.4-.6-.5-1 .2.6a40 40 0 0 0-33-17.7 41 41 0 0 0-33 17.7l1.4-3 1.5-3.4a49 49 0 0 1 48-27.2 49 49 0 0 1 35.6 21.3l.3.6.3.6.4 1q.9 2 .9 4.4M112.7 40.2l-9 19.7a3 3 0 0 1-1.8 1.4 63 63 0 0 0-24.2 9.5 2.5 2.5 0 0 1-3.6-3.1l25.6-56.3 1.9-4.3q-1.6 4.4.2 8.9l.2.5z"/><path d="m166.5 102.2-.8-1-.1-.4a48.5 48.5 0 0 0-65.3-13.5A49 49 0 0 0 82.4 107l-1.5 3.4-1.4 3-.3.4-.4.7a11.9 11.9 0 0 1-21-10.6l1-2v-.3l.5-.6a63.5 63.5 0 0 1 68.2-27.2l-5.8-12.7-9.2-20.4-10.7-23.6-.3-.6a12 12 0 0 1-.1-8.8l.6-1.5a12 12 0 0 1 21.2.6l.3.5 2 4.6L155 76.8z"/></g><g fill="#fff"><path d="M343 71a35 35 0 0 0-1.4-8l-.3-.8-.5-1.5-.2-.6-.1-.3-.7-1.6-.2-.6-.3-.5-.7-1.3q0-.4-.4-.7v-.3l-.4-.5-.3-.5-.3-.5-.9-1.2-.4-.6-.2-.4-.6-.7-.5-.6-.4-.4q-.2-.4-.6-.7l-.6-.7-.9-.9-.6-.6-1-.9-.5-.5A36 36 0 0 0 311 37a36 36 0 0 0-34.9 17.4q-4.9 7.8-5.2 17.2v1.9a24.3 24.3 0 0 0 23.5 23.6h1.4a24 24 0 0 0 23.5-23q-.4 9.6-5.2 18a36 36 0 0 1-34.9 17.4 36 36 0 0 1-17-6.8l-.8-.5-2.8-2.4-.5-.5v-.1l-.7-.6-.1-.2-.7-.6-.5-.7-.5-.5-.3-.7q-.2 0-.2 0l-.5-.6-.3-.4-.3-.4-.3-.5-.6-.9-.3-.4-.3-.5-.3-.4-.3-.6-.1-.3-.8-1.5-.3-.7-.8-1.8-.3-.7-.3-1.2q0 0-.2 0l-.2-.9-.4-1.4-.2-.7-.2-1-.8-5.8v-4.7A48 48 0 0 1 293 25h4.6A48.4 48.4 0 0 1 343 71"/><path d="M247.3 73.8a35 35 0 0 0 1.4 8.1l.2.8.6 1.5q0 .3.2.6v.3l.4.7.4 1 .2.5.3.5.6 1.3.4.7.2.3q0 .3.3.5l.3.5.3.5.9 1.3.3.5.3.4.6.7.5.7.3.4.6.6.7.7.9 1 .6.5 1 .9.5.5a36 36 0 0 0 18.9 8.1A36 36 0 0 0 314 90.6c3.2-5.2 5-11.2 5.2-17.2v-2a24.3 24.3 0 0 0-23.5-23.6h-1.4a24 24 0 0 0-23.5 23q.3-9.6 5.2-18A36 36 0 0 1 311 35.4q8.2 1 15 5.4l2 1.4.8.5 2.8 2.5.5.4v.1l.7.7h.1q.4.4.6.8l.6.6.5.5.3.7q.3.2.2 0l.5.6.3.4.3.4.3.5.6.9.3.4q0 .3.3.5l.2.5.3.5.2.3.8 1.5.3.7.8 1.8.3.7.3 1.2.1.1.3.8.4 1.4.2.7a27 27 0 0 1 1 5.7v5.8a48 48 0 0 1-45.5 45.5h-4.6a48.4 48.4 0 0 1-45.5-46"/></g></svg>