<svg xmlns="http://www.w3.org/2000/svg" viewBox="0 0 400 120"><path d="M399.6 56.88v21.39h-5.39V57.88c0-6.53-3.9-10.93-9.72-10.93-7.31 0-12.14 4.97-12.14 14.05v17.27h-5.39V42.29h5.39v6.37c2.84-4.26 7.31-6.67 13.2-6.67 8.44 0 14.04 6.02 14.04 14.89M345.74 46.28c5.82 0 10.72 3.76 11.71 10.64h-24.35c1.07-6.88 6.96-10.64 12.63-10.64m10.92 21c-2.57 4.62-6.71 6.25-11.28 6.25-6.02 0-11.99-4.68-12.48-12.56h30.01v-1.99c-.36-10.43-7.74-17.46-17.18-17.46-9.65 0-18.09 7.24-18.09 18.45s8.44 18.31 17.74 18.31c7.83 0 13.9-3.78 16.69-11zM322.72 57.13v21.15h-5.39V58.13c0-6.6-3.9-11.04-9.72-11.04-7.31 0-12.14 5.02-12.14 14.19v16.99h-5.39V33.38h5.39v15.44c2.84-4.31 7.31-6.75 13.2-6.75 8.44 0 14.04 6.09 14.04 15.06M272.32 78.28h-4.75l-9.95-26.85-10 26.85h-4.76L229.6 42.29h5.82l10.07 27.59 9.94-27.59h4.33l9.94 27.52 10.07-27.52h5.82zM196.49 33.01h5.39v45.26h-5.39z" fill="#fff"/><path d="m200.32 64.36-.59-5.93 18.1-16.44h6.68z" fill="#fff"/><path d="m202.76 57.11 5.16-2 21.69 23.17h-7.08z" fill="#fff"/><path d="M187.37 59.83c0-8.02-5.96-13.48-13.34-13.48-7.46 0-13.41 5.46-13.41 13.48 0 8.09 5.96 13.63 13.41 13.63 7.39 0 13.33-5.53 13.33-13.63m5.25 0c0 10.72-8.23 18.45-18.59 18.45-10.44 0-18.67-7.73-18.67-18.45s8.23-18.31 18.67-18.31c10.36 0 18.59 7.6 18.59 18.31M145.62 59.83c0-8.02-5.96-13.48-13.33-13.48-7.46 0-13.41 5.46-13.41 13.48 0 8.09 5.96 13.63 13.41 13.63 7.38 0 13.33-5.53 13.33-13.63m5.25 0c0 10.72-8.23 18.45-18.59 18.45-10.44 0-18.67-7.73-18.67-18.45s8.23-18.31 18.67-18.31c10.36 0 18.59 7.6 18.59 18.31M103.93 59.9c0-8.38-5.82-13.63-13.06-13.63-6.6 0-13.06 5.25-13.06 13.63s6.46 13.55 13.06 13.55c7.24 0 13.06-5.25 13.06-13.55m5.25 0c0 11.07-8.16 18.38-17.46 18.38-5.82 0-10.79-2.34-13.91-6.46v6.02h-5.39V33.01h5.39v14.96c3.12-4.12 8.09-6.46 13.91-6.46 9.29 0 17.46 7.31 17.46 18.38" fill="#fff"/><path d="M27.09 87.09c14.93 0 27.08-12.15 27.08-27.08C54.17 45.06 42.02 32.91 27.09 32.91H0v27.09c0 14.93 12.15 27.08 27.09 27.08" fill="#fff"/><path d="M27.14 69.09c5.01 0 9.08-4.07 9.08-9.08s-4.07-9.08-9.08-9.08h-9.08v9.08c0 5.01 4.07 9.08 9.08 9.08" fill="#54b17c"/><path d="M27.09 32.91h-9.03v9h9.08c9.99 0 18.1 8.12 18.1 18.1S37.13 78.12 27.14 78.12 9.03 70 9.03 60.01V32.91H0v27.09c0 14.96 12.13 27.08 27.09 27.08s27.09-12.12 27.09-27.08S42.04 32.91 27.09 32.91" fill="#54b17c"/></svg>
