<svg xmlns="http://www.w3.org/2000/svg" viewBox="0 0 1366 384">
  <g fill="#fff">
    <path d="M134.2,149.8c-12.3,21.2-33.3,33-59.4,33c-44.6,0-72.9-36.7-72.9-89s28.3-89,72.9-89c28.1,0,46.8,11.3,58.6,32.3l-22.9,14.3c-8.9-14-18-20.7-35.7-20.7c-30.1,0-46.3,24.4-46.3,63.1c0,38.7,16.3,63.1,46.3,63.1c18,0,29.1-7.4,37.9-21.4L134.2,149.8z"/>
    <path d="M269.1,180.1h-24.9v-12.8c-8.9,8.9-21.4,15.5-35.5,15.5c-20.9,0-44.8-11.8-44.8-43.6c0-28.8,22.2-41.9,51.5-41.9c12.1,0,21.7,1.7,28.8,4.9v-9.6c0-14-8.6-21.9-24.4-21.9c-13.3,0-23.6,2.5-33.8,8.1l-9.9-19.2C188.6,52,202.4,48,220.6,48c28.8,0,48.5,14,48.5,43.4V180.1z M244.2,143.4v-18.5c-6.9-3.4-15.8-5.7-29.6-5.7c-16.3,0-26.6,7.4-26.6,19.2c0,12.8,8.1,21.4,24.9,21.4C226.5,159.9,238.3,151.5,244.2,143.4z"/>
    <path d="M420.3,117.5c0,44.4-24.1,65.3-51,65.3c-13.1,0-25.4-6.9-32.5-14.8v46.6l-25.1,13.1V50.7h25.1V63c9.4-8.6,20.2-15,33.8-15C398.4,48,420.3,68.2,420.3,117.5z M394.9,118.3c0-32.5-10.3-46.8-29.1-46.8c-12.1,0-22.7,8.1-29.3,16.5v54.4c5.7,7.6,17.5,17,30.3,17C385.1,159.4,394.9,145.6,394.9,118.3z"/>
    <path d="M521.8,154.5l-2.9,22.4c-6.2,3.5-14.8,5.9-24.9,5.9c-18,0-29.1-11.1-29.1-34.3V73.9h-18.5V50.7h18.5v-37l24.9-13.3v50.3h32v23.2h-32v70.2c0,12.1,3.9,15.5,13.3,15.5C509.7,159.6,517.1,157.2,521.8,154.5z"/>
    <path d="M592.7,17.7c0,8.9-7.4,16.3-16.3,16.3c-9.1,0-16.5-7.4-16.5-16.3c0-9.1,7.4-16.5,16.5-16.5C585.3,1.2,592.7,8.6,592.7,17.7z M589,180.1h-25.4V50.7H589V180.1z"/>
    <path d="M742.9,114.8c0,42.9-25.1,68-58.4,68c-32.5,0-56.9-26.9-56.9-67.3c0-42.4,25.1-67.5,57.6-67.5C718.3,48,742.9,74.4,742.9,114.8z M717.3,115.5c0-26.4-12.6-43.4-33-43.4c-19.2,0-31.1,17-31.1,42.6c0,28.3,13.1,43.9,32.3,43.9C704.7,158.7,717.3,139.2,717.3,115.5z"/>
    <path d="M884.3,180.1h-25.4v-73.2c0-26.1-9.9-35.5-26.6-35.5c-17,0-26.6,12.1-26.6,33v75.6h-25.4V50.7h25.4V63c6.4-9.4,19.2-15,32.5-15c30,0,46.1,19.7,46.1,57.9V180.1z"/>
    <path d="M1061.6,180.1h-25.9v-76.9h-79.3v76.9h-25.9V7.6h25.9v69.7h79.3V7.6h25.9V180.1z"/>
    <path d="M1211.8,180.1h-25.4v-12.3c-6.4,9.4-19.2,15-32.5,15c-30.1,0-46.1-19.7-46.1-57.9V50.7h25.4v73.2c0,26.1,9.9,35.5,26.6,35.5c17,0,26.6-12.1,26.6-33V50.7h25.4V180.1z"/>
    <path d="M1364,117.5c0,44.4-24.1,65.3-51,65.3c-13.1,0-25.4-6.9-32.5-14.8v12.1h-25.1V13.5l25.1-13.1V63c9.4-8.6,20.2-15,33.8-15C1342.1,48,1364,68.2,1364,117.5z M1338.6,118.3c0-32.5-10.3-46.8-29.1-46.8c-12.1,0-22.7,8.1-29.3,16.5v54.4c5.7,7.6,17.5,17,30.3,17C1328.8,159.4,1338.6,145.6,1338.6,118.3z"/>
  </g>
  <rect fill="#B9B9B9" x="463" y="247.4" width="418.5" height="65.6"/>
  <rect fill="#FE0000" x="920.5" y="318.9" width="42.7" height="65.1"/>
  <rect fill="#00FF01" x="975.3" y="318.9" width="41.1" height="65.1"/>
  <rect fill="#00D2FF" x="1031" y="318.9" width="44" height="65.1"/>
</svg>