<svg xmlns="http://www.w3.org/2000/svg" fill="none" viewBox="0 0 400 120"><g transform="translate(81.35, 0) scale(2.727)"><path d="M65.233 0c12.009 0 21.744 9.85 21.744 22s-9.735 22-21.744 22H0V22C0 9.85 9.735 0 21.744 0h43.489Z" fill="#47201C"/><path d="M34.43 32.39h-4.35V8.188h4.349V32.39Zm12.202-20.566c5.59 0 8.816 3.873 8.816 9.878 0 .584-.037 1.087-.074 1.668H41.491c.413 2.944 2.365 5.114 5.216 5.114 2.177 0 3.83-1.16 4.767-3.254l3.6 1.78c-1.651 3.525-4.65 5.347-8.441 5.347-5.553 0-9.304-4.263-9.304-10.23 0-5.965 3.713-10.304 9.304-10.304l-.001.001Zm-27.96-.004c3.912 0 6.875 1.939 8.472 5.541l-3.722 1.745c-.912-2.092-2.505-3.37-4.747-3.37-3.304 0-5.358 2.79-5.358 6.355 0 3.565 2.053 6.354 5.396 6.354v-.005c2.238 0 3.795-1.315 4.709-3.409l3.76 1.707c-1.598 3.604-4.56 5.617-8.473 5.617-5.77 0-9.648-4.3-9.648-10.268 0-5.967 3.874-10.267 9.61-10.267Zm49.481-.004c5.806 0 9.765 4.303 9.765 10.23 0 5.928-3.92 10.304-9.765 10.305-5.845 0-9.804-4.338-9.804-10.266s3.998-10.265 9.804-10.265v-.004Zm0 3.92c-3.383 0-5.46 2.828-5.46 6.353s2.077 6.353 5.46 6.353c3.348 0 5.422-2.867 5.422-6.392 0-3.525-2.039-6.314-5.422-6.315Zm-21.52-.075c-2.59 0-4.355 1.78-4.991 4.338h9.72c-.451-2.631-2.14-4.338-4.73-4.338Z" fill="#F8F6F1"/></g></svg>