<svg xmlns="http://www.w3.org/2000/svg" viewBox="0 0 400 120" fill="none"><g fill="#fff" clip-path="url(#a)"><path d="M 178.89 21.66 c -5.9 0.5 -8.55 6.63 -9.43 9.94 -1.63 6.11 -1.54 6.48 -2.12 11.13 -0.88 7.05 -0.68 7.84 -2.11 14.17 -1.46 6.45 -2.23 9.09 -5.68 12.3 -2.12 1.97 -6.88 3.84 -10.75 0.89 -2.43 -1.86 -3.82 -6.11 -5.25 -9.2 -1.67 -3.57 -6.37 -7.56 -12.97 -5.73 s -5.96 10.09 -5.57 12.77 c 0.41 2.83 1.61 7.94 4.94 12.01 3.32 4.08 5.45 6.81 12.68 9.3 6.6 2.28 17.69 2.54 24.48 -1.83 4.47 -2.87 9.58 -8.65 11.91 -14.25 2.14 -5.15 2.54 -5.66 4.47 -13.62 1.27 -5.23 4.47 -18.06 5.05 -21.58 1.03 -6.16 1.12 -17.2 -9.64 -16.28 Z M 200.87 48.48 c 2.16 -5.4 5.71 -12.2 18.46 -13.28 4.83 -0.42 6.52 0.68 7.8 2.28 2.29 2.85 2.19 5.91 1.27 7.81 -1.35 2.79 -3.09 4.68 -7.67 5.97 -4.58 1.29 -5.64 4.36 -6 6.04 -0.36 1.68 -0.14 3.66 2.08 4.37 2.88 0.93 4.61 -0.64 7.46 0.08 2.86 0.74 3.86 2.23 4.29 3.62 0.43 1.39 0.07 4.34 -0.58 5.43 -0.65 1.08 -2.63 3.1 -5.33 3.39 -2.7 0.29 -7.49 0.44 -10.2 2.35 -2.72 1.9 -2.95 3.21 -3.14 5.01 -0.22 2.22 1.57 3.37 3.68 3.51 3.57 0.24 6.75 -0.28 7.93 -0.35 2.83 -0.15 4.45 0.69 5.91 1.75 2.39 1.75 2.65 4.73 2 6.98 -1.03 3.57 -2.69 4.41 -5.5 5.82 -4.22 2.11 -10.71 2.32 -14.99 2.57 -4.27 0.25 -11.37 0.62 -15.36 -1.72 -5.36 -3.14 -5.67 -9.59 -3.54 -19.29 2.08 -9.49 9.29 -26.93 11.46 -32.31 l -0.03 -0.01 Z M 248.22 34.35 c -2.94 4.9 -4.16 11.42 -4.81 14.24 -0.94 4.12 -2.55 10.48 -3.25 15.6 -1.28 9.23 1.42 14.91 4.37 17.21 2.95 2.3 6.81 4.39 12.77 4.39 9.48 0 16.14 -2.43 18.25 -3.33 1.86 -0.8 8.64 -4.05 7.33 -11.52 -0.69 -3.94 -4.73 -6.04 -8.51 -5.08 -3.41 0.86 -9.08 2.03 -10.97 1.6 -1.89 -0.43 -3.38 -1.24 -3.9 -2.51 -1.02 -2.5 0.37 -7.13 0.79 -8.7 0.77 -2.93 2.08 -6.12 3.17 -9.72 0.65 -2.18 1.67 -6.5 1.28 -9.22 -0.48 -3.34 -2.05 -5.4 -5.9 -6.56 -3.85 -1.17 -8.35 -0.11 -10.6 3.62 l -0.01 -0.01 Z M 302.7 33.67 c -3.61 0.67 -7.1 2.4 -8.91 10.01 -1.19 4.97 -1.43 14.46 -2.15 19.54 -0.8 5.62 -2.32 11.42 -0.48 17.17 1.27 4.01 6.38 8.92 12.63 8.92 3.2 0 8.88 -0.31 12.64 -1.26 4.19 -1.05 6.15 -2.12 10.75 -4.14 3.35 -1.46 6.76 -5.18 5.85 -10.37 -0.39 -2.19 -2.99 -5.2 -5.97 -5.29 -5.53 -0.15 -8.86 3.29 -13.46 3.48 -2.8 0.11 -5.69 -1.18 -5.65 -4.91 0.06 -6.97 3.1 -15.25 3.9 -20.67 0.44 -2.9 0.84 -6.44 -0.37 -8.38 -1.21 -1.94 -4.16 -4.96 -8.77 -4.11 h -0.01 Z"/><path d="M 338.39 26.76 c -2.34 1.29 -3.65 3.82 -4.05 5.8 -1.08 5.23 -1.02 12.45 -0.7 16.68 0.65 8.72 4.56 13.96 6.84 16.21 3.35 3.32 5.29 4.21 7.88 5.48 4.3 2.11 6.58 4.64 7.03 7.86 0.32 2.21 -1.09 7.83 -3.79 10.85 -5.27 5.9 -7.88 6.7 -12.32 8.27 -6.37 2.26 -11.46 1.32 -19.24 0.49 -4.85 -0.51 -8.73 0.21 -12.89 2.33 -5.65 2.89 -7.39 10.3 -3.72 14.82 2.57 3.18 10.28 4.46 16.3 4.46 6.74 0 22.02 -2.43 28.01 -5.62 11.73 -6.22 21.1 -13.87 28.23 -32.74 6.29 -16.64 7.79 -39.61 7.51 -50.44 -0.22 -8.66 -4.11 -14.73 -11.26 -14.7 -2.16 0 -8.64 0.92 -8.67 8.98 -0.01 5.54 1.66 11.53 2.4 14.7 1.17 5 0.66 12.28 -2.52 14.73 -3.42 2.62 -9.07 -0.11 -10.57 -3.07 -2.33 -4.59 -1.06 -6.91 -1.34 -11.87 -0.33 -5.91 -0.23 -8.88 -2.92 -11.67 -2.69 -2.79 -7.64 -2.96 -10.2 -1.54 l 0.01 -0.01 Z"/></g><path fill="#242428" d="M 68.81 107.14 c -6.04 -0.68 -11.65 -3.3 -19.21 -8.97 -3.67 -2.73 -4.57 -3.52 -10.13 -8.79 -3.43 -3.27 -3.38 -3.21 -5.12 -5.25 -0.77 -0.9 -1.76 -2 -2.18 -2.42 -1.41 -1.41 -6 -6.72 -7.32 -8.5 -2.99 -4 -5.36 -8.02 -5.76 -9.8 -0.11 -0.48 -0.31 -1.17 -0.48 -1.54 -0.88 -2.13 -1.63 -6.66 -1.61 -9.67 0.04 -2.64 0.5 -4.62 1.82 -7.74 1.25 -2.99 2.4 -4.79 5.25 -8.2 2.07 -2.46 3.34 -3.61 5.6 -5.06 0.48 -0.31 0.61 -0.53 0.7 -1.3 0.11 -0.81 0.26 -1.06 1.03 -1.82 0.95 -0.94 3.87 -2.81 5.05 -3.25 1.78 -0.66 6.24 -2.09 7.32 -2.33 0.64 -0.17 1.87 -0.61 2.72 -0.99 1.17 -0.55 1.63 -0.86 2.02 -1.43 0.68 -1.01 1.21 -2.83 1.34 -4.66 0.06 -0.86 0.18 -2.42 0.28 -3.49 0.09 -1.06 0.26 -3.12 0.37 -4.59 0.35 -4.42 1.06 -6.07 3.03 -6.88 1.43 -0.61 3.27 0.24 4.11 1.91 0.73 1.45 1.41 4.17 1.96 7.82 0.29 2.07 1.17 5.49 1.54 6.09 0.13 0.18 0.44 0.5 0.7 0.7 0.73 0.55 4.62 0.5 6.83 -0.09 2.86 -0.75 9.19 -0.72 10.81 0.07 0.31 0.15 0.86 0.2 1.58 0.13 2.17 -0.22 6.39 0.31 8.72 1.08 4.73 1.58 8.55 4.2 11.08 7.61 2.02 2.75 3.45 5.56 4.04 7.93 0.7 2.79 0.83 3.56 1.28 7.67 0.44 3.94 0.46 5.34 0.11 9.74 -0.31 3.93 -3.12 14.72 -5.12 19.61 -0.2 0.51 -0.59 1.67 -0.84 2.57 -1.65 5.54 -2.66 8.48 -3.82 10.92 -0.5 1.06 -1.14 2.55 -1.43 3.3 -0.29 0.75 -0.62 1.54 -0.72 1.74 -0.09 0.2 -0.26 0.61 -0.37 0.9 -0.11 0.29 -0.79 1.54 -1.5 2.75 -2.99 5.05 -4.77 7.36 -7.39 9.58 -1.89 1.6 -2.73 2.13 -4.46 2.77 -3.19 1.23 -4.9 1.61 -7.74 1.8 -1.06 0.06 -2.09 0.13 -2.29 0.17 -0.2 0.04 -0.99 -0.02 -1.74 -0.09 Z m 5.08 -3.38 c 5.5 -1.19 7.69 -2.22 10.55 -5.05 1.69 -1.67 4.42 -5.38 4.66 -6.37 0.07 -0.24 0.18 -0.42 0.28 -0.42 s 0.17 -0.11 0.17 -0.22 c 0 -0.13 0.2 -0.64 0.44 -1.16 0.26 -0.5 0.79 -1.78 1.21 -2.84 0.42 -1.06 1.16 -2.75 1.65 -3.76 0.48 -1.01 1.05 -2.37 1.25 -3.03 0.2 -0.66 0.57 -1.65 0.81 -2.2 0.26 -0.55 0.59 -1.34 0.73 -1.74 0.17 -0.4 0.51 -1.27 0.77 -1.93 0.26 -0.66 0.88 -2.42 1.38 -3.94 0.5 -1.5 1.1 -3.21 1.34 -3.76 0.5 -1.12 0.64 -1.61 1.32 -4.4 0.9 -3.69 1.43 -5.98 2.07 -9.17 0.64 -3.05 0.68 -3.45 0.75 -7.52 0.07 -4.79 -0.17 -8.37 -0.7 -10.44 -0.42 -1.56 -2.11 -5.32 -3.03 -6.7 -1.06 -1.58 -1.25 -1.82 -2.22 -2.77 -0.51 -0.5 -0.99 -1.06 -1.05 -1.25 -0.07 -0.17 -0.28 -0.37 -0.44 -0.44 -0.18 -0.06 -0.79 -0.5 -1.34 -0.97 -2.07 -1.76 -4.22 -2.72 -7.85 -3.49 -3.08 -0.66 -4.44 -0.61 -5.01 0.2 -0.7 0.99 -2.46 1.8 -4.94 2.28 -2.94 0.57 -3.43 0.7 -4.31 1.05 -0.5 0.2 -1.06 0.44 -1.23 0.53 -0.18 0.09 -0.46 0.17 -0.64 0.17 -0.17 0 0.17 0.37 0.79 0.83 2.07 1.6 2.81 2.29 3.93 3.8 1.27 1.69 1.47 2.17 1.47 3.6 0 1.76 -1.06 2.28 -3.78 1.87 -1.85 -0.28 -3.23 -0.9 -6.04 -2.73 -2.07 -1.36 -2.51 -1.56 -3.23 -1.45 -0.59 0.07 -1.36 1.3 -1.69 2.64 -1.23 5.01 -1.78 6.61 -2.73 7.82 -0.28 0.37 -0.51 0.75 -0.51 0.84 0 0.11 -0.44 0.59 -0.99 1.1 -0.99 0.9 -1.67 1.14 -3.36 1.14 -0.68 0 -1.67 -1.03 -1.98 -2.07 -0.33 -1.1 -0.37 -4.5 -0.07 -6.07 0.11 -0.59 0.15 -1.1 0.11 -1.14 -0.04 -0.04 -0.73 0.59 -1.52 1.41 -3.14 3.23 -4.26 4.26 -5.41 5.05 -1.74 1.16 -2.46 1.41 -3.93 1.43 -2.37 0.04 -2.99 -0.59 -2.79 -2.79 0.11 -1.17 0.39 -2.17 0.77 -2.81 0.24 -0.4 2.06 -2.46 3.76 -4.28 0.75 -0.79 1.21 -1.39 1.01 -1.32 -0.2 0.07 -1.5 0.37 -2.9 0.68 -1.41 0.29 -3.34 0.79 -4.31 1.12 -1.67 0.53 -1.87 0.55 -3.71 0.46 l -1.94 -0.11 -2.55 2.61 c -2.61 2.62 -3.03 3.14 -5.36 6.46 -1.69 2.4 -1.76 2.55 -2.55 5.52 -1.06 4.06 -1.06 4.09 -0.83 6.46 0.42 4.09 0.62 5.54 0.77 5.63 0.07 0.06 0.4 0.9 0.72 1.89 0.68 2.07 3.16 6.29 5.21 8.86 1.16 1.45 4.95 5.69 6.81 7.6 1.17 1.21 2.48 2.64 2.88 3.19 1.05 1.38 10.7 10.9 12.48 12.29 0.26 0.2 0.75 0.64 1.1 0.97 1.21 1.16 2.26 1.89 4.28 3.06 5.34 3.08 6.42 3.69 7.39 4.06 0.57 0.22 1.54 0.61 2.15 0.84 1.06 0.42 3.41 1.05 4.59 1.23 1.5 0.2 3.32 0.09 5.36 -0.33 Z M 56.33 39.16 c 0.86 -1.43 1.39 -2.79 1.93 -4.94 0.62 -2.59 1.28 -4.53 1.78 -5.32 0.86 -1.36 3.1 -2.02 5.32 -1.56 1.45 0.29 2.09 0.62 4.72 2.33 2.9 1.91 3.25 2 2.04 0.59 -1.06 -1.21 -1.56 -1.61 -3.17 -2.57 -0.61 -0.35 -1.39 -0.97 -1.8 -1.39 -0.68 -0.75 -0.72 -0.83 -0.72 -2.02 0 -0.7 0.07 -1.34 0.15 -1.47 0.18 -0.29 2.79 -1.5 3.56 -1.65 0.33 -0.06 0.77 -0.18 0.95 -0.29 0.44 -0.22 1.96 -0.59 4.51 -1.06 2.28 -0.44 2.57 -0.51 2.57 -0.7 0 -0.66 -4.18 -0.77 -6.81 -0.18 -3.32 0.75 -4.31 0.88 -6.7 0.9 -3.93 0 -5.03 -0.37 -5.85 -2.02 -0.57 -1.17 -0.66 -1.6 -2.5 -12.02 -0.24 -1.34 -0.83 -2.46 -1.49 -2.83 -0.46 -0.28 -0.53 -0.26 -0.97 0.17 -0.9 0.84 -0.86 0.64 -1.36 6.06 -0.11 1.27 -0.28 4.07 -0.35 6.24 -0.15 3.61 -0.18 4.02 -0.59 4.77 -0.5 0.95 -1.21 1.96 -1.74 2.42 -0.83 0.73 -3.58 2.17 -4.61 2.42 -0.59 0.13 -1.82 0.48 -2.73 0.75 -0.9 0.28 -1.91 0.57 -2.24 0.64 -2.29 0.55 -7.34 3.43 -6.88 3.89 0.22 0.22 0.88 0.07 2.64 -0.57 0.57 -0.2 1.85 -0.51 2.84 -0.68 2.48 -0.4 4.77 -0.92 5.65 -1.25 0.73 -0.28 3.45 -0.4 4.04 -0.18 0.84 0.33 1.08 2.31 0.44 3.61 -0.22 0.42 -1.23 1.6 -2.26 2.61 -3.03 3.01 -5.06 5.27 -5.06 5.65 0 0.06 0.26 -0.02 0.55 -0.17 0.31 -0.17 0.55 -0.35 0.55 -0.44 s 0.15 -0.2 0.33 -0.26 c 0.4 -0.15 2.61 -2.26 3.98 -3.85 0.61 -0.72 1.3 -1.49 1.56 -1.74 0.26 -0.26 0.79 -0.88 1.17 -1.38 1.1 -1.38 2.02 -1.94 3.08 -1.94 0.66 0 0.88 0.07 0.88 0.28 0 0.15 -0.15 0.28 -0.31 0.28 -0.24 0 -0.2 0.07 0.13 0.24 0.39 0.2 0.48 0.2 0.51 -0.02 0.11 -0.39 0.83 -0.17 1.06 0.33 0.48 0.95 0.64 3.98 0.35 6.24 -0.46 3.52 -0.31 3.91 0.83 2.09 Z"/><path fill="#242428" d="M 53.85 30.83 c 0.34 -0.06 0.95 -0.24 0.73 -0.46 -0.22 -0.22 -0.76 -0.46 -1.01 -0.55 -0.15 0.09 -0.48 0.31 -0.55 0.46 -0.07 0.15 0.52 0.43 0.83 0.55 Z M 73.63 96.61 c -0.68 -0.48 -1.03 -1.91 -0.94 -3.93 0.06 -1.52 0.13 -1.89 0.55 -2.62 0.55 -0.9 0.86 -1.06 2.22 -1.06 1.82 0 2.24 0.68 2.09 3.47 -0.11 2.31 -0.35 3.21 -1.05 3.91 -0.44 0.44 -0.68 0.51 -1.5 0.51 -0.57 0 -1.14 -0.11 -1.38 -0.28 Z m 1.89 -2.31 c 0.06 -0.11 0.22 -0.61 0.37 -1.12 0.2 -0.81 0.2 -1.03 -0.06 -1.63 -0.33 -0.83 -0.62 -0.9 -1.05 -0.26 -0.5 0.77 -0.55 1.93 -0.13 2.62 0.4 0.61 0.64 0.73 0.86 0.39 Z M 62.11 94.95 c -1.41 -0.73 -2.29 -2.61 -2.29 -4.86 0 -1.21 0.33 -2.07 0.9 -2.39 0.2 -0.09 0.9 -0.18 1.56 -0.18 1.08 0 1.27 0.06 1.85 0.59 0.9 0.77 1.34 1.71 1.56 3.3 0.24 1.61 0.11 2.48 -0.44 3.17 -0.37 0.44 -0.57 0.53 -1.5 0.59 -0.73 0.06 -1.25 -0.02 -1.63 -0.22 Z m 1.49 -2.4 c 0.15 -0.59 -0.17 -1.71 -0.68 -2.35 -0.44 -0.57 -0.73 -0.61 -1.16 -0.13 -0.29 0.31 -0.29 0.46 -0.11 1.06 0.24 0.75 1.21 1.89 1.6 1.89 0.13 0 0.29 -0.22 0.35 -0.48 Z M 83.19 89.08 c -0.66 -0.44 -0.84 -1.21 -0.77 -3.06 0.06 -1.38 0.15 -1.91 0.55 -2.77 0.62 -1.32 1.3 -1.67 3.03 -1.56 1.67 0.11 1.96 0.44 2.04 2.33 0.15 3.23 -1.3 5.34 -3.67 5.34 -0.44 0 -0.97 -0.13 -1.17 -0.28 Z m 1.98 -2.97 c 0.79 -0.84 1.21 -1.94 0.88 -2.35 -0.51 -0.61 -0.92 -0.26 -1.56 1.3 -0.39 0.94 -0.42 1.72 -0.11 1.72 0.07 0 0.42 -0.31 0.79 -0.68 Z M 48.66 88.64 c -0.79 -0.59 -1.63 -1.71 -2.07 -2.77 -0.33 -0.83 -0.33 -3.19 0 -4.04 0.46 -1.14 0.68 -1.28 2.02 -1.28 2.04 0 3.03 0.92 3.67 3.38 0.64 2.44 0.42 4.55 -0.5 5.05 -0.22 0.11 -0.83 0.2 -1.38 0.2 -0.81 0 -1.14 -0.09 -1.74 -0.53 Z m 1.82 -2.07 c 0.17 -0.31 0.13 -0.64 -0.2 -1.72 -0.51 -1.6 -1.21 -2.42 -1.8 -2.11 -0.94 0.5 -0.5 2.4 0.83 3.61 0.79 0.73 0.9 0.75 1.17 0.22 Z M 67.06 84.75 c -1.27 -0.18 -3.63 -1.1 -4.68 -1.8 -0.97 -0.66 -3.49 -3.1 -3.49 -3.41 0 -0.13 -0.11 -0.33 -0.26 -0.44 -0.68 -0.57 -1.1 -1.93 -1.21 -3.82 l -0.09 -1.89 -1.28 1.28 c -0.7 0.7 -1.38 1.27 -1.49 1.28 -0.11 0 -0.31 0.11 -0.42 0.26 -0.13 0.15 -0.48 0.33 -0.77 0.39 -0.29 0.07 -0.53 0.18 -0.53 0.28 0 0.07 -0.84 0.44 -1.87 0.83 -2.28 0.83 -4.73 1.05 -6.75 0.59 -3.03 -0.68 -4.4 -1.23 -6.4 -2.55 -0.26 -0.18 -0.64 -0.4 -0.86 -0.5 -0.7 -0.31 -2.73 -1.82 -3.39 -2.53 C 31.93 71.01 30.31 68.06 29.5 65.32 c -1.1 -3.8 -0.24 -9.25 2 -12.53 0.86 -1.28 1.71 -2.33 2.44 -3.03 0.86 -0.83 2.7 -2.04 3.28 -2.18 0.26 -0.06 0.9 -0.29 1.39 -0.51 1.5 -0.68 3.34 -1.17 5.03 -1.38 0.86 -0.09 2.07 -0.26 2.68 -0.37 2.66 -0.44 4.46 -0.18 6.79 0.95 1.89 0.92 2.44 1.32 4.48 3.32 1.76 1.71 2.07 2.13 2.81 3.65 1.08 2.22 1.34 3.47 1.32 6.75 -0.02 4.07 -1.08 9.03 -2.24 10.33 -0.28 0.31 -0.22 0.31 0.7 -0.04 0.79 -0.31 1.43 -0.39 2.99 -0.39 1.1 0 2.15 0.09 2.33 0.18 0.61 0.33 3.54 0.75 4.31 0.64 1.08 -0.17 3.52 -0.97 4.68 -1.52 0.88 -0.44 1.23 -0.5 2.77 -0.5 1.6 0 1.82 0.04 2.5 0.5 0.46 0.29 0.9 0.81 1.17 1.38 0.37 0.77 0.42 1.14 0.42 2.9 0 2.84 -0.4 4.04 -2.39 6.79 -1.34 1.87 -2.07 2.51 -4.28 3.74 -1.3 0.73 -5.12 1.1 -7.63 0.73 Z m 5.05 -3.36 c 0.83 -0.29 2.39 -1.34 2.51 -1.71 0.11 -0.26 -0.44 -0.86 -1.34 -1.45 -0.37 -0.26 -2.46 -0.88 -2.55 -0.77 -0.04 0.04 -0.13 0.59 -0.2 1.25 l -0.17 1.19 -0.77 0.06 -0.79 0.06 V 79.08 c 0 -1.03 -0.24 -1.65 -0.62 -1.65 -0.13 0 -0.81 0.26 -1.5 0.57 -1.25 0.57 -2.28 1.34 -2.28 1.71 0.02 0.39 1.6 1.39 2.59 1.65 1.23 0.33 4.26 0.37 5.12 0.04 Z m -24.2 -6.83 c 1.76 -0.55 3.91 -1.43 4.68 -1.94 1.27 -0.84 3.12 -2.75 3.63 -3.78 l 0.5 -0.97 -0.51 0.13 c -0.28 0.06 -0.81 0.18 -1.16 0.28 -0.35 0.09 -1.76 0.17 -3.12 0.17 -3.28 0 -4.79 -0.42 -6.68 -1.82 -1.1 -0.83 -1.56 -1.32 -2.17 -2.31 -0.97 -1.6 -1.16 -2.4 -1.16 -4.95 0 -2.13 0.06 -2.5 0.44 -3.3 0.66 -1.43 1.56 -2.53 2.92 -3.61 2.07 -1.67 3.14 -2.18 5.05 -2.42 1.71 -0.2 2 -0.4 1.21 -0.79 -1.94 -0.94 -2.28 -0.97 -5.94 -0.7 -1.36 0.09 -2.4 0.31 -4.02 0.84 -1.21 0.39 -2.24 0.79 -2.29 0.86 -0.06 0.07 -0.81 0.61 -1.67 1.19 -0.86 0.57 -1.82 1.3 -2.13 1.63 -1.56 1.67 -2.83 4.72 -3.38 8.11 -0.11 0.72 -0.06 1.25 0.28 2.48 0.59 2.15 1.01 3.06 2.09 4.57 1.41 1.93 2.7 2.92 5.76 4.42 2.22 1.08 2.99 1.38 4.72 1.87 1.5 0.4 1.74 0.42 2.95 0.06 Z m 24.29 -0.24 c 3.32 -0.15 5.96 -0.55 5.96 -0.94 0 -0.35 -1.14 -1.1 -1.52 -1.01 -0.22 0.06 -0.77 0.18 -1.23 0.28 -0.46 0.11 -1.36 0.31 -2.02 0.46 -0.64 0.15 -1.45 0.37 -1.8 0.48 -0.97 0.33 -5.05 0.28 -6.61 -0.07 -0.73 -0.18 -1.6 -0.31 -1.89 -0.31 -0.72 0 -1.93 0.51 -1.71 0.72 0.18 0.2 3.71 0.51 5.85 0.53 0.81 0 3.05 -0.06 4.95 -0.13 Z M 88.13 76.33 c -0.77 -0.46 -1.05 -1.49 -0.9 -3.21 0.17 -1.82 0.57 -2.92 1.32 -3.58 0.55 -0.48 0.77 -0.55 1.74 -0.55 2.24 0 2.84 0.86 2.68 3.72 -0.13 2.09 -0.46 2.92 -1.41 3.58 -0.81 0.53 -2.57 0.57 -3.43 0.04 Z m 2.26 -2.61 c 0.39 -0.37 0.7 -0.88 0.79 -1.3 0.15 -0.61 0.11 -0.72 -0.29 -1.05 -0.26 -0.2 -0.55 -0.37 -0.64 -0.37 -0.35 0 -1.05 0.9 -1.27 1.61 -0.18 0.64 -0.18 0.83 0.09 1.23 0.39 0.59 0.53 0.59 1.32 -0.13 Z"/><path fill="#242428" d="M 78.44 66.33 c -0.29 -0.15 -0.73 -0.26 -0.94 -0.28 -0.77 0 -4.46 -1.76 -5.71 -2.7 -0.95 -0.72 -2.88 -2.94 -4.09 -4.72 -2.06 -2.99 -3.27 -8.51 -2.5 -11.34 1.16 -4.17 2.13 -5.89 5.01 -8.84 1.82 -1.87 2.22 -2.18 3.63 -2.84 2.77 -1.32 4.18 -1.58 8.53 -1.54 4.13 0.06 5.39 0.22 7.1 0.99 1.87 0.83 3.1 1.76 4.29 3.25 0.61 0.79 1.23 1.54 1.36 1.72 0.7 0.86 1.72 2.83 2.06 3.94 0.77 2.57 1.03 4.72 0.92 7.85 -0.07 2.31 -0.18 3.16 -0.48 3.98 -0.59 1.71 -1.98 4.22 -2.88 5.19 -0.44 0.5 -0.81 0.97 -0.81 1.05 0 0.33 -2.62 2.2 -4.13 2.95 -2.4 1.19 -4.59 1.6 -8.37 1.58 -1.67 0 -2.64 -0.09 -3.01 -0.26 Z m 7.34 -3.38 c 1.28 -0.18 4.15 -1.58 5.08 -2.5 1.41 -1.36 2.44 -2.9 3.49 -5.3 0.09 -0.2 -0.18 -0.04 -0.64 0.39 -1.01 0.94 -1.34 1.1 -2.86 1.54 -1.38 0.4 -2.24 0.42 -4.11 0.15 -3.45 -0.5 -6.06 -2.46 -7.67 -5.78 -0.77 -1.56 -0.81 -1.72 -0.86 -3.52 -0.04 -1.06 0.02 -2.29 0.15 -2.75 0.33 -1.34 1.69 -3.36 3.3 -4.86 1.58 -1.49 2.66 -2.2 3.67 -2.42 0.62 -0.15 0.64 -0.15 0.17 -0.28 -0.26 -0.07 -1.67 -0.28 -3.14 -0.46 l -2.66 -0.33 -1.63 0.57 c -3.1 1.08 -3.6 1.39 -5.98 3.85 -1.43 1.45 -1.93 2.11 -2.44 3.19 -0.35 0.77 -0.64 1.47 -0.64 1.58 0 0.09 -0.2 0.81 -0.46 1.6 -0.59 1.78 -0.61 2.84 -0.09 4.94 0.51 2.13 1.23 3.61 2.42 4.99 0.53 0.62 1.32 1.54 1.72 2.04 1.17 1.39 4.57 2.97 7.78 3.61 0.59 0.11 3.98 -0.04 5.41 -0.24 Z"/><path fill="red" d="M 68.24 82.18 c -1.83 -0.15 -2.62 -0.42 -3.78 -1.3 -1.05 -0.79 -1.08 -0.88 -0.77 -1.49 0.42 -0.81 1.03 -1.28 2.55 -2 2.35 -1.08 3.12 -0.81 3.12 1.12 0 0.51 0.07 0.94 0.17 0.94 0.28 0 0.37 -0.24 0.44 -1.32 0.09 -1.19 0.2 -1.41 0.64 -1.34 1.43 0.28 2.59 0.55 2.99 0.75 0.72 0.37 2 1.69 2 2.07 0 0.4 -0.92 1.27 -2.11 1.96 -0.97 0.57 -2.94 0.79 -5.25 0.61 Z"/><path fill="#E2366A" d="M 68.42 104.66 c -2.02 -0.29 -3.61 -0.68 -5.01 -1.25 -0.61 -0.24 -1.6 -0.62 -2.17 -0.84 -0.97 -0.37 -2.06 -0.97 -7.39 -4.06 -2.02 -1.17 -3.06 -1.91 -4.28 -3.06 -0.35 -0.33 -0.84 -0.77 -1.1 -0.97 -1.78 -1.39 -11.43 -10.92 -12.48 -12.29 -0.4 -0.55 -1.71 -1.98 -2.88 -3.19 -1.85 -1.91 -5.65 -6.15 -6.81 -7.6 -2.06 -2.57 -4.53 -6.79 -5.21 -8.86 -0.31 -0.99 -0.64 -1.83 -0.72 -1.89 -0.09 -0.04 -0.24 -0.84 -0.35 -1.78 -0.75 -6.37 -0.73 -7.28 0.04 -9.98 0.28 -0.92 0.51 -1.91 0.55 -2.2 0.17 -1.16 0.92 -2.7 2.33 -4.7 2.39 -3.39 3.32 -4.51 5.94 -7.08 1.89 -1.87 2.57 -2.42 2.81 -2.33 1.39 0.59 2.94 0.57 4.92 -0.09 0.92 -0.29 2.83 -0.79 4.22 -1.08 1.39 -0.31 3.12 -0.77 3.82 -1.03 1.25 -0.48 1.76 -0.5 1.76 -0.07 0 0.11 -0.88 1.14 -1.96 2.26 -2.04 2.11 -4.04 4.33 -4.37 4.86 -0.59 0.9 -0.94 2.79 -0.64 3.49 0.4 0.97 2.09 1.3 3.56 0.68 1.89 -0.79 3.47 -2.13 7.69 -6.51 1.03 -1.06 1.91 -1.83 2.06 -1.8 0.37 0.15 0.44 1.21 0.17 2.66 -0.33 1.78 -0.33 4.15 0.02 5.3 0.31 1.06 1.3 2.07 2.02 2.07 1.08 0 2.42 -1.03 3.56 -2.75 1.17 -1.76 1.65 -3.06 2.88 -8.13 0.26 -1.05 0.94 -2.35 1.38 -2.61 0.37 -0.24 2.13 -0.13 2.68 0.17 0.31 0.15 1.3 0.77 2.2 1.38 2.35 1.54 3.74 2.2 5.34 2.51 1.06 0.2 1.52 0.22 2 0.06 1.52 -0.5 1.5 -1.93 -0.06 -4.02 -1.38 -1.85 -1.91 -2.39 -3.78 -3.8 -1.23 -0.94 -1.61 -1.32 -1.61 -1.65 0 -0.26 0.13 -0.48 0.33 -0.53 0.17 -0.06 0.48 -0.17 0.68 -0.26 2.28 -0.92 2.51 -0.97 5.23 -1.47 2.57 -0.48 4.15 -1.14 5.14 -2.22 0.64 -0.68 0.7 -0.7 2.2 -0.81 1.3 -0.09 1.96 -0.02 4.04 0.44 4.75 1.03 6.81 2.18 10.4 5.85 1.38 1.41 1.54 1.6 2.53 3.08 0.92 1.38 2.61 5.14 3.01 6.7 0.72 2.75 1.1 11.52 0.66 15.08 -0.15 1.19 -1.25 6.72 -1.82 9.21 -1.39 5.94 -1.71 7.05 -2.28 8.35 -0.24 0.55 -0.84 2.26 -1.34 3.76 -0.5 1.52 -1.12 3.28 -1.38 3.94 -0.26 0.66 -0.61 1.52 -0.77 1.93 -0.15 0.4 -0.48 1.19 -0.73 1.74 -0.24 0.55 -0.61 1.54 -0.81 2.2 -0.2 0.66 -0.77 2.02 -1.25 3.03 -0.5 1.01 -1.23 2.7 -1.65 3.76 -2.97 7.47 -6.4 11.82 -11.3 14.28 -1.27 0.64 -2.24 0.94 -5.21 1.61 -2.73 0.61 -4.88 0.77 -6.81 0.51 Z m 7.54 -8.84 c 0.62 -0.64 0.9 -1.52 1.05 -3.34 0.17 -2.15 -0.55 -3.14 -2.04 -2.86 -0.94 0.18 -1.6 1.34 -1.72 3.03 -0.2 2.86 1.28 4.61 2.72 3.17 Z m -11.25 -1.82 c 0.22 -0.28 0.44 -0.66 0.46 -0.88 0.11 -0.7 -0.22 -2.48 -0.57 -3.19 -1.03 -2 -3.16 -2.51 -3.96 -0.94 -0.35 0.68 -0.35 1.39 0.04 2.75 0.68 2.44 2.88 3.67 4.04 2.26 Z m 20.5 -5.45 c 1.36 -0.57 2.44 -2.73 2.28 -4.55 -0.06 -0.57 -0.24 -1.05 -0.46 -1.27 -0.5 -0.51 -1.49 -0.62 -2.31 -0.28 -1.72 0.72 -2.42 5.06 -0.97 6.07 0.46 0.35 0.7 0.35 1.47 0.02 Z m -33.98 -0.13 c 0.42 -0.24 0.88 -1.23 0.88 -1.96 0 -0.94 -0.75 -3.41 -1.23 -4.04 -0.92 -1.23 -2.59 -1.74 -3.21 -0.99 -0.73 0.86 -0.99 2.73 -0.51 3.91 0.4 1.03 1.27 2.17 2.06 2.75 0.79 0.57 1.39 0.66 2.02 0.33 Z m 20.79 -4.35 c 0.92 -0.18 1.87 -0.46 2.13 -0.61 2.2 -1.23 2.94 -1.87 4.28 -3.74 1.83 -2.59 2.39 -3.98 2.39 -6.24 0 -1.83 -0.5 -3.01 -1.6 -3.72 -1.05 -0.7 -2.73 -0.7 -4.17 0 -1.6 0.77 -3.83 1.43 -5.23 1.54 -1.3 0.11 -4.15 -0.28 -4.86 -0.66 -0.55 -0.29 -3.1 -0.22 -4.04 0.13 -1.12 0.4 -2.33 1.41 -2.66 2.2 -0.37 0.88 -0.35 2.97 0.04 3.94 0.17 0.44 0.5 1.05 0.73 1.38 0.22 0.31 0.42 0.66 0.42 0.77 0 0.24 2.61 2.75 3.49 3.34 1.05 0.7 3.41 1.61 4.68 1.8 1.71 0.24 2.62 0.22 4.4 -0.13 Z m -21.6 -6.92 c 1.03 -0.39 1.87 -0.75 1.87 -0.83 0 -0.09 0.24 -0.2 0.53 -0.28 0.29 -0.06 0.64 -0.24 0.77 -0.39 0.11 -0.15 0.31 -0.26 0.42 -0.26 0.39 -0.02 3.41 -3.21 4.24 -4.5 1.5 -2.35 1.71 -2.88 2.31 -5.89 0.46 -2.24 0.59 -3.41 0.61 -5.03 0 -2.72 -0.29 -4.09 -1.32 -6.2 -0.73 -1.52 -1.05 -1.94 -2.81 -3.65 -2.04 -2 -2.59 -2.4 -4.48 -3.32 -2.44 -1.19 -3.39 -1.32 -6.24 -0.86 -0.9 0.15 -2.15 0.31 -2.73 0.37 -1.23 0.13 -3.06 0.66 -4.42 1.28 -0.5 0.22 -1.14 0.46 -1.39 0.51 -0.59 0.15 -2.42 1.36 -3.28 2.18 -1.19 1.14 -2.79 3.34 -3.43 4.73 -0.97 2.07 -1.63 5.56 -1.45 7.43 0.31 3.14 2.28 7.38 4.5 9.69 0.66 0.72 2.7 2.22 3.39 2.53 0.22 0.09 0.61 0.31 0.86 0.5 1.94 1.28 3.19 1.8 6.22 2.53 1.67 0.4 3.65 0.2 5.83 -0.57 Z m 40.59 -1.41 c 0.88 -0.61 1.27 -1.5 1.38 -3.1 0.09 -1.58 -0.22 -2.42 -1.03 -2.84 -0.83 -0.42 -1.54 -0.33 -2.26 0.29 -0.97 0.86 -1.58 3.19 -1.21 4.61 0.37 1.34 1.93 1.85 3.12 1.05 Z M 84.57 65.87 c 2.31 -0.39 3.05 -0.61 4.7 -1.41 1.5 -0.75 4.13 -2.62 4.13 -2.95 0 -0.07 0.37 -0.55 0.81 -1.05 0.9 -0.97 2.29 -3.5 2.88 -5.19 0.83 -2.35 0.64 -7.17 -0.44 -10.73 -0.33 -1.12 -1.36 -3.08 -2.06 -3.94 -0.13 -0.18 -0.75 -0.94 -1.36 -1.72 -1.61 -2.02 -4.02 -3.49 -6.53 -3.98 -1.78 -0.35 -7.3 -0.33 -8.62 0.04 -0.61 0.18 -1.32 0.35 -1.61 0.4 -0.28 0.06 -1.21 0.44 -2.07 0.84 -1.38 0.66 -1.8 0.99 -3.61 2.84 -2.86 2.94 -3.78 4.55 -4.99 8.79 -0.53 1.87 0 5.1 1.39 8.35 0.81 1.89 3.58 5.45 5.17 6.66 1.25 0.94 4.94 2.7 5.71 2.7 0.2 0.02 0.64 0.13 0.94 0.28 0.68 0.31 3.85 0.35 5.58 0.09 Z"/><path fill="#E2366A" d="M 75.83 94.75 c 0.17 -0.31 0.42 -1.17 0.57 -1.93 0.18 -0.95 0.26 -1.16 0.28 -0.72 0.02 0.88 -0.46 2.57 -0.83 2.92 -0.28 0.28 -0.28 0.26 -0.02 -0.28 Z M 73.87 91.83 c 0.26 -1.74 1.72 -2.4 2.44 -1.06 0.35 0.66 0.22 0.73 -0.17 0.11 -0.66 -1.1 -1.63 -0.59 -2.22 1.19 -0.13 0.4 -0.15 0.37 -0.06 -0.24 Z M 61.89 92.99 c -0.79 -0.84 -1.43 -2.88 -0.99 -3.16 0.07 -0.06 0.11 0.11 0.06 0.35 -0.04 0.26 0 0.57 0.09 0.7 0.11 0.11 0.24 0.48 0.31 0.77 0.07 0.31 0.39 0.86 0.68 1.25 0.68 0.84 0.61 0.88 -0.15 0.09 Z M 48.68 86.81 c -0.95 -0.92 -1.41 -2.09 -1.3 -3.32 0.06 -0.51 0.2 -1.05 0.33 -1.16 0.18 -0.18 0.2 -0.13 0.09 0.24 -0.46 1.56 -0.17 2.7 1.12 4.2 0.83 0.95 0.7 0.97 -0.24 0.04 Z M 88.28 73.3 c -0.02 -1.1 0.51 -2.35 1.12 -2.68 l 0.42 -0.22 -0.4 0.44 c -0.5 0.55 -0.79 1.28 -0.97 2.46 l -0.15 0.92 -0.02 -0.92 Z M 91.76 71.74 c 0 -0.28 -0.07 -0.55 -0.15 -0.66 -0.09 -0.09 -0.04 -0.07 0.09 0.04 0.15 0.11 0.22 0.4 0.17 0.64 -0.07 0.44 -0.07 0.44 -0.11 -0.02 Z"/><path fill="#63E984" d="M 54.86 40.83 c -0.24 -0.28 -0.17 -2.57 0.15 -5.05 0.15 -1.17 -0.07 -3.74 -0.39 -4.39 -0.53 -1.08 -0.57 -1.12 -1.34 -1.12 -0.92 0 -1.89 0.64 -2.94 1.94 -0.39 0.5 -0.92 1.12 -1.17 1.38 -0.26 0.26 -0.95 1.03 -1.56 1.74 -1.5 1.72 -3.1 3.27 -4.31 4.09 -1.16 0.79 -1.76 0.99 -2.22 0.75 -0.26 -0.15 -0.29 -0.29 -0.17 -0.75 0.29 -0.97 1.41 -2.29 5.32 -6.22 2.59 -2.57 3.06 -3.72 2.02 -4.77 -0.5 -0.5 -2.04 -0.5 -3.43 0 -1.36 0.46 -3.14 0.86 -4.53 1.03 -1.32 0.15 -3.32 0.62 -4.73 1.16 -1.72 0.64 -3.27 0.44 -3.27 -0.44 0 -0.28 0.88 -1.08 2.07 -1.91 0.84 -0.57 4.64 -2.28 5.45 -2.46 0.26 -0.04 1.21 -0.31 2.11 -0.59 0.92 -0.28 2.15 -0.62 2.73 -0.75 1.03 -0.26 3.78 -1.69 4.61 -2.42 0.92 -0.81 2 -2.64 2.18 -3.71 0.06 -0.35 0.15 -2.42 0.2 -4.59 0.06 -2.17 0.18 -4.64 0.28 -5.5 0.11 -0.86 0.24 -2.09 0.29 -2.75 0.06 -0.66 0.18 -1.45 0.28 -1.76 0.26 -0.84 1.12 -1.58 1.87 -1.6 1.27 -0.04 2.13 1.03 2.5 3.1 0.11 0.59 0.5 2.77 0.86 4.84 1.12 6.42 1.47 7.56 2.62 8.4 1.52 1.12 5.36 1.06 10.48 -0.15 2.42 -0.57 6.28 -0.59 7.58 -0.02 0.9 0.39 1.06 0.72 0.59 1.19 -0.35 0.33 -0.48 0.37 -2.84 0.83 -2.55 0.48 -4.07 0.84 -4.51 1.06 -0.18 0.11 -0.62 0.24 -0.95 0.29 -0.77 0.15 -3.38 1.36 -3.56 1.65 -0.07 0.13 -0.15 0.53 -0.15 0.92 0 0.94 0.95 1.96 2.92 3.12 1.58 0.94 3.32 2.68 3.82 3.78 0.26 0.59 0.24 0.66 -0.04 0.86 -0.46 0.35 -1.63 -0.18 -4.15 -1.82 -1.16 -0.75 -2.39 -1.5 -2.73 -1.69 -0.94 -0.48 -2.75 -0.86 -3.47 -0.73 -1.06 0.2 -2.28 0.94 -2.73 1.65 -0.48 0.75 -1.34 3.34 -1.78 5.32 -0.51 2.39 -1.91 5.36 -2.84 6.09 -0.39 0.31 -0.83 0.29 -1.1 -0.04 Z"/><path fill="#E9C763" d="M 74.61 95.03 c -0.66 -0.53 -0.9 -1.3 -0.81 -2.64 0.13 -1.45 0.64 -2.29 1.43 -2.29 1.12 0 1.67 1.36 1.3 3.17 -0.37 1.85 -1.03 2.46 -1.93 1.76 Z M 62.18 93.23 c -0.61 -0.53 -0.9 -0.97 -1.14 -1.71 -0.42 -1.32 -0.4 -1.47 0.2 -2.02 0.72 -0.66 1.01 -0.72 1.67 -0.31 1.16 0.7 1.78 3.06 1.1 4.18 -0.46 0.75 -0.86 0.72 -1.83 -0.15 Z M 49.05 87.16 c -1.3 -0.95 -1.98 -2.86 -1.6 -4.37 0.13 -0.44 0.92 -0.95 1.5 -0.95 1.32 0 2.83 4.22 1.94 5.47 -0.39 0.55 -0.95 0.51 -1.85 -0.15 Z M 83.65 87.03 c -0.28 -0.72 -0.09 -1.74 0.51 -2.95 0.5 -1.01 0.55 -1.05 1.3 -1.1 0.99 -0.07 1.32 0.18 1.32 1.03 0 1.14 -0.39 2.04 -1.21 2.79 -0.97 0.9 -1.63 0.97 -1.93 0.24 Z M 88.72 74.59 c -0.37 -0.35 -0.46 -0.62 -0.46 -1.32 0.02 -1.93 1.28 -3.34 2.55 -2.83 0.97 0.42 1.17 0.79 1.03 1.94 -0.13 1.1 -0.66 1.93 -1.58 2.39 -0.72 0.39 -1.03 0.35 -1.54 -0.18 Z"/><path fill="#fff" d="M 44.4 75.06 c -1.72 -0.5 -2.5 -0.79 -4.72 -1.87 -3.06 -1.5 -4.35 -2.5 -5.78 -4.44 -1.56 -2.17 -2.68 -5.56 -2.44 -7.47 0.42 -3.45 1.82 -7.01 3.47 -8.77 0.31 -0.33 1.27 -1.06 2.13 -1.63 0.86 -0.59 1.61 -1.12 1.67 -1.19 0.06 -0.07 1.08 -0.48 2.29 -0.86 2.26 -0.73 3.96 -0.97 7.41 -1.01 1.52 -0.02 1.93 0.07 3.58 0.83 0.42 0.2 1.45 0.92 2.09 1.45 l 0.42 0.39 -0.88 -0.07 c -0.5 -0.04 -1.71 0.04 -2.68 0.15 -2.02 0.28 -3.05 0.75 -5.14 2.44 -1.36 1.08 -2.26 2.2 -2.92 3.61 -0.59 1.25 -0.62 4.11 -0.09 5.5 0.72 1.82 1.49 2.84 2.97 3.94 1.8 1.34 3.45 1.83 6.15 1.82 2.46 -0.02 3.74 -0.31 5.08 -1.21 l 1.08 -0.72 -0.24 0.77 c -0.59 1.96 -1.52 3.6 -2.75 4.79 -1.58 1.5 -2.39 2.04 -4.2 2.73 -3.3 1.28 -4.39 1.41 -6.51 0.83 Z M 65.14 74.99 c -0.06 -0.04 -0.95 -0.13 -2.02 -0.2 -2.24 -0.13 -2.75 -0.24 -2.75 -0.61 0 -1.38 2.17 -1.89 5.17 -1.23 1.5 0.33 4.64 0.39 5.54 0.07 0.31 -0.09 1.16 -0.31 1.85 -0.48 0.72 -0.15 1.78 -0.4 2.39 -0.53 1.67 -0.39 2.2 -0.35 2.84 0.24 0.31 0.28 0.62 0.77 0.72 1.08 0.17 0.61 0.17 0.61 -0.75 0.88 -0.5 0.15 -1.38 0.35 -1.94 0.44 -1.12 0.18 -10.9 0.5 -11.05 0.33 Z M 79.82 63.74 c -1.28 -0.26 -2.7 -0.7 -3.63 -1.1 -2.61 -1.16 -3.39 -1.63 -4.15 -2.51 -0.4 -0.5 -1.19 -1.41 -1.72 -2.04 -2.5 -2.9 -3.49 -7.56 -2.35 -11.01 0.26 -0.79 0.48 -1.52 0.48 -1.61 0 -0.11 0.29 -0.81 0.64 -1.58 0.51 -1.08 1.01 -1.74 2.44 -3.19 1.69 -1.72 2.79 -2.64 3.61 -2.97 2.55 -1.05 3.91 -1.41 5.32 -1.38 0.81 0 1.76 0.09 2.11 0.17 0.35 0.09 1.14 0.22 1.74 0.28 1.76 0.15 3.96 0.72 5.01 1.27 0.53 0.29 0.94 0.57 0.88 0.61 -0.04 0.04 -0.59 -0.02 -1.19 -0.15 -1.69 -0.33 -3.43 -0.15 -4.5 0.48 -1.36 0.79 -3.69 3.1 -4.59 4.55 -0.99 1.6 -1.27 2.64 -1.17 4.39 0.06 1.12 0.18 1.6 0.86 2.97 1.63 3.38 4.24 5.3 7.83 5.82 2.5 0.35 4.4 -0.37 6.37 -2.35 0.57 -0.59 1.21 -1.3 1.41 -1.61 l 0.37 -0.55 -0.11 0.92 c -0.33 2.79 -1.91 5.82 -4.09 7.93 -0.88 0.84 -4.11 2.42 -5.25 2.55 -1.3 0.15 -5.78 0.24 -6.33 0.15 Z"/><defs><clipPath id="a"><path fill="#fff" d="M 124.77 16.51 h 258.72 v 103.49 H 124.77 z"/></clipPath></defs></svg>