<svg xmlns="http://www.w3.org/2000/svg" viewBox="150 200 500 150">
  <desc>mmtm logo</desc>
  <g fill="#E53935">
    <path d="M650.72,230.46,600.34,335H582l50.43-104.65Z"></path>
    <path d="M245.94,230.46,195.56,335h-18.3l50.42-104.65Z"></path>
    <path d="M308.81,251.54c-6.39,0-16,2.93-20.76,12-3.59-7.59-10.78-12-20-12-6.92,0-15.71,4.12-17.57,12.64V253.13h-6.1l-11.34,23.53v38.5h17.44V282.81c0-11.18,6.39-14.1,12.64-14.1,5.86,0,10.91,3.86,10.91,13.57v32.88h17.44V282.28c.4-9.32,5.32-13.71,12.25-13.57,6.12,0,11.17,4,11.17,13.7v32.75H332.5V281.08C332.5,262.45,324.38,251.54,308.81,251.54Z"></path>
    <path d="M416.7,251.54c-6.39,0-16,2.93-20.76,12-3.59-7.59-10.78-12-20-12-6.92,0-15.71,4.12-17.57,12.64V253.13H341v62h17.44V282.81c0-11.18,6.39-14.1,12.64-14.1,5.86,0,10.92,3.86,10.92,13.57v32.88H399.4V282.28c.4-9.32,5.32-13.71,12.25-13.57,6.12,0,11.18,4,11.18,13.7v32.75h17.56V281.08C440.39,262.45,432.27,251.54,416.7,251.54Z"></path>
    <polygon points="466.3 251.54 466.3 230.38 448.87 230.38 448.87 253.13 448.87 266.58 448.87 315.16 466.3 315.16 466.3 268.79 477.84 268.79 486.15 251.54 466.3 251.54"></polygon>
    <path d="M570.58,251.54c-6.38,0-16,2.93-20.76,12-3.59-7.59-10.78-12-20-12-6.92,0-15.71,4.12-17.57,12.64v-1.25a11.41,11.41,0,0,0-11.38-11.38h-5.35l-8.31,17.24h6.59a1,1,0,0,1,1,1v45.36h17.44V282.81c0-11.18,6.39-14.1,12.64-14.1,5.86,0,10.92,3.86,10.92,13.57v32.88h17.43V282.28c.4-9.32,5.33-13.71,12.25-13.57,6.12,0,11.18,4,11.18,13.7v32.75h5.5l12.06-25v-9C594.27,262.45,586.16,251.54,570.58,251.54Z"></path>
  </g>
</svg>
