<svg xmlns="http://www.w3.org/2000/svg" viewBox="0 0 138 41">
  <g transform="translate(0 0.5)">
    <g>
      <defs>
        <linearGradient id="passentry_mark_a" x1="0.2525975436363449" x2="0.7474024563636551" y1="0" y2="1">
          <stop offset="0" stop-color="rgb(255,163,153)" stop-opacity="1"/>
          <stop offset="1" stop-color="rgb(255,108,92)" stop-opacity="1"/>
        </linearGradient>
      </defs>
      <path d="M 1.971 31.931 L 1.327 32.179 C 0.968 32.307 0.652 32.548 0.416 32.871 C 0.18 33.194 0.036 33.586 0 33.998 L 0 34.143 C 0.001 34.531 0.097 34.911 0.278 35.245 C 0.46 35.578 0.72 35.85 1.032 36.035 L 9.91 39.832 C 11.493 40.509 13.158 39.105 13.158 37.104 L 13.158 27.621 Z" fill="url(#passentry_mark_a)"/>
    </g>
    <g>
      <defs>
        <linearGradient id="passentry_mark_b" x1="0.6044392045867638" x2="0.3955607954132362" y1="0" y2="1">
          <stop offset="0" stop-color="rgb(255,108,92)" stop-opacity="1"/>
          <stop offset="1" stop-color="rgb(255,71,51)" stop-opacity="1"/>
        </linearGradient>
      </defs>
      <path d="M 9.064 0.767 L 1.254 3.776 C 1.02 3.894 0.81 4.061 0.636 4.268 C 0.461 4.475 0.325 4.718 0.236 4.982 C 0.147 5.247 0.107 5.528 0.117 5.809 C 0.127 6.091 0.187 6.368 0.295 6.624 C 0.49 7.089 0.83 7.462 1.254 7.675 L 11.572 12.088 C 12.056 12.316 12.467 12.697 12.753 13.182 C 13.039 13.667 13.187 14.235 13.178 14.812 L 13.178 27.617 L 17.216 26.064 C 19.605 25.144 21.675 23.433 23.14 21.167 C 24.604 18.901 25.39 16.193 25.39 13.416 C 25.388 11.651 25.068 9.905 24.45 8.275 C 23.831 6.646 22.927 5.167 21.787 3.921 C 20.647 2.676 19.294 1.689 17.806 1.017 C 16.318 0.344 14.724 0 13.115 0.003 C 11.735 0.008 10.366 0.266 9.064 0.767 Z" fill="url(#passentry_mark_b)"/>
    </g>
    <g transform="translate(-9 0)">
    <path d="M 135.673 31.25 L 135.673 28.5 L 142.423 28.5 C 142.889 28.5 143.123 28.25 143.123 27.75 L 143.123 24.625 L 142.673 24.625 C 142.539 24.908 142.331 25.192 142.048 25.475 C 141.764 25.758 141.381 25.992 140.898 26.175 C 140.414 26.358 139.798 26.45 139.048 26.45 C 138.081 26.45 137.231 26.233 136.498 25.8 C 135.781 25.35 135.223 24.733 134.823 23.95 C 134.423 23.167 134.223 22.267 134.223 21.25 L 134.223 13.85 L 137.373 13.85 L 137.373 21 C 137.373 21.933 137.598 22.633 138.048 23.1 C 138.514 23.567 139.173 23.8 140.023 23.8 C 140.989 23.8 141.739 23.483 142.273 22.85 C 142.806 22.2 143.073 21.3 143.073 20.15 L 143.073 13.85 L 146.223 13.85 L 146.223 28.45 C 146.223 29.3 145.973 29.975 145.473 30.475 C 144.973 30.992 144.306 31.25 143.473 31.25 Z" fill="#fff"/>
    <path d="M 125.91 26.25 L 125.91 13.85 L 129.01 13.85 L 129.01 15.25 L 129.46 15.25 C 129.643 14.75 129.943 14.383 130.36 14.15 C 130.793 13.917 131.293 13.8 131.86 13.8 L 133.36 13.8 L 133.36 16.6 L 131.81 16.6 C 131.01 16.6 130.352 16.817 129.835 17.25 C 129.318 17.667 129.06 18.317 129.06 19.2 L 129.06 26.25 Z" fill="#fff"/>
    <path d="M 120.758 26.25 C 119.942 26.25 119.275 26 118.758 25.5 C 118.258 24.983 118.008 24.3 118.008 23.45 L 118.008 16.45 L 114.908 16.45 L 114.908 13.85 L 118.008 13.85 L 118.008 10 L 121.158 10 L 121.158 13.85 L 124.558 13.85 L 124.558 16.45 L 121.158 16.45 L 121.158 22.9 C 121.158 23.4 121.392 23.65 121.858 23.65 L 124.258 23.65 L 124.258 26.25 Z" fill="#fff"/>
    <path d="M 102.445 26.25 L 102.445 13.85 L 105.545 13.85 L 105.545 15.475 L 105.995 15.475 C 106.195 15.042 106.57 14.633 107.12 14.25 C 107.67 13.85 108.504 13.65 109.62 13.65 C 110.587 13.65 111.429 13.875 112.145 14.325 C 112.879 14.758 113.445 15.367 113.845 16.15 C 114.245 16.917 114.445 17.817 114.445 18.85 L 114.445 26.25 L 111.295 26.25 L 111.295 19.1 C 111.295 18.167 111.062 17.467 110.595 17 C 110.145 16.533 109.495 16.3 108.645 16.3 C 107.679 16.3 106.929 16.625 106.395 17.275 C 105.862 17.908 105.595 18.8 105.595 19.95 L 105.595 26.25 Z" fill="#fff"/>
    <path d="M 89.504 26.25 L 89.504 8.75 L 100.754 8.75 L 100.754 11.75 L 92.804 11.75 L 92.804 15.925 L 100.054 15.925 L 100.054 18.925 L 92.804 18.925 L 92.804 23.25 L 100.904 23.25 L 100.904 26.25 Z" fill="#fff"/>
    <path d="M 82.643 26.6 C 81.026 26.6 79.701 26.25 78.668 25.55 C 77.635 24.85 77.01 23.85 76.793 22.55 L 79.693 21.8 C 79.81 22.383 80.001 22.842 80.268 23.175 C 80.551 23.508 80.893 23.75 81.293 23.9 C 81.71 24.033 82.16 24.1 82.643 24.1 C 83.376 24.1 83.918 23.975 84.268 23.725 C 84.618 23.458 84.793 23.133 84.793 22.75 C 84.793 22.367 84.626 22.075 84.293 21.875 C 83.96 21.658 83.426 21.483 82.693 21.35 L 81.993 21.225 C 81.126 21.058 80.335 20.833 79.618 20.55 C 78.901 20.25 78.326 19.842 77.893 19.325 C 77.46 18.808 77.243 18.142 77.243 17.325 C 77.243 16.092 77.693 15.15 78.593 14.5 C 79.493 13.833 80.676 13.5 82.143 13.5 C 83.526 13.5 84.676 13.808 85.593 14.425 C 86.51 15.042 87.11 15.85 87.393 16.85 L 84.468 17.75 C 84.335 17.117 84.06 16.667 83.643 16.4 C 83.243 16.133 82.743 16 82.143 16 C 81.543 16 81.085 16.108 80.768 16.325 C 80.451 16.525 80.293 16.808 80.293 17.175 C 80.293 17.575 80.46 17.875 80.793 18.075 C 81.126 18.258 81.576 18.4 82.143 18.5 L 82.843 18.625 C 83.776 18.792 84.618 19.017 85.368 19.3 C 86.135 19.567 86.735 19.958 87.168 20.475 C 87.618 20.975 87.843 21.658 87.843 22.525 C 87.843 23.825 87.368 24.833 86.418 25.55 C 85.485 26.25 84.226 26.6 82.643 26.6 Z" fill="#fff"/>
    <path d="M 70.534 26.6 C 68.917 26.6 67.592 26.25 66.559 25.55 C 65.525 24.85 64.9 23.85 64.684 22.55 L 67.584 21.8 C 67.7 22.383 67.892 22.842 68.159 23.175 C 68.442 23.508 68.784 23.75 69.184 23.9 C 69.6 24.033 70.05 24.1 70.534 24.1 C 71.267 24.1 71.809 23.975 72.159 23.725 C 72.509 23.458 72.684 23.133 72.684 22.75 C 72.684 22.367 72.517 22.075 72.184 21.875 C 71.85 21.658 71.317 21.483 70.584 21.35 L 69.884 21.225 C 69.017 21.058 68.225 20.833 67.509 20.55 C 66.792 20.25 66.217 19.842 65.784 19.325 C 65.35 18.808 65.134 18.142 65.134 17.325 C 65.134 16.092 65.584 15.15 66.484 14.5 C 67.384 13.833 68.567 13.5 70.034 13.5 C 71.417 13.5 72.567 13.808 73.484 14.425 C 74.4 15.042 75 15.85 75.284 16.85 L 72.359 17.75 C 72.225 17.117 71.95 16.667 71.534 16.4 C 71.134 16.133 70.634 16 70.034 16 C 69.434 16 68.975 16.108 68.659 16.325 C 68.342 16.525 68.184 16.808 68.184 17.175 C 68.184 17.575 68.35 17.875 68.684 18.075 C 69.017 18.258 69.467 18.4 70.034 18.5 L 70.734 18.625 C 71.667 18.792 72.509 19.017 73.259 19.3 C 74.025 19.567 74.625 19.958 75.059 20.475 C 75.509 20.975 75.734 21.658 75.734 22.525 C 75.734 23.825 75.259 24.833 74.309 25.55 C 73.375 26.25 72.117 26.6 70.534 26.6 Z" fill="#fff"/>
    <path d="M 55.877 26.6 C 54.993 26.6 54.202 26.45 53.502 26.15 C 52.802 25.833 52.243 25.383 51.827 24.8 C 51.427 24.2 51.227 23.475 51.227 22.625 C 51.227 21.775 51.427 21.067 51.827 20.5 C 52.243 19.917 52.81 19.483 53.527 19.2 C 54.26 18.9 55.093 18.75 56.027 18.75 L 59.427 18.75 L 59.427 18.05 C 59.427 17.467 59.243 16.992 58.877 16.625 C 58.51 16.242 57.927 16.05 57.127 16.05 C 56.343 16.05 55.76 16.233 55.377 16.6 C 54.993 16.95 54.743 17.408 54.627 17.975 L 51.727 17 C 51.927 16.367 52.243 15.792 52.677 15.275 C 53.127 14.742 53.718 14.317 54.452 14 C 55.202 13.667 56.11 13.5 57.177 13.5 C 58.81 13.5 60.102 13.908 61.052 14.725 C 62.002 15.542 62.477 16.725 62.477 18.275 L 62.477 22.9 C 62.477 23.4 62.71 23.65 63.177 23.65 L 64.177 23.65 L 64.177 26.25 L 62.077 26.25 C 61.46 26.25 60.952 26.1 60.552 25.8 C 60.152 25.5 59.952 25.1 59.952 24.6 L 59.952 24.575 L 59.477 24.575 C 59.41 24.775 59.26 25.042 59.027 25.375 C 58.793 25.692 58.427 25.975 57.927 26.225 C 57.427 26.475 56.743 26.6 55.877 26.6 Z M 56.427 24.05 C 57.31 24.05 58.027 23.808 58.577 23.325 C 59.143 22.825 59.427 22.167 59.427 21.35 L 59.427 21.1 L 56.252 21.1 C 55.668 21.1 55.21 21.225 54.877 21.475 C 54.543 21.725 54.377 22.075 54.377 22.525 C 54.377 22.975 54.552 23.342 54.902 23.625 C 55.252 23.908 55.76 24.05 56.427 24.05 Z" fill="#fff"/>
    <path d="M 38.059 26.25 L 38.059 8.75 L 45.259 8.75 C 46.359 8.75 47.325 8.975 48.159 9.425 C 49.009 9.858 49.667 10.475 50.134 11.275 C 50.617 12.075 50.859 13.025 50.859 14.125 L 50.859 14.475 C 50.859 15.558 50.609 16.508 50.109 17.325 C 49.625 18.125 48.959 18.75 48.109 19.2 C 47.275 19.633 46.325 19.85 45.259 19.85 L 41.359 19.85 L 41.359 26.25 Z M 41.359 16.85 L 44.934 16.85 C 45.717 16.85 46.35 16.633 46.834 16.2 C 47.317 15.767 47.559 15.175 47.559 14.425 L 47.559 14.175 C 47.559 13.425 47.317 12.833 46.834 12.4 C 46.35 11.967 45.717 11.75 44.934 11.75 L 41.359 11.75 Z" fill="#fff"/>
    </g>
  </g>
</svg>
