<svg viewBox="0 0 400 120" xmlns="http://www.w3.org/2000/svg">
    <g fill="none">
        <path d="M90.082 21.989c-.075-.55-.555-.856-.954-.89-.395-.033-8.14-.15-8.14-.15s-6.476-6.303-7.116-6.944c-.64-.64-1.89-.447-2.375-.302-.006.003-1.216.378-3.253 1.01a22.872 22.872 0 0 0-1.558-3.835c-2.306-4.409-5.683-6.74-9.763-6.746h-.015c-.284 0-.564.027-.848.051a12.31 12.31 0 0 0-.368-.426c-1.778-1.905-4.057-2.834-6.788-2.752-5.27.151-10.518 3.964-14.773 10.738-2.994 4.766-5.273 10.754-5.918 15.39-6.052 1.878-10.283 3.19-10.376 3.22-3.055.962-3.151 1.056-3.55 3.94-.295 2.18-8.287 64.1-8.287 64.1L72.973 110 102 102.77S90.157 22.539 90.082 21.989ZM64.89 15.753l-5.197 1.612c-.039-2.673-.356-6.393-1.599-9.607 3.999.759 5.967 5.292 6.796 7.995Zm-8.7 2.7-11.182 3.47c1.08-4.147 3.13-8.275 5.647-10.981.935-1.007 2.245-2.129 3.796-2.77 1.458 3.048 1.775 7.363 1.739 10.282ZM49.01 4.52c1.237-.027 2.278.245 3.169.831-1.425.741-2.801 1.806-4.093 3.194-3.347 3.598-5.912 9.184-6.935 14.573-3.19.989-6.31 1.96-9.184 2.848 1.814-8.482 8.91-21.21 17.043-21.446Z" fill="#95BF47"/>
        <path d="M89.14 21.477c-.395-.033-8.132-.15-8.132-.15s-6.47-6.276-7.11-6.914c-.238-.238-.56-.362-.898-.413l.003 96L102 102.803S90.168 22.91 90.093 22.363c-.075-.548-.558-.853-.953-.886Z" fill="#5E8E3E"/>
        <path d="m56 36.14-3.367 12.591s-3.755-1.708-8.207-1.428c-6.528.413-6.597 4.528-6.53 5.562.355 5.63 15.174 6.86 16.006 20.05.654 10.376-5.506 17.474-14.382 18.035C28.865 91.622 23 85.34 23 85.34l2.257-9.599s5.905 4.453 10.63 4.155c3.087-.196 4.19-2.706 4.079-4.48-.465-7.346-12.533-6.912-13.295-18.981-.642-10.156 6.03-20.448 20.754-21.376C53.098 34.694 56 36.14 56 36.14ZM139.933 62.438c-3.352-1.825-5.075-3.363-5.075-5.476 0-2.69 2.394-4.418 6.13-4.418 4.35 0 8.232 1.824 8.232 1.824l3.064-9.414s-2.816-2.21-11.106-2.21c-11.537 0-19.533 6.628-19.533 15.945 0 5.283 3.733 9.318 8.714 12.198 4.022 2.304 5.459 3.938 5.459 6.339 0 2.496-2.012 4.514-5.745 4.514-5.563 0-10.818-2.883-10.818-2.883L116 88.27s4.855 3.266 13.021 3.266c11.874 0 20.395-5.86 20.395-16.425-.002-5.663-4.31-9.698-9.483-12.674Zm47.301-19.788c-5.84 0-10.438 2.786-13.977 7.01l-.193-.096 5.074-26.605h-13.215l-12.829 67.716h13.214l4.404-23.147c1.723-8.742 6.222-14.119 10.437-14.119 2.967 0 4.118 2.018 4.118 4.9 0 1.825-.192 4.035-.574 5.86l-4.978 26.508h13.214l5.17-27.374c.573-2.883.958-6.339.958-8.645-.005-7.494-3.93-12.008-10.823-12.008Zm40.689 0c-15.894 0-26.424 14.408-26.424 30.447 0 10.277 6.319 18.536 18.192 18.536 15.606 0 26.14-14.021 26.14-30.447 0-9.508-5.556-18.536-17.908-18.536Zm-6.51 38.806c-4.5 0-6.415-3.841-6.415-8.645 0-7.587 3.926-19.978 11.108-19.978 4.691 0 6.22 4.035 6.22 7.973 0 8.163-3.921 20.65-10.913 20.65Zm58.216-38.806c-8.92 0-13.981 7.877-13.981 7.877h-.19l.767-7.108h-11.68c-.575 4.804-1.63 12.101-2.682 17.577L242.67 109.5h13.213l3.638-19.594h.288s2.711 1.727 7.756 1.727c15.51 0 25.658-15.942 25.658-32.081 0-8.929-3.926-16.902-13.595-16.902Zm-12.64 38.996c-3.43 0-5.46-1.92-5.46-1.92l2.204-12.391c1.533-8.26 5.84-13.736 10.436-13.736 4.023 0 5.267 3.745 5.267 7.3 0 8.55-5.074 20.747-12.447 20.747Zm45.097-58.015c-4.211 0-7.563 3.363-7.563 7.684 0 3.938 2.488 6.628 6.222 6.628h.192c4.118 0 7.66-2.787 7.756-7.684 0-3.841-2.586-6.628-6.607-6.628Zm-18.478 67.044h13.212l9.002-46.966h-13.31zm55.82-47.063h-9.192l.478-2.21c.766-4.515 3.447-8.55 7.852-8.55 2.349 0 4.21.673 4.21.673l2.585-10.373S353.065 22 348.18 22c-4.692 0-9.38 1.345-12.925 4.418-4.5 3.841-6.607 9.411-7.66 14.984l-.38 2.21h-6.13l-1.914 9.99h6.129l-6.99 37.076h13.215l6.988-37.076h9.096l1.819-9.99Zm31.787.096s-8.26 20.877-11.97 32.272h-.192c-.253-3.67-3.254-32.272-3.254-32.272h-13.885l7.95 43.125c.192.959.097 1.538-.288 2.21-1.533 2.976-4.118 5.86-7.181 7.973-2.49 1.824-5.266 2.976-7.467 3.745L348.566 112c2.68-.576 8.232-2.786 12.925-7.204 6.032-5.666 11.585-14.408 17.328-26.319L395 43.705h-13.785v.003Z" fill="#FFF"/>
    </g>
</svg>
