<svg xmlns="http://www.w3.org/2000/svg" viewBox="0 0 400 120">
    <defs>
        <linearGradient id="a" x1="6.3%" x2="91.1%" y1="102.6%" y2="9.7%">
            <stop offset="0%" stop-color="#6F58A2"/>
            <stop offset="100%" stop-color="#E61F75"/>
        </linearGradient>
    </defs>
    <path d="M143.4 52a28 28 0 0 1 10.7 9.4 29 29 0 0 1 4.6 16.3c0 9.5-3.4 18-9.5 24a38.1 38.1 0 0 1-27.5 10H89.6c-3.1 0-6.2-1.2-8.4-3.4a11.7 11.7 0 0 1-3.4-8.5V14.6c0-7 5-12 11.8-12h27.2c10 0 18.4 3.3 24.4 9.4a31 31 0 0 1 8.6 22c0 7.1-2 13-6.4 18zm-53.8 49h32.2c8.5 0 15.4-2.4 20-6.9 4.1-4 6.3-9.8 6.3-16.4 0-4-.9-7.5-2.7-10.3-4.4-7.7-21.5-12.1-21.5-12.1s15.3-9.5 15.3-21.4c0-5.6-2-10.7-5.5-14.3-5-5.2-12-6.2-17-6.2h-27c-1 0-1.2.2-1.2 1.2v85.2c0 .9.3 1.2 1.2 1.2zM67.8 67.5a32.1 32.1 0 0 1-6.5 35c-3.1 3.1-7 5.5-11.1 7a50.1 50.1 0 0 1-33.7-1A58 58 0 0 1 2.6 101a7.9 7.9 0 0 1-2-2.3C.2 98 0 97.3 0 96.5v-.7c.2-1.4.8-2.6 1.7-3.7L5 87.3c1.2-1.6 2.5-2.6 3.9-2.8h.6c1.5 0 3 .6 4.2 1.4 7.4 5.4 14.6 8 21.6 8 5 0 8.8-1 11.7-3.3 2.8-2.2 4.4-5.5 4.3-9 0-2.1-.6-4.2-1.7-6a16.2 16.2 0 0 0-4.6-4.7 54.2 54.2 0 0 0-6.7-4l-7.9-3.6a170 170 0 0 1-8.2-3.8A56.4 56.4 0 0 1 7.8 49c-2-2.2-3.5-4.8-4.5-7.6a28 28 0 0 1-1.7-10A29 29 0 0 1 6.4 15C9.6 10.2 14 6.4 19.3 4a48.7 48.7 0 0 1 45.9 4.4c2 1.5 3 3.2 3 5.1 0 1.3-.5 2.6-1.1 3.7l-2.8 5c-1.1 2.2-2.7 3.3-4.6 3.3a8 8 0 0 1-4-1.2l-5-2.9a33 33 0 0 0-13.6-3.2c-5 0-8.9 1.1-11.9 3.4-2.8 2-4.5 5.3-4.4 8.8 0 2.7 1 5.3 2.8 7.3 2 2.2 4.4 4 7.1 5.4 3 1.5 6.2 3 9.7 4.4 3.6 1.5 7.1 3.2 10.7 5 3.4 1.7 6.6 3.8 9.7 6.1a26 26 0 0 1 7 9zm113.5-30.2 1.2-1.9c1-1.2 2-1.4 3.4-.5 2.3 1.8 5.2 2.9 8.2 3 3.8 0 6.1-2 6.1-4.7 0-7.7-19-6-19-18.7 0-7.2 6-11.8 13.7-11.8 3.8 0 7.4 1 10.5 3a2.3 2.3 0 0 1 .8 3.3l-1 1.9c-1 1.7-2.1 1.4-3.3.8-2.1-1.4-4.6-2.2-7-2.2-3.9 0-6.3 1.8-6.3 4.6 0 7.6 19 5.6 19 18.6 0 6.6-5 12-13.5 12-4.4 0-8.8-1.5-12.4-4.1a2.1 2.1 0 0 1-.4-3.3zm32.5-30.5V5a2.1 2.1 0 0 1 2.4-2.4h2.5A2.2 2.2 0 0 1 221 5v1.7a2.1 2.1 0 0 1-2.4 2.3h-2.5a2 2 0 0 1-2.4-2.3zm0 10.3a2.1 2.1 0 0 1 2.4-2.4h2.5a2.1 2.1 0 0 1 2.3 2.4v24.4a2.1 2.1 0 0 1-2.3 2.4h-2.5a2.1 2.1 0 0 1-2.4-2.4V17.1zm13.8-.3a2.1 2.1 0 0 1 2.4-2.4h2.2a2.1 2.1 0 0 1 2.3 2.4v3.1c1.8-3.7 5.5-6 9.6-6.2 4.4 0 7.4 2 8.6 6 2-3.6 5.9-6 10-6 6 0 9.6 3.4 9.6 11.1v16.4a2.2 2.2 0 0 1-2.4 2.4h-2.5a2.1 2.1 0 0 1-2.4-2.4v-15c0-3.4-.6-5.9-4-5.9-5 0-7.4 5-7.4 10.2v10.7a2.1 2.1 0 0 1-2.4 2.4h-2.5a2.2 2.2 0 0 1-2.4-2.4v-15c0-3.2-.4-5.9-3.9-5.9-5.1 0-7.5 5.3-7.5 10.2v10.7a2.1 2.1 0 0 1-2.4 2.4H230a2.1 2.1 0 0 1-2.4-2.4V16.8zm52.4 0a2.2 2.2 0 0 1 2.4-2.4h1.9c1.5 0 2.3.8 2.3 2v2.5h.1c2-3.4 5.6-5.3 9.4-5.2 7.9 0 13 6.2 13 15.3 0 9.3-5.7 15.3-13.4 15.3a9.5 9.5 0 0 1-8.4-4.5h-.1l.1 2.5v10.3A2.1 2.1 0 0 1 285 55h-2.5a2.1 2.1 0 0 1-2.4-2.4V16.8zm14.3 21.4c4 0 7.4-3.3 7.4-9.1 0-5.5-3-9.2-7.2-9.2-3.8 0-7.4 2.8-7.4 9.3 0 4.5 2.5 9 7.2 9zM314.5 5a2.1 2.1 0 0 1 2.3-2.3h2.6a2.1 2.1 0 0 1 2.3 2.4v28.6c0 2.8 1.2 3.3 2.3 3.5a1.9 1.9 0 0 1 1.8 2v2a2.2 2.2 0 0 1-2.4 2.4c-4 0-8.9-1-8.9-9.4V5.1zm15.9 43.4c.7.3 1.4.5 2 .5 2.2 0 3.9-1.8 4.7-4l1.1-2.5-11-26c-.8-1.6 0-2.7 1.8-2.7h3.1c1.3-.1 2.5.7 2.8 2l5.5 14.8 1 4 1-3.8 5.2-15a2.5 2.5 0 0 1 2.7-2h2.8c1.8 0 2.6 1 2 2.8l-12 30.8a11 11 0 0 1-14.7 6.8 2 2 0 0 1-1-3.1l.4-1.3a2 2 0 0 1 2.6-1.3zM180.7 71.8a2.1 2.1 0 0 1 2.4-2.4h12.1c7.3 0 12.6 3.7 12.6 10.4 0 3.6-1.8 7-5 8.7v.2c4.5 1.3 6.6 5.4 6.6 9.5 0 8.2-6.5 11.8-14 11.8H183a2.1 2.1 0 0 1-2.4-2.4V71.8zM195.3 86a4.8 4.8 0 0 0 5-5.2 4.7 4.7 0 0 0-5.2-5h-7V86h7.2zm.6 17.7a5.9 5.9 0 0 0 0-11.8H188v11.8h8zm17.9-20.5a2.2 2.2 0 0 1 2.4-2.4h2.5a2.2 2.2 0 0 1 2.4 2.4v15c0 3.5 1 5.9 4.6 5.9 5.2 0 8.1-4.7 8.1-9.9v-11a2.2 2.2 0 0 1 2.4-2.4h2.5a2.2 2.2 0 0 1 2.4 2.4v24.4a2.2 2.2 0 0 1-2.4 2.4h-2.2a2.1 2.1 0 0 1-2.4-2.4V106l.1-1.4c-2 3.8-6 6.2-10.2 6.2-6.2 0-10.1-3.2-10.1-11V83.1zm33.6 21.5.7-1c.9-1.2 1.9-1.4 3.3-.6 2 1.2 4.2 2 6.5 2 2.5 0 4.2-1.1 4.2-3 0-4.7-14.5-3-14.5-13 0-5.7 5-8.7 11.1-8.7 2.9 0 5.7.7 8.2 2a2.2 2.2 0 0 1 .8 3.3l-.6 1c-.6 1.4-1.7 1.6-3.2 1a13 13 0 0 0-5.5-1.4c-2.5 0-4 1-4 2.8 0 4.9 14.6 3 14.6 13 0 5-4.4 9-11 9a17 17 0 0 1-9.8-3 2 2 0 0 1-.7-3.4zm27.1-31.2v-1.7a2.1 2.1 0 0 1 2.3-2.4h2.6a2.2 2.2 0 0 1 2.4 2.4v1.7a2.1 2.1 0 0 1-2.4 2.3h-2.5a2 2 0 0 1-2.4-2.3zm0 10.7a2.1 2.1 0 0 1 2.3-2.4h2.6a2.2 2.2 0 0 1 2.3 2.4v24.4a2.1 2.1 0 0 1-2.3 2.4h-2.5a2.1 2.1 0 0 1-2.4-2.4V84.2zm13.8-.7a2.1 2.1 0 0 1 2.3-2.4h2.3a2.1 2.1 0 0 1 2.3 2.4v3.1c2-4 6-6.3 10.4-6.2 6.4 0 10.2 3.4 10.2 11V108a2.1 2.1 0 0 1-2.4 2.4h-2.5a2.2 2.2 0 0 1-2.4-2.4V93c0-3.5-1-5.9-4.6-5.9-5.1 0-8.4 4.3-8.4 9.6V108a2.1 2.1 0 0 1-2.3 2.4h-2.5a2.1 2.1 0 0 1-2.4-2.4V83.5zm47.9-3.1c8.3 0 13 5.9 13 13.9-.1 1.4-1.2 2.5-2.6 2.5h-17.8a8.4 8.4 0 0 0 8.8 8c2.2 0 4.4-.7 6.3-2 1.3-.6 2.4-.4 3.2.9l.7 1.1a2.2 2.2 0 0 1-.8 3.2c-3 2-6.4 3-10 3a15 15 0 0 1-15.6-15.3c0-9 6-15.3 14.8-15.3zm5.7 12c0-4.2-2.6-6.5-5.9-6.5-3.7 0-6.3 2.5-7 6.5h13zm10.4 12.3.7-1c.8-1.2 1.8-1.4 3.2-.6 2 1.2 4.2 2 6.5 2 2.6 0 4.2-1.1 4.2-3 0-4.7-14.5-3-14.5-13 0-5.7 5-8.7 11.2-8.7 2.8 0 5.6.7 8 2a2.2 2.2 0 0 1 1 3.3l-.6 1c-.7 1.4-1.8 1.5-3.2 1a13 13 0 0 0-5.5-1.5c-2.6 0-4 1-4 2.9 0 4.8 14.5 3 14.5 12.9 0 5.1-4.4 9-11 9a17 17 0 0 1-9.8-3 2 2 0 0 1-.7-3.3zm26.3 0 .6-1c.9-1.2 1.9-1.4 3.3-.6 2 1.2 4.2 2 6.5 2 2.5 0 4-1.1 4-3 0-4.7-14.4-3-14.4-13 0-5.7 5-8.7 11.2-8.7 2.8 0 5.6.7 8 2a2.2 2.2 0 0 1 1 3.3l-.6 1c-.7 1.4-1.8 1.6-3.2 1-1.7-1-3.6-1.4-5.5-1.4-2.6 0-4 1-4 2.8 0 4.9 14.5 3 14.5 13 0 5-4.4 9-11.1 9a17 17 0 0 1-9.8-3 2 2 0 0 1-.5-3.4z" fill="url(#a)" fill-rule="evenodd" transform="translate(0 4)"/>
</svg>
