<svg xmlns="http://www.w3.org/2000/svg" viewBox="0 0 400 400">
  <path fill="#d23464" d="M211 171.1a79.8 79.8 0 0 1 26.7 26l.6.9c0 .6-.4.9-.7 1.2-1 .9-1.9 1.8-2.7 2.9-.4.7-1.1 1.2-1.7 1.8l-1.8 2-.7.8-3.4 3.6-2.2 2.2c-1.4 1.6-2.8 3.2-4.3 4.6l-.6.4c-.4 0-.5-.4-.6-.7a55.5 55.5 0 0 0-9.3-13.3 37.7 37.7 0 0 0-7-5.7 31.5 31.5 0 0 0-26.6-3.3c-5.9 2-11 5-15.4 9.4l-2.9 2.8-.5.5a68 68 0 0 0-13.8 23.4 53 53 0 0 0-2.7 13.6 42 42 0 0 0 10.2 30.3 39.4 39.4 0 0 0 17 10.6c3.9 1.3 8 2.1 12 2.5a46 46 0 0 0 20.9-2.8 36.2 36.2 0 0 0 19.2-17.1c1-1.8 1.8-3.7 2.7-5.6.2-.6.5-1.2.3-2-.9-.4-1.8-.4-2.7-.5l-18-2.4-17.5-2.1-4.2-.7-.2-.8.5-4.6 1.7-14.2c.2-1 .2-2 .6-3l.6-.1 65.8 8.2 1 .3c.2.9.4 1.8.3 2.7v6.6a72 72 0 0 1-5.5 28.4 61 61 0 0 1-35.4 33.8 70 70 0 0 1-25.5 4.4 97.8 97.8 0 0 1-25.6-3.8 64.9 64.9 0 0 1-22.4-11.6c-2-1.6-3.8-3.6-5.6-5.5a53.6 53.6 0 0 1-8.9-13 71.8 71.8 0 0 1-7.5-27.7l-.2-3V249c.1-.6.3-1.2 0-1.8v-.3c.5-1.8.5-3.7.7-5.5a99.4 99.4 0 0 1 24.5-53.3 99.7 99.7 0 0 1 21.1-16.8c5.3-3 10.8-5.3 16.7-6.5a41.2 41.2 0 0 1 17.8.3 54.9 54.9 0 0 1 15.2 6Zm23.4-134.4a43.5 43.5 0 0 1 25.2-7.7A74.6 74.6 0 0 1 291 39.2l6.5 4.4.8.7c.5.3.6.7.5 1.3 0 .4-.2 1-.4 1.4l-2.6 5.9-5.9 13.5c-.2.6-.4 1.2-.8 1.7-.5 0-.6-.3-.9-.5-4-4-8.6-7.2-13.8-9.6-3.4-1.5-7-2.6-10.8-2.8-3.2-.3-6.3.2-9.4 1.3-3 1-5.6 2.5-8.2 4.4a38 38 0 0 0-9.8 11.4 51.5 51.5 0 0 0-6.4 18.1c-.4 2.2-.8 4.4-.6 6.7v.4a9.1 9.1 0 0 0 0 4.4v.3c-.2 4 .7 7.8 1.8 11.6 1.3 4.6 3.4 8.8 6.3 12.6l1.4 1.6a132 132 0 0 0 3.8 3.7 32.6 32.6 0 0 0 20.3 7.2 41.8 41.8 0 0 0 20.2-4 41 41 0 0 0 12.6-9.2 31.3 31.3 0 0 0 8.2-17c.2-1.8.2-3.5.2-5.2v-.7c-.6-.3-1-.2-1.5 0l-6.3 1.3-21 4.6-7.2 1.6-.5.1c-1 .2-1.3 0-1.6-1l-.8-3.4-3.2-14.7-.2-1.8 1.3-.4 18.3-4.1c8.6-2 17.2-3.8 25.9-5.7l13.4-3h.6c.8-.2 1.2 0 1.5.8l2.2 5.6a71.5 71.5 0 0 1 4.2 22.2 57.1 57.1 0 0 1-13.6 39c-1.4 1.4-2.6 3-4.1 4.3a69.7 69.7 0 0 1-37.2 16.9 71.7 71.7 0 0 1-15 .8 55 55 0 0 1-32-12.7c-1.3-1-2.7-2-3.8-3.3a68.1 68.1 0 0 1-18.2-42.9 62 62 0 0 1 0-8.3v-2.3a84.9 84.9 0 0 1 25.1-56.6c1.2-1.2 2.6-2 4-3.1Zm81.9 243.9a44.3 44.3 0 0 0 13.2 1c1-.2 2.1-.2 3.2-.3a40 40 0 0 0 18.8-8 32.7 32.7 0 0 0 12.9-23.3l-.1-.4c-.7-.2-1.4 0-2.2 0l-16.1 1.8-14.7 1.6-3.8.4c-.5 0-1 0-1.5-.2-.3-.6-.3-1.3-.4-2a277 277 0 0 1-.6-5.6l-1.1-11.1V232c.2-.1.5-.3.8-.3l8.4-1 9.6-1 9.4-1 9.4-1 8.8-1 10.6-1.1 3.6-.3c.6 0 1 .1 1.1.7l.9 3.1 2 9.2.4 3.4.2 1.4.1.9v10.2c0 1-.2 1.8-.3 2.8a57.8 57.8 0 0 1-14.9 32.3 57 57 0 0 1-10.7 8.6 65.5 65.5 0 0 1-21.2 8.6l-7.5 1.2c-3.3.5-6.6.5-10 .6l-6.5-.2c-2 0-4.1-.4-6.1-.7a47.2 47.2 0 0 1-23.6-10.3l-2.2-1.7-1.7-1.6-.7-.8a59.7 59.7 0 0 1-16-29.8 75 75 0 0 1-2-13.3v-7a86 86 0 0 1 19.8-52c1.6-1.8 3.2-3.8 5-5.6 1.9-2 4.2-3.7 6.4-5.4a42.5 42.5 0 0 1 20.6-8.4c2.3-.3 4.5-.2 6.8-.2 1.6 0 3.3.4 4.9.6a63 63 0 0 1 23.3 9.2 86 86 0 0 1 11.2 8.7l2 2-.2.5-12.1 21.2c-.5.1-.6-.2-.8-.4l-2.8-3a48.5 48.5 0 0 0-11.4-8.7 31.8 31.8 0 0 0-10.2-3.4l-2.2-.1h-1.3c-5.2-.2-9.9 1.4-14.2 4.1a47.9 47.9 0 0 0-11 11 57.4 57.4 0 0 0-9 22.3l-.7 5.6v2.4c0 .6-.2 1.3 0 2l.1 2.3a36 36 0 0 0 8.7 22.6 30 30 0 0 0 11.6 8.4c2 .8 3.9 1.4 6 2ZM63.2 74l6.1-52 .2-.2c.5-.2 1-.2 1.6 0l12 1.3 17.7 2.1c3.6.4 7.2.9 10.7 1.7a38.4 38.4 0 0 1 17.3 9.1 34.5 34.5 0 0 1 11.5 25 30 30 0 0 1-5.4 17.5c-.7 1-1.6 2-2.3 3.2-.3.5-1 .9-1.5 1.3l-2 1.8c.1.6.6.7 1 .9a32.3 32.3 0 0 1 16.2 16.2 39.4 39.4 0 0 1-7.2 42.6c-4.2 4.6-9.3 8-15 10.3a35 35 0 0 1-9 2.2c-3.2.3-6.4.2-9.6.2l-3.4-.3c-1.3 0-2.5-.2-3.7-.3l-3.5-.4-8.6-1c-3.6-.5-7.2-1-10.9-1.3l-8.7-1-8.9-1.1-3.1-.4c-.4-.4-.3-.9-.3-1.3l.5-5.1.8-6.4 1-8.9 1-8.7 1-9 .8-6.2 1-8.8 1-9 1-8.5.7-5.4M84 103.6l-.8 7-1.1 9.4-1 8.7v1.3c.7.6 1.5.6 2.3.7l6 .7 13.9 1.6c1.6.1 3.3.2 5 .1a18.4 18.4 0 0 0 17-12.7c1.6-5.8.3-11-4-15.2a20 20 0 0 0-9.4-5.3c-3.3-.8-6.6-1-9.9-1.4l-6.4-.8-8.3-1H85l-.8 6.9m29.7-49c-2.1-2.4-4.7-4-7.8-4.6l-6.1-1-7.7-.9h-1.4a6 6 0 0 0-.5 1.8L89 62.5 87.7 73c0 .5-.1 1.1.1 1.7l1.5.3 6 .7 5.3.4c1.6.1 3.3.3 4.8 0 4.8-.7 8.4-3.2 10.4-7.6 1.3-2.8 1.5-5.7.7-8.6-.5-1.9-1.4-3.5-2.7-5.2ZM62.4 197l-10 1.1-6.5.7-8.1 1h-.4c-.3.5-.2 1-.1 1.5l1.7 16 1.1 9.2.1.6c.3 0 .7.2 1 .1l4.5-.3 10.4-1.1 9.4-1 6.6-.8 4.2-.5 5.8-.6 5.4-.6h2.7c.1.3.3.6.3 1a1136.1 1136.1 0 0 1 2.4 21.5c0 1.1-.3 1.4-1.4 1.5l-6.2.6-7.2.8-6.5.7-6.9.7-6.5.7-9.8 1.1-3.6.4-1.6.3c-.3.7-.1 1.4 0 2a2874.8 2874.8 0 0 0 2.9 26l.3 1.9H49l6.9-.9 10-1 9-1 6.3-.8 3.2-.3 9.5-1 6.8-.7 3.1-.2c.4.6.4 1.3.5 2a1727.9 1727.9 0 0 1 2.3 20c0 .5.2 1 0 1.7l-2 .4-11.3 1.2-9.1 1-9 1-9.5 1c-3 .4-6 .8-9 1l-9.5 1.1-6.7.8-9.4 1-4.3.4H25l-.2-.8a2564.3 2564.3 0 0 1-2.6-21.7l-1-9-1-9-1-9.3-1-8.7-1-9.2-1.1-9.6-1-8.9-1-8.8-1-9.2c-.4-3-.8-6-1-9l-1.1-9.4-.8-6.4c.2-.5.7-.5 1-.6l5.8-.6 9.4-1.1 9.1-1 9-1 6.8-.7L61 173l6.2-.7 9.7-1 6-.7 7-.8 2.1-.1.3.8 1 8.5 1 9 .3 4.4v.8l-.8.2-7.1.9-10 1-9 1-5.3.6Zm102.9-53.3c-.4-4.4-.2-8.6-.2-12.9v-16.2l-.1-9.6c-.2-7-.2-14-.2-21V73.7l-.1-9.5c-.2-6.1-.2-12.2-.2-18.3v-9.3l-.1-7.6-.2-5.5v-.7c.5-.5 1-.4 1.5-.4h17.7l5.3-.2c.4 0 .7.2.7.7v4.2l.1 8.2.2 10.6v11.4l.1 12.7.1 14.4.1 6V99l.1 23.5.1 16.1v6.9l-1 .2-5.3.1-4.2.2h-14.2c-.2-.7-.3-1.4-.2-2.3Z"/>
  <path fill="#d03463" d="m189.6 377.8 1.4-8.4a13373.5 13373.5 0 0 1 4-23.7c.1-.9.3-1 1.3-1h5.7a5 5 0 0 1 1.7.2l3.2 8.7c1 2.8 2 5.7 3.2 8.4.5 0 .5-.3.6-.5l1.9-5 3.8-10.4.5-1.2 1.4-.2h7a10096 10096 0 0 1 4.3 24.4l1.3 8.6v.8l-.6.2c-2.5 0-5 .2-7.5-.1l-.3-.8-1.4-9.2-1.2-8.2-.3-.6c-.9 1.2-1.2 2.5-1.7 3.8l-1.5 3.6-1.6 3.8-1.4 3.7-1.6 3.8c-1 .4-2 .1-2.9.3-.7-.5-1-1.3-1.2-2l-3-8-3-7.9c-.2-.4-.2-.9-.8-1.1-1.2 6.2-1.9 12.5-3 18.6-.5.3-1 .3-1.5.3a1129.8 1129.8 0 0 1-6.4 0c-.5-.1-.5-.5-.4-1Zm67.1-27.8c-.5 1-.9 2-1.5 2.8-.3 0-.6 0-.9-.2l-2.4-1c-.8-.4-1.8-.5-2.7-.5a4 4 0 0 0-2 .6c-1.5.8-1.9 3.2-.2 4.3l1.6.8 2.7 1c1.4.5 2.8 1 4 1.8 2 1.2 3.4 2.9 4 5.2.2.4.2 1 .3 1.4 0 .6 0 1.2.3 1.7v.3c-.4.9-.3 1.9-.5 2.8l-1.4 3.6a6.8 6.8 0 0 1-2.4 2.6c-2.8 2-6 2.7-9.3 2.5-3.7-.3-7-1.7-10.3-3.5-.2 0-.3-.2-.4-.3.3-1.1 2.4-5.4 3-6.1l.6-.5c.9.2 1.5.7 2.1 1 1.5 1 3.1 1.5 4.8 1.8a5 5 0 0 0 3.1-.6 3.2 3.2 0 0 0 1.4-3.7c-.1-.5-.5-1-1-1.2-.7-.4-1.5-.9-2.3-1.2l-5.3-2.2c-1-.5-1.9-1-2.7-1.7a6.2 6.2 0 0 1-2.3-4.4c-.1-1.8 0-3.4.2-5.1.7-3.7 2.8-6 6.2-7.4 1.5-.6 3-.8 4.7-.8 3.5-.1 6.7 1 9.8 2.3l.5.4c-.4 1.2-1 2.3-1.7 3.5Z"/>
  <path fill="#d13464" d="m131.5 370.3-.1 5.1-.1 3.1c-2.7.5-5.4 0-8 .4l-.3-.9v-33l.3-.2h18.3c.4.8.2 1.6.2 2.4v4.6c-.4.5-.8.4-1.2.4h-8.9c-.3 1.1-.4 4.2 0 5.5 3 .3 5.9-.1 9 .2.2.8 0 1.6 0 2.4v2.5c0 .7.2 1.5 0 2.3-3 .5-6 0-9 .4-.4 1.6-.2 3.1-.2 4.8Z"/>
  <path fill="#d23464" d="M177.5 378.7h-11.8l-.1-1v-.2l-.1-19.7v-12l.2-1c.8-.4 1.7-.2 2.6-.2h5.3c.4.5.3 1 .3 1.4v24.8c.4.5.9.4 1.3.4h9c.5 1.3 0 2.5 0 3.7v3.6l-.4.1-6.3.1Z"/>
  <path fill="#cf3463" d="M149 364.2v-18.1l.1-1.4c1-.2 2 0 2.8-.1h5.4c0 .3.2.4.2.5l-.1 33-.2.4c-1.5.3-6.5.3-8 0l-.2-1v-13.3Z"/>
</svg>