<svg xmlns="http://www.w3.org/2000/svg" viewBox="0 0 300 90">
  <path fill="#fff" d="M246.4 66.6a11.7 11.7 0 0 0 0 16.2 11.5 11.5 0 0 0 16.3 0 11.5 11.5 0 0 0 0-16.2 9.5 9.5 0 0 1 0-13.4 11.7 11.7 0 0 0 0-16.4 11.5 11.5 0 0 0-16.3 0 9.6 9.6 0 0 1-13.4 0 9.5 9.5 0 0 1 0-13.4 11.5 11.5 0 1 0-16.3 0 9.6 9.6 0 0 1 0 13.4 11.7 11.7 0 0 0 0 16.4 11.5 11.5 0 0 0 16.3 0 9.5 9.5 0 1 1 13.4 13.4Zm16.3-43.1a11.5 11.5 0 1 0-16.3-16.3 11.5 11.5 0 0 0 16.3 16.3Zm29.7 29.7A11.5 11.5 0 1 0 276 36.8a11.5 11.5 0 0 0 16.3 16.4ZM27.5 28.5v5.1l-9 8c5.8 0 10.2 3.7 10.2 9.7 0 5.3-4 11-12.2 11-4.3 0-7.9-1.1-12.5-4.3l3-4.4c3.7 2.3 6.3 3.3 9.3 3.3 3.9 0 6.2-2.2 6.2-5.5 0-3.4-2.6-5.3-6.5-5.3-2 0-3.2.3-3.9.6l-2.7-3.8L20 33.7H5.7v-5.2Zm3.6 5.2H48a64 64 0 0 0-12.2 27.8h7a61.3 61.3 0 0 1 12.4-28.3v-4.7h-24Zm23.5 10.7c0-4 3.5-7.4 9.9-7.4 4 0 6.8.9 10.2 3.7l-3.3 4c-2.8-2.3-4.6-2.9-7-2.9-2.5 0-4 1-4 2.4 0 1.5 1.4 1.8 5 2.6l.5.1c6.5 1.4 9.2 3.2 9.2 7.6 0 4.5-3.8 7.7-10.2 7.7-4.4 0-7.6-1-11.5-4.5l3.5-3.9c3.5 2.8 5.3 3.5 8.1 3.5 2.4 0 4.2-.8 4.2-2.5 0-1.8-2.1-2.2-5.1-2.9l-.8-.1c-6.7-1.5-8.7-3.2-8.7-7.4Zm30.7-13c0 2-1.6 3.5-3.6 3.5S78 33.3 78 31.4c0-2 1.6-3.5 3.6-3.5s3.6 1.5 3.6 3.5Zm-6.6 30V37.9h6v23.7Zm27.5-21c-1.5-2.1-3.8-3.4-7.3-3.4-6 0-10.4 4.8-10.4 12 0 7 4.4 12 10.4 12 3.2 0 5.5-1.2 7-3.1v2c0 4-2.6 5.7-5.9 5.7-2.7 0-4.9-.9-8.2-2.9l-3 4.4a20 20 0 0 0 11.3 3.5c6.6 0 11.6-3.5 11.6-10.3V37.8h-5.5Zm-6 15.4c-3.4 0-5.6-2.8-5.6-6.9 0-4 2.2-6.8 5.7-6.8 3.3 0 5.7 2.8 5.7 6.8 0 4.1-2.4 7-5.7 7ZM129.5 37a8.3 8.3 0 0 0-7.1 3.4v-2.6h-5.6v23.7h6V47.2c0-3 2-5 4.8-5 2.9 0 4.4 1.7 4.4 4.8v14.5h6V45.2c0-4.8-3-8.2-8.5-8.2Zm23.9 0c-4.7 0-8.1 1.8-11.1 5.3l3.8 3.5c2.5-2.4 4.1-3.9 7.4-3.9 2.7 0 4.4 1.3 4.4 3.7v.5l-5.5 1c-5.4 1-10.3 3-10.3 8.4 0 4.8 4 6.8 8.5 6.8 3.7 0 6.2-1.3 7.7-3.3v2.5h5.4v-16c0-5-3.5-8.5-10.3-8.5Zm-1.8 20.4c-2.3 0-3.6-.8-3.6-2.3 0-2.3 2.4-3 6-3.8l4-.9v1.4c0 4.2-3.3 5.6-6.4 5.6Zm17.1-28.9v33h6v-33ZM179 44.4c0-4 3.5-7.4 9.9-7.4 4 0 6.9.9 10.2 3.7l-3.2 4c-3-2.3-4.7-2.9-7.1-2.9-2.5 0-4 1-4 2.4 0 1.5 1.4 1.8 5 2.6l.5.1c6.5 1.4 9.2 3.2 9.2 7.6 0 4.5-3.7 7.7-10.2 7.7-4.3 0-7.6-1-11.4-4.5l3.4-3.9c3.5 2.8 5.4 3.5 8.2 3.5 2.3 0 4-.8 4-2.5 0-1.8-2-2.2-5-2.9l-.8-.1c-6.6-1.5-8.7-3.2-8.7-7.4Z"/>
</svg>
