<svg xmlns="http://www.w3.org/2000/svg" viewBox="0 0 400 120">
  <path fill="#0071eb" d="M71.9.7 59.5 67a118 118 0 0 0-3 24.3H39.9l1.2-10a23.2 23.2 0 0 1-20 11.2C10.3 92.4 1.4 84 1.4 68.7c0-21.3 15.4-41.4 39-41.4 2.4 0 6 .6 8.3 1.2L54.1.7H72Zm-26 42.6a11.2 11.2 0 0 0-7.1-2.4c-10.7 0-19 12.4-19 24.9 0 7.6 3.6 11.8 8.9 11.8 5.3 0 11.8-5.3 14.2-17.2l3-17.1ZM115 87.6c-7 3.6-16 4.8-23 4.8-17.8 0-27.2-10-27.2-26 0-19 13.6-38.5 36-38.5 12.5 0 21.3 7.1 21.3 18.3 0 16-15.3 21.3-40.2 20.7 0 1.8.6 4.8 1.8 6.5 2.4 3 6.5 4.8 11.8 4.8 6.5 0 12.4-1.8 17.2-4.2l2.3 13.6ZM98.5 41c-8.3 0-13.6 7.1-14.8 13 14.2 0 21.3-1.7 21.3-7.7.6-3-2.4-5.3-6.5-5.3Zm20.7 50.3 7.7-42c1.7-7.7 2.3-14.8 3.5-20.1h16l-1.2 10a26 26 0 0 1 21.9-11.8c10 0 16 6.5 16 17.2 0 3-.6 7.7-1.2 10.6l-7.1 36h-18.4L163 57c.6-2.4.6-4.7.6-7.1 0-4.1-1.7-7.1-5.9-7.1-5.9 0-13 7.7-15.4 21.3L137 91.8l-17.7-.6Zm98.7-79.8-3.5 17.1h13l-1.8 14.2h-13L208 64c-.6 2.4-1.2 5.9-1.2 7.7 0 3 1.2 5.3 5.3 5.3h5.4L215 91.2c-2.4 1.2-7.1 1.2-10.7 1.2-10.6 0-16-5.3-16-13.6 0-3.6.7-7.1 1.3-11.9l4.7-24.8h-7.7l2.4-13.6h8.2l2.4-13 18.3-4.1Zm42 79.8c0-3.6.6-7.7 1.2-12.4h-.6c-5.9 10-13.6 13.6-20.7 13.6-11.2 0-18.9-8.9-18.9-21.3a41.8 41.8 0 0 1 44.4-43.2c7 0 15.3 1.2 20.7 3l-6.6 32.5c-1.7 8.3-3 20.1-2.3 27.8h-17.2Zm5.4-49c-1.2 0-3-.7-4.8-.7-11.8 0-20.7 14.2-20.7 26 0 6 2.4 10 7.7 10 5.3 0 12.4-6.4 14.8-21.2l3-14.2Zm16.5 49L299 1.3h18.3l-17.2 89.9h-18.3Zm26.6 0 17.2-89.9h18.3l-17.1 89.9h-18.4ZM358.1 29l3.6 27.2a81.7 81.7 0 0 1 1.7 14.8c1.2-3.6 3-7.7 5.3-14.2L380 29.7h19.5L377 74a122 122 0 0 1-23.6 35.5 39 39 0 0 1-20.1 10.7l-4.2-15.4c3-1.2 7.1-2.4 10.7-4.7 4.1-3 7.7-6.5 10-10.7.6-1.2.6-1.8.6-3L338 30.4l20.1-1.2Z"/>
</svg>