<svg xmlns="http://www.w3.org/2000/svg" viewBox="0 0 300 90">
  <path fill="#fa5d00" d="M297 37.8h-9.5V28h-7.2v9.8h-.4c-3 0-5.2 2-5.2 5v1.5h5.6V64c0 6.1 3.5 9.5 9.8 9.5h6.9V67h-5.9c-2.3 0-3.6-1.3-3.6-3.6V44.3h3.7c2.2 0 3.5-.6 4.5-1.6a5 5 0 0 0 1.3-3.5ZM256.4 52c-2.8-.1-4.4-1.7-4.4-4 0-3 2.7-4.8 7-4.8 3.9 0 6.7 1.9 7.1 4.7h7.1c-.4-6.6-6-11-14.1-11-8.5 0-14 4.5-14 11.4 0 6.1 3.8 9.8 10.5 10.2l7 .4c3.1.2 4.7 1.7 4.7 4.2 0 3-2.8 5-7.5 5-4.5 0-7.8-2.2-8.3-5.3h-7.1c.5 7 6.6 11.6 15.6 11.6 8.7 0 14.2-4.6 14.2-11.6 0-6.2-3.9-10-10.9-10.3ZM216.5 53.7c-.8.8-1.3 1.9-1.5 3v-1c0-7.4 4.2-12.4 10.2-12.4 4.9 0 8.3 3.3 9.3 8.7h-13c-2.5 0-4 .6-5 1.7m25.4 2.4c0-11.4-5.8-19.2-16.7-19.2-10.3 0-17.3 7.6-17.3 18.8 0 10.8 6.9 18.7 17.8 18.7 8.3 0 14.5-4.6 15.7-11.6h-7c-1 3.2-4.6 5.2-8.7 5.2-6.3 0-9.8-4.2-10.5-10h26.7ZM192 66l-9.3-28.2h-7.8l12.5 35.7h9l12.4-35.7h-7.4L192 66ZM166 37.8c-3 0-4.3.5-5.2 1.3-1.2 1.1-2 2.6-2.3 4.1v-5.4h-7.1v35.7h7.2V44.8h7.8c3.2 0 4.6-.7 5.6-1.8.9-1 1.3-2.2 1.3-3.4v-1.8ZM129 68.3c-4 0-6.5-2-6.5-5.3 0-3.2 2.4-5.3 6.4-5.3h9.6V63a10.8 10.8 0 0 1-9.4 5.3m2.4-31.4c-9 0-15 5-15.3 12.6h7.1c.4-3.8 3.6-6.2 7.9-6.2 4.4 0 7.3 2.7 7.3 6.9v6.3c-1.2-2.8-5-4.6-9.7-4.6-8.1 0-13.4 4.5-13.4 11.6 0 6.3 4.3 10.7 11.7 10.7 5.4 0 9.5-2.2 11.4-6.6v6h7V49.3c0-7.6-5.5-12.5-14-12.5M99 37c-5.6 0-9.7 2.4-11.4 6.7V24h-7.2v49.5h7.2V45.3c2.8-1.1 5.4-1.6 7.8-1.6 5.6 0 8.5 2.4 8.5 7.3v22.5h7.2V49.3c0-8-4.5-12.4-12-12.4M28 52v21.5h-3.6V41.3a3.6 3.6 0 0 1 3.6-3.6h10.7v10.8a3.6 3.6 0 0 1-3.5 3.6ZM60.3 16.2v53.7c0 2-1.7 3.6-3.7 3.6h-3.5V19.7a3.5 3.5 0 0 1 3.5-3.5ZM46 16.2h3.5v53.7c0 2-1.6 3.6-3.6 3.6h-3.6V34.1a3.6 3.6 0 0 1 3.6-3.6ZM17.2 73.5h-3.5V19.7a3.5 3.5 0 0 1 3.5-3.5h3.6v39.4c0 2-1.6 3.6-3.6 3.6ZM2.9 73.5V19.7a3.6 3.6 0 0 1 3.6-3.5h3.6v53.7a3.6 3.6 0 0 1-3.6 3.6Z"/>
</svg>
