<svg xmlns="http://www.w3.org/2000/svg" viewBox="0 0 400 120">
  <path fill="#fff" fill-rule="evenodd" d="M27.9 43.6H-.7v27.7h28.6ZM57.4 66.2a8 8 0 0 0 .3 2.8c.2.3.8.5 1.6.5l1.8.1v1.1l-5.4-.1-5.6.1v-1l2-.2c.7 0 1.2-.2 1.4-.5.3-.4.3-1.4.3-2.8v-8.4H38.9v8.4c0 1.4.1 2.4.4 2.8.2.3.7.5 1.5.5l1.9.1v1.1l-5.4-.1-5.5.1v-1l1.7-.2c.9 0 1.4-.2 1.6-.5.2-.4.3-1.4.3-2.8V49.4a8 8 0 0 0-.3-2.8c-.2-.3-.7-.6-1.6-.6h-1.7v-1.1h10.9v1l-1.9.2c-.8 0-1.3.2-1.5.5-.3.4-.4 1.4-.4 2.8v6.7h15v-6.7c0-1.4 0-2.4-.4-2.8-.2-.3-.6-.5-1.5-.5l-1.8-.2v-1H61v1l-1.8.2c-.8 0-1.4.2-1.6.5a8 8 0 0 0-.3 2.8Zm7.7-12.6c0-1 0-1.8-.2-2.2-.2-.3-.6-.4-1.4-.4h-1.4v-1H78c-.3 1.5-.4 3-.4 4.6h-1v-2c0-.3 0-.6-.3-.7-1.6-.7-4-.7-5.8-.7-.9 0-1.8 0-2.6.2v8l3.4.2c1.9 0 3-.2 3.3-.3l.2-.8.1-1.6h1l-.1 3.4v3.4H75V62c0-.3-.1-.6-.3-.8-.3-.3-1.4-.4-3.3-.4H68v8.4a24.4 24.4 0 0 0 8.5-.1c.6-.2.9-1.5 1.1-3.4h1a24 24 0 0 0-.5 4.9c-1.9.1-3.9.2-5.8.1l-6.5-.1-3.2.1v-.9h1c.8 0 1.2-.2 1.4-.5.2-.3.2-1 .2-2.3V53.6Zm17.6 0c0-1 0-1.8-.2-2.2-.2-.3-.6-.4-1.3-.4h-1.3v-1H85l14.2 17.6h.2v-14c0-1-.2-1.8-.4-2.2 0-.3-.5-.4-1.2-.4h-1.4v-1h7.2v1h-1.4c-.7 0-1.1.1-1.2.4-.3.4-.3 1.1-.3 2.2v17.6l-2.7-.4-14-17.5V67c0 1.2 0 2 .2 2.3.2.3.5.4 1.3.4l1.3.1v1l-3.6-.2-3.4.1v-.9h1.3c.7 0 1-.2 1.3-.5.2-.3.2-1 .2-2.3ZM110.3 67c0 1.2 0 2 .2 2.3.2.3.5.4 1.3.4l1.4.1v1l-4.3-.2-4.5.1v-.9h1.5c.7 0 1-.2 1.2-.5.2-.3.4-1 .4-2.3V53.6c0-1-.1-1.8-.3-2.2-.2-.3-.6-.4-1.2-.4h-1.3v-1h10.2c5 0 6.1 2.3 6.1 4.5 0 3.2-3 5.2-5.8 5.7l6.8 8.9c.4.5 1 .6 1.8.7v1l-2.2-.2-2 .1c-.3-.5-.9-1-1.2-1.6l-5.5-7.4-1.5-1.8v-.3c1 0 1.9 0 2.7-.2 2.1-.4 4-2 4-4.2 0-3.2-2.5-4-4.8-4-1-.1-2 0-3 .2V67Zm22.3-6.6 3-4.8c1.3-1.9 2.3-3.7 3.4-5.7h2.3v.5A54 54 0 0 0 134 61c-.5.7-.5 1.5-.5 2.3V67c0 1.2 0 2 .2 2.3.3.3.6.4 1.4.4l1.4.1v1l-4.4-.2-4.4.1v-.9h1.5c.7 0 1-.2 1.2-.5.2-.3.3-1 .3-2.3v-4.2c0-.4 0-.8-.3-1.2l-3.7-6.5c-1.5-2.6-3.1-3.7-3.8-3.7l-.8-.2v-.8l3.3-.8c.7-.1 1 .6 1.6 1.1l1.4 2Zm30.2-9.4-.3-2.1c0-1-.2-1.4-1.6-2.2-1.3-.7-2.7-1-4.1-1a5.4 5.4 0 0 0-5.5 5.5c0 2.5 1.5 4.1 6.1 4.6 5.4.6 8.7 2 8.7 6.1 0 6.4-5.7 9.4-11.4 9.4-2.2 0-4.3-.4-6.3-1.3l.3-5.8h1.2l.3 2.6c.1 1.5 3.1 3 6 3 3.4 0 6.8-2.1 6.8-5.8 0-3.6-2.9-4.6-6.6-5-5.9-.6-8.2-2.5-8.2-6.4 0-5.8 5-8.4 9.6-8.4 3 0 5.2 1 6.7 1.5-.3 1.8-.5 3.5-.6 5.3Zm22.8 18.6a14 14 0 0 1-6.5 1.7c-7.2 0-12-4.2-12-10.9 0-3 1.3-6 3.7-8 2.4-2 5.5-3 8.6-2.9 2.3 0 4.6.4 6.8 1.2-.2 1.4-.6 3-.6 4.5h-.8v-2.1c0-.9-1.3-1.3-2.6-1.9-1.1-.3-2.2-.5-3.4-.5-5.6 0-8.5 4.1-8.5 9.2 0 6 3.9 9.7 9.7 9.7 2.2 0 4.8-.7 6-1.7l.4.2Zm22.9-2.6c0 1.2 0 2 .2 2.3.2.3.6.4 1.3.4l1.4.1v1l-4.3-.2-4.4.1v-.9h1.4c.7 0 1-.2 1.3-.5.2-.3.2-1 .2-2.3v-6.6h-11.9V67c0 1.2 0 2 .3 2.3.1.3.4.4 1.2.4l1.4.1v1l-4.3-.2-4.5.1v-.9h1.5c.7 0 1.1-.2 1.2-.5.3-.3.4-1 .4-2.3V53.6c0-1-.1-1.8-.3-2.2-.2-.3-.6-.4-1.2-.4h-1.5v-1h8.7v1h-1.4c-.7 0-1 .1-1.2.4-.2.4-.3 1.1-.3 2.2V59h11.9v-5.4c0-1 0-1.8-.2-2.2-.3-.3-.6-.4-1.3-.4h-1.4v-1h8.7v1H210c-.7 0-1 .1-1.3.4-.2.4-.2 1.1-.2 2.2V67Zm6.8-13.4c0-1 0-1.8-.2-2.2-.2-.3-.5-.4-1.3-.4h-1.4v-1H228.3c-.3 1.5-.5 3-.4 4.6h-1.1v-2c0-.3 0-.6-.2-.7-1.7-.7-4-.7-5.9-.7-.8 0-1.7 0-2.6.2v8l3.5.2c1.8 0 2.9-.2 3.2-.3.2-.3.3-.5.2-.8l.2-1.6h.8v6.8h-.8l-.1-1.8c0-.2 0-.5-.3-.7a32.7 32.7 0 0 0-6.7-.3v8.3l2.6.3c2.4 0 5.4-.1 6-.4.4-.2.9-1.5 1-3.4h1.1a24 24 0 0 0-.5 4.9c-2 .1-4 .2-5.9.1l-6.5-.1-3.2.1v-.9h1c.9 0 1.2-.2 1.4-.5.2-.3.2-1 .2-2.3ZM236.1 67c0 1.2 0 2 .2 2.3.2.3.5.4 1.3.4l1.4.1v1l-4.3-.2-4.5.1v-.9h1.4c.8 0 1.1-.2 1.4-.5.2-.3.2-1 .2-2.3V53.6c0-1 0-1.8-.2-2.2-.3-.3-.6-.4-1.4-.4h-1.4v-1h8.8v1h-1.4c-.8 0-1 .1-1.3.4-.2.4-.2 1.1-.2 2.2Zm6.6-13.4c0-1-.1-1.8-.3-2.2-.2-.3-.6-.4-1.2-.4h-1.4v-1a53.8 53.8 0 0 0 5.1 0l14.3 17.6h.1v-14c0-1 0-1.8-.2-2.2-.2-.3-.5-.4-1.3-.4h-1.3v-1h7v1h-1.3c-.7 0-1 .1-1.3.4-.2.4-.2 1.1-.2 2.2v16.6l.1 1-2.7-.4-14-17.5V67c0 1.2 0 2 .2 2.3.1.3.6.4 1.2.4l1.4.1v1l-3.6-.2-3.5.1v-.9h1.4c.7 0 1-.2 1.2-.5.2-.3.3-1 .3-2.3V53.6Zm27.6-4c2.7 0 5 2 5 4.7a4.8 4.8 0 0 1-5 4.7 4.7 4.7 0 0 1 0-9.4Zm0-.6a5.4 5.4 0 0 0 0 10.7 5.5 5.5 0 0 0 5.6-5.4c0-3-2.5-5.3-5.5-5.3ZM268 51v.3h.3c.2 0 .4 0 .4.5v4.5c0 .4 0 .4-.4.4h-.2v.2h2.3v-.2h-.4c-.4 0-.4-.2-.4-.5v-2h.2c.3 0 .8 0 1 .3.3.3.5.7.6 1.2.2.3.3 1 .7 1.2.2.2.5 0 .9 0h.4v-.2c-.3 0-.4 0-.7-.2l-.4-.8c-.2-.6-.7-1.5-1.3-1.5.9-.2 1.6-.7 1.6-1.7 0-1.3-1.3-1.5-2.2-1.5h-2.4Zm1.6 1c0-.3-.1-.7.4-.7h.4c.8 0 1.5.5 1.5 1.4 0 1-1 1.3-1.8 1.3h-.5Z"/>
  <path fill="#e92e29" fill-rule="evenodd" d="M27.3 46.3v-2H0v20.8c3.9 0 8-2.5 12.2-9 4-6.6 10.3-9.8 15.1-9.8Z"/>
  <path fill="#007cc1" fill-rule="evenodd" d="M0 68.9v1.9h27.3V50c-3.8 0-8 2.5-12 9.1C11 65.6 4.8 69-.2 69Z"/>
  <path fill="#fff" d="M251.6 74.4a28.8 28.8 0 0 0 45.5 6.3 28.9 28.9 0 0 0 8.7-20.4A29 29 0 0 0 295.4 38a28.8 28.8 0 0 0-43.8 7.9h10.9c.6 0 1.3-.3 1.8-.7a19.2 19.2 0 0 1 16.6-4 19.6 19.6 0 0 1 15 16.3c1 7.6-2.5 15.3-9.1 19.2A19.6 19.6 0 0 1 264 75c-.5-.4-1-.6-1.5-.6h-11Zm58-43L348 66V31.2h9.5V89l-.8-.6-46.7-42c-.3-.3-.6-.7-.6-1v-14Zm52 9.3v-9.4H400v9.4Z"/>
  <path fill="#d5d5d5" d="M361.6 55.5H400v9.3h-38.4Z"/>
  <path fill="#fff" d="M400 89.1h-38.4v-9.4H400Z"/>
  <path fill="#d5d5d5" d="M309.7 89.1v-38L314 55l4.3 3.9c.4.4.6.9.6 1.4L319 88c0 .8-.2 1.2-1 1.1h-8.3Z"/>
</svg>