<svg xmlns="http://www.w3.org/2000/svg" viewBox="0 0 300 90">
  <path fill="#fff" d="M69.3 42.3c-7-1-7.6-2-7.6-3 0-1.7 2.2-2.6 5.6-2.6 3.8 0 6.7 1.7 7.8 4.4l.4.2 6-1.7.2-.1v-.3c-1.5-5-7.5-8.6-14.4-8.6-7.6 0-12.7 3.5-12.7 8.7 0 5 3.8 7.5 13.8 9 5.3.7 7.1 1.6 7.1 3.3 0 1.5-2.5 2.6-6.6 2.6-4.7 0-7.6-1.9-8.6-5.5 0-.2-.2-.3-.4-.3L53.7 50c-.2 0-.3.2-.3.4 1.2 6 7.3 10 15.5 10s13.7-3.5 13.7-8.7c0-5.2-3.8-7.8-13.3-9.3ZM163 30.6c-3 0-7 1.1-9.1 4v-3c0-.1-.2-.3-.4-.3H147c-.2 0-.3.2-.3.4V59c0 .2.1.4.3.4h6.6c.2 0 .3-.2.3-.4v-15c0-4.1 3.2-7 7.9-7 4.5 0 7.2 2.7 7.2 7v15c0 .2.2.4.4.4h6.5c.2 0 .4-.2.4-.4v-16c0-3.5-1.3-6.6-3.5-8.8a14 14 0 0 0-10-3.7ZM236 30.6c-9 0-15.7 6.4-15.7 14.8s6.7 14.8 15.6 14.8a16 16 0 0 0 11.3-4.2c2.8-2.8 4.4-6.5 4.4-10.6 0-8.4-6.7-14.8-15.7-14.8Zm0 23.2a8 8 0 0 1-8.5-8.4A8 8 0 0 1 236 37a8 8 0 0 1 8.4 8.4 8 8 0 0 1-8.4 8.4ZM287.5 30.6c-3.6 0-6.9 1.3-9.2 3.8a12 12 0 0 0-8.9-3.8c-3.3 0-6.8 1.8-8 4h-.2v-3c0-.1-.1-.3-.3-.3h-6c-.2 0-.3.2-.3.4V59c0 .2 0 .4.3.4h6.4c.2 0 .4-.2.4-.4V43.4c0-3.8 2.4-6.4 6.2-6.4 3.5 0 6 2.6 6 6.4v15.7c0 .2.1.4.3.4h6.2c.2 0 .4-.2.4-.4V43.4c0-4 2.3-6.4 6-6.4 3.8 0 6.2 2.5 6.2 6.4v15.7c0 .2.1.4.3.4h6.4c.2 0 .3-.2.3-.4v-17c.1-6.8-5-11.5-12.5-11.5ZM183.9 59.9a4.3 4.3 0 1 0-4.4-4.4c0 2.4 2 4.4 4.4 4.4ZM113.7 50l-6.1-1.7c-.2 0-.3 0-.4.2-1.2 3.4-3.7 5.3-7.5 5.3-4.8 0-8-3.5-8-8.4 0-5 3.2-8.4 8-8.4 3.3 0 5.9 1.6 7.1 4.5.1.1.3.3.5.2l6.2-1.9c.2 0 .2-.2.2-.4-2-5.5-7.4-8.9-14-8.9a14.8 14.8 0 1 0 0 29.6c7 0 12.7-3.8 14.3-9.8 0 0 0-.2-.3-.3ZM129.8 30.6c-6.8 0-12.2 3.5-13.7 8.8 0 .2 0 .4.2.4l6.1 1.9c.2 0 .4 0 .4-.2 1-3 3.6-4.7 7-4.7 3.2 0 5.2 1.2 5.2 3 0 1-.5 1.9-6.6 2.7-8.8 1.3-12.4 4-12.4 9.3 0 5.1 4.2 8.5 10.6 8.5a13 13 0 0 0 9.3-3.7v2.5c0 .2.1.4.3.4h6c.2 0 .4-.2.4-.4V41c0-6.5-5-10.4-12.8-10.4Zm5.8 18.5c0 2.7-3.6 4.9-8 4.9-4.6 0-4.6-1.9-4.6-2.6 0-1.8 1.8-2.7 6.6-3.5 3.2-.6 4.9-1.1 5.9-1.8h.1v3ZM218.3 50l-6.2-1.7c-.2 0-.3 0-.4.2-1.1 3.4-3.7 5.3-7.5 5.3-4.7 0-8-3.5-8-8.4 0-5 3.3-8.4 8-8.4 3.3 0 6 1.6 7.2 4.5 0 .1.3.3.4.2l6.2-1.9c.2 0 .3-.2.2-.4-2-5.5-7.4-8.9-14-8.9a14.8 14.8 0 1 0 0 29.6c7 0 12.7-3.8 14.4-9.8l-.3-.3ZM17.4 33.7c-.5.5-.5 1.5 0 2 .6.6 1.5.6 2 0 .6-.5.6-1.5 0-2-.5-.6-1.4-.6-2 0ZM21.8 33c.4-.4.4-1.1 0-1.6-.5-.5-1.2-.5-1.7 0s-.5 1.2 0 1.6c.5.5 1.2.5 1.7 0ZM23.3 30.7a.9.9 0 1 0-.9-.9c0 .5.4 1 1 1ZM15 31.2c-.6.5-.6 1.5 0 2 .5.6 1.4.6 2 0 .5-.5.5-1.5 0-2-.6-.6-1.5-.6-2 0ZM19.2 30.6c.5-.5.5-1.2 0-1.7s-1.2-.5-1.7 0c-.4.5-.4 1.2 0 1.7.5.4 1.2.4 1.7 0ZM20.7 28.2a.9.9 0 1 0-.9-1c0 .6.4 1 1 1ZM22 38.2c.5-.6.5-1.5 0-2-.6-.6-1.6-.6-2.1 0-.6.5-.6 1.4 0 2 .6.5 1.5.5 2 0ZM24.3 35.6c.5-.5.5-1.2 0-1.7-.5-.4-1.2-.4-1.7 0-.4.5-.4 1.2 0 1.7.5.5 1.2.5 1.7 0ZM26 33.3a.9.9 0 1 0-1-.9c0 .5.5 1 1 1ZM14.5 30.8c.6-.6.6-1.5 0-2-.5-.6-1.5-.6-2 0-.6.5-.6 1.4 0 2 .6.5 1.5.5 2 0ZM16.6 28c.5-.5.5-1.1 0-1.6-.4-.5-1.1-.5-1.6 0s-.5 1.1 0 1.6c.5.4 1.2.4 1.6 0ZM18.1 25.6a.9.9 0 1 0-.9-1c0 .6.4 1 .9 1ZM20.4 22.7a.6.6 0 1 0-.5-.6c0 .3.2.6.5.6ZM23.5 25.2c.2-.2.2-.6 0-.8a.6.6 0 0 0-.9 0c-.2.2-.2.6 0 .8.3.2.7.2.9 0ZM26.2 27.8c.2-.2.2-.6 0-.8a.6.6 0 0 0-.9 0c-.2.2-.2.6 0 .8.2.3.7.3.9 0ZM28.9 30.5c.2-.2.2-.6 0-.8a.6.6 0 0 0-.9 0c-.2.2-.2.6 0 .8.2.2.6.2.9 0ZM24.4 40.7c.6-.6.6-1.6 0-2.1-.5-.6-1.5-.6-2 0-.6.5-.6 1.5 0 2 .6.6 1.5.6 2 0ZM26.9 38.1c.4-.5.4-1.1 0-1.6-.5-.5-1.2-.5-1.7 0s-.5 1.1 0 1.6c.4.5 1.2.5 1.7 0ZM28.6 36a.9.9 0 1 0-1-1c0 .5.5 1 1 1ZM31.5 33.2c.2-.2.2-.6 0-.8a.6.6 0 0 0-.9 0c-.2.2-.2.6 0 .8.3.2.7.2.9 0ZM22.6 57.1c.5-.5.5-1.5 0-2-.6-.6-1.5-.6-2 0-.6.5-.6 1.5 0 2 .5.6 1.4.6 2 0ZM18.3 57.7c-.5.5-.5 1.2 0 1.7s1.2.5 1.7 0c.4-.5.4-1.2 0-1.7-.5-.4-1.3-.4-1.7 0ZM16.7 61.9a.9.9 0 1 0 0-1.8.9.9 0 0 0 0 1.8ZM25 59.6c.6-.6.6-1.5 0-2-.5-.6-1.5-.6-2 0-.6.5-.6 1.4 0 2 .6.5 1.5.5 2 0ZM20.9 60.3c-.5.5-.5 1.2 0 1.6.4.5 1.1.5 1.6 0 .5-.4.5-1.1 0-1.6s-1.2-.5-1.6 0ZM19.3 64.5a.9.9 0 1 0-1-1c0 .6.5 1 1 1ZM18.1 52.6c-.6.5-.6 1.5 0 2 .5.6 1.5.6 2 0 .6-.5.6-1.5 0-2-.6-.6-1.5-.6-2 0ZM15.8 55.2c-.5.5-.5 1.2 0 1.7.4.4 1.1.4 1.6 0 .5-.5.5-1.2 0-1.7s-1.2-.5-1.6 0ZM14.1 59.3a.9.9 0 1 0-.9-1c0 .6.4 1 .9 1ZM25.5 60c-.5.6-.5 1.5 0 2 .6.6 1.6.6 2.1 0 .6-.5.6-1.4 0-2-.6-.5-1.5-.5-2 0ZM23.4 62.8c-.5.5-.5 1.2 0 1.7s1.2.5 1.7 0c.4-.5.4-1.2 0-1.7-.5-.5-1.3-.5-1.7 0ZM21.9 67a.9.9 0 1 0-1-.9c0 .5.5 1 1 1ZM19.2 68.2c-.2.3-.2.7 0 .9.2.2.6.2.8 0 .2-.2.2-.6 0-.9a.6.6 0 0 0-.8 0ZM16.5 65.6c-.2.2-.2.7 0 .9.2.2.6.2.8 0 .2-.2.2-.7 0-.9-.2-.2-.5-.2-.8 0ZM13.9 63c-.2.2-.2.6 0 .8.2.2.6.2.8 0 .2-.2.2-.6 0-.8-.3-.2-.6-.2-.8 0ZM11.2 60.3c-.2.2-.2.6 0 .8.2.2.6.2.8 0 .2-.2.2-.6 0-.8a.6.6 0 0 0-.8 0ZM15.6 50.1c-.5.6-.5 1.5 0 2 .6.6 1.5.6 2 0 .6-.5.6-1.4 0-2-.5-.5-1.4-.5-2 0ZM13.2 52.7c-.5.4-.5 1.1 0 1.6s1.2.5 1.7 0c.4-.5.4-1.2 0-1.6-.5-.4-1.2-.4-1.7 0ZM11.5 56.6a.9.9 0 1 0 0-1.7.9.9 0 0 0 0 1.7ZM8.5 57.7c-.2.2-.2.6 0 .8.2.2.6.2.8 0 .2-.2.2-.6 0-.8-.2-.3-.5-.3-.8 0Z"/>
  <path fill="#fff" d="m26.2 39.3-4.1 4c.7-.7.7-1.8 0-2.4-.7-.7-1.8-.7-2.5 0 .7-.7.7-1.8 0-2.5s-1.8-.7-2.5 0c.7-.7.7-1.8 0-2.5s-1.8-.7-2.5 0c.7-.7.7-1.8 0-2.4-.6-.7-1.7-.7-2.4 0 .7-.7.7-1.8 0-2.5s-1.8-.7-2.5 0l-8.3 8.2a8.6 8.6 0 0 0 0 12.2 8.7 8.7 0 0 0 12.3 0l4-4c-.6.7-.6 1.8 0 2.5.7.6 1.8.6 2.5 0-.7.6-.7 1.7 0 2.4s1.8.7 2.5 0c-.7.7-.7 1.8 0 2.5s1.8.7 2.5 0c-.7.7-.7 1.8 0 2.5s1.8.7 2.5 0c-.7.7-.7 1.7 0 2.4s1.8.7 2.5 0l8.2-8.2a8.6 8.6 0 0 0 0-12.2 8.7 8.7 0 0 0-12.2 0Zm-16-.4c-.2.2-.7.2-.9 0a.6.6 0 0 1 0-.9c.2-.2.7-.2.9 0 .2.3.2.7 0 .9Zm.3-3.7a.7.7 0 0 1 0-1c.3-.3.8-.3 1 0 .3.3.3.8 0 1-.2.3-.7.3-1 0Zm2 6.1c-.1.2-.5.2-.7 0a.6.6 0 0 1 0-.8c.2-.2.6-.2.8 0 .3.2.3.6 0 .8Zm.5-3.6a.7.7 0 0 1 0-1c.3-.3.8-.3 1 0 .3.3.3.7 0 1-.2.3-.7.3-1 0Zm2 6.1c-.1.2-.6.2-.8 0a.6.6 0 0 1 0-.8c.2-.2.7-.2.9 0 .2.2.2.5 0 .8Zm1.4-3.6c-.2.3-.7.3-1 0a.7.7 0 0 1 0-1c.3-.3.8-.3 1 0 .3.2.3.7 0 1Zm2.5 2.4c-.3.3-.7.3-1 0a.7.7 0 0 1 0-1c.3-.3.7-.3 1 0 .3.3.3.7 0 1Zm3.2 6.6c-.3.3-.8.3-1 0a.7.7 0 0 1 0-1c.2-.3.7-.3 1 0 .3.3.3.8 0 1Zm2.5 2.5c-.3.3-.8.3-1 0a.7.7 0 0 1 0-1c.2-.3.7-.3 1 0 .3.3.3.7 0 1ZM25 48a.6.6 0 0 1 0-.9c.2-.2.6-.2.8 0 .2.2.2.7 0 .9-.3.2-.6.2-.8 0Zm2 6.2c-.2.3-.7.3-1 0a.7.7 0 0 1 0-1c.3-.3.8-.3 1 0 .3.3.3.7 0 1Zm.4-3.8a.6.6 0 0 1 0-.9c.2-.2.6-.2.8 0 .2.2.2.7 0 .9-.2.2-.5.2-.8 0Zm2.1 6.3c-.2.3-.7.3-1 0a.7.7 0 0 1 0-1c.3-.3.8-.3 1 0 .3.2.3.7 0 1Zm1.2-3.9c-.2.2-.6.2-.8 0a.6.6 0 0 1 0-.8c.2-.2.6-.2.8 0 .2.2.2.6 0 .8Z"/>
</svg>