<svg xmlns="http://www.w3.org/2000/svg" viewBox="0 0 400 120">
  <g>
    <path fill="#ffffff" stroke="none"
      d="M 217.49 100.82 C 199.41 95.80 186.90 79.33 186.90 60.57 C 186.90 41.81 199.41 25.35 217.49 20.32 C 221.96 19.08 224.57 14.44 223.33 9.97 C 222.08 5.50 217.45 2.89 212.98 4.13 C 187.61 11.16 170.05 34.25 170.05 60.57 C 170.05 86.88 187.61 109.97 212.98 117.00 C 213.71 117.20 214.47 117.30 215.23 117.30 L 215.23 117.30 C 219.42 117.29 222.96 114.20 223.53 110.05 C 224.10 105.90 221.52 101.96 217.49 100.82 Z" />
    <path fill="#ffffff" stroke="none"
      d="M 244.77 4.13 C 244.04 3.93 243.28 3.83 242.52 3.83 L 242.52 3.83 C 238.32 3.83 234.77 6.94 234.21 11.10 C 233.65 15.26 236.24 19.20 240.29 20.32 C 258.37 25.35 270.87 41.81 270.87 60.57 C 270.87 79.33 258.37 95.79 240.29 100.82 C 235.86 102.09 233.28 106.69 234.51 111.13 C 235.74 115.57 240.32 118.19 244.77 117.00 C 270.14 109.98 287.71 86.89 287.71 60.57 C 287.71 34.24 270.14 11.16 244.77 4.13 Z" />
    <path fill="#ffffff" stroke="none"
      d="M 89.22 117.21 C 85.20 116.58 81.92 113.67 80.82 109.75 C 79.98 104.57 82.14 99.37 86.40 96.31 L 90.88 92.28 C 92.76 90.62 94.63 88.81 96.57 87.25 L 124.34 63.55 L 128.47 60.07 C 131.28 57.90 133.98 55.59 136.56 53.14 C 140.96 48.79 143.39 42.83 143.28 36.65 C 143.20 32.49 141.35 28.56 138.19 25.85 C 133.45 21.92 127.33 20.08 121.21 20.74 C 112.46 21.73 104.44 26.10 98.87 32.92 C 95.89 36.39 90.68 36.84 87.16 33.92 C 83.63 31.00 83.10 25.80 85.95 22.23 L 85.95 22.23 C 94.40 12.01 106.50 5.48 119.69 4.05 C 130.25 2.92 140.81 6.16 148.94 13.00 C 155.73 18.71 159.77 27.04 160.05 35.90 C 160.41 46.74 156.28 57.26 148.63 64.95 C 145.65 67.84 142.53 70.57 139.26 73.14 L 135.37 76.24 L 106.94 100.54 L 151.67 100.54 C 153.89 100.54 156.03 101.43 157.60 103.00 C 159.17 104.57 160.05 106.70 160.05 108.93 C 160.05 111.14 159.16 113.26 157.59 114.81 C 156.01 116.37 153.88 117.23 151.67 117.20 Z" />
    <path fill="#ffffff" stroke="none"
      d="M 318.82 12.24 C 318.82 16.89 315.04 20.67 310.39 20.67 C 305.73 20.67 301.95 16.89 301.95 12.24 C 301.95 7.58 305.73 3.80 310.39 3.80 C 315.04 3.80 318.82 7.58 318.82 12.24 Z" />
    <path fill="#ffffff" stroke="none"
      d="M 310.46 117.18 C 305.84 117.18 302.09 113.44 302.09 108.82 L 302.09 47.18 C 302.09 42.55 305.85 38.80 310.47 38.80 C 315.10 38.80 318.86 42.55 318.86 47.18 L 318.86 108.78 C 318.87 111.00 317.99 113.13 316.43 114.71 C 314.87 116.28 312.74 117.17 310.53 117.18 Z" />
  </g>
</svg>