<svg viewBox="0 0 400 120" xmlns="http://www.w3.org/2000/svg">
  <path fill="#0f64f8" d="M126 59.5h-6.8c-.6-2-2.3-3.1-4.8-3.1-3.7 0-6 2.9-6 7.2 0 4 2.3 7.3 6.2 7.3 2.2 0 4.2-1.3 5-3.4h7c-1.5 5-5.2 9.3-12 9.3-7.4 0-13.2-5.2-13.2-13.2 0-7.2 5-13 13-13 7.1-.1 10.9 4.8 11.7 8.9Zm21.6-2.2c-1-.2-2.2-.3-3.3-.3-4.1 0-6.1 2.6-6.1 7v12h-7V51.3h6.8v3.8h.2a8.4 8.4 0 0 1 9.4-4.3v6.5Zm26.7 18.6h-6.9v-3h-.1c-2 2.9-4.6 3.9-7.3 3.9-4 0-8.9-2.5-8.9-10.9V51.4h7V65c0 3.5 1.7 5.5 4.3 5.5 3 0 5-2.1 5-6.2v-13h6.9v24.5Zm6.3-24.6h6.8v3.1h.2a8.3 8.3 0 0 1 7.3-3.9c5.6 0 9.4 3.7 9.4 11.3v14h-6.9V62.3c0-3.7-1.7-5.5-4.6-5.5-3 0-5.2 2.1-5.2 6.2v13h-7V51.4Zm53 8.2h-7c-.6-2-2.3-3.1-4.7-3.1-3.8 0-6 2.9-6 7.2 0 4 2.2 7.3 6.2 7.3 2.2 0 4.2-1.3 4.8-3.4h7c-1.3 5-5 9.3-12 9.3-7.2 0-13.1-5.2-13.1-13.2 0-7.2 5-13 13.1-13 7-.1 10.9 4.8 11.7 8.9Zm5-20.6h7v15.5h.2a8.3 8.3 0 0 1 7.3-3.9c5.5 0 9.3 3.7 9.3 11.3v14h-7V62.2c0-3.6-1.7-5.5-4.6-5.5-3 0-5.2 2.1-5.2 6.3v13h-7V39Zm37 49H269l4.6-12.2-9-24.4h7.2l3.5 10.7c.7 2 1.2 4 1.7 6h.2c.4-2 1-4 1.6-6l3.5-10.7h6.8L275.6 88Z"/>
  <path fill="#fff" d="M321.8 76h-4v-3.4h-.2a11.9 11.9 0 0 1-9.2 4.2c-6.6 0-12.4-5.2-12.4-13.2 0-7.4 5.3-13 12.4-13 4.7 0 7.1 1.8 9.2 4.3h.1v-16h4v37ZM309 73.1a9 9 0 0 0 9-9.5c0-5.8-4-9.7-8.9-9.7-6 0-9 4.8-9 9.6s3 9.6 8.9 9.6Zm43.8 2.7h-4v-3.3a11.7 11.7 0 0 1-9 4.2c-6.7 0-12.7-5.2-12.7-13.2 0-7.6 5.5-13 12.9-13 4.4 0 7 2.3 8.7 4.3v-3.5h4.1v24.5Zm-12.6-2.7c4.6 0 9-4 9-9.5 0-5.8-4-9.7-8.9-9.7-6.1 0-9 4.9-9 9.6 0 4.7 2.9 9.6 9 9.6Zm17-21.9h3.3v-7.8h4v7.8h6.6v3.4h-6.6v13c0 4 1.3 5.1 3.9 5.1 1 0 2-.1 3-.4v3.3c-1.3.4-2.5.6-3.8.5-6 0-7-4-7-8.7V54.7h-3.3v-3.4ZM400 76h-4v-3.3h-.2a11.7 11.7 0 0 1-9 4.2c-6.6 0-12.6-5.2-12.6-13.2 0-7.6 5.5-13 12.9-13 4.5 0 7 2.3 8.8 4.3v-3.5h4.1v24.5Zm-12.6-2.7c4.7 0 9-4 9-9.5 0-5.8-4-9.7-8.8-9.7-6.2 0-9.1 4.9-9.1 9.6 0 4.7 2.9 9.6 9 9.6Z"/>
  <g fill="#fff">
    <path d="m42.2 52.4 3.8 3.3c1.4 1.3 2.3 2.8 2.1 4.8 0 1.4-.8 2.6-1.9 3.4a18.3 18.3 0 0 1-9.6 3.1c-3 .3-6 .3-8.7-.6a28.5 28.5 0 0 0-15.4 0c-3.2.7-4 0-3.7-3.2.3-3 1.2-6 2-9 .1-.5.4-.6.8-.5 1.8.2 4.9-1.5 5.7-3 .2-.4.4-.8 0-1-.3-.4-.7 0-1 .3-1.2 1.2-2.6 2.1-4.4 1.6-1-.2-1.2-.9-.5-1.7.3-.3.6-.4 1-.2.7.6 1.4.7 2.1 0 .7-.5.7-1.4.5-2.2-.6-2.1-.2-2.8 2-2.8h3c2.3 0 4.7-.7 6.4-2.3 2.7-2.4 5.6-4.6 8.4-6.9.3-.2.8-.5.7-1-.1-.5-.6-.4-1-.4-1-.2-1.9-.7-2.1-1.7-.3-1 .5-1.5 1.2-2 2-1 3.7-2.2 5.3-3.6 1.1-1 2.5-1.3 4-1.6 4.4-.8 8.9-.8 13.4-.8.8 0 1.5 0 2.2.5-.6.6-1.4.7-2 1L55 27.6c-.4.7-.9 1.6 0 2 .6.4 1-.6 1.2-1.1.6-1.3 1.6-2 2.8-2.5.4 1.8-.5 4.1-2.1 5.5-.4.4-1.2.6-.8 1.2.3.6 1 .3 1.5.2 2.4-.9 4.7-3.7 4-6.2 0-.4-.3-.8.2-1 .3-.2.6 0 .9.2 2 1 3.5 2.7 5 4.3C72 35.7 77 41 80.3 47.3l4.9 9.2c2.4 4.3 2.5 8.7 1.6 13.3-1.3 6-3.6 11.5-7.4 16.3-.4.5-.7 1.4-1.4 1.2-.5-.2-.8-1-1-1.6a42.6 42.6 0 0 1-.9-16c.8-5 2-10.2 1.8-15.4v-1c0-.4 0-1-.6-1s-.7.5-.7 1l-.6 6.6c-.8 5-2.6 9.2-6.5 12.4-1.5 1.2-3.4 1.6-5.2 2.5-.6.2-1.8.2-1.4 1.2.3.8 1.4.6 2.2.3 2-.8 4.2-1.5 6-2.8 2.3-1.4 2.2-1.4 2.7 1.3.5 2.8 0 5.4-.8 8-.8 3.1-1.7 6.2-.5 9.5.3.5 0 .8-.5 1.1-7.4 5.7-15.9 8.5-25.3 8.4-5 0-9.8-.9-14.5-2.5-1-.4-1.2-1-.9-2L36.7 84c.6-1.7 1.8-3.2 2.8-4.7.4-.7 1.1-1 2-1 .8-.1 1.6-.3 2.5-.3 5.4.1 8.6-3 11.2-7.2.4-.6.7-1.3 0-1.8-.9-.5-1.4.1-1.8.7-3 5-7.5 6.7-13.1 5.7-5-1-10-.2-15 0-5 .3-9-1.9-12.2-5.7-.8-1-.4-1.3.7-1.4 5.1-.8 10.1.1 15.1.6 2 .3 4.1.4 6.2.6 4.4.4 8.3-.9 12.2-3 4.2-2.3 3.5-9.2.6-11.7a8.8 8.8 0 0 0-5.7-2.3Zm6.1-17.6c-2 0-4.6 1.2-5.8 2.7-.3.4-.4.8-.2 1.2.3.5.7.2 1 0 .5-.4.7.1 1 .3 1.6 1.5 3.7 1.1 4.7-.8.3-.7 0-1.7 1.2-2 .3-.1.2-.7-.2-.9-.6-.3-1.2-.5-1.7-.5ZM26.4 56.2c1.3-.2 2.4-.6 3.1-1.7.4-.5.4-1 0-1.4-.4-.4-.8-.4-1.3-.2-.6.4-1.4.7-2 .8-2 .2-3.8.5-5.2-1.2-.3-.4-.5-1-1.1-.7-.6.4 0 1 0 1.4.1.3.5.5.7.8 1.5 1.9 3.8 1.7 5.8 2.2ZM24.2 48c-1 .1-1.9.2-2 1.4 0 .9 1.5 3 2.2 3 .8 0 1.7-1 1.7-2.1 0-1.3-.9-2.3-1.9-2.3Z"/>
    <path d="m31.8 77 4.5.4c.7 0 .9.2.6.9l-4.2 9c-.3.6-.6.8-1.2.5-1.3-.4-2.6 0-4 .2a1 1 0 0 0-.7.7c-.1.5.2.7.6 1 .3.1.8.2 1.1.5 1.6 1 2 2.2 1.4 4-1.3 3.6-1.3 3.6-4.6 1.6l-1.4-.8c-4.2-2.5-4.8-3.8-4-8.6a16 16 0 0 1 4.3-7.8c1.7-1.8 4-1.6 6.2-1.6h1.4Z"/>
  </g>
  <path fill="#0f64f8" d="M37.8 20.8c-.7 1-1 2.3-.7 3.6.1 1-.3 1.8-1 2.4-1 1-2.2 1.8-3.5 2.4-2.2 1-3.1 3-3.2 5.3 0 2.4-1 4.3-3 5.5-.8.4-1.2 1.3-2.2 1.5-1.1 1.2-2.5 1.5-4.1 1.5h-3c-2 0-3.4.9-4 2.7a7.2 7.2 0 0 1-2.5 3.5 4 4 0 0 0-1.4 2C8 55.5 6.8 59.6 6.3 63.8c-.2 2.2.4 4 2.6 5 .2.1.4.3.4.5 2.5 4.6 6.3 7.4 11.2 9 1.2.3 1.1.7.4 1.5l-1.6 2a8.8 8.8 0 0 0-2 6.4c0 .4.1.8-.2 1.3-2-1.5-3.4-3.4-4.8-5.3a40 40 0 0 1-.3-48c3.2-4.2 7-7.9 11.9-10.3a35 35 0 0 1 14-5Zm30 6.7a104 104 0 0 1 18 25c.5-6.8-11.4-23.2-18-25ZM44 20.1h-3.7c-.4 0-1.1.2-.8.8.5 1 1.1 2.1 2 2.9.6.5 1.7 0 2.5-.3l6-.6h8.5c-2.8-1.5-5.8-2-8.8-2.2-1.9.1-3.7-.8-5.7-.6Z"/>
  <path fill="#060606" d="M48.3 104.2h-1A45.7 45.7 0 0 1 3.5 72.1a41.5 41.5 0 0 1 30.3-52.6c17.9-4.3 33.3.6 45.4 14A41.7 41.7 0 0 1 82 87.2a41.7 41.7 0 0 1-29 16.7l-4.4.4h-.4Zm-1.5-2.3a41 41 0 0 0 25.4-8.3c.5-.4.7-.7.5-1.2-1.2-3.2-.3-6.4.5-9.5.7-2.6 1.2-5.2.8-8-.5-2.6-.4-2.6-2.6-1.2-2 1.2-4 2-6.1 2.8-.8.3-2 .4-2.2-.3-.4-1 .8-1 1.4-1.3 1.7-.9 3.7-1.3 5.2-2.5 3.9-3.1 5.8-7.5 6.4-12.3.4-2.2.5-4.5.7-6.7 0-.5 0-1 .7-1 .6 0 .6.6.6 1v1c.2 5.2-1 10.4-1.8 15.5-.8 5.4-.2 10.6 1 15.9 0 .7.3 1.4.9 1.6.7.3 1-.7 1.4-1.2A39.1 39.1 0 0 0 87 70c1-4.6.8-9-1.6-13.3-1.7-3-3.2-6.2-4.9-9.3-3.4-6.4-8.3-11.6-12.8-17.1-1.4-1.7-3-3.3-5-4.4-.2 0-.5-.4-.8-.3-.5.3-.2.8-.2 1 .7 2.6-1.6 5.4-4 6.3-.5.2-1.2.4-1.5-.2-.4-.6.4-.8.8-1.1 1.6-1.5 2.5-3.8 2-5.6a5.5 5.5 0 0 0-2.7 2.5c-.3.6-.6 1.6-1.3 1.2-.8-.5-.4-1.4 0-2 .5-.7 1-1.2 1.6-1.6.6-.4 1.4-.5 2-1.1-.6-.4-1.4-.6-2.2-.5-4.5 0-9 0-13.5.9-1.4.2-2.8.5-4 1.5a23.8 23.8 0 0 1-5.2 3.7c-.8.4-1.6.9-1.3 2 .3 1 1.1 1.5 2.1 1.6.4 0 1-.1 1.1.5.1.5-.4.7-.7 1-3 2.1-5.8 4.4-8.5 6.8a9.5 9.5 0 0 1-6.5 2.2H17c-2.2 0-2.7.7-2 2.9.1.8.2 1.6-.5 2.2-.7.6-1.5.6-2.2 0-.4-.3-.7-.2-1 .2-.6.8-.5 1.4.5 1.7 1.9.5 3.2-.5 4.5-1.7.3-.2.6-.6 1-.3.4.2.2.7 0 1-.8 1.5-4 3.2-5.7 3-.5 0-.7 0-.8.5-.8 3-1.8 6-2 9-.3 3.2.5 3.9 3.6 3.1a28.5 28.5 0 0 1 15.4.1c2.8 1 5.8 1 8.7.7 3.4-.4 6.8-1 9.7-3.2 1.1-.8 1.8-2 1.9-3.3.2-2-.8-3.5-2.1-4.8l-3.8-3.4c2.4 0 4.1 1 5.7 2.4 3 2.5 3.7 9.4-.6 11.8-3.8 2-7.8 3.3-12.2 3L29 69c-5-.5-10-1.4-15.1-.7-1.2.2-1.5.5-.7 1.4a14 14 0 0 0 12.2 5.8c5-.3 10-1 15-.1 5.6 1 10-.7 13-5.6.4-.7 1-1.3 1.8-.8s.5 1.2 0 1.8c-2.6 4.2-5.8 7.4-11.1 7.2-.9 0-1.8.2-2.6.3-.8 0-1.5.3-2 1-1 1.5-2.1 3-2.8 4.7l-5.2 13.5c-.4 1-.2 1.5.9 1.9 4.6 1.6 9.5 2.5 14.4 2.5ZM28 97.1c.8 0 1.1-.8 1.9-3 .5-1.7.1-2.9-1.4-3.9l-1.1-.6c-.4-.2-.7-.4-.7-.9 0-.3.4-.7.8-.7 1.3-.2 2.6-.7 4-.2.6.3.9 0 1.1-.5l4.2-9c.3-.7.2-.9-.5-1l-4.5-.2h-1.4c-2.3-.1-4.5-.3-6.2 1.6-2 2.2-3.7 4.7-4.2 7.8-1 4.7-.3 6 3.9 8.5l1.3.8c1.4.8 2.2 1.3 2.8 1.3Zm-10.9-7.7c.4-.5.2-1 .2-1.3a9 9 0 0 1 2-6.4l1.7-2c.7-.7.7-1.1-.5-1.5a18.5 18.5 0 0 1-11.1-9c-.1-.2-.3-.4-.5-.4-2.2-1-2.7-2.8-2.5-5 .4-4.3 1.7-8.4 2.8-12.5a4 4 0 0 1 1.5-2c1.2-1 1.9-2.1 2.4-3.5.6-2 2-2.8 4-2.8h3c1.6 0 3-.3 4.1-1.5 1-.1 1.5-1 2.2-1.5 2.1-1.2 3-3 3-5.5 0-2.3 1-4.2 3.3-5.3A16 16 0 0 0 36 27c.7-.7 1.2-1.4 1-2.5-.1-1.3.1-2.5.8-3.6-5.3.8-9.8 2.3-14 5A38.5 38.5 0 0 0 4.2 60.6a39.5 39.5 0 0 0 13 28.8Zm9.3-33.2c-2-.6-4.3-.4-5.9-2.3-.2-.2-.5-.5-.5-.7-.1-.5-.8-1-.2-1.5.7-.3.9.4 1.2.7 1.4 1.8 3.2 1.5 5 1.3.8 0 1.5-.5 2.2-.8.5-.2.9-.3 1.2.2.4.4.4 1 0 1.4-.6 1.1-1.7 1.5-3 1.7Zm-2-3.8c-.7 0-2.3-2.1-2.2-3 .1-1.2 1-1.3 2-1.4 1 0 1.8 1 1.9 2.3 0 1-.9 2.2-1.7 2.1Zm61.4 0c.5-6.7-11.4-23-18-24.9a104 104 0 0 1 18 25ZM46.3 40c-.7 0-1.4-.3-2.1-.9-.3-.2-.4-.7-.9-.3-.3.2-.7.5-1 0-.2-.4-.1-.8.2-1.2a8.6 8.6 0 0 1 5.8-2.7c.6 0 1.1.2 1.6.5.5.2.6.7.3.8-1.1.3-1 1.3-1.3 2-.5 1.2-1.5 1.8-2.6 1.8ZM42.2 24c.6 0 1.2-.3 1.8-.5l6-.6h8.5c-2.8-1.5-5.8-2-8.8-2.2-1.9.1-3.7-.8-5.7-.6h-3.7c-.4 0-1.1.2-.8.8.5 1 1 2.1 2 2.9l.7.2Z"/>
</svg>