<svg width="400" height="120" xmlns="http://www.w3.org/2000/svg">
<g>
<path d="M76 40.3a3.5 3.5 0 0 0 .6 2l.2.3c.2.2.4.4.6.4.5.2.8.1 1 0 0 0 .1 0 0-.2h.3c-.2 0 0-.2-.2-.3v.1h-.3.1v-.1h-.1v-.2H78c0-.2-.2 0-.1-.2l.7.2h.6l.3-.2H80.1l.3-.2c-.1.1.1 0 0 .2l.3-.1h.1l.1-.1h.2c0-.2 0 0 .1 0v-.1c.2 0 .2-.2.3-.2v.1s.2 0 .2-.2h.3l.3-.2.2-.1h.1l.2-.1s.2-.1.1-.2l.1-.1.2-.1.2-.1h.1l.1-.2.3-.1.1-.1h.2V40h.3l-.1-.1c0-.4.4-.3.5-.6v-.1h.2l.2-.5.1-.4v.1s.1-.1 0-.1h.1V38c.2 0 0 0 .1-.1v-.2c.2 0 .2-.3.2-.3h.1V37s.4-.2.2-.3h.1v-.2l.1-.4v-.3l.2-.2-.1-.3V35h.1l-.1-.3s0-.2-.2-.3v-.2l-.4-.4c.1-.1 0 0 0-.2-.3-.1-.4-.5-.7-.7l-1-.5H83.2v-.1H83c0 .1-.1 0-.1 0h-.2l-.2.1s-.1 0 0 0H82s0 .1-.1 0v-.1c-.1 0 0 0 0 .1l-.3.1-.2-.1s-.1 0 0 .2l-.2-.1h-.2c0 .2-.3 0-.3.2l-.1.1h-.1c-.4 0-.7.3-1 .5l-.3.2-.2.2.1.4-.3-.1-.2.1c.3.4 0 .3-.2.5l.1.1.3.3h-.5c.1 0 .2-.1.1-.2v-.2l-.1-.2-.2.2c0 .3 0 .1-.1.2.3.5.4 1-.3.9l.5.6c-.5 0-.5.3-.8.4l.4.2c-.5-.2-.2.2 0 .4l-.5-.2c-.2.2.4.9 0 1l-.1-.4c.1-.5-.5-.7-.1-1l-.1-.1-.1.2v.2h-.1v.3h-.1.3v.1s-.1 0 0 .1c-.3.1-.6.2-.3.4 0 .2-.2.2-.4.1v.1l.4.6c-.7 0 .2.7 0 .9 0-.1 0-.2-.2-.3-.4 0 0 .3 0 .4l-.1-.1-.1.1v-.2H76v.2c.2.2-.3.4.3.7h-.4Zm150 38.9-.3.3c.2 0 .3-.1.4-.3Zm-.6.4h.1c0 .2 0 .4.3.6.1 0 0-.4-.2-.7h-.2Zm1.4-1 .3.4c.3 0 .1-.3 0-.6l-.1.2v-.2l-.2.2Zm.4-.3v.1l.1-.1.1-.1-.2.1Zm-.7.6c.1.3.2.6.2.2l-.2-.2Zm-19.6-2.6c0 .2.2.3.3.5V76l-.3.3Zm-20.2-13.5-.1.1.2.2-.1-.3Zm25.7 9 .2.3c.1 0 0-.2-.2-.3Zm-13.9-10 .3.3c0-.1 0-.2-.3-.3Zm-15.2 16-.4-.2.4.1Zm4.2-14.9-.2-.2h-.2Zm-9.1-13.4V49v.2l.1-.2.3-.2c0-.1-.2 0 0-.2l.3-.4.2-.3v-.2s0-.2.2-.3v.1l.1-.5.3-.3c.2-.2 0-.2 0-.2.2 0 .4-.4.4-.5v.1l.2-.2v.2l.4-.8.4-.6.3-.4v.1c.1-.2 0-.1 0-.4 0 0 0 .2.1.1V44h.1l.1-.3.2-.3.4-.5.4-.5c0-.2.2-.3.3-.5h-.2c.2 0 .2-.1.3-.2 0 0 0-.2.2-.2l.1-.1V41h.2c0-.4.1-.2.2-.6h.1c.1-.4.3-.3.4-.7.2 0 .1-.1.2-.2l.1-.2V39h.1l.3-.6h.1l.3-.4h.1v-.3.2c0-.3 0-.1.2-.4v-.2c.1 0 .3-.4.2 0 .2-.2.1-.3.2-.5l.2-.5h.1c.4-.3.1-.5.4-.8v-.1l.2-.3s0-.3.2-.5v-.4c.3-.3.3-.3.5-.3l.2-.5.2-.2c.3-.3.2-.6.5-1l.1-.3.1-.4c0 .1.2-.2.1 0l.1-.2c.1-.1.1-.2 0-.2l.2-.1V31c0-.2 0 0 .2-.2v-.1c0-.1.2 0 .2 0 .1-.2 0-.3.2-.5 0 .2.3-.4.2 0l.2-.5.1-.5c.2.2.2-.4.2-.5l.1-.1V28h.2v-.4.1-.1l-.2-.8-.2-.5a3 3 0 0 0-.2-.4l-.2-.2h-.4v-.1h-.5l-.2.1h-.3c-.2 0-.4.2-.5.3h.1s.1 0 0 .1l.1.1c.3 0 .3-.2.4-.3l.3.1c.4 0 0 .2.3.2h-.3l-.2.1-.3.4-.4.5-1.2 1.8c-.4.6-1 1.3-1.3 2l-.8 1.1c-.4.7-.7.9-.6 1l-.3.5a3.1 3.1 0 0 1-.5.9l-.3.4-.2.3-.2.3-.1.2-.2.1c0 .2-.2.3-.3.5l-.5.8-.2.4-.1.2-.3.7-.4.5v.1s-.2 0-.3.2c-.1 0-.2 0-.4.3l-.2.6c-.2.2-.1.3-.2.5l-.1.2-.3.7-.4.6-.2.4-.2.4-.3.4-.1.6c-.2 0-.3.3-.5.6 0 .2-.2.4-.3.5v.2l-.3.2s0 .5-.2.3c0 .5-.1.8-.3 1.3V47c0 .5-.4.3-.5.8l-.2.4a9.2 9.2 0 0 1-.6 1.4V50l-.1.3c-.4.6-.4 1-.7 1.7l-.2.3v.1l-.2.2-.4.8-.1.7a2.4 2.4 0 0 1-.6 1v.2h-.1v.4s-.4.5-.3.8l-.2.5-.2.1c.2 0 0 .2 0 .4 0 .4-.2.3-.2.3l-.2.6-.1.3c0 .1 0 0 0 0 0 .4-.2.6-.3.8l.4-.1h.2l.1-.2c.2-.1.1 0 .1 0V59l.6-.6.5-1h-.1c.2-.2 0-.3.2-.3l.7-1.2.4-.3v-.2s.2-.1.2-.3l.2-.3c.3-.3.2-.3.3-.5l.3-.2v-.4l.3-.4V53h.1c0-.2 0-.2.2-.3 0 0 0-.2.3-.5l.6-.7.1-.2.2-.5v.1l.1-.2h.1a.7.7 0 0 1 0-.2l.2-.2.4-.6c.2 0 .3-.2.4-.3Zm4.7-23.5.2-.1c-.2 0-.3 0-.2.1Zm-15.2 27.2s.2 0 .3.2c0-.1 0-.2-.3-.2Zm-11.7 43.5v-.2c-.2 0 0 0 0 .2Zm.5-2.7c-.2 0-.1 0 0 0Zm3.6-20.2v.2c.2 0 .1-.2 0-.2Zm-15.6-25.1.4.2s-.1-.2-.4-.2ZM138 61.5h-.1c0-.3-.1-.3-.2-.5.2 0-.1-.3-.1-.4 0 0 0 .1 0 0l-.1-.3v-.1a2 2 0 0 0-1-1 1.2 1.2 0 0 0-.9 0 6.3 6.3 0 0 0-.8.5c.2.1.2-.2.3 0l.2-.2h.2l.4-.1H136c0 .2-.2.2-.1.3l-.1.2v.1l-.2.2-.3.3-.9.8-.8 1-1 1-.2.3h-.1v.1l-.4.6-.2.4-.2.2-.3.4-.4.5-.2.3-.2.1c-.1.1-.2.1-.1.2l-.3.1-.1.4-.1.3h-.2c0 .2-.1.3 0 .4l-.5.6-.2.8c-.2 0-.3.4-.4.6l-.2.2v.2l-.2.7c0 .3-.3 0-.2.4l-.2.6-.2.2v.4c0-.1 0 0 0 0l-.2 1-.2.5v.2l-.1.3-.3.8V75.4c.2 0 0 .8.1.9h-.1v.8c.1 0 0 .1 0 0l.1.3v.4s0 .1 0 0h.1s0 .1 0 0v.1h.4l.5-.3.1-.2.3-.2.4-.3s0-.2 0 0l.3-.6.2-.2c0-.3.2-.2.2-.4l.1-.2c.2-.1.1-.2.2-.3h.2v-.3c-.1 0 .2 0 .2-.3v.1-.1c.2-.2.2-.1.3-.4l.4-.6.1-.2.1-.1c0-.3.4-.3.5-.5l.2-.2v-.3.2-.1h.1v-.2c0 .1 0-.2.2-.2v-.5l.1.1.1-.3v.1c.1-.1.1-.5.3-.4v-.2l.2-.2h.1l.2-.4.3-.5v-.4h.2c0-.5.6-.7.6-1.1 0 0 0-.3.2-.4h.1v-.2c0-.2.2 0 .2-.3 0-.2.2-.2.3-.4l.1-.2v-.2h.1c0-.2.2-.3.3-.3l.1-.3c.1 0 0-.2 0-.2v.1l.1-.2v-.1s.1-.2.2 0v-.3l.2-.2v-.1c.3-.1 0-.4.3-.5l.2-.5v-.2l.3-.1.2-.6.3-.4.1-.2v-.2s.1-.2.1 0V62c.1-.1.1-.2 0-.2h.2v-.2c.1 0 0 0 0 0 0-.2 0-.2.2-.2Zm-13.2 2.6-.2-.1.1.2Zm-24.7.3.3.2s0-.2-.3-.2Zm-12-9.8h-.3l.1.1Zm-.9 1.2H87c.2.1.2.2.2.3ZM83.4 63v-.2.5ZM81 66l.2.2c.1 0 0-.2-.2-.2Zm-17.2 7.5.3.2c0-.1 0-.2-.3-.2ZM46.5 47.2h-.3l.2.1Zm-.7 1.3-.2.1.2.3Zm31.8 22.2-.4-.3v.1Zm19-1.6-.3-.3v.1Zm61.6-4c0 .2.2.1.3.2 0-.1 0-.2-.3-.1Zm74.7-28h.2Zm.3.3s.2 0 .2-.2c-.2 0-.3.1-.2.2ZM244.4 64c.2.4.2.7.1 1v.3l-.1.1c-.4.9-.3 1.1-.8 1.8v.1h-.1l-.4.6c0 .2-.5.8-.7 1.2l-.4.6-.5.4-.2.2-1.1 1.6-1.5 2c-.3.5 0-.3-.4.4l-.6.7-.4.4-.3.5-.2.2v.1l-.5.4-.3.3-.2.4c0-.2 0-.3-.2-.2-.2.3 0 .4-.5.8 0 0 0-.1 0 0-.3 0-.8.5-1 .8l-.8.8c0-.2-.2 0-.4.3l-.5.4c0 .1-.3.4-.4.3l-1 .7-.1.1-.4.5-.8.6c-.5.3-1.5 1.2-2.8 1.9-2.1 1.2-4.7 1.6-6.8 0l-.9-.8-.3-.5-.5-.7-.6-1.5-.3-1.5v-1.5c-.1-.5 0-1 0-1.6l.2-1.6.2-.6v-.8l.3-1.5v-.2l-.3.4-.2.3-.6.7-.2.2-.5.8-.8 1-.4.4a3 3 0 0 0-.6.6 3 3 0 0 1-.5.6l-.6.6-.7.6-.5.5-.5.5-.7.8-.2.1-.3.3-.4.3-.2.2-.2.2-.4.4-.2.2h-.1l-.3.4a2 2 0 0 1-.6.5l-.6.4v.1a27.3 27.3 0 0 0-3 2l-.8.6-1 .6c-.7.2-1 .1-1.4.1-.4 0-.9 0-1.3-.2.1 0 0 0 0 0-.4-.1-.8-.3-1.2-.7l-.5-.6-.5-.7-.2-.7v-.4l-.2-.9-.2-1V79c0-.3.1-.1.3-.6v-.7l.1-.8.1.1v-1l.1-.4.3-1.4.1-.8.3-.7v-.3l.1-.2c0-.2 0-.6.2-.8l.2-.7v-.3l.1-.3.1-.3h-.1a2 2 0 0 0-.2.4l-.4.5-.2.2-.1.2-.6.2-.1.3v.1h-.1l-.5.7-.2.2c-1.2 1.5-.7.5-1.9 2v-.1l-.4.5-.3.4-.7.7-.2.2-.2.2a190.3 190.3 0 0 0-.8.6l-.2.2-.8.9-.3.3-.5.4-.3.3-.5.7c-.5.6-.8.7-1 .9l-.4.3-.4.3-.4.2c-.2.1-.5.3-1 .3v-.2h-.1l-.6-.1H185.2a3.3 3.3 0 0 1-2-.5l-.1-.2-.5-.5h.2c0-.2-.2-.2-.3-.2h.3c.2 0 0-.2 0-.3h-.4c0-.2 0-.2 0 0V79.5l.2.2c.4-.5.5-1.2.6-1.8l-.1.2c-.3 0-.3-.2-.4-.3V77.2l.1.1v-.4l.2.2c.6 0 .4-.3.5-.5 0-.2-.3-.3-.6-.4V76l.6.2c0-.3.4-.7-.2-1.2v-.1h.2l-.2-.1v-.4l.5.2-.2-.7h-.3v-.4l.6.2c.1-.2-.4-.4-.2-.6l.4.1c-.2-.3-.4-.8 0-1 .2-.1 0-.4 0-.7v-.2l.1-.1.6-1.8v-.3l.2-.1V68.6c.3-.1-.1-.5.1-.7v-.3h.2l-.1-.2v-.2h.1V67v.1-.1l.2-.4v-.3h.1v-.7h.2v-.8h.7c-.8-.2.2-.2-.4-.4h-.2l.1-.3.6.3c.3 0 .1 0 0-.2.2 0 0 0 0 0V64c-.1 0 0 0 0 .1v.1c-.2 0-.4 0-.5-.2v-.2h.1l.1-.3.7.3-.2-.2-.5-.1v-.2l.4.1-.3-.1h1.1l-.8-.6c0-.1 0-.1 0 0 0-.1-.1 0-.2 0h-.1l-.3-.1c-.3 0 0 .1 0 .2H185l-1.1.3h-.2l-.2.1-.6.3-1.3.3H179.6l-1 .2-1 .2c-.4 0-.6.2-1.1.4a9 9 0 0 1-.7 0v.1a3.8 3.8 0 0 0-.5.2c0-.1.1-.2-.7 0v.1l-.9.2-.5.3h-.3s-.2.1-.3.4c-.2.2-.2.3-.3.2l-.3.5a7 7 0 0 0-.7.9l-.4.5v.2c-.6.8-.3.2-.8 1l-.4.8c-.2.3-.5.5-.6.4l-.4.9c0 .3.1.3-.3.7l-.4.4-1.4 2.4-.3 1-.3 1.3-.2.2v.2c-.2.2-.2.5-.3.7l-.4 1.4v.6l-.2.2-.3 1.2-.3 1.2-.2.1v.3l-.1.1a130.7 130.7 0 0 0-1.2 3.8l-.1.4-.2.7-.7 2.5v.5l-.1.6-.2 1.1-.2.7v.9l-.1.6v1.2l-.2.5a67.8 67.8 0 0 0 0 .7c0 .7-1.1 1.1-1.5 1.2-.3.1-1.5-.3-1.8-.5l-.2-.2h-.3c0-.2-.3-.3-.4-.4a2.5 2.5 0 0 1-.5-.5v-.2h-.1l-.1-.2a2 2 0 0 1-.2-.4l.3.1v-.2h-.3V96l.3.1V96l-.3-.1v-.2h.4l.3-1.2-.2-.3h-.1V94a133.7 133.7 0 0 1 .1-.4v-.1l.3.1h.1l.1-.6-.3-.2.1-.1h.3V92c0-.1 0-.2-.2-.3v-.2h.1V91h.3v.1c0-.2-.3-.5-.2-.6v-.3h.2l-.1-.2v-.2h.3l-.2-.2v-.3l.3-.6v-.6c.2-.4.3-.8.3-1.3l.1-.6.1-.7v-.3a2.8 2.8 0 0 1 .3-.6V84l.3-1.5.1-.4h.3l-.2-.2v-.2l.1-.1h.2c.3 0 .1 0 0-.1.1 0 0 0 0-.1h-.1V81.1h.2-.1V81l.3.1-.2-.2.1-.1h-.1v-.1l.7-.1-.5-.3v-.1h.4l-.3-.1v-.5l-.6.5-.1.1-.2.1-.4.4h-.1l-.2.1-1 .7-.7.4h-.1l-.6.3c-1.5.8-2.4 1-3.1 1.1H150.6a115.5 115.5 0 0 1-1-.3l-.6-.2a9.9 9.9 0 0 1-1.7-1l-1-1-.2-.2v-.1l-.3-.2-.4-.4-.2-.4-.5-.7-.4-1a19.1 19.1 0 0 1-.7-1.5c0-.3-.2-.6-.3-.8l-.3-1-.2-2-.1-1v-.8l-.1-.5v-2.7c.1-.1 0-.4 0-.8l.1-.6v-.5l.1-.6V65l-1.1 2-.3.6-.1.2-.1.2-.3.6-.4.6a77.3 77.3 0 0 1-.9 1.5l-.8 1.2a4.3 4.3 0 0 0-.4.7c0 .3-.2.4-.2.4l-.1.2-.3.4a2 2 0 0 0-.4.5l-.7 1a5.9 5.9 0 0 1-1.3 1.7v.1l-.2.2-.5.8-.6.5a6.2 6.2 0 0 0-.4.6l-.5.7-1.5 1.5-.8.7-.8.7c-.2.2-.5.5-1 .7-.2.2-.5.3-.7.3l-.5.1-1.1.2h-1.3l-.4-.2-1-.5a377 377 0 0 1-1.5-1.1V82l-.6-.6-.1-.3-.3-.7h-.2l-.1-.6c-.2-.2-.2-.5 0-.4l-.4-1.1v-1.9a365.5 365.5 0 0 0 0-.7l-1 1.3-.2.4-.4.5-3 4h-.1l-2.6 2.7a8 8 0 0 1-2 1.3 4 4 0 0 1-3.4 0l-1.5-1a7.1 7.1 0 0 1-1.7-3v-.4h-.1v-.1a11 11 0 0 1-.4-2v-1.2l-.1-.4c-.1-2.3.2-4.9.5-7.5a125 125 0 0 1 .5-5.2l-.7.8a30.5 30.5 0 0 0-3.7 5.5c-1.9 3-3.6 6.1-5.6 8.8a41.2 41.2 0 0 1-3.8 4.5l-.4.4-.6.5a3 3 0 0 1-1.7.5l-1.2-.2-.7-.1h-.2a3.8 3.8 0 0 1-1-.2l-.4-.2h-.2l-.4-.3a4 4 0 0 1-.9-.7l-.7-1a4 4 0 0 1-.2-1V81l.2-1a209.2 209.2 0 0 1 0-1.3s.4-1.6.3-2l.2-1.7a13.7 13.7 0 0 1 .3-2.7l.5-2.7.3-.9v-.5c-.5.9-1.1 1.7-1.6 2.3l-2.8 3.7h-.1l-.5.8-.8.9-.2.4c-.2.1-.8 1.2-.8.9l-1.5 2.2-.8 1c-.2.4-.1.6-.6 1.1v-.2c-.7 1-1.1 1.1-1.4 1.3l-1.6 1v.1l-1 .5c-.5.4-1.3.3-1.9 0L69 84l-.2-.1h-.2a3.2 3.2 0 0 1-.7-.2l-.5-.2-.2-.2-.7-.5-.5-.8-.3-1.3a15.1 15.1 0 0 1 0-3V77a33.6 33.6 0 0 1-7.1 9.9l-1.3 1a8 8 0 0 1-5 1.4h-.3l-.6-.2-.5-.3c.1.1.1.1 0 0-.3-.1-.6-.4-.8-.7l-.6-.8a10 10 0 0 1-1.2-2.6l-.4-1.6-.1-.5v-.2l-.1-.3v-.8c-.1-.6-.3-1.2-.3-1.9V76.5l-.1-.5v-1.8l.2-1V72l.2-1.2.1-.7V70l.1-.2.1-1.2.1-.6v-.3l.1-.4.2-.6V66l.2-.7V65l.1-.7.3-.8v-.2l.1-.3.1-.6c.2-.4.2-.8.3-1.3l.2-1.2.2-.7.2-.5v-.7l.3-.9.1-.5.2-.7.5-2.6.4-1 .2-.7V51l.1-.6.1-.4.1-.2v-.1.2l-.5.8-.2.3v.3c-.2.2-.3.5-.4.9l-.4.7-.2.4-.3.5-.2.2v.4l-.4.7-.3.4c0 .2-.2.4-.3.5l-.2.4-.3.7c-.1.5-.3.8-.5 1l-.2.3-.1.2-.4.7-.1.3-.1.3a6.5 6.5 0 0 1-.5 1l-.4.5-.1.3-.2.4-.4.8-.7 1.1-.6 1.4-.1.1-.1.3-.3.3-.2.4-.3.7-.4.7-.3.6-.5.7-.2.2-.2.7-.1.2-.1.2-.2.3-.3.5-1.3 2.1-.6 1c0 .2-.2.3-.3.5v.1l-.1.2-.3.6c0 .3-.2.5-.3.6l-.3.4-.2.4-.3.4c0 .2-.2.3-.2.3v.4a3.4 3.4 0 0 1-.7 1l-.2.3-.7 1c-.4.3-.9.5-1.3.5h-2.1a1.5 1.5 0 0 1-1.2-.2v-.1H30l-.7-.3-.5-.3c-.4-.2-.9-.7-1-1-.3-.1-.7-.5-1-.9l-.2-.3V78l-.1-.1-.3-.7c-.1-.3-.2-1-.1-1.3v-1l-.2-.6v-.7l.2-.4v-.4l.1-2.1v.2l.3-2v-2.2l.4-1.4.3-2.1.4-1.7.1-.6v-.4l.2-.7v-.6l.2-.5.2-.7.1-.5.1-.6.1-.5v-.5l.2-.8.2-.7V54l.1-.6.2-.8.2-.6.4-2.2a75.4 75.4 0 0 0 .5-2.8l.2-.5v-.4l.1-.5a55 55 0 0 1 .5-2.3l.1-.5v-.9l.1-.2a395.8 395.8 0 0 0 .8-3l.1-1V37.5l.1-.3.2-1.6.4-2v-.3l-.1-.8v-2h-.2l-.2.4-.3.4-.3.4-.2.2-.2.2-.4.7-.3.3s-.2.2-.1 0c-.7 1.4-1 1.7-1.3 2.1l-.2.3a172.2 172.2 0 0 0-.4.5l-.4.5c0 .1 0 .3-.3.7v.3-.2c-.1.4-.4.7-.6 1l-.1.2-.3.4-.8 1.6-.5.8-.2.7-.6 1-.1.3-.2.4-.8 1.6-.4.8v.1l-.1.2-.1.4-.2.5-.2.3-.4.8a27.1 27.1 0 0 0-1.2 2.7l-.5 1.4-.3.5h-.1v.3l-.3.8-.4.7v.2l-.2.3-.2.7-.3.6-.1.3v.2l-.2.7-.4.9-.2.4-.3.6-.2.5v.5l-.2.5-.1.3-.2.5-.2.4-.2.3-.2.5-.5 1.2-1 2.6-.5 1.3-.2.6-.3.8-.3.6-.2.4v.4l-.2.4-.3.7-.4 1.3-.2.7-.1.3-.2.4-.3.6-.1.4-.2.8-.2.6-.1.4-.2.3-.3.6-.4 1.1-.7 2.3v.8l-.2.3-.4.8v.5a165.6 165.6 0 0 0 0 .9l-.2.7-.4.9s-.1.6-.7 1.1c-.3.2-.7.4-1.2.4H5.1l-.3-.2H4A3 3 0 0 1 3 88l-.8-.5h1c-.2-.6-1.7-1.3-1.2-1.6 0-.2.4 0 .7.1.3-.3-1-.9-1-1.2 3.3 1-.6-1.5 1.7-1.4-.1-.5.3-.9-.2-1.5.7.4.2-.4 1-.1-1.7-.7 1.3-1-1-2 .9-.3-.2 0 .6-.5.3 0 .3.2.3.2.6-.1-.9-.7.3-.6.2-.4-.1-.4-.5-.5a17.9 17.9 0 0 0 .3-.7H5c-.6-.2-.7-.3-.7-.5v-.5h.1l.3.2c.2-.4.3-1 .2-1.5l.2-.5h.3c.4-.2.1-.6-.1-1l.1-.4c0-.1.1-.1 0 0H6a.6.6 0 0 1-.2-.2v-.1l.3-.6.2-.5v-.5l.2-.2.1-.4.2-.6.3.3c-.2-.4 0-.7 0-1l.1-.3.4.2c.1-.2 0-.4-.3-.5l.4-1c.4-.8 1-1.5.9-2.3l.3-1v-.1h.7c-.1-1 0-2.3.9-3.1l-.4-.2v-.1l.2-.4.1-.3.5.2c0-.4-.2-.4-.4-.4l.2-.2h.3c.2-.2 0-.2-.2-.2a.6.6 0 0 0 0-.2h.8c0-1 0-2.4.5-3.6V56h.1l.2-.4v-.1l.5-.5h-.3l.4-.8.3-.5v-.4l.2-.3.3.3c-.2-.3.2-.4 0-.7l-.2.1v-.2l.2-.2h.1l-.1-.1.1-.3c0 .1.1.3 0 .4.3 0 .7.3.9.4 0-.6-.4-1 .5-1.3a2 2 0 0 0-1-.5h.1l.8.2c.4 0 0-.3 0-.5-.2.1-.5 0-.7-.1l.2-.4V50l.4.4a8 8 0 0 0 1.5-3.6l-.3.5a1 1 0 0 1-.3-.3l.1-.3v.2-.3l.1-.2h.7l-.6-.3a4.7 4.7 0 0 1 .4-1v.2c1 0 .7-.7 1-1 0-.3-.1-.4-.3-.6l.1-.4.3.2c.2-.5.6-1.1.5-1.9l.7-1.4.1.1v-.4l.2-.3.7-1.6.1-.2.2-.2.3-.5.3-.6.2-.4.2-.3.1-.2.5-.8 1-1.7v-.2h.1l.2-.4.3-.7.4-.4c0-.2.1-.2.2-.3v-.1l.2-.2.4-.8.3-.8h.2l.7-1.2.5-.5.2-.4.3-.3.2-.2.2-.2.4-.5.9-1.1c.6-.7 1.2-1.4 2-2l.4-.5.8-.5.8-.3h1c.6.1.8.3.9.2h.7c.4 0 1 0 1.3.3l.6.4.5.3v.1l.9.4c.4.2.8.5 1 1 .2.3.3.5.3.8v.5l.1.3.1.5.1.6v3.5s0 .6-.2 1v.7l-.1.8c0 1 0 1.5-.2 2.1l-.1 1-.2 1.4V37l-.1 1v.3l-.2.5-.2.5v.4l-.1.1a16.4 16.4 0 0 1-.4 1.7v1.2l-.2 1-.2.6-.1.2-.1.3v.9l-.2.7-.2 1.4-.1.4-.4 2v.5l-.1.3-.1.4v.3l-.2.3-.1.4v.2l-.1.2v.6l-.3.9v.5l-.3.6-.2 1.2-.4 2v1.2l-.1.2v.2l-.2.5-.7 3.8v.7l-.1.2v.2l-.2.5v.8l-.2.2v.8l-.1.6v.2l-.2.5v.3H33v.4l-.1.5v.5l-.1.9.2-.2.2-.6.1-.2.2-.3c0-.2 0-.3.2-.5a6.1 6.1 0 0 1 .2-.3l.2-.2s0 .2.2.3c.5 0-.1-.3.2-.5l.5.3v-.3l-.7-.4h.3l-.3-.1.1-.1h.1v-.2l.1-.3.2-.4c0 .2 0-.1 0 0 .2.1.4.3.2.4 0 .2-.4-.1-.2.2h.5l-.4-.7.1-.3.1.1c.1-.2.7-.1 1 .1v-.3c-.1-.2-.4-.3-.8-.4l.5-.8c0 .2.1.4.4.7h-.6l.8.3c.3 0-.4-.5 0-.3.4.1.4.3.4.4 0-.3.8-.2 1-.5 0-.4-1.1-1-1.4-1.3l.4 1c-.2-.2-.4-.3-.4-.5-.3.2.2.5 0 .6-.6-.2 0-.4-.5-.6v-.3l.3-.4.1-.1h.2-.2l.3-.5.3.6-.4-.1.6.3c.7.2 0-.5 0-.7.5-.3.3.2 1 .4l-.4.2c.8 0 .5-.5.4-.8a1 1 0 0 0-.4 0V64h-1l.3-.3.2.2.2-.2H37l.2-.5c.2.2.6.3.4.5.4.2.4-.2.8 0 .3.2-.3.1.1.3.5-.3 0-1.7.2-2.6l.4.3c-.1-.6.2-1.2 1-1.2-.4-.1.6-.4-.4-.8.3 0 .3 0 .4-.2l-.2-.2c0-.2.5.1.6-.1-.4 0-.5-.3-.7-.5l1.5-.2h.6-.6l-.5-.1c.2-.1-.2-.3-.3-.4 0-.2.6.1.8.3.3-.2-.6-.9-.1-1h-.5c0-.4.6-.4.7-.8.6.2.3.5.5.8.1 0 .2-.1.4 0l.2.1v-.1h-.2l-.6-1.1c.5.5.7 0 .8 0 0 0 0-.1 0 0-.3-.2-.4-.1-.5 0-.3-.1-.1-.3-.3-.5h-.3l.2-.5c.2.1.4.2.3.3l.6.3c-.1-.4.1-.4-.1-.7.4 0 0 .1.4.2l-.2-.4c.2 0 .3.3.5.1-.2 0-.3-.4-.2-.5v.1l.2.2v-.2c-.1-.2 0-.3-.5-.5l.6.1-.4-.2c.4-.2 1.3.1 1.1-.6-.2 0-.3-.2-.4-.3-.3.1.2.4.2.6-.4-.1-.7-.6-1-.6.5 0 .2-.4 1.1 0 .2-.3-.2-.6.2-.8h.1c-.5-.4.4 0 0-.6h-.3c-.2 0-.2-.1-.2-.2v-.1l.2.1a.8.8 0 0 1-.2-.2v-.1l.5-1 .4.2s0 .2-.3 0c.3.3.5.4.8.4 0 .3-.3.2 0 .7.8-.1-.3-.6.5-.8l-1-.6c.3-.2.4.2.7.1-.1-.2-.5-.1-.9-.3l.1-.3.1-.1.6.2c-.1-.1.2-.1.3-.2-.5 0 0-.4-.6-.4V49c.4.2.4-.1.8 0-.2-.2-.2-.5-.3-.8a26.3 26.3 0 0 1 .3-.5h.1v-.1l.2-.7v.2l.1-.3h.7c-.6-.9 1.1.1 1-.5-.1-.5-.5-.3-.7-.4 0-.2-.1-.5.1-.5.3.2.3.3.2.4.6.2 0-.3.5-.2l-.3-.1c.3-.4-.4-.5.2-.9 0 0 0-.2-.2-.3v-.1h1l-.8-.3.4-.8v.2c.6.3 0-.4.2-.5l.6.4c0-.3-.2-.7.3-.7l.3.2c-.2-.7.3-1 .3-1.5h.4c0-.7-.4.2-1-.3h.1c.4 0 .3-.1.1-.3l.2-.3c.3 0 0 .3.5.5-.5-.4 0-.3-.1-.5.5.3.2-.3.7.1l-.6-1c.4 0 .4-.1.4-.3V39v.1h-.3V39l.2-.3 1.2.4c0-.5-.4-1-.5-1.3l.5.3-.4-.6v-.2h.1l1 .6-.2-.3.4.2c-.4-.8.6-.3.5-.9l-.2.1c-.3-.1-.2-.2-.2-.4.4.2.4 0 .7 0-.1-.3-.6-.7-.4-1 .5.5.5 0 1 .2-.5-.4 0-.6-.2-.8 0-.2.1-.3.4-.1v.2l.1-.2.1.2c.1-.1-.3-.4 0-.4.2.1.2.2.2.3.3-.2-.5-1 .1-1-.2-.1 0-.5-.6-.8.2 0 .7.4.7.1-.4-.4.2 0 .2-.5l.5.7c.3 0-.2-.7 0-1l.5.3c-.1-.2-.4-.6 0-.4l-.3-.3c.3 0 .4-.3.9-.3l-.5-.7c.9.3.6-.5.3-1.2l.1-.2h.3l.1.4v.1l.1.1-.2.1.5.1-.3-.2v-.2c0-.2.6 0 .1-.6 0-.3.5.2.7.2-.5-1 1.3-.5.3-1.6-.1.2-.6.2-.7.5.1-.3.4-.5.6-.7l.5.4c.5.1.4-.2.4-.6l.7.2.3.1.2.1.3.1c.3 0 .7 0 1.1.3.2 0 .4.2.6.4l.3.3c.3.5.8.8 1 1.6.2.3.2.7.2 1a175.4 175.4 0 0 1-.2 1.2v.3h.1l-.2 1.2-.5 1.1c0 .4-.2.7-.3 1 0 .2 0 .6-.2 1v.4l-.3.6-.1 1-.1-.2v.4h-.1l-.2.7-.3.8-.2.5v.3l-.2.4-.2.7-.1.6-.1.3-.2.6-.2.4v.4l-.1.3c0 .3-.2.5-.3.8l-.2.6-.1 1.1-.3.7-.1.2v.1-.2l-.4 1.3-.1.6a4.5 4.5 0 0 1-.2.6v.2c0 .3 0 .5-.2.8l-.3 1v-.1l-.4 1.5-.2.5-.2.6v.6l-.2.4-.1.5-.4 1.7-.6 2-.1.4c-.2.7-.2 1.1-.1.8v.6a68 68 0 0 0-.5 2.5l-.2.3v.5c-.2.6-.2 1-.1 0l-.2.8V68.5l-.1.7-.5 3.3v6.7l.2 1 .4.7s.1.6.5 1.3c.2.3.4.5.7.6l.3.1.3.2.3.1.4-.1 1.1-.6v.1l.3-.3.4-.4.5-.5.5-.6.5-.8v.2c0-.2.9 0 1-.4 0-.2-.2-.5-.5-.7v-.2h.3-.2v-.2s.2 0 .3-.2h-.2l.3-.6.4.3c0 .1-.2 0-.3.2.8.1.4-.6.3-.9h-.2l.2-.4.2-.2h.1c.3.3-.3.2.2.5.3-.2.2-.8.2-1.4l.8-1.3.3-.7v-.1h.2c-.3-.1 0-.3 0-.5l.1-.2.4-.7.3-.7h.8-.7v-.3h.2v-.2l.4-.9v.2c.2 0 .3-.2.5-.1l.2.2v-.1l-.2-.1-.3-.4v-.4c.3 0 .4-.2.4-.2h.1-.3c.2-.4 0 .5.6-1.1V68h.2L66 68l.3-.7c.3 0 .6-.2.4-.5h-.2c0-.3.2-.5.3-.7l.2-.5.4-1 .2.2c.8-.2-.3-.6.4-.8l-.2-.1.2-.4v-.2l.2-.9V62c.7-1.6.2-.4 1-1.7 0-.3 0-.5.2-.8.2 0 .4 0 .3-.2l-.2-.2v-.2h.1l.6-1.7.6-1.7.2.1v-.8l.1-.4.2-.3h.3l-.1-.2v-.4h.1v-.2h.4L72 53l.1-.2.2-.3c.5-.4 1-.5 1.6-.4h.6a3.2 3.2 0 0 1 1.3.2c.4.2.8.3 1.3.8.5.4.7.8.8 1v.8l-.3 1-.3 1.2c0 .3 0-.4-.3.7.2 0 0 .5-.2 1.2l-.4 1.6-.2.1-.7 2.5c-.2.5-.4 1.7-.3 1.6v.2l-.4 1.1-.4 1.6-.4.6-.4 2-.3.5v.4l-.3 1-.5 1.8V75h-.1v.3l-.1.1h.3l.2-.3 1-1.2-.1.1.2-.3c.4.1.2 0 .2-.2v-.1h.1l.4.4v-.4l-.3-.2.4-.6.5.1s0-.3-.2-.5l.3-.5c.2 0 .6.2.8.5v-.4c-.1-.2-.3-.3-.6-.4l.5-.6c0 .1 0 .3.3.5h-.6l.7.4c.3 0-.3-.6.1-.3.3.2.3.3.3.4 0-.2.8 0 1-.3.1-.3-1-1-1.1-1.4l.2 1-.3-.6c-.3.2 0 .5-.1.7-.6-.4 0-.4-.3-.6l.6-.8.2-.3.2.5-.4-.2.5.5c.7.3 0-.5 0-.7.6-.2.4.2 1 .5l-.4.1c.9.3.5-.5.4-.7v-.1H78v-.2c-.3-.1-.5-.2-.7-.1a56 56 0 0 0 .3 0l.2-.2-.3-.1.3-.3c.1.1.4.3.2.4.4.3.4-.1.7 0 .3.4-.3.2.1.5.6-.3.3-1.7.5-2.5l.4.4c0-.6.3-1.1 1.1-1-.4-.1.5-.3-.3-.8h.4l-.3-.3c.1-.2.5.2.6 0l-.5-.5.1-.1H82c.2.1.3.2.5 0H82l-.5-.2c.2 0-.1-.2-.2-.4l.7.4c.3-.1-.5-.9 0-.8l-.4-.2.1-.2c.2-.1.5-.2.5-.4.6.2.3.5.5.8h.4l.2.2v-.1l-.2-.1a12 12 0 0 1-.5-1c.5.5.7.1.8 0h-.5c-.3-.2-.1-.3-.3-.5l.2-.3v.2l.6.3v-.7c.3 0 0 .1.3.2l-.1-.3c.1-.1.2.3.4.2-.2-.2-.3-.5-.1-.6v.1l.2.3-.1-.3c0-.2.2-.2-.4-.5l.6.2-.3-.2c.3-.2 1.2.2 1-.5l-.3-.2c-.3 0 .1.3 0 .5l-.5-.5.2-.3.6.2c.2-.2-.1-.6.2-.7h.2c-.6-.4.4 0-.1-.5H85l.5-.7v.1l.2.1-.2-.2.1-.3.6.3c0 .3-.3.1 0 .6.8 0-.3-.6.5-.7l-.8-.6.6.2c-.1-.2-.3-.3-.5-.3l.2-.3H86h.4l.3-.1c-.4 0-.2-.2-.3-.3l.1-.2h.4l-.1-.4v-.1l1-1.4h.4c-.5-1 1 .2 1-.4-.1-.4-.4-.2-.7-.4.1-.2 0-.5.2-.5.2.2.2.4.1.4.6.3 0-.2.5 0L89 53c.4-.2-.3-.5.4-.7L89 52l1 .1-.7-.4c.1-.2.3-.3.6-.4 0 0 .1 0 0 0l.2-.2h.3v.1-.1H92c.4 0 .7.2.9.3.5.2 1 .4 1.4.8.4.4.7 1 .9 1.9 0 1.1 0 1.5-.2 2.2v.2l-.6 2.3-.4 1.1-.2 1.6-.6 2v-.2l-.2 1s0 .1 0 0l-.7 3-1.4 5.1-.3 1.7-.2.5c0-.1 0 0 0 0v.5l-.2.6s0 .1 0 0h.1l.2-.1.3-.4.4-.7-.2.3.3-.3.5-.5c.5-.6-.3.2.3-.6.1-.3.5-.7 1-1.3.1 0 .1 0 0-.2l.3-.1.3.3v-.4l-.2-.1.4-.6h.3v-.3l.3-.6.7.4V70l-.4-.3v-.2l.7.4c.2 0-.4-.6 0-.3.4.2.4.3.4.4 0-.2.8 0 .9-.2.1-.4-.8-1-1-1.5l.2-.2.4.4c.6.3 0-.5 0-.7.6-.2.3.2 1 .5l-.4.1c.8.3.4-.4.4-.7v-.1H97v-.2l-.6-.1v-.1h.1l.2-.1h-.1c0-.2.1-.2.2-.3.1 0 .3.2.1.3.4.3.4-.1.8 0 .2.4-.3.2 0 .5.6-.3.3-1.7.6-2.5l.3.4c0-.6.3-1 1.1-1-.4-.1.6-.3-.3-.8h.4l-.2-.3c0-.2.5.2.6 0a.8.8 0 0 1-.5-.4l.2-.2h1.1c.2.1.4.2.6 0h-.6l-.4-.2c.2 0-.2-.2-.3-.3 0-.2.5.2.8.3.3-.1-.5-.8-.1-.8l-.3-.1a89.9 89.9 0 0 0 .6-.7c.6.2.3.5.4.8h.5l.1.2V62l-.1-.1-.6-1c.5.5.7.1.8 0h-.5c-.2-.1-.1-.3-.2-.5v-.1a21.9 21.9 0 0 0 .2 0l.6.3-.1-.7.4.2-.2-.3c.2 0 .2.3.4.2-.1-.2-.2-.5 0-.6v.1l.1.3-.1-.3c0-.1.2-.2-.3-.5l.6.2-.4-.2c.3-.2 1.3.2 1-.4l-.2-.3c-.4 0 0 .3 0 .5-.2 0-.3-.3-.5-.4l.3-.4.4.2c.3-.2-.1-.6.3-.7h.1c-.5-.3.3 0 0-.5l.3-.6.1.1.3-.3.2.1c0 .3-.3.1 0 .6.8 0-.2-.6.5-.7l-.5-.4H105.5l-.1-.2s0-.2.3-.5c.2-.1-.1.4 0 .2l.6-.5.6-.5c.5-.2 1-.4 1.5-.4s1 0 1.5.2c1 .3 1.8 1 2.3 1.7l.4.6.2.9v1.2l-.1 2c-.3 1-.2 2-.5 2.8v1.4-.1.7s-.1.1-.1 0c0 1.6-.2 1.2-.3 2.8v-.3c0 1.7-.4 3.5-.4 3.5l-.2 1.7.1-.3-.2 1v.6l-.4 2.8v1c-.1.5-.2.8 0 1.2v.3l.1.2c.1.2.3.2.3.1h.2v.2h.4V80l1-.4.1-.1h.1l.2-.2.2.2v-.3l.6-.7-.1.1v-.1l.6-.5.2.2V78l.1-.2.1.1h.1v-.2l.4.4c0-.1.7.2.8 0v-.2c0-.2-.4-.5-.6-.8l.2-.2s-.2.2 0 .2v-.2c.2 0 .2 0 .2-.2l.3-.2.4.3h-.4c.8.4.4-.3.4-.5V76h-.1l.3-.4h.1c.3.4-.3.1.2.5.2-.1.2-.6.2-1l1.2-1.5h.3c-.3-.1 0-.2 0-.4l.5-.7.2-.4h.4c.2.2.3.3.5.2l-.5-.1-.3-.1.1-.2.2.1v-.3l.5-.7v.4h.5l.1.2-.1-.2-.4-.7.6-.1-.4-.1.2-.4.2.2c-.1-.3 0-.3 0-.4v-.2l.3.2-.2-.3c.1 0 .2.3.4.2-.2-.2-.3-.4-.2-.5l.1.1.2.2-.2-.2V69.2h.3-.2l.1-.2c.4 0 .9.2.7-.3l-.3-.2.1-.1h.1v-.2l.3-.1.4-.7c0-.2 0-.4.2-.6h.2c0 .3-.3.1 0 .6.8 0-.2-.6.5-.6l-.6-.4v-.1s.1.1.2 0l.1.1-.2-.2.2-.3.2-.1h-.2l.2-.4h.2l-.1-.1V65c.2 0 .2.2.2.2V65h-.2l.7-1.3.3.2c-.6-1 1 .2 1-.4-.2-.3-.5-.2-.7-.4 0-.1-.2-.4 0-.4.3.2.4.3.2.3.6.4 0-.1.5 0 0 0-.2 0-.3-.2.3-.2-.3-.4.2-.6 0-.1 0-.2-.2-.3v-.1c.4 0 .4.2.9.2l-.7-.4c0-.2.2-.3.3-.5.4.3.2 0 .2-.2l.5.3c0-.2-.2-.6.3-.5l.3.2c-.2-.6.2-.8.2-1.2h.4c-.1-.4-.3 0-.7-.2l.3-.3.3.2-.3-.3h.1c.5.2.2-.3.7.1l-.3-.5.4-.5.2-.1.4.2-.1-.4.5-.5h.1l.2-.2v.1-.1l.8-.5 1.3-.6.5-.1.6-.1.3-.3h.6c.5 0 .7-.1.7-.2l.7.1c.2-.2 2 .4 2.4.4l.7.3.9.3c.1 0 0 .1 0 .1l.3.2v-.1c.1-.1 0-.1 0-.2h.2l.4-.6.3.2c.4 0-.3-.3 0-.4l.5.2v-.2l-.6-.2h.1v-.2h-.1s.2-.4.2 0V55h.5l-.3-.4.2-.3-.3.2a9.4 9.4 0 0 1 .3-.4c.3 0 .6.1.8.3l-.2-.3-.5-.3.1-.1.7.2c.2 0-.5-.4 0-.2.4.1.4.2.4.3 0-.2.8 0 .8-.4 0-.2-.9-.6-1.3-1l.2-.2c0 .1 0 .1 0 0l.3.2c.7.2 0-.3-.1-.5.4-.2.3.1 1 .3l-.3.1c.8.2.3-.4.1-.7h-.2l-.2-.2h-.3l.2-.4s.2.1 0 .2c.5.2.4-.1.8 0 .3.2-.3.1.2.3.4-.2-.1-1.3-.2-2l.4.1c-.1-.4 0-.9.9-.8-.5-.1.4-.4-.5-.8h.3l-.3-.2c.1-.2.6 0 .6-.1a1 1 0 0 1-.4-.1l.2-.3 1-.1c.1 0 .3.1.4 0h-.5l-.5-.1c.2 0 0-.2-.1-.3l.6.2c.2 0-.2-.4-.3-.6v-.1l.3-.5V46c.4.1.3.4.4.6.2 0 .2-.1.4 0l.2.1v-.1h-.2l-.6-.9c.5.4.6 0 .7 0h-.5a.5.5 0 0 1-.2-.1l.2-.4.5.2c-.2-.3 0-.3-.3-.6.4 0 .1.1.5.2l-.3-.3c.2-.1.3.3.5.1-.2-.1-.4-.3-.2-.5v.1l.2.2-.1-.2c-.1-.1 0-.2-.3-.3h.4l-.3-.1c.3-.2 1.2.1.9-.5l-.4-.2c-.3 0 .2.3.2.5-.2 0-.3-.2-.5-.3l.2-.4.4.1c.1-.2-.3-.5 0-.6h.2c-.6-.3.4 0-.2-.5l.2-.4h.2-.1v-.3l.5.1c0 .3-.3.2.1.5.8 0-.3-.5.4-.6l-.7-.4h.4l-.3-.1.2-.4h.2-.2l.2-.4h.1V39.6h.1v-.1l.7-1.4.1-.3c.4 0 .9.2.7-.1 0-.3-.3-.3-.5-.3l.1-.3c0 .1.2.1.1.2.6.2-.1-.2.3-.2h-.3l.1-.3.1-.4h.1l.2-.3h.3l-.2-.1.4-.8v-.1l.2-.4h.1l.3.2c-.3-.6.1-.8 0-1.2h.5c0-.3-.2-.2-.3-.2v-.2h.1l.1-.3c.2 0 .1-.2.5.1l-.3-.4.4-.8.5.2c0-.3-.2-.5-.3-.7v-.2h.2-.1l.1-.3v-.1l.6.3-.2-.3.4.2c-.5-.6.5-.2.3-.7l-.2.1c-.3-.2-.2-.2-.2-.3h.7c-.2-.3-.7-.6-.6-.8.6.4.5-.1 1 .1-.6-.3 0-.4-.3-.6 0-.2 0-.3.4 0h.2s-.4-.3 0-.2l.1.2c.2 0-.2-.5-.2-.7a2.1 2.1 0 0 1 .8 0h.1s-.1-.1.4 0h.2l.9.3c.5 0 .8.2 1 .4l1 .7.5.8.3.4v.1l.2.3.1.4.1.6a2.6 2.6 0 0 1-.3 1.2l-.2.3-.3.4v.1l-.1.2-.2.6c0 .2-.3.9-.6 1.2v.1l-.1.3-.1.1-.7 1.7-.4.9-.3.9-.3.8-.2.3c0 .1 0 .4-.2.5l-.2.5-.2.4-.1.6-.2.3c-.2 1-.6 1.2-1 2.5l-.3.6c0 .1 0 .4-.2.7l-.1.7-.2.5h-.1l-.2.5c-.2.8.1 0 0 .7-.1.1-.2.9-.5 1.1a31.2 31.2 0 0 1-.8 2.6v.3l-.1.2v.3l-.3.8v.5l-.6 1.5c0 .3 0 .4-.1.3l-.5 2.3-.3 1.4c0 .3 0 .6-.2.8l-.1.6h-.1v1.1c0-.2 0-.2-.1 0l-.1 1v-.1l-.1.1V65.2l-.1.8-.2.7-.2.9v5.7c.3 1 0 .5.3 1.4v.1l.3 1.1c0 .3.1.5.4 1h-.1l.4.7.3.4.3.2.6.4c.1 0 .3.2.7.2 0 0-.2 0 0 .1h.5v.1l.3-.1.6-.2h.1c.3-.1.6-.3.4-.3h-.2l.6-.2.2.3.2-.2-.1-.3v-.1h.1l.3.3c.1 0 0-.4.2-.2v.3c.1-.1.6.1.8-.1.2-.2 0-.6-.1-.9l.2-.1h-.1l.1-.1h.1v.2c.4.2.3-.3.3-.5.5-.1.1.2.5.4h-.3c.5.2.5-.3.5-.5h-.2v-.2h-.1l.1-.2.2-.2v.2c.1.2.3-.1.5 0 0 .2-.3.1-.1.3.3-.1.5-.6.7-1.1l1-1.2h.1l.1-.1h.2c-.2-.1.2-.3.1-.5v-.1c.2 0 .5-.5.7-1h.7-.3l-.3-.1.2-.2h.2v-.7l.2-.1.2-.4c.2.1 0 .4.1.5h.3v-.1l-.2-.6c.3.2.4 0 .5-.2l-.3.1.2-.2v-.1h-.3l-.2-.1h-.3v.2h-.7a1.5 1.5 0 0 1-.5.1H159c-.5 0-1-.2-1.3-.4.1-.2-.4-.7-.4-.7s-.1 0 0 0l-.2.1-.2-.4c.2 0 .2-.3.5-.3.4.1-.2.3.3.3.3-.5-.6-1.6-.7-2.5l.4.2c-.2-.5-.1-1.2.7-1.4-.5 0 .4-.6-.7-.7.3 0 .3-.1.4-.2l-.3-.2c0-.2.5 0 .5-.3-.3 0-.5 0-.7-.2l.1-.2 1.2-.5.6-.1-.6.1h-.5l-.1-.1.2-.2.4.1V63l.1-.1.4-.1.3-.1c.2 0 .7-.2 1-.1h.1l.6-.2 2-.4.9-.4.3-.1h.1v-.1l.3-.2h.1V60.8l.1-.1c0-.1 0-.3.2-.5 0-.2 0-.5.2-.7v-.1h.1v-.5h.1v-.2c.3 0 .4.2.4.3 0-.2.7-.2.7-.5 0-.2-.4-.4-.8-.6a44.2 44.2 0 0 0 .2-.6v-.4l.6.3-.3.1c.9 0 .3-.5.1-.7h-.3v-.3c.2 0 .2-.2.5-.2.4.2-.2.2.3.4.2-.3 0-1-.2-1.5V54.4h.2V54l.1-.2.7-.2c-.4 0 .3-.3-.3-.6v-.1l.1-.1v-.3h.3l-.3-.1v-.4l1-.1h.5-.6a2 2 0 0 0-.5-.1c.2 0 0-.2-.2-.3.2 0 .5 0 .7.2.3-.2-.7-.7-.3-.7h-.2l.2-.6.1-.2c.6.2.4.4.6.7.1 0 .2-.2.4-.1l.2.2v-.2h-.2a12 12 0 0 1-.8-.9c.6.5.7.1.8 0l-.4.1c-.3-.1-.3-.2-.3-.3V49.3l.7.2c-.2-.3 0-.3-.3-.6.4 0 0 .1.5.2l-.3-.3c.1-.1.3.2.5 0-.2 0-.4-.3-.3-.4l.1.1.2.2-.2-.2c0-.2.1-.2-.4-.4h.6-.4c.3-.3 1.2 0 1-.6l-.5-.2c-.3 0 .2.3.2.5l-.6-.4V47l.7.1c.2-.2-.3-.5 0-.7l.2.1c-.6-.3.4 0-.2-.5h-.2l.2-.4.1-.2.3.1-.2-.1v-.3l.6.2c0 .2-.3.1.1.5.8 0-.3-.5.4-.6l-.8-.5.5.1-.4-.2v-.3h.2c-.2 0 .2 0 .2-.2h-.2a49.6 49.6 0 0 0 .4-.4l-.2-.1.1-.2.2.2v-.3h-.1l.4-1 .2-.1h-.1V42h.3l-.2-.1.1-.2c.3 0 1 .2 1-.1-.2-.4-.5-.3-.8-.4l.2-.3c.1.1.2.2 0 .2.7.3 0-.2.5-.1l-.3-.1v-.3l.2-.1.1-.4.2-.2h.3l-.3-.2.4-.8.2.1v-.4c0-.1.1-.2.3-.1l.3.2c-.2-.5 0-.8.1-1.1l.1-.2h.3l-.1-.2.3-.5.3.2-.2-.3.1-.3.5-.7.3.2c0-.1 0-.3-.2-.4l.5-.7.2.2-.2-.4c.2.2.3 0 .5.3-.5-.7.5-.2.4-.7h-.2c-.3-.1-.2-.2-.3-.3.5.2.5 0 .7 0l-.4-.5.2-.2c.3.2.3-.1.7.1-.5-.4 0-.4-.2-.7v-.1h.4v.2h.2s-.3-.3 0-.2l.2.2c.2-.1-.6-1 0-.7 0-.2 0-.3-.2-.5l.1-.1h.2V31c.1 0 .2 0 .1-.2l.5.6c.3 0-.2-.6 0-.7l.5.2c-.1-.2-.4-.6 0-.3l-.3-.3c.2 0 .3-.3.8-.1l-.5-.7c.6.2.6-.1.4-.6l.3-.2v.1l.1.1s0 .1-.1 0l.4.3-.3-.3v-.2c0-.1.4 0 .2-.3l.2-.1.3.2c-.4-.9 1-.3.4-1.1l.1-.1.1.1c1 .4-.2-1.5 1-.8V26l.5-.3.4-.5.1-.1c.7.2 0-.9.8-.2.1.1 0-.1 0-.2l-.2-.2h.2c0-.2.2-.2.3-.3l.2.1-.1-.2.4-.3a29.7 29.7 0 0 1 2.2-1.3l.5-.2.4-.1.6-.2h.5l.2-.2.5-.1.8-.2c.6 0 1 .3 1.3.4l.4.1a4 4 0 0 1 1 .6l.3.3c.2 0 .4.3.7.5.6.7.8 1.2 1 1.6l.3 1.2V28l-.2 1-.3.7-.5 1.3-.4 1.2-.8 1.5-.1.4-.1.2-.3.4-.4.5-.7 1.5-.6 1.3-.1.4-.4.5-.1.2-.2.2-.8 1.5.2-.5-.3.7-.2.3-.4.8a9 9 0 0 0-1 1.7l-.3.7-.3.4-.6.9-1 2-.7 1-.5 1-.6.9-.8.8s-.1.4-.5.9l-.7.7-1 1.2-.3.3-.8 1-.2.3-.3.3a4 4 0 0 0-.4.4l-.1.2-.2.3-.3.5-.3.6h.3l1-.2h.9l.8-.2 1.9-.3h.8l.7-.2.2-.1h.1l.1-.1.5-.1 1-.3.8-.2.9-.2 1-.2h2.1c.4.1 1 .3 1.3.7.4.4.6 1 .6 1.4l.2 1.2-.2.6v.6l-.1.2-.2.6a6.8 6.8 0 0 1-.3 1v.2l-.5 1-.5 1.8-.4 1.1-.3 1-.3.4-.1.2-.2.4-.2.4v.2l-.2.7-.1.2-.5.9c.1-.1 0 0 0 .2v.2l-.2.3-.2.5-.2.4v.2l.7-.6a4.8 4.8 0 0 1 1-.6v-.2l.2-.2.3-.5.4-.3.2-.2s0 .2.3.4c.5 0-.2-.3.1-.5l.5.3V70l-.6-.3h.2l-.2-.1.3-.3.1-.2h.1l.5.1-.3-.5.1-.1.3-.4c.3 0 .5.1.7.3V68l-.4-.2v-.1l.1-.1.6.3c.2 0-.5-.6 0-.3.4.1.4.3.4.4 0-.3.8 0 .9-.4 0-.3-.7-.8-1-1.2l.2-.2.2.1c.6.2.3-.2.1-.5l.1-.1.1-.1c.2 0 .2.3.8.5l-.4.1c.8.2.4-.5.3-.8 0 0-.1-.1 0 0h-.3V65c.4.2.4-.2.7 0 .3.3-.3.1.1.4.4-.2.3-1 .4-1.8l.1-.2.2-.3h.1V63l.3-.5.3-.3h.6c-.4-.2.2-.3 0-.7 0-.2.1-.4.3-.5l.1-.1.2-.4.2-.2h.5c.2 0 .3.2.5 0h-.5a2 2 0 0 0-.4-.1l.2-.3.2.2c.2 0 0-.3 0-.4l.6-.7v-.1.3h.5l.2.2v-.1l-.1-.1-.4-.6.2-.2.4-.2h-.2l.2-.4c.2-.1.2-.3.3-.4v.1l.1-.2.1-.1h.2V56.9l.5-.5.3-.3c.1 0 .2-.1.2-.3.2-.2.5-.5.8-.6l1-.2h1.5v.1h.2l.1.1.4.3c.3.2 1 .4 1.4.8.3.2.5.6.6 1 0 .4 0 .8-.2 1.2l-.2.6-.1.2-.3.7-.2.6-.2.7-.2.7v.2l-.2.2-.1.4a2 2 0 0 0-.2.4l-.1.7v.2l-.1.3-.1.3-.2.6v.7h-.2l-.7 2.4-.5 1.1c0 .2 0 .7-.3 1.3l-.2.6-.1.2v.3l-.5 1.2-.4 1c0 .4-.2.8-.3 1.1l-.4 1.2c0 .1 0 .2-.2.2v1.7l-.2.7a2.6 2.6 0 0 0 0 .4 2.1 2.1 0 0 0 .8-.1l.2-.2h.2v.2c.5.2 0-.3.4-.4l.3.5.2-.4c-.2 0-.3-.2-.3-.3l.6-.5.3.2V78l.7-.5.4.4v-.4l-.1-.3.1-.1.4.3c.3.1-.2-.6.2-.2l.2.4c0-.2.8.2 1-.2.2-.3-.5-1-.7-1.4l.1-.2.2-.1.2.3c.6.4.3-.2.3-.5l.2-.2c.2 0 .1.4.6.7h-.4c.8.4.6-.4.5-.7l.1-.1H208.7V75h-.1l.2-.2c.3.2.4-.1.7 0 .2.5-.4.2 0 .6.5-.2.6-1.2.8-2l.3-.4.1.2.1-.3.5-.6c.2-.1.5-.1.8 0-.4-.2.4-.4 0-.9v-.1h.2l.1-.3h.3l-.1-.1.4-.5h.7c.2.1.3.2.5.1l-.5-.1-.5-.2.2-.3.3.3c.2 0 .1-.3 0-.5l.4-.5.3-.6c.2.3 0 .5.1.7h.5v.3l.1-.2-.5-1c.4.3.7 0 .8 0V68c-.3-.1-.5 0-.5.1l-.2-.1.1-.1.3-.5.4.4V67l.3.2-.1-.3c.2-.1.2.3.4.2-.2-.2-.2-.5 0-.6v.1l.1.2v-.2l-.1-.4h.3l-.2-.1.1-.2c.4 0 1 .2 1-.4-.2 0-.4-.2-.4-.3l.1-.2.2.1.1-.4.2-.2h.1v-.1l.8-1.2.2-.2c0 .4-.3.2 0 .7.8 0-.2-.6.6-.8l-.4-.3.2-.1.4-.7.3-.5.4-.4c.2-.1.3-.3.3-.4l.5-.8.6-1c.2 0 .4 0 .4-.2v-.2l.3-.9.3-.5.2-.4h.1v-.2l.3-.7.2-.2v-.1l.4-.6.2.2.1-.8.4-.6v-.1h.3c0-.2 0-.3-.1-.2V53h.2l-.2-.1.2-.3c.1 0 .1-.3.5 0l-.3-.5.1-.1.5-.8v-.1l.6.1a2 2 0 0 0-.3-.6l.2-.3v-.2c.2 0 .2-.2.3-.3l.4.3-.2-.4c.3.1.3 0 .5.2-.5-.8.5-.4.5-1l-.3.2c-.3-.2-.2-.3-.2-.4.5.1.5 0 .8 0l-.5-.8.1-.1c.4.2.5-.3 1 0-.6-.4 0-.6-.3-.8 0-.2 0-.3.4-.2v.2l.1-.1h.1c.1 0-.3-.3 0-.2.2 0 .2.1.2.2.3-.2-.6-1 0-1 0 0 0-.3-.2-.5v-.1l.3-.1c-.4-.5 0-.2.1-.6l.6.7c.3 0-.3-.7 0-1l.4.2c0-.2-.4-.6 0-.4l-.3-.2c.3-.1.3-.5.9-.4l-.6-.7c.8 0 .6-.5.2-1a33.4 33.4 0 0 1 .3-.5l.2.3v.2c.1.1 0 .2 0 .2h.4l-.3-.2v-.2c0-.2.5-.2 0-.6 0-.3.5.1.7 0-.7-.8 1.2-.6 0-1.5l-.2.1.1-.3.5.3c1.1 0-.6-1.6.8-1.3 0-.3 0-.7-.3-1.1l.2.1-.1-.4V36.6a14 14 0 0 0 .2.2c.3 0 .3-.3.2-.6l.1-.3.1-.3c0 .1 0 .2.2.3 1 0-.3-1 .8-.7.2 0 0-.1 0-.3h-.4l-.2-.2v-.2l.2.1v-.4l.7.1c-.2-.3-.3 0-.6-.3.6 0 .9-.9.7-1.5l.3.3-.2-.4.3-.6v-.1h.3l-.2-.1.1-.2.2-.5.1-.1.3-.4c.3-.7.8-1.1 1.5-1.2h1.2l.5.1h.3l1 .2.9.4h.5l.4.7c.3.5.5.5.6.5l.3.6.2.4c0 .3 0 .6-.2.9l-.3.4-.1.3-.2.4-.4.5a3 3 0 0 0-.4.6c0 .1 0 0 0 0h-.1l-.2.4c.2 0-.2.3-.3.6l-.3.4-.2.2-.4.6-.2.4v.2a2 2 0 0 0-.4.5l-.4.8-.2.5-.2.5-.2.2-.4 1-.2.3-.1.2-.2.5c-.1.1-.5.4-.5.8l.2-.2-.5 1V44l-1.6 3.4v-.1l-.7 1.6-.1.3-.3.6-.6 1.1-1.1 2.3v.2l-.2.1a26 26 0 0 1-1.7 4.2l-.1.4-.1.2-1 2.5-.3.8c0 .7-.4 1.4-.4 1.4l-.4 1-.2.5c0 .2 0 .4-.2.7l-.1.3-.3.5-.1.3v.3l-.4 1-.3.5-.5 1.5-.6 1.4-.2.7-.1.4-.2.7v.3l-.1.5-.1.1c0 .4-.2.8-.4 1.2l-.4 1.1c0 .2 0 .7-.2 1l.2.4V78.3l-.2.2v.6l.1.5c.1.3.3.4.4.5.1 0 .2-.2.3-.1l.4-.2.2-.1c.3.3.4.7.4 1 .6.2.2-1.1.5-1.2l.2.3-.1.1.1.1s.1-.1 0-.2c.4-.3.7-.7 1-.5.2 0-.2-.6-.1-.8l.3.4c0-.4.5-.1 0-.7v.3l-.2-.2.2-.2.3.5c0-.1.2 0 0-.2v-.1l-.2-.3.1-.1s0 .2.3.5c.5-.7 1.6-1 1.7-2.2l.2.4c-.2-.9 1 .2.3-1.2l.4.7c.3 0-.4-1.1.3-.7l-.2-.2h.2-.2c0-.4 0-.4.3-.4.2.2 0 .1 0 .2.2.2 0-.3 0-.4.3.1.3.3.4.4 0-.5.6 0 0-1h.1l.3.1-.1-.2c-.2-.4.4.3.7.3l-.4-.8.2-.2.2.2V73c.6.4.4 0 .4-.3l.1-.2.3.1c0-.2.3-.3.2-.6.2.3.2-.2.5.2-.7-.7.5-.2 0-.8v-.1l.3-.2c.1.1 0 0 0-.1l.1-.1h.1c.1 0 .1 0 0-.1l.1-.2h-.1l.1-.2.5.3-.3-.4.1-.2.1.2c.2-.2.3-.4.3-.7l.2-.1s.1.1.2 0c.2.1.1 0 0-.3l.2-.3.1.2v-.4h.2c.1 0 .2-.1.2-.3 0-.2.1-.2.2-.3l.2-.2.1.2c0-.3.2-.3.1-.6l.3.3c.1-.1 0-.3-.2-.5l.2-.2v.1c.3-.4 1.1-.4.9-1.1l.2-.4c.1.2.3.3.5.3 0-.4.2-1 .7-1.2-.6-.5 0 0-.1-.5l.4.3c0-.4-.3-.3-.5-.5 0-.1.4 0 .6.2.2-.1-.1-.1-.4-.4l.8.4c.1-.6.1-1.5.7-1.9h.6l-.4-.1h.5l.5.3c.1-.1.6.2.6.2l.7.5c-.1-.1 0 0 0 0 .4.1.7.5.8.8Zm-57.6-1.4Zm-112 9.7c.1 0 .1 0 0-.2l-.1.3.1-.1Zm131.6 4.8v-.2h-.1Zm.2-.5V77c.2 0 .2-.3.2-.4Zm-13-9h.3l-.2-.2-.1.2Zm-36.9 0c.3 0 0-.2.4-.2l-.4-.2v.3Zm0 1.1c.1 0 .2-.2.5-.2l-.5-.1v.3Zm-10.6-24.5V44.5c.2 0 .2-.1 0-.3Zm-3 5.8-.1.1h.2Zm0 1-.3-.3-.2.2c.2 0 0-.2.6 0ZM177 33.2l-.2.3.4.3c0-.2 0-.4-.2-.6ZM169 48.7c.2 0 0-.2-.2-.3v.1l.2.2Zm-13.7 29-.3.2h.3v-.2Zm.2.2c.2 0 0-.3.2-.4l-.2.1c.3-.2-.2 0 0 .3Zm.3 0 .2-.5h-.2v.4Zm-2.7-48 .6.3c0-.1-.1-.5-.5-.8v.5Zm-38 47.3.2.4Zm-1.5 1.4s0 .2-.2.2l.3-.2Zm-11.2-19.3v.2l.1.2c.2 0 .1-.2 0-.4Zm38.9-6c0 .1 0 .2-.2.3h.5a2 2 0 0 1-.3-.2Zm.4.2c.1-.1-.3-.4-.1-.5l.5.3-.4-.6-.3.6.3.2Zm86.7 24.2c.2 0 .1-.2 0-.4h-.1l.1.4Zm2-2.4c.1.1 0 0 0-.2v.2Zm-2.2 2.3v-.2l-.2.2h.2Zm-12.5-11-.1.3.1-.2Zm15.4 7.8-.1.1c.1.1.4.3 0-.1ZM229.7 45c0-.5-.5-.8-.1-1.1l-.2-.2c0 .3-.2.6-.3.8.8 0-.2.1.6.5Zm9 19.8-.1.2c.2 0 .2 0 .1-.2Zm1.3-2.2-.2.3c.6.2 0-.3.8-.2l-.4-.2-.2.1Zm-.9 1.9v-.2h-.1l.1.2Zm-6 7.8.1-.1v-.1l-.1.1Zm-2.5 2.6v.1-.1Zm7-8.4c0 .1.2.2.1 0h-.1ZM209.3 74l-.2.1s.3 0 .4.2l-.2-.3ZM179 31.2l-.2-.7-.1.2h-.1c.4.2-.3.1.4.5ZM227.3 48l-.2.5.5.2c0-.2 0-.4-.3-.7Zm-60.8 7.3-.2.3h.3l-.1-.3Zm-10 21.7h.1V77h-.2v.1Zm51.2-1.4v-.1h-.2l.2.1ZM158 76h-.2l.2.2v-.2Zm38.1-11.4v-.3l-.3.2h.3Zm20.7 1.4-.1-.4-.2.1.3.3Zm-24.2 3v-.1l-.2.2h.2Zm1.6-2.4-.2.2c0 .2.3.4.4.6Zm-.3.4-.1.2c0 .2 0 .2.2.3V67ZM51.6 36.8c.3 0 .3-.1.1-.3v.1-.2l-.2.3ZM156 95.3c.2 0 .1-.1 0-.2v.2ZM99.8 63l-.2.1v.1l.2-.2ZM55.6 31.2v-.1a.9.9 0 0 0-.4.2h.4Zm-3.2 5.2.6.3c0-.3 0-.8-.7-1.2.5.1.4-.3.3-.6 0 .2-.1.3-.2.3a5 5 0 0 0-.2.5c.2.3.6.6.2.7Zm3-3.2c0-.5-.5-.8-.1-1.1-.1-.3-.4-.2-.5-.2l-.1.1.1.7c.8 0-.3.2.5.5Zm100.8 61.5.2.1-.2-.1ZM38.6 62l-.4-.4v.1l-.1.3c.4.2.2-.2.5 0Zm14.5-27.2V34.6H53l-.2.1h.1l.2.2Zm-10.5 20c.3 0-.1-.4-.5-.7l-.1.3c.2 0 .4 0 .6.5Zm-28.5-3.6-.1.3h.3l-.2-.3Zm23.2 11.9c.8.3.3-.4 1 0l-.7-.4-.3.4Zm9-17v.2l.2.2-.1-.3Zm-3.2 6.3v.2h.1v-.2Zm-39.6 28-.3-.2v.1l-.1.3v.2l.4-.4Zm43.2-34.8-.3.4c.4 0 .4-.2.3-.4ZM3.1 83l-.7-.4c0 .3-.2.5-.4.7v.1l-.1.3v.2l.5.2c-.3-.6.7-.6.7-1Zm76-15.6-.4-.4v.1s0 .2-.2.2c.4.3.2-.1.6 0Zm16.3 2c.2 0-.1-.4.1-.6 0 .2.2.4.4.6l-.3-1v.3-.3c-.2.1-.2.4-.4.6.1.1-.3.1.2.5ZM96 68l-.1.2.2.1Zm-7.7-14.5-.1.1v.1s.1-.1 0-.2ZM98 65.8l-.3-.4s-.2.3-.1.4c.2.1.1-.2.4 0ZM83.3 61l.3.3c.2 0 0-.3-.2-.5l-.1.2Zm-5.5 7.2c.6.3.2-.3.9.2l-.6-.5-.3.3Zm44.2.4v.1c0 .1 0 .2.2.2l-.2-.3Zm-24.3-1.9-.5-.4-.3.3c.5.2.2-.4.8.1Zm-2.9 2.8h.4l-.2-.2v.1-.1Zm207.4-18.9v-.4.4Zm35.4 1.6-.2-.3-.2.2h.4ZM279.8 78l-.5.5v.2c.2-.7 1 .4.6-.7h-.1Zm-6.4 5.2-.3.2v.3c.3 0 .3-.3.3-.5Zm120.6-57v-.5c0-.4-.2-.7-.4-1l-.1-.4-.4-.2h-.3l-.2.3-.5.1-1.1.7-.7.7v.1c.2 0 .3-.4.4-.4l.3-.2.4-.1h.2c.3-.1.3-.4.4-.5H392.6l-.3.2v.1l-.1.2-.5.6-.9 1.1-.5.7-.5.6-.4.7-.2.3-.1.2-.3.3c-.4.5-.9 1-1.2 1.6l-.6.8-.3.4a5.9 5.9 0 0 1-.6.8l-.3.4-.5.8-.4.7-.5.8-.5.7-.2.2-.6 1a106.6 106.6 0 0 0-.5 1.1l-.5.7-.4.4-.3.4c0 .3-.2.5-.3.7l-.3.7-.2.2-.3.7-.9 1.5-.6 1.4-.4.5s0 .3-.2.5v.4l-.2.2-.1.1v.2c-.2 0-.2.4-.3.2a15.5 15.5 0 0 1-.5 1.6v-.2c-.2.5-.3.5-.4.5l-.2.3v.3l-.3.8c-.2.5-.5.7-.6.8v.1l-.2.3-.1.2-.1.3-.1.2-.1.5a3.3 3.3 0 0 1-.2.6v.1l-.2.4-.5 1-.2.4-.4.6-.2.3v.2l-.2.2-.5.9.2.2h-.3v.4l-.1.2c.1.1-.4.7-.3 1h-.1v.4c-.1.1-.2-.1-.3.3h.1v.4l-.4.6v-.2c0 .1-.2.5-.1.7 0 0 0-.2 0 0 0 0-.1.2-.1 0v.5-.2l-.2.7.3-.5v-.1h.2l.4-.6.2-.1.1-.2.7-1c.2-.2 0-.3.2-.2l.3-.6a90 90 0 0 0 .7-1.1c0-.4.2-.3.4-.7l.2-.4.5-.6.1-.1v-.5l.2-.1.3-.7v.2l.3-.4.3-.2v-.1h.1V55l.8-1.2.3-.6v.1l.2-.2.3-.4.2-.4.3-.4.4-.4v-.3.1l.1-.1.2-.2c.1-.3-.1.1 0-.1l.1-.3.2-.3.1-.1.4-.7.3-.4-.1.2c.2-.2.3-.8.5-.8v-.2l.5-.6v.1c0-.1 0-.2.2-.3 0 0-.1.1 0 .2 0-.3.3-.6.5-.9l.4-1c0 .1.1 0 .2 0 .3-.5 0-.4.3-.7.1 0-.1.2 0 0l.2-.2.3-.3.4-.8.5-.6.2-.4h-.1c.2-.2.3-.6.6-.7l.1-.1v-.2l.1-.2c.2-.4.3-.2.5-.6.1-.5.3-.4.5-.8.2-.1.2-.2.3-.4h-.1l.2-.1v-.2l.4-.7s0 .1.1 0l.4-.7c0 .1 0 0 0 0l.1-.2-.1.1c.1-.3.2 0 .4-.3-.1 0-.1 0 0-.2l.1-.1c0-.1.1-.2 0 0 .2-.1.2-.3.3-.4h-.1l.4-.7v.1h.1c.3-.4.2-.8.6-1V35c.1 0 .2-.5.5-.7l.1-.4.5-.2v-.6l.3-.5s.1 0 0 .1c.3-.2.2-.7.6-1.1h-.1c.2-.3.1.1.3-.3h-.1l.2-.5c0 .2.2-.2.1 0l.1-.2.1-.3h.2l-.1-.2.2-.2v-.2h.1v-.2c0 .2 0 .3.2.1l.1-.5c-.1.5.3-.4.2 0l.5-1.1h.2v-.7h.2l.1-.4.1-.2v-.5h.1Zm-22.5 21.4h.2l-.3-.3Zm1.2-2.2V45h-.2c.2.1.2.2.2.3Zm.4-1.6.1.1h.1Zm12.6-19 .2-.1-.2.1Zm-17.1 31.3.3.2s0-.2-.3-.2Zm-10.4 38.7s-.1.1 0 .2c0 0 .1-.1 0-.2Zm-19.1-25.2.1-.5.2-.2v-.3l.3-.2.1-.1c0-.3.3-.5.3-.5l.4-.7.2-.4.2-.2.2-.2h.1l.1-.2.3-.2c-.1 0 0-.2 0-.2v-.1l.1-.1c.1-.2.1-.5.3-.5l.1-.4v-.1c.2-.1.2-.5.3-.5l.2-.5h.2v-.2l.1-.2.1-.4.2-.4c.1-.2 0-.2 0-.4 0 0 0 .2.1 0l.1-.1c.1-.5.7-.9.6-1.4 0 0 0-.3.3-.4v-.2h.1c0-.4.2-.4.3-.4l.2-.6.1-.2v-.2h.1c0-.3.1-.3.2-.4l.2-.5.2-.3s0-.3.1-.1v-.3l.2-.4v.1c.3-.2.1-.5.4-.6-.1-.1 0-.2 0-.2V55l.3-.2.1-.7s0-.4.3-.6h-.1c0-.2.2 0 .2-.2h-.1V53c.1.1.2-.1.2-.1v-.4h.1v-.2h.2v-.4c0 .3.1-.2.2 0l-.1-.7c.2 0 0-.5 0-.5v-.5l-.2-.5-.3-.3-.2-.2-.1-.2h-.2v-.1h-.2l-.2.2c-.4 0-.7.1-1 .3-.2.1-.3.1-.2.2 0 0 .1-.1.2 0l.1-.2s0 .2.1.1h.1l.1.2c.2 0 .2-.2.3-.3h.2c.2 0 0 .2.2.2l-.3.3-.3.3-.1.2-.4.6-.4.5-.4.7-.4.8-.4.6-.4.8-.8 1.5-.6 1.3-.5.8-.1.4-.3.3s-.2.1-.2.3l-.1.3-.1.4h-.2v.5a11.8 11.8 0 0 0-.5 1.3v.4l-.2.4-.2.6h-.1v.2l-.3.2s0 .2 0 0v.8h-.1c0 .3-.3.1-.2.5v.6a2.7 2.7 0 0 1-.4 1v.2l-.2.5v.5c-.4.7-.3 1.3-.6 1.9v.3l-.2.2v.4c.2 0 0 .3 0 .5v.4s-.2-.1-.2 0c.2 0 0 .2 0 .3v.3l-.1.2.2-.2.6-.5.4-.2h-.1c.1 0 0-.2.2 0V70.6l.2-.4.3-.2V70l.1-.3Zm-26.5-12.1.2.3c.1-.1 0-.2-.2-.3Zm86-32v1.2l-.3.9v.5l-.2 1-.2.3-.4 1c-.6 1.2-1 2.4-1.3 2.8v.1c-.4.6-.7.8-.7 1l-.2.6-.5 1-.2.1-.2.3c0 .3-.2.5-.4.8v.1l-.6 1-.5.7-.2.2-.1.1-.9 1.7-.3.8-.2.2v.2l-.3.3-.3.4c0 .2-.6.7-.7.8l-.6 1.2a192.1 192.1 0 0 1-.7.9l-2.3 3.8c-1 1.4-.6 1.2-1.1 1.8l-.3.6-.3.5-.4.6-.4.5-.7 1-.8 1-.1.2-.2.3-.4.6c-.3.5-.6.6-.8.9l-.6.9a107.8 107.8 0 0 0-.7 1l-.1.2v.2l-.3.5-.5.7-.4.5-.3.6-.4.4v.1l-.2.2v.2h-.1v.3h-.2c.2.2.4.1.4 0l.3.1h2.2l.7-.1.3-.1.6-.2h.1c.1 0 0 .2.2.1 0 .1.1.1 0 .1h.9l.2-.1H383.5l.5-.1.7-.2h.5l.3-.1.4-.2 1.3-.2h.5l.7.1c.2 0 .6-.2 1.2 0 .4 0 1 .4 1 .4l.4.2a151.3 151.3 0 0 0 1.4.9h.1c.1 0 .2.2.1 0l.3.5.3.3c0 .2.4.5.2.6.3.6.3 1 .3 1.5v.2l-.2.1a2 2 0 0 1-.3.3l-.7.3h-2l-.2-.1H389l-1 .2h-.9l-.2-.1a9 9 0 0 1-1 0v.1c-.5.1-1.1 0-1.3.2l-1 .1h-.9l-.6.2-.5.2a3 3 0 0 1-1 0h-.3a63.8 63.8 0 0 1-.8.1h-.6l-1 .3-1.2.2-2.6.4h-1.1l-1 .4-1.2.5-.8.6c-1 .7-2 1.9-2.1 2-.4.5-.4.7-.4.8l-.2.6v.2c-.3 1-.1.2-.5 1l-.2.8c0 .2 0-.1-.3.5l-.2.9-.7 2.5-.3 1v1c0 .3-.4 1-.5 1.2a9.3 9.3 0 0 0-.2 2l-.3.9c0 .3-.1.7-.3 1 0 .4-.2.7-.2.7l-.3 1.7v.2l-.4 1.7v1.6l.1 2 .2.6.2 1 .1 1.1.2 1v.4c0 .5-.1.7-.7 1.4-.7.8-1.5.9-2 1h-.7l-.4-.2h-.8c.4 0 0 0-.5-.2h-.1l.3-.3.3.2-.6-.9-.1-.2-.1-.1-.1-.3-.1-.2V99h-.2v-.3h.5c-1-.5.5-1.1-.5-1.4h.2c.6-.4-.1-.9-.4-1.2l.2-.1.3-.2a7 7 0 0 0-.4-.6l-.3-.2h.3c-.2 0-.5-.4-.9-.4v-.2h.2c.2.1.4 0 .5.2.4-.3 0-.6-.3-1v.1h-.3v-.2c.1 0 .3-.2 0-.4l.7.4h.2c0-.1.2-.2.1-.3 0-.2-.2-.4 0-.5v.3l.1-.2.2-.1c.1 0 0-.2-.2-.3l-.3.2-.7-.3c.1 0 0 0 0-.1V92h.3l.8-.2c-.3-.2-.3 0-.7-.1.3 0 .4-.3.4-.7 0-.2 0-.6-.2-.8l.3.2c.2 0 0-.3-.4-.3-.2-.4 0-.7.4-1h-.5V89c.2-.2.6-.4.4-.7l-.3-.3v-.2l.4.2-.3-.4v-.1c.2-.1 0-.5.4-.2l-.2-.4v-.4l.2.1-.1-.2v-.8l.4.2c.3-.1-.1-.3-.4-.5v-.4l.6.2c0-.2 0-.4.2-.5l-.5-.2c-.3-.7.4.2.8 0-.3-.5-.4-1.4.2-1.4-.4 0-.7-.5-.6-.7.3 0 .3.3.5.4.1 0 .3 0 .3-.2-.3 0-.7-.2-.8-.4v-.6l-2 1.3-.7.3-.2.1-.4.4a3 3 0 0 1-1.2.7h-.2l-.3.2-.7.4-.5.4-1 .5-1.6.6-1 .1h-.2l-.2.1-1.5.3-1.4.2h-.5l-.8.1h-1.5a.6.6 0 0 1-.2-.5c-.1-.2-.3.1-.6.4h-.3v-.3c-.2.3-.3-.2-.6.2h-.1l.2-.4c-.2.1-.1-.3-.4.1v.2h-.2c0-.1 0-.3.2-.4-.7-.1-1.3-.6-1.9-1l-1-.6-1.2-.2.5-.3c-.6.2-.6-.2-.6-.5s-.2-.5-1.3.1l1-.7c0-.5-1.8.6-1-.5l-.4.3v-.3.2c-.6.1-.7 0-.6-.5.4-.2.3 0 .4 0 .3-.3-.6 0-.7-.1.2-.4.5-.4.7-.4-.7-.2 0-1-1.2-.7l-.4.3-.6.3-.6.2-.5.2-.2.1-.4.2-.3.2-.7.3h-.5l-.3.1-3.1.6-.8.1h-1a3 3 0 0 0-.2 0h-.4v.2h-2c-.5 0-1-.2-1.3-.4-.2 0-.7-.2-1-.5a3 3 0 0 1-.3-.2 3 3 0 0 1-.3-.3l-.4-.3h.1l-.5-.4h.1l-.7-1a5 5 0 0 0-.2-.5l-.3-.5-.2-.8a12 12 0 0 1-.4-1.2l-.2-1v-2.2l.1-1.1v-1.3c0 .2 0 .1 0 0l.3-.8.2-1.3v-.6l.2-.9c-.1 0 0-.1 0-.1l.2-1 .2-.3-.1-.3v-.4l.1-.3.1-.6c0-.3 0-.8.2-1.3v.2l.1-.3.3-.8v-1.2l.1-.3.1-.9v.1-.1c0-.6.3-.9.2-1 0 0 .2-.3.1-.5 0-.3-.3-.5-.5-.6h-.7c-.2 0-.3.1-.3.2l-.7.4-.5.6-.2.3-.2.3-.5.8-.5.5-.1.1h-.1l-.7 1-.5.7-.6.7h.1c-.6.8 0-.3-.7.8l.2-.1-.5.7-.3.5c0-.2 0 0-.2.2-.1.2-.2.3 0 0l-.4.5-.4.6-.3.4v.1c-.3.6 0 .2-.6.7l-.3.5-.3.6c.3-.6.3-.8 0-.4l-.7 1.4c.6-1.1-.8 1.1-.2 0l-.6.8-.4.7-.8 1.5c0-.2-.2.1-.5.6-.1.5-.6 1-.7 1.3.3-.4.3-.4 0 0h-.1l-.9 1.5.1-.3-.6 1-.2.4.1-.2-1.4 2.4-.7 1.1v.2a385.4 385.4 0 0 1-2 3.2c-.6.7-1.6 1.5-2.1 1.4l.3.1c-.2.1-.7 0-1.3-.4h-.3l-.7-.4c-.4-.3-.8-.5-1.4-1.2l-.4-1.1c-.1-.3-.3-.7-.3-1.4 0-.4.2-.7.3-1l.2-.6.1-.4v-.2l.2-1 .3-.8v-.2l.2-.4v-.3l.2-.5.3-.7V76l.2-.3.2-.8.1-.7.1-.3v-.2l.2-.4.6-1.6c0-.2 0-.5.2-.8l.1-.6.3-.5.3-.6.3-.9.2-.8c0-.4.3-.8.4-1v-.1l.1-.2.2-.4.3-.9.2-.4v-.2l.1-.2-.5.6-.3.4-.3.3-.2.2-.8 1.3-.7 1.1-1 1h.1l-.8 1-1.2 1.8s-.2 0-.2.3l-.3.3-.2.5h-.1l-.5.6-.2.2-.4.5v.2c-.7.8-.3.2-1 .9 0 .2-.3.5-.5.7h-.3l-.3.3c-.6.6-1.5 2-1.6 1.7l-.7 1c-.3.4-.6.5-.8.7-.3.3-.4.8-.8 1l-.4.6-.6.5h-.2l-.7.8-.9.8-.2.2-.5.3h-.1l-1 1-.7.4-.8.5c0 .2-.1.2-.3.3l-.2.1a37.5 37.5 0 0 1-8.5 4.6 21 21 0 0 1-8 1.5h-.4c-.3-.2-.6-.1-1.3-.3h-.3l-.3-.2-1-.3-1.3-.8-1-.6-.6-.6-.7-.6-.8-.8-.1-.2v-.4c.1-.2.1-.5-.7-.6l.8-.2c.2-.5-2-.4-.8-1.1l-.5.1.2-.3h-.5V85l-.1-.1.1-.3c.4 0 .2.2.3.2.4-.2-.5-.3-.5-.5.3-.3.6-.1.7-.1-.6-.7.7-1.1-1.2-1.5h-.1v-.2c.2 0 .4 0 .7-.2h-.4c-.8-.5.7-.4 1-.8-.2-.3-1.1-.5-1.5-.7v-.5h.6c.1-.2-.2-.3-.6-.5v-.4c.9 0 .7-.3.4-.7-.4-.3-1-.8.2-1-.3-.5 0-1-.6-1.5.8.3.2-.4 1-.3-1.7-.3.8-1.1-1-1.6v-.7h.1c.3 0 .3.1.4.2.5-.3-1-.7.1-.7.2-.4 0-.4-.4-.4v-.8h1c-.8-.2-.8-.4-.9-.6l.1-.5.4.2V69c.2.1.3.3.5.1.3-.2 0-.6-.3-.9l.2-.6.3.1c-.2 0-.2-.1-.3-.2l.2-.6c.2-.3.4-.6.2-1l.4-1.5.4.4c-.3-.5.1-.9-.1-1.3v-.1l.5.3c.2-.2-.1-.5-.4-.7l.2-.5c.3-1 1.6-1.8 1-3a7.1 7.1 0 0 1 .4-.5v-.3c.3 0 .6.1.8 0-.1-.9.1-2.3 1-3l-.4-.3.2-.4v-.2h.7c0-.3-.2-.3-.5-.3l.1-.3.5.2c.1-.3 0-.3-.4-.4l.1-.2.8.2c.2-1.5.2-3.7 1.7-4.8l-.3-.1.3-.6.7-1.3.4.4c-.2-.4.2-.4 0-.7h-.3l.3-.3h.2l-.2-.2.2-.2c0 .1.1.3 0 .4l.8.5c.1-.5-.6-1 .3-1.2l-.7-.6v-.1l.1-.1c.2.2.5.3 1 .4.3 0 0-.3 0-.5-.3.2-.6 0-.8-.2l.2-.2.2-.3.3.4c.8-.7 1.5-2 2-3.3l-.4.4a1 1 0 0 1-.2-.3l.2-.2.1-.3.6.1-.4-.4.4-.6.1-.2c.8 0 .7-.6 1-.9v-.7l.2-.1c.3-.3.7-.8.8-1.3l.4-.4.3-.6.4-.7v.1-.2l.4-.3.3-.4.2-.5.3-.4.4-.7.5-.7 1-1.2v-.1l.2-.3.3-.3.3-.2.3-.7c.2-.3.4-.4.2-.3l.8-.8.5-.6.3-.3v-.1l.4-.3.3-.2.3-.3a5 5 0 0 0 .9-1l.3-.1.3-.2.2-.2a76.6 76.6 0 0 1 .5-.6l.2-.1a13.7 13.7 0 0 1 .9-.7l.2-.3 1.5-1-.1.2.4-.2.4-.2.3-.2.3-.2.7-.4.8-.4h.3l.3-.2.6-.1h.2l.3-.2.5-.3.6-.2 1.4-.2a20.7 20.7 0 0 1 2.6.1l.4.2h.3l.4.1a3 3 0 0 1 1.3.4l.3.2.4.3.7.4c.2.1.6.2 1.1.6l.8.8.6.8.3.4.1.3.2.3.2.7.6 1.6.2.4.1.5a153.4 153.4 0 0 1 0 2.2V31l-.2 1V32.7l-.2.7v.5l-.1.2-.1.8-.2.5-.2.4c0 .3-.1.8-.3 1v.4l-.1.5-.2.7-.3.9c0 .3 0 .5-.2.8l-.5 1.4-1 3 .2-.4-.8 1.7-.1.4a74.5 74.5 0 0 1-.5.7l-.3.8-.2.4-.1.3-.5.7-1.4 1.3a5.6 5.6 0 0 1-2.7.7h-.8c-.7 0-1-.2-1.3-.3l-1-.6-.3-.2-.3-.2-.3-.2c-.5-.4-.9-.9-1-1.5 0-.6.2-1 .6-1.5l.7-.9.3-.6.3-.5.4-.1.3-.4.6-.8c.3-.6.6-1 .8-1.8l1.4-3.5c.4-1.2 1-2.4 1.2-3.8l.4-1 .1-1 .2-1v-1l.2-1a1784.2 1784.2 0 0 0-.3-2.4l-.5-.7a1.3 1.3 0 0 0-1-.6h-.7c-.2 0-.3 0-.4.2v-.1l-.6.1a2 2 0 0 0-.8.7l-1 .4-.5.3a90.8 90.8 0 0 1-1.3 1.1l-.5.4h-.1l-.2.2-.2.3-.4.2v.1h-.1l-.2.3-.4.5-.3.3-.5.5c-.3.3.2-.4-.6.6.2 0-.3.4-.8 1.1l-.9 1-.4.4s-.1.2-.2.1l-.2.3-.5.7-.5.8-.2.3c-.2.3-.8 1-.3.2-.5.5-1 1.5-1 1.5l-.2.5-.4.4-.4.5-.2.4-.3.4-.6 1-.3.3v.2l-.2.2-.3.7-.6.8-.1.2-.4.4v.2l-.2.2-.1.4-.3.8-.7.8c-.2.3-.2.1-.3.5l.1.1c-.3.5-.8 1.1-1 1.8l-1 1.5-.5 1-.4.8-.5.9-.3.7c0 .2 0 .4-.2.6l-.2.4-.4.9v-.2l-.5 1-.4.8-.2.7-.2.6-.2.4-.4.6-.1.4-.1.3-.2.5v.4l-.1.2v.1l-.5 1-.1.6-.1.2-.1.4-.3.6v.1l-.1.3-.7 2.3v.2l-.2.7v.3l-.1.2-.1.4v.6h-.2c0 .9-.4 1.6-.5 2.4l-.2 1.1v.4l-.2.3-.1.5-.2 1.1V80l.1 1.3v.4l.1.2.3.6.4 1.2.3.7.4.5.2.5c0 .1.1.3 0 .4l.5.6.4.2h.2l.4.2 1 .3H263.4c1.1-.2 1.1 0 1.8-.2h.7l-.3.6c.6.1 1-.5 1.3-1 .2 0 .4 0 .6-.2v.3h-.2l.2.2.1-.2c.9-.3 1.7-1 2.2-.6.3 0 .2-.5.3-.9h.2l.3.3c0-.4.8-.2.3-.8h.1l.2-.1v.5c.2-.1.4 0 .3-.3 0 0 0-.2-.1-.1v-.2h.2l.2.3 1.1-.6 1.3-.7c.8-.5 1.6-1.1 2.1-2v.5c.3-1.2 1.6 0 1.3-1.7l.4.7c.5-.1 0-1.4.8-1l-.2-.3h.3-.1c0-.5.2-.6.6-.6.2.2 0 .1-.1.3.3 0 .1-.5.3-.6.3 0 .2.2.3.3.3-.7 1.1-.3.7-1.5l.2-.1s.1.2.3.2v-.2c0-.6.5.1.9 0 .2-.4-.3-1.3.1-1.4.1-.1.3.1.4.3.2-.1.1-.5 0-.8l.2-.2c1.3 1 .3-1.3 1.6-.8.1-.3.6-.5.6-1.2.2.6.3-.2.7.2-.7-.8 1-.6.4-1.4l.6-.5v.2c.2 0 .1-.3.1-.4l.1-.1h.2c.3-.1.2-.2.1-.3l.4-.5.5.1a.8.8 0 0 1-.2-.3c0-.2.2-.3.3-.4h.2v-.1l.3-.2v-.1l.2-.3.3-.4.3-.3c.3 0 .4-.3.4-.5v-.1l.2-.3h.3V67.1l.4-.5.7-.8.5-.8V65l.1.2.4-.7.2-.2.2.2V64l.1-.2.4-.7c.7-.6 1.5-1.2 1.4-2l.5-.7v.2h.6c.2-.8.7-1.9 1.5-2.5-.5-.4 0-.4 0-.7 0-.1 0-.1 0 0v-.1c.2 0 .4 0 .5.2.2-.5-.2-.3-.4-.3a4.3 4.3 0 0 0 .2-.3c.2 0 .3 0 .4.2.3-.3 0-.2-.2-.4v-.1l.7.2.9-2.3.2-.4 1.1-1.4h-.2l.5-.8.1-.2.2-.3.2-.3.2.2c0-.2.3-.3.2-.5h-.1v-.1l.2-.2.5.4c.2-.5 0-.9.6-1.2l-.5-.4v-.1l.6.3c.3 0 0-.3.1-.4-.3.1-.4 0-.5-.2v-.1l.3-.4.2.4c.7-.7 1.3-2 1.7-3l-.3.4-.2-.4v-.2c.1 0 .2-.1.2-.3l.2-.3.3-.5v.3c-.2.1-.3.3 0 0 0-.2.1-.3.2-.3.6 0 .5-.6.8-1 0-.2 0-.3-.2-.5l.2-.2.2.1c.2-.4.5-.9.6-1.4l.2-.3.7-1.3.3-.6.2-.2v-.3l.5-1 .3-.8.3-.8.7-1.2.8-2 .1-.2c.4-.6.5-1 .7-1.6l.2-.4v-.1l.2-.3.3-.5.2-.4.3-.9.3-.6.1-.4.1-.2.3-.8.5-.8.1-.3.2-.3.3-.7.6-1.3v-.4h.2-.1v-.2l.2-.3.2-.4c.3 0 .2-.1.1-.3.2 0 .1-.2 0-.2l.1-.2.1-.3.1-.3.3.2-.2-.4.3-.5.6-.1-.1-.3a2 2 0 0 1 1.1-.1l.8.2h.5l.8.3.6.4.5.4.3.2v.1l.4.3.4.5.1.4.2 1-.1.5v.3l-.1.2-.3.4v.2h-.2c0 .2 0 .4-.2.7 0 .2-.1.2-.2.3v.2c-.3.3-.4.6-.5.9l-.9 1.6c0 .1 0 .1 0 0-.5 1.5-.7.8-1.2 2.3-.4 1.2-1.1 2.3-1.6 3.5a38 38 0 0 1-.8 1.6l-.7 1.5a9 9 0 0 0-.2.8v.2l-.2.5-.3.6-.3.6-.5 1.3v.2l-.1.3a4.8 4.8 0 0 1-.3.9l-.3.6-.2.5-1 2.6c-.3.4-.4.9-.6 1.3l-.6 1.4-.5 1.3-.1.3-.1.3-.3.8-.5 1.2-.2.6-.2.4-.2.3v.4h-.1l-.2.2v1l-.5.8-.1.2-.3.7v.2l-.1.1v.4l-.2.4a12.6 12.6 0 0 0 0 .3c-.2.2-.7 1.3-.8 1.8 0 .1 0 0 0 0l-.1.1-.3.6c.1 0 0 0 0 .2l-.1.2v.1l-.1.2c-.2.7-.4.6-.6 1.3l-.2.4a15.4 15.4 0 0 0-.3 1l-.1.4c-.1.1-.1.4-.2.2 0 .2 0 .4-.2.7v.5l.2-.4-.3.6.3-.4.6-1 .7-.8h.1v-.2l.4.4c.5 0-.2-.3 0-.5l.6.3v-.3l-.7-.3h.2-.2V64h.1V63.8l.3-.4c.2 0 .2.2.1.2 0 .2-.4 0-.2.2h.5s-.1-.3-.4-.5l.3-.3c.2 0 .6 0 .9.2l-.1-.3-.5-.3.1-.1.6.2c.3 0-.4-.4.1-.2l.4.3c-.1-.2.7 0 .8-.3 0-.3-.8-.7-1.2-1.1l.2-.3.3.3c.7.2 0-.4 0-.7.5-.1.3.3 1 .5h-.4c.9.3.4-.4.3-.6 0-.1 0-.1 0 0h-.3l-.1-.3h-.2V60l.2-.2v.2c.4.3.4-.1.7 0 .3.3-.3.1.2.4.4-.2 0-1.4.2-2.2l.4.2c-.1-.5.2-1 1-.7-.4-.2.6-.3-.3-.9h.4l-.2-.2h.6a.9.9 0 0 1-.4-.3l.3-.3.9.1.5.2-.5-.2-.5-.2c.2 0 0-.1 0-.2v-.1c.2 0 .4.2.5.4.2-.1-.1-.6-.2-.8H313.7v-.1l.4-.5c.2.2 0 .4.1.7h.5l.1.2v-.2l-.5-.8c.4.3.6 0 .7 0-.3-.2-.4-.2-.5 0v-.2c.1-.2.2-.2.4-.3l.2.2v-.4H315.4v-.2c.1 0 .2.1.2 0l.1-.1.3-.2.3-.2.4-.3.5-.2.8-.3h.3c.8-.3 1.5-.4 2.3-.4a6.3 6.3 0 0 1 1.7.2l.6.2.5.4a5 5 0 0 1 1.3 1.2c.2.2.3.5.3.7v1.8-.3V58l-.1.6v.5l-.2.6v.2l-.2.3v2c0-.4-.4.9-.5 1.6v-.2l-.2 1v-.1l-.1 1.1-.2.7-.1.3v.4-.2L323 69v.5l-.1.6-.3.8-.1.8V72.2 72v1.1l-.1-.2V74.8l.1.5.4.9.3.4.2.2.2.2h.3l.6.2h-.4l.6.2h-.1s.4 0 .7.2c1 .2-.3-.2.4 0h.8a34.6 34.6 0 0 1 .7-.1l1-.2 1-.4v.1l.2-.1.4-.2H330.1c0-.1 0 0-.2 0h.3v-.1l.2-.2v-.1h.2c0-.2.1-.2.2-.3l.2-.7h-.4v-.7l.4.1v-.1l-.3-.2v-.1l.3-.1c.1-.3 0-.3-.3-.3v-.6l.5-.1-.6-.1v-.6h.2l-.1-.7v-.9h.2c.2-.2 0-.4-.2-.6v-.5h.2v-1.3c0-.5.2-.8.3-1.1v-.2l.1.1-.1-.2.2-.6v-.2l.2.1-.1-.3.2-.7.2-1 .3-.4.1-.6.1-.4v-.2l.2-.2v-.2h.4c-.2-.8 0-2 .7-2.5l-.2-.1.2-.3v-.3h.4c0-.2 0-.2-.2-.2a10.2 10.2 0 0 0 0-.2h.3c.1-.1 0-.1-.2-.2v-.2l.7.2c0-.6 0-1.4.2-2.1v-.1l.5-1 .7-.7-.4-.1.3-.7.5-.6.1-.2.4.4c-.1-.3.2-.3.1-.6h-.4l.1-.1.1-.2h.3l-.2-.1.2-.4c0 .2.2.5 0 .6l.8.5c.1-.4-.3-1 .5-1-.2-.3-.6-.5-.9-.7l1 .5c.3 0 0-.3 0-.5-.3.1-.6-.1-.8-.3l.3-.4.3.4c.8-.5 1.5-1.5 1.8-2.5l-.3.3a1 1 0 0 1-.2-.3v-.1l.3-.4.6.3-.5-.5.1-.1.4-.5c.8.3.6-.4 1-.5l-.1-.5.3-.2.7-.5.2-.1.2-.2.8-.5.8-.2h.4l.9-.2.5-.1.7-.1h1.1l.4.1h.4l.8.4h.3l.2.2a2.5 2.5 0 0 1 1.4 1l.3.4c0 .1 0 .2.2.3a3.5 3.5 0 0 1 .3.9l.1.1.2.5c.2.4.4 1 .2.8l.1 1v1.6l-.1.7v.6l-.2.7-.1.4-.1.4-.3.8h-.1v.4l-.3.8c-.2.3-.2.6-.5 1.7v.1-.1l-.3.8-.1.5-.3.6-.2.3-.1.3-.4.8-.1.6-.5 1-.8 1.4-.6.8v.1l-.2.2-.3.7-.3.7-.8 1.7-1 1.7-.7.8-.6.7-.3.7-.8.9-.5.6-.6.6-.6.6-.3.4-.2.2-.7.9-.6.8-.2.2.1.2.2.3.2.3.2.4c0 .2.3.4.4.6l.2.3.3.2.5.4.4.4h.2l.2.1.4.2 1 .2h.3l.2.1.4.1a324.2 324.2 0 0 0 1.2-.3H346.5a4.5 4.5 0 0 0 1-.5h.7l.5-.3.4-.1.3-.2.7-.4.7-.2.4-.3c.3 0 1.7-.8 2.1-1.2.3-.2-.3.3.8-.3l.2-.3.6-.3.4-.5.7-.4.5-.2h.2l.7-.7.4-.3.4-.3h.2v-.2l.2-.2h.2l.2-.2h-1.1a2.3 2.3 0 0 1-1.8-.6 2 2 0 0 1-.6-1l-.1-.6V70.3l-.1-.5a2.7 2.7 0 0 1 .4-1.4l.1-.2.2-.4h-.1a2 2 0 0 1 1-.9l.3-.1c.3-.2.6-.3 1-.3h1l.9-.2.9-.2h1.3l.5-.1h.4l.4-.5.2-.2.2.1-.1-.2v-.1h.1l.5.3c.4-.1-.3-.2 0-.4l.5.1v-.3l-.8-.1h.3l-.1-.2v-.1l.2-.3h.5c0-.2-.2-.3-.3-.4v.1l-.2.1a4.7 4.7 0 0 0 .2-.6v-.2h.9l-.2-.2-.6-.2v-.2l.9.1c.2 0-.5-.4 0-.2.3 0 .4.2.4.3 0-.2.8-.2.8-.6 0-.3-1.2-.7-1.5-1l.5.8-.5-.3c-.2.2.3.4.2.6-.7-.2-.1-.4-.5-.5l.1-.3.2-.5v-.4h.1l.3.3h-.4l.6.3c.8 0 0-.5-.1-.7.5-.3.4.2 1 .2 0 .2-.2.1-.3.2.9 0 .3-.5.2-.8h-.1l-.2.1-.2-.2h-.5v-.1h.1l.2-.2h-.2l.1-.3c.2 0 .4.2.3.3.5.2.3-.2.7-.1.4.2-.3.2.2.3.5-.3-.2-1.6-.2-2.4l.4.2c-.1-.5 0-1 1-1.1-.5-.1.4-.5-.6-.8l.3-.1-.2-.2c0-.2.5 0 .6-.2-.5 0-.6-.2-.9-.4.6 0 1.1-.2 1.6-.3h.5-1c.2-.1-.2-.3-.4-.4l.9.2c.2-.2-.7-.7-.3-.8h-.4c0-.4.5-.4.5-.8.6.1.4.5.6.7.1 0 .2-.1.4 0h.2l-.1-.2-.8-.8c.6.4.7 0 .8 0-.3-.2-.5-.1-.5 0-.3-.1-.2-.3-.3-.5h-.5l.2-.3v-.1c.3 0 .5.1.5.3l.6.2c-.2-.3 0-.4-.3-.7.4 0 .1.2.5.2l-.2-.3c.1-.1.3.3.4 0-.2 0-.3-.3-.2-.4h.1c0 .1 0 .2.2.3l-.2-.2c0-.2.2-.3-.4-.5l.6.1-.4-.2c.3-.2 1.3 0 1-.6l-.4-.2c-.3 0 .2.4.2.5-.4 0-.7-.5-1-.5.4 0 .1-.4 1-.1.3-.3-.2-.6.2-.8l.1.1c-.6-.3.4 0-.1-.6l-.3.1c-.2-.1-.2-.2-.2-.3h.3a.8.8 0 0 1-.3-.2l.1-.4.4-.5.3.1s0 .2-.2 0c.2.3.4.4.7.4 0 .3-.3.2.1.6.8 0-.3-.5.4-.7l-1-.6c.3-.1.4.2.7.2-.1-.3-.5-.2-.8-.3v-.1l.2-.3.4.2c0-.2.3-.2.4-.3-.6.1-.2-.3-.7-.3v-.2c.4.2.4 0 .8 0-.3-.2-.3-.5-.4-.9l.2-.3h.2l-.1-.2.2-.3c0-.2.1-.2.3-.3h.5c-.6-.8 1.1 0 1-.5-.2-.4-.5-.3-.7-.4 0-.1-.2-.4 0-.4.3.1.3.2.2.3.6.2 0-.2.5-.2h-.3c.3-.4-.4-.6.2-.9 0 0 0-.2-.3-.3h1l-.8-.4.2-.2V40l.1-.1s.2.1 0 .2c.7.3 0-.4.3-.5l.5.4c0-.2-.2-.7.3-.7l.3.2c-.2-.6.2-1 .2-1.4h.5c-.2-.6-.4.2-1-.2l.1-.1c.3.1.2 0 .1-.2l.2-.3c.2.1 0 .3.4.5-.4-.4 0-.3-.1-.5.5.3.2-.2.7.2l-.6-1c.3 0 .4-.1.4-.3h.1c0-.2-.1 0-.1 0h-.3l.3-.3 1 .3c0-.4-.4-.8-.5-1.2l.5.3-.4-.5.2-.3.8.7-.1-.4c.1.2.2 0 .4.2-.5-.7.5-.2.4-.8l-.2.2c-.3-.2-.2-.3-.2-.5.5.2.4.1.7 0-.1-.2-.6-.6-.4-.8.5.4.5-.2 1 .1-.6-.4 0-.5-.3-.7 0-.2.1-.3.4-.1v.2l.2-.1c.2 0-.2-.3.1-.2.2 0 .1.1.1.2.3-.2-.5-1 .1-.8-.2-.2 0-.5-.5-.8.3 0 .6.3.6 0-.4-.4.4 0 .2-.4.3.6.1 0 .5.6.3 0-.2-.7 0-.8l.4.2c0-.2-.4-.6.1-.4l-.4-.2c.3 0 .4-.4 1-.2l-.6-.8c.8.3.6-.3.3-1l.3-.3.2.4V28.4l.4.1-.3-.2v-.2c0-.1.6 0 .1-.5 0-.3.5.2.6.1-.5-.9 1.3-.3.3-1.4l.4.2c1 .3-.3-1.6 1-1V25l1-1-.1.2a8.4 8.4 0 0 1 .5-.5l.4-.3h.1c.2.1.1 0 .1-.2l1.3-1 .4-.1.5-.2.5-.2 1.2-.5 1.2-.4h1.9l.3.2h.1-.1c.4 0 .6.2.9.3l.3.2.3.2.6.5.3.3a4.1 4.1 0 0 1 .6.7l.4.6a6.2 6.2 0 0 1 .5 1.4l.1.4Zm-28.5 24Zm-91.6 30-.1-.2-.4.3.1.3c.4 0 0-.6.4-.3Zm-7.7 5.4.1-.4-.2.2Zm-1.2.6c.3 0 .3 0 .4-.2h-.2l-.2.1Zm-3.4 1.3c.1 0 .2 0 .3-.2l-.4.1v.1Zm6.6-3.2ZM309.1 62l-.3-.6-.4.5s0 .2.3.3c.2-.2-.2-.4 0-.5l.4.3Zm-.9.3h.3l-.2-.2-.1.2Zm2.4-3.7h.2l-.1-.2-.1.2Zm-.6.8v.1c.1 0 0-.3.5 0l-.4-.2Zm55.1 2.5v.4h-.1.6c-.3-.1-.4-.3-.5-.4Zm-113 22 .2.3c.2-.2.9-.3-.2-.4Zm9.8-38.4-.1.2h.2l-.1-.2Zm40.5 4.2v.2h.1v-.2Zm-18.6 24.5-.1.1c.2 0 .5 0 .7-.3l-.1-.3-.3.3-.2.2ZM309.2 61l-.1-.2v.2Zm69.5-27.3c.1 0 .3.3.5.3 0-.2 0-.6-.4-1l-.1.2h-.1c.2.2.3.4 0 .5Zm2.7-2.9c.1-.4-.4-.7 0-1-.1-.2-.2-.2-.3-.2l-.2.5v.3c.7 0-.3.1.5.4ZM373.1 43l.2.2Zm4.5-8.3-.1.2Zm-7.2 14-.1.2.3.2c0-.2 0-.3-.2-.4ZM367 59l-.7-.3-.1.4c.5 0 0-.4.8-.1Zm6.4-16.7-.1.3-.1.2c.4 0 .3-.2.2-.5Zm-3.3 8.8c.4-.1-.1-.4-.5-.6v.1l-.1.2c.2 0 .4 0 .6.3Zm.6-3.3v.1ZM367.1 58l-.4-.2v.2c.3.3 0 0 .4 0ZM357 96.4v.3h.6l-.6-.3Zm.5 3.8.2-.2h-.3l.1.2Zm1 .5v-.1l-.4.2.7.2-.3-.3Zm-1.4-7.9v.3-.3Zm0 2Zm.3 5h.4l-.1-.4-.3.3Zm-.3-2.4V97.7v-.3Zm-22-14-.6.3.3.3.4-.4c.2-.4-.7.3-.2-.3Zm-83.6-6.2V78.1c.1-.2.4-.4.4-.7l-.4-.2Zm82 5.1v.1h-.1l.3.5.5-.2c-1 0 1-1.1-.7-.4Zm5.5 4.2h.3s.2 0 .3-.2c0-.2-.3 0-.6.2Zm19.6-3.7a49.4 49.4 0 0 1 .1.8c.1-.2 0-.5 0-.8ZM357 96.2l.3-.1c0-.1 0-.2-.3-.4v.5Zm27-70-.1.1Zm-2.5 2.7v.2l-.2.1h.4l-.2-.3Zm2.5-2.7Zm-26.5 72h-.3v-.5c0-.1.2-.2 0-.4h.6v.1c0 .2-.3.5-.3.8" fill="#ffffff"/>
</g>
</svg>