<svg xmlns="http://www.w3.org/2000/svg" viewBox="0 0 400 120">
  <path fill="#00A4FF" d="M55.2 83.8a23.7 23.7 0 0 1-9.3 5.7c-2 .8-4 1.3-6 1.8A31.6 31.6 0 0 1 4.3 72.7a31.6 31.6 0 0 1 0-24.8c1.7-4 4-7.2 6.7-10.2 3-2.7 6.2-5 10.2-6.7 4-1.7 8-2.5 12.4-2.5 3.8 0 7.5.5 10.7 1.5 3.5 1 6.5 2.5 9 4.7a8 8 0 0 1 3 6c0 1.5-.5 2.8-1.4 4-1.5 2-3.5 3-6 3a11 11 0 0 1-4.8-1.2c-1.5-1-3.2-1.7-4.7-2.2-1.7-.5-3.5-.7-5.7-.7-2.5 0-4.5.5-6.4 1.5a9 9 0 0 0-4.7 3.2 18.6 18.6 0 0 0-4 11.9 18.6 18.6 0 0 0 4 11.9 14.4 14.4 0 0 0 11.1 5.2c3 0 5.5-.5 7.2-1.5 2-1 3.5-2 4.7-2.7 1.5-1 3.3-1.8 5.2-1.8 2 0 3.8.7 5.3 2.2 1 1.5 1.7 3 1.7 4.5-.5 2.5-1.2 4.2-2.7 6zm63 5a7.8 7.8 0 0 1-5.6 2.2c-2.3 0-4.3-.7-5.8-2.4s-2.4-3.7-2.4-5.9c-.5 1-1.3 2-2.3 3.2-1 1-2.5 2-4 3-1.4 1-3.2 1.5-5.2 2.3a26.1 26.1 0 0 1-17.6-1.7c-3.5-1.7-6.8-4-9.5-6.7a34.4 34.4 0 0 1-6-35A29.7 29.7 0 0 1 76.6 31c4-1.4 7.9-2.4 12.4-2.4 4.2 0 8.4.7 12.4 2.5 3.9 1.7 7.2 4 10.2 6.7a32.3 32.3 0 0 1 9.2 22.6v23c-.5 2.2-1.3 4.2-2.8 5.7zM103 53.5a13.2 13.2 0 0 0-7.5-8.6c-2-1-4-1.5-6.4-1.5-2.5 0-4.5.5-6.5 1.2-1.7 1-3.5 2-4.7 3.5a17.4 17.4 0 0 0-4 11.7 19.7 19.7 0 0 0 3.7 11.7c1.3 1.5 2.8 2.8 4.5 3.5a17.7 17.7 0 0 0 12.7 0c2-1 3.4-2 4.7-3.5 1.2-1.5 2.4-3.2 3.2-5.2.7-2 1-4.3 1-6.5.2-2 0-4.2-.8-6.2zm64.3-12.4a7.3 7.3 0 0 1-5.4 2.3c-2.5 0-5 .2-7.5 1a17 17 0 0 0-6.5 2.7c-2 1.2-3.4 2.9-4.4 4.9-1.3 2-1.8 4.4-1.8 7.2v23.6a8 8 0 0 1-2.5 5.9 8.2 8.2 0 0 1-6 2.5c-2.2 0-4.1-.8-5.9-2.5a7.4 7.4 0 0 1-2.5-6V37.4a8 8 0 0 1 2.5-6 8 8 0 0 1 6-2.4 7 7 0 0 1 5.7 2.5 8.9 8.9 0 0 1 2.2 6c1.5-1.8 3-3.3 4.5-4.5a21.5 21.5 0 0 1 9.7-4.2l6.4-.2c2.2 0 4 .8 5.2 2.3a7.3 7.3 0 0 1 2.2 5.3c0 2.2-.5 4-2 5.2zm89-3.2c0 .5-.3 1-.5 1.5l-18 47.1A6.4 6.4 0 0 1 235 90a8.3 8.3 0 0 1-4.2 1.3c-1.5 0-3-.5-4.2-1.5a8.8 8.8 0 0 1-2.7-3.5l-9.5-26.6-9.4 26.6a6.4 6.4 0 0 1-2.8 3.5 6.7 6.7 0 0 1-4.2 1.5c-1.5 0-3-.5-4.2-1.3-1.2-.7-2.2-2-2.7-3.5l-18-47.1-.4-1.5-.3-1.5c0-2.2.8-4 2.3-5.4a7.3 7.3 0 0 1 5.4-2.3c1.5 0 3 .5 4.3 1.3 1.2.7 2 2 2.7 3.4l10.4 28.8 10.2-28.5a6.6 6.6 0 0 1 2.7-3.5c1.2-1 2.5-1.5 4.2-1.5 1.5 0 3 .5 4.2 1.5 1.2 1 1.9 2.2 2.7 3.5l10.2 28.5L242 33.7a6.5 6.5 0 0 1 2.7-3.5c1.2-1 2.7-1.3 4.2-1.3 2.2 0 4 .7 5.2 2.2a7.2 7.2 0 0 1 2.2 5.4c-.5.5-.5 1-.5 1.2zm59.1 34.5c-1.8 4-4 7.2-6.7 10.2a28 28 0 0 1-10.2 6.7c-4 1.7-8 2.5-12.4 2.5a31 31 0 0 1-12.5-2.5c-4-1.8-7.2-4-10.1-6.7-3-2.8-5.3-6.2-6.7-10.2-1.8-4-2.5-8-2.5-12.4 0-4.2.7-8.4 2.5-12.4a29.6 29.6 0 0 1 16.9-16.9 31.6 31.6 0 0 1 24.8 0c4 1.8 7.2 4 10.2 6.7a32.4 32.4 0 0 1 6.7 35zm-15.2-18.9c-.7-2-1.7-3.7-3-5.2a13 13 0 0 0-4.7-3.4 13 13 0 0 0-6.4-1.3c-2.5 0-4.5.5-6.5 1.3-1.7 1-3.5 2-4.7 3.4a18.3 18.3 0 0 0-3 5.2c-.7 2-1 4.3-1 6.5s.3 4.5 1 6.4c.8 2 1.5 3.8 3 5.2a11 11 0 0 0 4.7 3.5 17.6 17.6 0 0 0 13 0c1.7-1 3.4-2 4.7-3.4a22 22 0 0 0 3-5.2c.7-2 1-4.3 1-6.5s-.6-4.5-1-6.5zM399.3 38c0 .5-.3 1-.5 1.5l-18 47.1a6.3 6.3 0 0 1-2.7 3.5 8.3 8.3 0 0 1-4.2 1.3c-1.5 0-3-.5-4.2-1.5a8.8 8.8 0 0 1-2.7-3.5l-9.5-26.6-9.4 26.6a6.2 6.2 0 0 1-2.8 3.5 7 7 0 0 1-4.2 1.5c-1.5 0-3-.5-4.2-1.3-1.3-.7-2.3-2-2.8-3.5l-17.8-47.1c-.3-.5-.3-1-.5-1.5l-.3-1.5c0-2.2.8-4 2.3-5.4a7.3 7.3 0 0 1 5.4-2.3c1.5 0 3 .5 4.3 1.3 1.2.7 2 2 2.7 3.4l10.4 28.8 10.2-28.5a6.3 6.3 0 0 1 2.8-3.5 6.7 6.7 0 0 1 8.5 0 14 14 0 0 1 2.6 3.4L375 62l10.5-28.6A6.3 6.3 0 0 1 388 30c1.2-1 2.7-1.3 4.2-1.3 2.2 0 4 .7 5.2 2.2a7.2 7.2 0 0 1 2.2 5.4c-.3.5-.3 1-.5 1.3z"/>
</svg>