<svg xmlns="http://www.w3.org/2000/svg" viewBox="0 0 400 120">
  <path fill="#FFF" d="M111.5 75.2c-1.4 0-2.6.7-3.4 1.8L76.5 66.7l.2-.5a4 4 0 0 0-4-4 3.9 3.9 0 0 0-4.1 4c0 .8.2 1.5.7 2.2-2 2-4.5 3.4-7.3 3.9a4 4 0 0 0-7.4-1 13 13 0 0 1-6.7-7.8c1.8-.4 3.1-2 3.2-3.9a4 4 0 0 0-3.2-4c.9-3 2.9-5.6 5.6-7.2.8 1.1 2 1.8 3.4 1.9a4 4 0 0 0 4-3.6c1.2 0 2.4.2 3.5.6 1.9.7 3.5 1.8 4.9 3.3a4 4 0 0 0 .4 5 4 4 0 0 0 3 1.2 4 4 0 0 0 4-4c0-.2 0-.4-.2-.4L108.8 42c.8.8 1.9 1.2 3 1.2a3.9 3.9 0 0 0 4-4 4 4 0 0 0-4-4h-1c-3.9-8-9.5-14.9-16.5-20.3.2-.4.3-1 .2-1.5a4 4 0 0 0-4-4c-1 0-2 .4-2.8 1.2l-1-.5a53 53 0 0 0-23.2-6.6 4 4 0 0 0-4-3.4 4.1 4.1 0 0 0-4 3.4 56 56 0 0 0-34.7 15.6 4 4 0 0 0-2-.7 4 4 0 0 0-4 4c0 1 .4 2 1 2.8A56.4 56.4 0 0 0 4.4 54.9a3.9 3.9 0 0 0-3.5 5.8 4 4 0 0 0 3.4 2 56 56 0 0 0 13 33.3c-.5.7-.9 1.6-.9 2.6a4 4 0 0 0 4 4c1 0 2-.3 2.6-1 9 8.1 20.5 13 32.5 14a4 4 0 0 0 8 .2A57 57 0 0 0 111 83.3h.4a4 4 0 0 0 4-4 4 4 0 0 0-4-4zm-64 2.2c0 .3 0 .6.2 1L23 95.3 36.3 62a2 2 0 0 0 2-1.6H43a4 4 0 0 0 2.7 3c.3 1.3.8 2.5 1.5 3.6l1.9 8c-1 .5-1.6 1.4-1.6 2.5zm8.8-70.8-11.8 30h-.1c-.6 0-1 .2-1.5.5L26.5 26.3l-4-2.4.4-1.5c0-.7-.3-1.3-.6-2 9-8.7 20.8-14 33.4-15.1.1.4.3.9.6 1.3zm-18 52c-.1-.4-.1-.6-.4-.8l2-5h.8L44 57l-1 1.8-4.7-.3zm1.8-10.9h-.8L22.6 26l3.5 2.3L42 38.6l-.2.5c0 .7.4 1.5 1 1.9l-.6 1-2.1 5.7zm6-10.5L57.8 7.8l1.8.3h.4l6 26.1c-.7.5-1 1.3-1 2.2 0 .3 0 .7.2 1L59.4 43c-.6-.6-1.6-1-2.5-.9-1.3 0-2.6.7-3.4 1.8L47 39.6v-.5c0-.7-.3-1.4-.8-1.9zm61.6 1.9.2 1-32 10.5a4 4 0 0 0-3.3-2l-1.3.3-2.4-10.5c.7-.4 1.1-1.2 1.2-2 0-.4-.1-.7-.3-1l18.6-18.5a4 4 0 0 0 2.1.6c1 0 2-.3 2.7-1a54 54 0 0 1 15.7 19.8 4 4 0 0 0-1.2 2.8zm-47 5.7c0-.2 0-.2-.2-.3l6-5.8h.6l2.2 9.2a14 14 0 0 0-8.6-3.1zm26-32.7a3.6 3.6 0 0 0 .4 3.4l-9 8.9-9.5 9.6h-.8l-6-26.4a5 5 0 0 0 1.7-2.3c8.2.4 16.1 2.8 23.2 6.8zM18.8 26.4l1.6-.2 17.4 22.7a4 4 0 0 0-.3 1.4c0 .7.3 1.4.8 1.9l-1.9 4.7H36c-1 0-1.8.6-2.3 1.5L9 58a4 4 0 0 0-3-3.1 54.1 54.1 0 0 1 11.2-28.7c.5.2 1 .3 1.5.2zm-10 33.3 24.8.6c.2.5.5 1 1 1.2L21.4 94.7h-1c-.5 0-1 .1-1.6.4A54.7 54.7 0 0 1 6 62.8a4.2 4.2 0 0 0 3-3zm15.3 37.1L49 79.7l1 .3h.3l7.5 31.4c-1 .4-1.8 1.4-2.1 2.5A55.2 55.2 0 0 1 24 100.3c.2-.5.4-1.1.4-1.7 0-.6-.2-1.2-.4-1.8zm27.8-17.7c.4-.4.7-1 .7-1.7V77l2.3-1.5a3 3 0 0 0 1.7 1.5l1.6 28.6L52 79.1zm14.3-6c1.7-.8 3.2-1.9 4.5-3.3.6.3 1.3.5 2 .4a4 4 0 0 0 3.3-1.7l27.6 9-24.8-3-12.6-1.4zM54 73v1l-2.3 1.4c-.2-.3-.6-.4-.8-.5l-1.2-5c1.2 1.2 2.7 2.3 4.3 3zm-8-17.3h-.5L42 51.5c.3-.4.4-.9.4-1.3 0-.8-.3-1.5-.8-2l1.6-3.7 1-2.8c.7 0 1.2-.2 1.7-.6l7 4.6c-.1.2-.2.4-.1.5v.6c-3.4 1.9-5.9 5-7 8.9zm17.5 58.2a4.3 4.3 0 0 0-3.1-3l-2-33.5a4.3 4.3 0 0 0 3.6-3.1l45.5 5.4a4 4 0 0 0 1.8 3c-8.5 18-26 30-45.8 31.2zM181 23.7h12.3V53a15 15 0 0 1 4.7-4 13 13 0 0 1 7.4-1.6c3 0 7.5.4 10.8 3.8 3.4 3.4 3.8 8.5 3.8 11.5v24.7h-12.4v-20c0-2.7 0-5.8-2-7.9a7.4 7.4 0 0 0-4.8-1.6 7 7 0 0 0-5 2c-2.4 2.4-2.5 6-2.5 8v19.5H181V23.7zm76.4 24.7h12.3v39.1h-12.3V83c-2.5 4-6.9 6.2-11.4 6-5.5 0-10-1.4-14.4-6a21 21 0 0 1-5.6-14.6 22 22 0 0 1 6-15.8 18 18 0 0 1 13.3-5.3c3.4 0 8.6.7 12 5.6v-4.4zM241.7 61c-2 1.8-3 4.4-3 7 0 2.8 1 5.4 3 7.2 1.8 2 4.3 3 7 2.9 2.4 0 4.7-1 6.4-2.6 4-4 4.1-10.5.3-14.7a11 11 0 0 0-7-2.7 9 9 0 0 0-6.7 2.9zm37.6-12.6h12.5v6.2c1-2.3 2.8-4.2 4.8-5.5a12 12 0 0 1 6.6-1.6c1.4 0 2.7.1 4 .7l-.7 11.7c-1.7-.9-3.6-1.4-5.6-1.3a8 8 0 0 0-6.2 2.5c-2.6 3-2.9 7.3-2.9 10.6v15.8h-12.5v-39zm45.9-24.7v63.8h-12.5V23.7zm17 .7c4 0 7.2 3.3 7.2 7.4 0 4-3.2 7.3-7.2 7.3a7.3 7.3 0 0 1 0-14.7zm6.1 24v39.1H336v-39h12.4zm37.4 26.7a10 10 0 0 1-2.5 3.1 9.9 9.9 0 0 1-5 1.1 8 8 0 0 1-6.4-2.4 10.4 10.4 0 0 1-2.3-6.7h28.6v-1.3a22 22 0 0 0-5.4-15.8c-4.6-5-11-5.9-15.3-5.9-4.3 0-10 .8-14.6 5.6-3.8 4.2-6 9.7-5.9 15.5 0 5.6 2 11 5.8 15 4.4 4.5 9.5 5.6 15.3 5.6a23 23 0 0 0 12.2-2.9 18 18 0 0 0 6.5-7.6l-11-3.3zm-13.6-16.7c1.6-1.7 4-2.6 6.3-2.4a8 8 0 0 1 5.6 2c1.2 1.3 2.1 2.9 2.6 4.6h-16.8a8 8 0 0 1 2.2-4.3zM154.9 77a9.7 9.7 0 0 1-9.7-9.8c0-4.7 3.1-8.8 7.6-9.8s9 1.4 10.9 5.7l10.9-3.6a21 21 0 0 0-19.7-14A21 21 0 0 0 135 55.9a22 22 0 0 0 0 22.6 21 21 0 0 0 20 10.1c8.8.1 16.6-5.5 19.7-14l-10.9-3.5a9.6 9.6 0 0 1-8.8 6z"/>
</svg>