<svg xmlns="http://www.w3.org/2000/svg" viewBox="0 0 400 120">
  <path fill="#FFF" d="M80.7 110.6a7.9 7.9 0 0 1-2.6-6.2v-7c0-2.6.8-4.7 2.6-6.2a10 10 0 0 1 7-2.3c2.8 0 5 .8 6.8 2.3a7.8 7.8 0 0 1 2.5 6.1v.3h-5v-.3c0-1.2-.4-2.1-1.1-2.9a5 5 0 0 0-3.3-1c-1.6 0-2.8.3-3.6 1-.8.7-1.2 1.7-1.2 3v7a4 4 0 0 0 1.2 3c.8.7 2 1 3.6 1 1.4 0 2.5-.3 3.3-1 .7-.8 1.1-1.8 1.1-3v-.3h5v.3a8 8 0 0 1-2.6 6.2 9.7 9.7 0 0 1-6.8 2.3c-2.9 0-5.2-.8-7-2.3zm21.5-21.2h2.4l1.8 2.6c1.9-2 4-3 6.3-3h1v4.5h-.7c-2.6 0-4.6.9-6 2.5v16.3h-4.8V89.4zm17.5 21.2a7.6 7.6 0 0 1-2.7-6.2v-7c0-2.6 1-4.6 2.7-6.2 1.8-1.5 4.1-2.3 7.1-2.3 2.9 0 5.2.7 6.9 2.2a7.7 7.7 0 0 1 2.5 6.2v5.1H122v2c0 1.2.4 2.2 1.2 2.9.9.7 2.1 1.1 3.7 1.1 2.6 0 4-1 4.5-3h4.9a7.7 7.7 0 0 1-2.8 5.5c-1.6 1.3-3.8 2-6.6 2-3 0-5.4-.8-7.1-2.3zm11.7-11.8v-1.5c0-1.2-.4-2.2-1.3-3-.8-.6-2-1-3.5-1s-2.7.4-3.5 1a4 4 0 0 0-1.2 3v1.5h9.5zm12.6 11.9c-1.6-1.4-2.4-3.5-2.4-6.3v-7c0-2.8.8-5 2.3-6.3a8.5 8.5 0 0 1 6-2.2c2.8 0 5 1 6.4 2.8V81.3h4.9v31h-2.9l-1.8-2.5c-1.7 2-4 3-6.8 3-2.3 0-4.2-.7-5.8-2.1zm12.3-5.2v-9.2c-1.8-2-3.7-3-5.6-3a4 4 0 0 0-3 1.2c-.8.8-1.2 1.8-1.2 3.2v6.4a4.2 4.2 0 0 0 4.3 4.3c1.8 0 3.7-1 5.5-3zm11.9-24.2h4.9v4.8h-4.9v-4.8zm0 8.1h4.9v23h-4.9v-23zm31.8 21.2a7.6 7.6 0 0 1-2.8-6.2h4.8c0 1.3.5 2.3 1.6 3a7 7 0 0 0 4 1 6 6 0 0 0 3.1-.6c.8-.5 1.2-1.1 1.2-1.9 0-1.1-.9-1.9-2.6-2.3l-5.9-1.6a8 8 0 0 1-4-2c-1-.9-1.5-2.3-1.5-4 0-2.1.8-3.9 2.4-5.1 1.6-1.3 3.9-2 6.7-2 2.8 0 5 .7 6.8 2.1 1.7 1.4 2.5 3.5 2.5 6.1h-4.8c0-1.2-.5-2.2-1.3-2.8-1-.7-2-1-3.5-1a6 6 0 0 0-3 .7c-.6.5-1 1-1 1.7 0 1 1 1.8 2.6 2.2l5.9 1.5c3.7.9 5.5 3 5.5 6.1 0 2.2-.9 4-2.6 5.3-1.7 1.4-4 2-6.9 2-3 0-5.5-.7-7.3-2.2zm-8.4-2.6H190c-2 0-3.1-1.2-3.1-3.8V93.7h5.4v-4.3h-5.4v-4.7H182v4.7h-3.5v4.3h3.5V104c0 5.5 2.7 8.2 8 8.2h4a7 7 0 0 1-2.3-4.2zM222 89.4h2.9l1.8 2.6c1.7-2 4-3 6.8-3 2.3 0 4.3.6 5.8 2a8.5 8.5 0 0 1 2.3 6.3v7.1c0 2.8-.8 4.9-2.3 6.3a8.4 8.4 0 0 1-6 2.1 8 8 0 0 1-6.4-2.7v9.3h-4.8v-30zm13.5 17.9c.8-.8 1.3-1.9 1.3-3.2v-6.4a4 4 0 0 0-1.3-3.2 4.2 4.2 0 0 0-3-1.2c-1.9 0-3.7 1-5.6 3v9.2c1.9 2 3.7 3 5.5 3 1.3 0 2.3-.5 3.1-1.2zm12.3-17.9h2.4l1.9 2.6c1.8-2 3.9-3 6.3-3h.8v4.5h-.6c-2.6 0-4.6.9-6 2.5v16.3h-4.8V89.4zm17-8.1h4.8v4.8h-4.8v-4.8zm0 8.1h4.8v23h-4.8v-23zm11.9 0h2.8l1.8 2.6c1.7-2 4-3 6.8-3 2.3 0 4.3.7 5.7 2.2a8.9 8.9 0 0 1 2.2 6.4v14.7h-4.8V98c0-1.5-.4-2.7-1.2-3.5a4 4 0 0 0-3-1.2c-2 0-3.8 1-5.5 3v16h-4.8V89.4zm28.8 28.5a6.6 6.6 0 0 1-2.6-5.6h4.8c0 .9.4 1.6 1.2 2.2.7.7 2 1 3.5 1 3 0 4.6-1.5 4.6-4.3v-3.5a7.8 7.8 0 0 1-6.4 2.8c-2.5 0-4.5-.7-6-2.1-1.6-1.4-2.3-3.5-2.3-6.3v-4.8c0-2.7.8-4.8 2.3-6.2a8.2 8.2 0 0 1 5.8-2.2c2.8 0 5 1 6.8 3.1l1.8-2.5h2.8V111c0 2.8-.8 5-2.5 6.5s-4 2.3-7 2.3a11 11 0 0 1-6.8-2zm11.5-14.6v-7.1c-1.7-2-3.5-2.9-5.4-2.9-1.3 0-2.4.4-3.2 1.2a4 4 0 0 0-1.3 3v4.3a4 4 0 0 0 1.3 3.2 5 5 0 0 0 3.2 1.1c2 0 3.7-1 5.4-2.8z"/>
  <g transform="translate(172.8)">
    <path fill="#A4DAF6" d="m34 63.5 18.4-13.7a6.6 6.6 0 0 0 2.6-6l-2.6-22.7a6.6 6.6 0 0 0-4-5.3l-20.9-9c-2.1-1-4.6-.7-6.5.7L2.7 21a6.6 6.6 0 0 0-2.6 6l2.6 23a6.6 6.6 0 0 0 4 5.2l20.9 9.1c2.1 1 4.6.7 6.5-.7z"/>
    <path fill="#0003FF" d="M27.9 6.9a11.2 11.2 0 1 0 20.5 8.9l-20.5-9z"/>
    <circle cx="27.6" cy="35.2" r="5.6" fill="#0003FF"/>
    <path fill="#FF1A45" d="M48.4 15.8a11.2 11.2 0 0 0-20.5-9V7l20.5 8.9z"/>
  </g>
</svg>