<svg xmlns="http://www.w3.org/2000/svg" viewBox="0 0 400 120">
    <path fill-rule="evenodd" d="M77.4 52.2H44.1c-.9 0-1.6.7-1.6 1.6v16.4c0 .9.7 1.6 1.6 1.6h13v20.4s-3 1-11 1c-9.5 0-22.8-3.5-22.8-33S37 26.9 50 26.9c11.3 0 16.2 2 19.2 3 1 .2 2-.7 2-1.6l3.6-15.9c0-.4-.1-.9-.6-1.2C73 10.3 65.3 6 46 6 23.8 6 1 15.5 1 61.4 1 107.2 27.1 114 49.2 114c18.2 0 29.3-7.8 29.3-7.8.5-.3.5-1 .5-1.2V53.8c0-.9-.7-1.6-1.6-1.6M250 11.6c0-.9-.7-1.6-1.5-1.6h-18.8c-.9 0-1.6.7-1.6 1.6V48H199V11.6c0-.9-.7-1.6-1.6-1.6h-18.7c-.9 0-1.6.7-1.6 1.6v98.8c0 .9.7 1.6 1.6 1.6h18.7c.9 0 1.6-.7 1.6-1.6V68.1h29v42.3c0 .9.7 1.6 1.5 1.6h18.9c.8 0 1.5-.7 1.5-1.6V11.6M113 24.5c0-7-5.4-12.5-12-12.5s-12 5.6-12 12.5S94.4 37 101 37s12-5.6 12-12.5m-1 65v-46c0-.8-.7-1.5-1.6-1.5H91.6c-.8 0-1.6.9-1.6 1.8v65.7c0 2 1.2 2.5 2.7 2.5h17c1.8 0 2.3-1 2.3-2.5v-20M166.2 43H152V24c0-.6-.3-1-1.2-1h-19.2c-.8 0-1.2.3-1.2 1v19.6L120.1 46c-.6.2-1.1.8-1.1 1.5V60c0 .9.7 1.6 1.6 1.6h9.8V91c0 21.8 15.2 24 25.5 24 4.7 0 10.3-1.5 11.2-1.9.6-.2.9-.8.9-1.4V98.2c0-.9-.7-1.6-1.6-1.6-.8 0-2.9.4-5 .4-7 0-9.4-3.3-9.4-7.5v-28h14.2c.8 0 1.5-.7 1.5-1.6V44.5c0-.8-.7-1.6-1.5-1.6m156.2.1h-18.7c-.8 0-1.5.7-1.5 1.6v48.8s-4.8 3.5-11.5 3.5c-6.8 0-8.6-3-8.6-9.8V44.6c0-.9-.7-1.6-1.5-1.6h-19c-.9 0-1.6.7-1.6 1.6v45.8c0 19.8 11 24.6 26 24.6 12.3 0 22.3-6.9 22.3-6.9s.5 3.6.7 4c.2.5.8 1 1.4 1l12-.1c.9 0 1.6-.7 1.6-1.6V44.6c0-.9-.7-1.6-1.6-1.6m44 53c-6.5-.2-10.9-3.1-10.9-3.1V61.6s4.3-2.7 9.7-3.2c6.7-.6 13.1 1.5 13.1 17.6 0 17-2.9 20.3-12 20zm7.3-55.7c-10.6 0-17.8 4.8-17.8 4.8V11.6c0-.9-.7-1.6-1.5-1.6h-18.8c-.9 0-1.6.7-1.6 1.6v98.9c0 .8.7 1.6 1.6 1.6h13c.6 0 1-.4 1.4-.9.3-.5.8-4.5.8-4.5s7.7 7.3 22.3 7.3c17 0 26.9-8.7 26.9-39.2 0-30.5-15.7-34.5-26.3-34.5z" fill="#FFF"/>
</svg>
