<svg xmlns="http://www.w3.org/2000/svg" viewBox="0 0 400 120">
    <g fill="#FFF">
        <path d="M271.6 15.8a7 7 0 0 0-5.2 2 7.3 7.3 0 0 0 10 10.7 7.3 7.3 0 0 0-4.7-12.6v-.1zm1.2 8c-1.8 0-3.2-1-3.2-2.2 0-1.2 1.4-2.2 3.2-2.2 1.8 0 3.2 1 3.2 2.2 0 1.2-1.4 2.2-3.2 2.2zm17 8.7.2-.3a57.5 57.5 0 0 0-7-17.7c-.8-.8-1.5-1.6-2.7-2.4-10.3-6-34.8-9.6-36-9.8h-.2v.3l-.1 5.6c-2.5-.8-20.7-6.7-37.8-7.3-14.4-.5-35.4-2.4-63.3 14.8l-.8.5a64.3 64.3 0 0 0-27 30 35 35 0 0 0-1.5 19.8A29.9 29.9 0 0 0 140 88.3c12.4 1.1 21.8-4.4 25-14.8 2.4-7.2 0-17.7-8.7-23A18.2 18.2 0 0 0 137 50c-3.9 2.6-6 6.5-6 10.9a12 12 0 0 0 11.5 11.9 13.9 13.9 0 0 0 6-1.5l.2-.1.2-.1a4 4 0 0 0 1.5-4.3A4 4 0 0 0 146 64h-.3l-.3.2-.6.2-2 .3a4 4 0 0 1-3.4-4c0-1 .4-1.9.7-2.3.9-1.3 3.2-2.7 6.4-2.4 4.2.4 7.2 2.5 9.2 6.6 1.8 3.7 1.3 8.3-1.3 11.7-2.6 3.4-7.2 4.8-13.3 4.1a18.3 18.3 0 0 1-14.4-9.8c-2.9-5.4-3-11.8-.4-16.8 6.3-11.8 18.1-11.7 24.6-10.6A35.4 35.4 0 0 1 175.2 62c.6 1.6 1 3 1.2 4.1l.5 1.8 10.8 5.3c.3 0 .3.1.4 0 .1 0 0-.2 0-.2l-.4-3.6c-.2-2.7-.6-10 3-13.7 1.5-1.4 3.7-2.7 5.5-3.1 7-1.7 15.4-.5 23.3 8.6a144.1 144.1 0 0 0 7.4 8.1l.5.3 13.5 6.3h.3v-.3c0-.1-8.4-10.9-7-19.7 1.3-7 6.9-6.4 14.6-5.5a61.7 61.7 0 0 0 31.2-3.2c3.6-1.6 5.9-2.6 7.3-4 .5-.4.8-1 1-1.8l.3-.5.7-2.6c0-.3.1-.6-.1-.8-.3-.1-.8.2-.8.2a32.6 32.6 0 0 1-14.2 4.3c-7 .2-21.3-7.1-22.8-7.9l-3-7a60 60 0 0 0 25.2 11c7.2.6 12.9-3.3 15.3-5l1-.6zm-29-9.7a10.4 10.4 0 0 1 10.9-10.1 10.5 10.5 0 0 1 6.8 18.1c-2 2-4.7 3-7.5 2.8-5.8-.2-10.3-5-10.1-10.8z"/>
        <path d="M184.8 83.4a7 7 0 0 0-7.1 6.5v3.5c0 4 3.2 6.4 6.2 6.4h10.5c1.4 0 1.6.9 1.6 1.6v2.2c0 .3 0 2.4-1.6 2.4h-14.3c-1.5 0-2.5 1-2.5 2.4v.6c0 1.3 1 2.3 2.5 2.3h15.1c4 0 6.5-2.7 6.5-7v-3.7c0-4-2.9-5.8-5.7-5.8h-10.4a2.1 2.1 0 0 1-2.2-2v-2c0-1.4.8-2.1 2.3-2.1h11.5c1.4 0 2.5-1 2.5-2.4v-.6c0-1.3-1.1-2.3-2.5-2.3h-12.4zm43.1 0a2.5 2.5 0 0 0-2.5 2.4v17.7c0 1.4-1.1 2.5-2.5 2.5h-8a2.5 2.5 0 0 1-2.6-2.5V85.8c0-1.3-1.1-2.4-2.5-2.4h-.7c-1.4 0-2.5 1-2.5 2.4v18.3c0 4.3 3.4 7.4 8 7.4h8.5c4.6 0 8-3.1 8-7.4V85.8c0-1.4-1-2.4-2.5-2.4h-.7zm15.3 0a7 7 0 0 0-7.1 6.5v3.5c0 4 3.2 6.4 6.2 6.4h10.5c1.4 0 1.6.9 1.6 1.6v2.2c0 .3 0 2.4-1.6 2.4h-14.3c-1.5 0-2.5 1-2.5 2.4v.6c0 1.3 1 2.3 2.5 2.3h15.1c4 0 6.5-2.7 6.5-7v-3.7c0-4-2.9-5.8-5.7-5.8H244a2.1 2.1 0 0 1-2.2-2v-2c0-1.4.8-2.1 2.3-2.1h11.5c1.4 0 2.5-1 2.5-2.4v-.6c0-1.3-1.1-2.3-2.5-2.3h-12.4zm24.2 0c-1.4 0-2.4 1-2.4 2.3V109c0 1.3 1 2.3 2.4 2.3h18.5c1.4 0 2.5-1 2.5-2.3v-.6c0-1.4-1-2.4-2.5-2.4h-15.2v-6h11.1c1.5 0 2.5-1 2.5-2.3v-.6c0-1.3-1-2.3-2.5-2.3h-11v-6.1H285c1.4 0 2.5-1 2.5-2.4v-.6c0-1.4-1-2.3-2.5-2.3h-17.7zm-157.6 11a4.1 4.1 0 0 0-4.2 4v8.8a4 4 0 0 0 4 4.1h5.7a4 4 0 0 0 4.1-4v-8.8c0-2.3-1.9-4-4.2-4h-5.4zm-1.2 12.5v-8c0-1 .8-1.7 1.7-1.7h4.4c1 0 1.7.8 1.7 1.7v8c0 1-.7 1.7-1.7 1.7h-4.4c-1 0-1.7-.7-1.7-1.7zm23.7-12.6c-1.7 0-2.9.6-3.9 1a3 3 0 0 1-1.5.6c-.2 0-.4 0-.4-.2l-.4-.7c-.1-.2-.5-.6-1-.6h-.5c-.6 0-1 .5-1 1.1v22.3c0 .7.6 1.2 1.3 1.2h.4c.7 0 1.3-.6 1.3-1.2v-7.4c0-.2.1-.5.3-.5.4 0 1 .3 1.5.5 1 .5 2.2 1 3.9 1h.5c2.9 0 4.7-1.6 4.7-4.3v-8.5c0-2.6-1.8-4.3-4.7-4.3h-.5zm-5.7 12.4v-7.6c0-1.1.8-2 1.9-2h4.1c1 0 2 .9 2 2v7.6c0 1-1 1.9-2 1.9h-4.1c-1 0-2-.8-2-1.9zm19.3-12.3a4.1 4.1 0 0 0-4.2 4v8.8c0 2.2 1.8 4.1 4 4.1h5.8c.7 0 1.3-.5 1.3-1.1v-.4c0-.7-.6-1.2-1.3-1.2h-4.8c-1.3 0-2-.7-2-2v-2.5h8.6c1.4 0 2.3-.8 2.3-2.3v-3.3c0-2.3-2-4-4.2-4h-5.5zm-1.2 4.5c0-1 .7-1.7 1.6-1.7h4.6c1 0 1.7.7 1.7 1.7v2.7h-8v-2.7zm22.9-4.6c-1.6 0-2.8.6-3.8 1-.7.4-1.2.6-1.6.6-.2 0-.3 0-.4-.2l-.4-.7a1 1 0 0 0-1-.6h-.4c-.6 0-1 .5-1 1.1v14.6c0 .7.5 1.2 1.2 1.2h.5c.7 0 1.2-.5 1.2-1.2v-11c0-1 .9-2 2-2h4c1.1 0 2 1 2 2v11c0 .7.5 1.2 1.2 1.2h.5c.7 0 1.2-.5 1.2-1.2V98.6c0-2.6-1.8-4.3-4.7-4.3h-.5zm124.9 11.4c1.3 0 2.3 1 2.3 2.3 0 1.3-1 2.3-2.3 2.3-1.3 0-2.3-1-2.3-2.3 0-1.3 1-2.3 2.3-2.3zm0 .3c-1 0-1.9 1-1.9 2 0 1.1.9 2 2 2 1 0 1.8-.9 1.8-2 0-1-.9-2-1.9-2zm-.4 3.3h-.4v-2.5h.7l.8.1.2.5c0 .4-.2.6-.5.7.2 0 .4.2.4.6l.2.6h-.4l-.2-.6c0-.3-.2-.5-.5-.5h-.3v1.1zm0-1.4h.3c.3 0 .6-.1.6-.4 0-.3-.2-.5-.6-.5h-.3v1z"/>
    </g>
</svg>
