<svg xmlns="http://www.w3.org/2000/svg" viewBox="0 0 400 120">
  <g fill="#fff">
    <path d="M74.34 21.9 53.46 58.2l-7.58-13.16L30.45 71.5l-7.58-13.16L0 97.84h118.22L74.34 21.9ZM19.02 91.31h-7.58l11.43-19.8 3.86 6.64-7.71 13.16Zm7.7 0 3.87-6.64 3.85 6.64h-7.71Zm11.44-6.64-3.85-6.65L45.74 58.2l3.86 6.65-11.44 19.82Zm3.73 6.64 11.43-19.8 11.44 19.8H41.9Zm30.58 0L57.18 64.85l17.16-29.79 32.44 56.12-34.3.13ZM132.98 78.02c-3.06 0-5.85-.67-8.38-2.13-5.04-3-8.09-8.49-7.98-14.36 0-4.66 1.6-8.65 4.66-11.84 3.06-3.19 7.04-4.78 11.7-4.78a15.3 15.3 0 0 1 15.3 12.63h-6.92a9.6 9.6 0 0 0-1.87-3.2 7.98 7.98 0 0 0-2.92-2.12 8.5 8.5 0 0 0-3.72-.8 8.4 8.4 0 0 0-6.65 2.93 10.24 10.24 0 0 0-2.66 7.18c-.04 2.64.91 5.2 2.66 7.18a8.73 8.73 0 0 0 6.65 2.8 7.98 7.98 0 0 0 5.31-1.74 9.04 9.04 0 0 0 3.06-4.78h6.92a15.7 15.7 0 0 1-5.32 9.44 13.83 13.83 0 0 1-9.84 3.59Zm30.32 0c-2.53 0-4.79-.53-6.78-1.73A12.37 12.37 0 0 1 150 65.12a11.97 11.97 0 0 1 3.72-9.18 13.16 13.16 0 0 1 9.44-3.72 12.77 12.77 0 0 1 13.17 12.9c0 3.72-1.2 6.78-3.72 9.17a13.06 13.06 0 0 1-9.31 3.73Zm0-6.25c1.86 0 3.46-.67 4.65-1.86a6.51 6.51 0 0 0 1.86-4.8c0-1.99-.66-3.58-1.86-4.78a6.38 6.38 0 0 0-4.65-1.86c-1.86 0-3.46.66-4.66 1.86a6.51 6.51 0 0 0-1.86 4.79c0 .93.13 1.86.53 2.66a5.85 5.85 0 0 0 3.33 3.46c.8.4 1.73.53 2.66.53Zm30.45-19.42c2.49-.14 4.9.9 6.52 2.8a11.17 11.17 0 0 1 2.39 7.44v14.76h-6.65V63.52c0-3.59-1.46-5.45-4.25-5.45a5.32 5.32 0 0 0-2.93.8c-.8.53-1.46 1.2-1.86 2.26a9.26 9.26 0 0 0-.67 3.32v12.9h-6.65V52.88h4.53l1.33 3.06c.4-.53.93-1.06 1.6-1.46l1.85-1.2 2.13-.66c.93-.27 1.73-.27 2.66-.27Zm22.34 25.67c-2 0-3.86-.4-5.32-1.07a7.45 7.45 0 0 1-3.59-3.06 8.6 8.6 0 0 1-1.33-4.52h6.38c0 .67.27 1.33.54 1.87.26.53.8.8 1.46 1.06.66.26 1.33.4 2.13.4l1.73-.27c.5-.13.97-.4 1.32-.8.27-.4.54-.8.54-1.33 0-.8-.4-1.33-1.2-1.72-.8-.4-2-.67-3.59-.94l-2.53-.4a9.3 9.3 0 0 1-2.26-.8 6.5 6.5 0 0 1-2.13-1.32 6.65 6.65 0 0 1-1.86-4.92c0-2.26.93-4.12 2.66-5.59 1.86-1.46 4.12-2.12 7.18-2.12 3.06 0 5.32.8 7.05 2.26a7.4 7.4 0 0 1 2.66 5.85h-6.25c0-2-1.2-2.93-3.72-2.93-.85-.04-1.69.2-2.4.67-.53.4-.8.93-.8 1.72l.27.8.53.67 1.07.4 1.2.26 1.46.27 1.2.26 1.2.27 1.32.4 1.2.4 1.2.53.93.67.93.93.66 1.06c.27.4.4.8.4 1.33l.13 1.6a7.2 7.2 0 0 1-2.79 5.98c-1.86 1.46-4.52 2.13-7.58 2.13Zm25.13 0a13.3 13.3 0 0 1-11.57-6.39 13.6 13.6 0 0 1-1.72-6.51 11.97 11.97 0 0 1 3.72-9.18 13.16 13.16 0 0 1 9.44-3.72 12.77 12.77 0 0 1 13.17 12.9c0 3.72-1.2 6.78-3.73 9.17a12.84 12.84 0 0 1-9.3 3.73Zm0-6.25c1.87 0 3.46-.67 4.66-1.86a6.51 6.51 0 0 0 1.86-4.8c0-1.99-.67-3.58-1.86-4.78a6.42 6.42 0 0 0-4.66-1.86c-1.86 0-3.45.66-4.65 1.86a6.51 6.51 0 0 0-1.86 4.79c0 .93.13 1.86.53 2.66a5.85 5.85 0 0 0 3.32 3.46c.93.4 1.73.53 2.66.53Zm30.46-19.42c2.48-.14 4.9.9 6.51 2.8a11.17 11.17 0 0 1 2.4 7.44v14.76h-6.65V63.52c0-3.59-1.47-5.45-4.26-5.45a5.32 5.32 0 0 0-2.92.8c-.8.53-1.47 1.2-1.87 2.26-.4.93-.66 2.13-.66 3.32v12.9h-6.65V52.88h4.52l1.33 3.06c.4-.53.93-1.06 1.6-1.46l1.86-1.2 2.13-.66c.93-.27 1.72-.27 2.66-.27Zm33.5.53h4.93v24.47h-5.19l-.53-2.13c-2.2 1.96-5.05 3-7.98 2.93-3.45.14-6.8-1.22-9.18-3.72a12.77 12.77 0 0 1-3.59-9.31 12.37 12.37 0 0 1 12.77-12.9c3.06 0 5.72.93 7.98 2.92l.8-2.26Zm-13.03 17.03c1.2 1.33 2.8 1.86 4.8 1.86 1.85 0 3.45-.67 4.78-1.86a6.4 6.4 0 0 0 1.86-4.8c0-1.99-.66-3.58-1.86-4.78a6.22 6.22 0 0 0-4.79-1.86c-1.33 0-2.4.27-3.46.93a5.32 5.32 0 0 0-2.39 2.4 7.36 7.36 0 0 0-.8 3.45c0 1.73.67 3.33 1.86 4.66Zm36.57-17.56c2.5-.14 4.9.9 6.52 2.8a11.17 11.17 0 0 1 2.4 7.44v14.76h-6.66V63.52c0-3.59-1.46-5.45-4.25-5.45a5.32 5.32 0 0 0-2.93.8c-.8.53-1.46 1.2-1.86 2.26-.4.93-.66 2.13-.66 3.32v12.9h-6.65V52.88h4.52l1.33 3.06c.4-.53.93-1.06 1.6-1.46l1.86-1.2 2.12-.66c1.07-.27 1.87-.27 2.66-.27Zm25 25.67c-2.29.06-4.55-.54-6.51-1.73a11.97 11.97 0 0 1-4.66-4.66c-1.06-2-1.73-4.25-1.73-6.64 0-3.6 1.2-6.65 3.73-9.18a13.03 13.03 0 0 1 9.3-3.72 12.23 12.23 0 0 1 12.37 10.1h-6.51a6.15 6.15 0 0 0-2.4-2.79 6.65 6.65 0 0 0-3.59-1.06c-1.73 0-3.32.66-4.38 1.86a6.64 6.64 0 0 0-1.73 4.79c0 1.99.66 3.45 1.86 4.78 1.2 1.33 2.66 2 4.39 2a6.25 6.25 0 0 0 5.98-4.13h6.65a12.23 12.23 0 0 1-4.39 7.45 12.9 12.9 0 0 1-8.38 2.93Zm39.37-13.03-.14 1.99h-18.48c.26 1.6.93 2.93 2 3.86a5.8 5.8 0 0 0 3.98 1.33 6.12 6.12 0 0 0 5.19-2.8h6.91a12.5 12.5 0 0 1-12.1 8.78c-3.4.1-6.7-1.25-9.04-3.72a12.9 12.9 0 0 1-3.6-9.18 14.1 14.1 0 0 1 2.4-7.71c.8-1.07 1.73-2 2.66-2.8a14.1 14.1 0 0 1 7.58-2.39 12.5 12.5 0 0 1 12.63 12.63Zm-12.64-7.19c-1.46 0-2.66.4-3.72 1.2a5.32 5.32 0 0 0-2 3.46h11.84a7.63 7.63 0 0 0-1.33-2.53 5.89 5.89 0 0 0-2-1.6 6.94 6.94 0 0 0-2.79-.53Zm13.7-11.43a3.33 3.33 0 0 1 2.4-1.07 3.4 3.4 0 0 1 3.45 3.33l-.27 1.33-.66 1.06a3.33 3.33 0 0 1-2.4 1.07 3.46 3.46 0 0 1-3.45-3.46c-.13-.8.26-1.73.93-2.26Zm2.4 4.92.92-.13.8-.54.53-.8.14-1.06a2.66 2.66 0 0 0-2.53-2.52 2.66 2.66 0 0 0-2.53 2.52c0 .67.27 1.33.8 1.73.53.53 1.2.8 1.86.8Zm1.46-3.06c0 .4-.14.8-.54 1.06l.67 1.2h-.93l-.53-.93h-.4v.93h-.93v-3.32h1.46c.26 0 .66.13.93.4l.27.66Zm-1.73-.4v.67h.53c.26 0 .4-.14.4-.4 0-.27-.14-.4-.4-.4h-.53Z"/>
  </g>
</svg>