<svg xmlns="http://www.w3.org/2000/svg" viewBox="0 0 400 120">
    <g fill="#43BFE4">
        <path d="M227.8 58.5c1-3.1 1.5-6.3 1.4-9.5a31 31 0 0 0-1.4-9.6 20.5 20.5 0 0 0-11.4-12.9 26 26 0 0 0-19.3 0 20.4 20.4 0 0 0-11.4 12.8 30.7 30.7 0 0 0 0 19.2A19.7 19.7 0 0 0 197 71.3a26.4 26.4 0 0 0 19.3 0c2.7-1.2 5.1-3 7-5.1a22 22 0 0 0 4.4-7.7zm-7.7-2a13.7 13.7 0 0 1-23.5 5.5 15.7 15.7 0 0 1-3-5.5 23 23 0 0 1-1.2-7.5c0-2.6.3-5.2 1.1-7.7.7-2 1.7-3.9 3.1-5.5 1.3-1.5 2.9-2.6 4.6-3.4a14 14 0 0 1 11.2 0c1.8.8 3.4 2 4.6 3.4 1.4 1.6 2.5 3.5 3.1 5.5a23 23 0 0 1 1.2 7.7c0 2.5-.4 5-1.3 7.5h.1zM108 32c-1.7-2.3-4-4.2-6.6-5.5-3-1.3-6.1-2-9.3-1.8-3.1 0-6.2.6-9 1.8-1.7.9-3.3 2-4.5 3.6l-1.5 2v-3.9c0-1.4-1.1-2.4-2.5-2.4h-2.7a2.5 2.5 0 0 0-2.4 2.4v59.2c0 1.4 1 2.5 2.4 2.5h2.7c1.4 0 2.5-1.1 2.5-2.5V65.7l1.5 2 1.6 1.5c1.2.9 2.5 1.6 3.9 2.2a21.6 21.6 0 0 0 8 1.5c3.2.1 6.4-.5 9.3-1.8A18.7 18.7 0 0 0 112 58.3a32.5 32.5 0 0 0 0-18.7c-.8-2.8-2.1-5.3-3.9-7.6zm-3.4 23.2c-.4 2-1.2 4-2.3 5.9a13 13 0 0 1-10.9 5.4c-2.3 0-4.6-.6-6.7-1.6a13 13 0 0 1-4.5-3.8c-1.2-1.7-2.1-3.6-2.6-5.6a26.8 26.8 0 0 1 0-13c.4-2 1.2-3.8 2.4-5.5 2.4-3.7 6.6-5.8 11-5.6 2.2 0 4.4.5 6.3 1.5 1.8.9 3.4 2.2 4.5 3.8 1.2 1.7 2.1 3.5 2.6 5.5.6 2 .9 4.2.9 6.3 0 2.3-.2 4.5-.7 6.7zM235.9 8h2.7c1.3 0 2.4 1.1 2.4 2.5v59.2c0 1.4-1 2.5-2.4 2.5h-2.7a2.5 2.5 0 0 1-2.5-2.5V10.5c0-1.4 1.1-2.5 2.5-2.5zm-72.8 24.5h2.9c1.4 0 2.5 1.1 2.5 2.5v34.5c0 1.4 1 2.5 2.4 2.5h2.7c1.4 0 2.5-1.1 2.5-2.5V35c0-1.4 1-2.5 2.4-2.5h4c1.4 0 2.5-1.1 2.5-2.4v-1.9c0-1.4-1-2.5-2.4-2.5h-4a2.5 2.5 0 0 1-2.5-2.4v-1.6c0-1.6.2-3.2.4-4.8.1-.7.6-1.3 1.1-1.7A7.7 7.7 0 0 1 182 14h2.9c.8.2 1.4-.7 1.4-2v-1.6c0-1.3-.7-2.6-1.6-2.9l-1-.3h-2.4a14 14 0 0 0-9.6 3 12.4 12.4 0 0 0-2.9 6l-.4 5v2c0 1.4-1.1 2.5-2.5 2.5h-2.8a2.5 2.5 0 0 0-2.5 2.4V30c0 1.3 1.1 2.4 2.5 2.4zm85.4-6.7h2.6c1.4 0 2.5 1 2.5 2.4v41.5c0 1.4-1.1 2.5-2.5 2.5h-2.6a2.5 2.5 0 0 1-2.5-2.5V28.2c0-1.3 1.1-2.4 2.5-2.4zM302.6 49a31 31 0 0 0-1.4-9.6 20.4 20.4 0 0 0-11.4-12.9 26 26 0 0 0-19.4 0A20.4 20.4 0 0 0 259 39.3a31 31 0 0 0 0 19.1c1 2.8 2.4 5.4 4.3 7.7 2 2.2 4.4 4 7.1 5a26.4 26.4 0 0 0 19.4 0c2.7-1 5.1-2.8 7-5 2-2.3 3.5-4.9 4.4-7.7 1-3 1.4-6.2 1.4-9.4zm-9.2 7.6c-.7 2-1.7 4-3.1 5.5a13.4 13.4 0 0 1-4.6 3.4 14 14 0 0 1-11.2 0c-1.8-.8-3.4-2-4.6-3.4a15.4 15.4 0 0 1-3.1-5.5 23 23 0 0 1-1.2-7.4c0-2.6.4-5.2 1.2-7.7.6-2 1.7-4 3-5.5a13 13 0 0 1 4.7-3.5 14 14 0 0 1 11.2 0c1.7.8 3.3 2 4.6 3.5a16 16 0 0 1 3 5.5 23 23 0 0 1 1.2 7.7c0 2.4-.4 5-1.1 7.3v.1zM161.5 49c0-3-.4-6.2-1.4-9.2-.8-2.8-2-5.4-3.8-7.7-1.8-2.4-4-4.3-6.7-5.6a22.2 22.2 0 0 0-18.5 0c-1.7.8-3.3 2-4.5 3.6l-1.5 2v-3.9c0-1.3-1-2.3-2.3-2.4H120c-1.3 0-2.4 1-2.5 2.4v59.2c0 1.4 1.2 2.5 2.5 2.5h2.7c1.4 0 2.5-1.1 2.5-2.5V65.7l1.5 2 1.6 1.5c1.2.9 2.5 1.6 3.9 2.2a21.5 21.5 0 0 0 8 1.5 18.7 18.7 0 0 0 19.9-14.5c.8-3 1.3-6.2 1.3-9.3zm-8.8 6.2c-.4 2-1.2 4-2.3 5.9a13 13 0 0 1-10.9 5.4c-2.3 0-4.7-.6-6.7-1.6a13 13 0 0 1-4.6-3.8c-1.2-1.7-2-3.6-2.5-5.6-1-4.3-1-8.8 0-13 .4-2 1.3-4 2.4-5.6 2.4-3.6 6.6-5.7 11-5.5a12.7 12.7 0 0 1 10.9 5.3c1.1 1.6 2 3.5 2.5 5.4.7 2.1 1 4.3 1 6.4 0 2.3-.3 4.5-.8 6.7zM44.4 46.9l-3 .7c-2.6.4-5.3.9-8 1.2-2.7.3-5.3.9-7.8 1.7a15 15 0 0 0-5.6 3 7.4 7.4 0 0 0-2.3 5.9 9 9 0 0 0 3.5 7.4 13.3 13.3 0 0 0 8.1 2.7c2.3 0 4.6-.4 6.8-1 2.1-.8 4-1.8 5.7-3.3 3.4-3 5.3-7.3 5.1-11.8v-8h-.2c-.5.7-1.3 1.3-2.3 1.5z"/>
        <path d="M32 15.7a32 32 0 1 0 0 63.9 32 32 0 0 0 0-64zm19.2 44c-2 5.4-6.2 9.6-11.6 11.6a26.4 26.4 0 0 1-10.3 1.3c-4.3-.2-8.5-1.5-12.1-3.9 0 0-9.5-7-2.8-15.3 1.7-2 3.9-3.7 6.3-4.6a36 36 0 0 1 8.8-2.3l10-1.2c1.3 0 2.4-.3 3.4-.5a4.8 4.8 0 0 0 4-3 11.5 11.5 0 0 0-.5-8.6 8.1 8.1 0 0 0-2.8-3.2c-1.3-.9-2.8-1.4-4.3-1.7-1.7-.2-3.4-.4-5.1-.3-3.5-.3-6.9.7-9.7 2.7-2.3 1.9-3.8 4.5-4.5 7.3-.5 1.5-1.3 2.3-2.7 2.2-1.5 0-2.7-1-2.9-2.5.2-2 .9-4 1.9-5.7 1-2 2.4-3.8 4.2-5.2a18 18 0 0 1 6.4-3c2.6-.8 5.3-1.1 8-1.1 1.7 0 3.3.2 5 .6a16 16 0 0 1 6.2 2.5c1.8 1.3 3.3 3 4.3 5 1.3 2.6 1.9 5.5 1.7 8.3v9.3a71 71 0 0 1-1 11.4zm95 21.9h-10.8v24.6h3.2v-10h7.7c2 0 4-.6 5.6-2 1.4-1.4 2-3.4 2-5.3 0-2-.6-4-2-5.4a7.7 7.7 0 0 0-5.7-2zm3 10.6a5.8 5.8 0 0 1-4.1 1.2h-6.4v-9h6.4a6 6 0 0 1 4 1c1 1 1.5 2.2 1.4 3.5 0 1.2-.4 2.5-1.3 3.3zm16.7-4.3c-1.4 0-2.7.3-3.9 1-1.1.8-2 1.9-2.6 3.2v-3.8h-2.7V106h2.9v-7.8c0-1 0-2.1.3-3.1.2-.8.6-1.6 1.1-2.3.6-.6 1.2-1.1 2-1.4 1-.3 2-.5 3-.5V88zm15 2.8a7.7 7.7 0 0 0-2.7-2c-2.4-1-5.1-1-7.5 0-1 .4-2 1.1-2.7 2-.8.8-1.3 1.8-1.7 3-.4 1.2-.5 2.5-.5 3.8 0 1.3.1 2.6.5 3.8.4 1 1 2 1.7 3 .7.8 1.7 1.5 2.7 1.9 2.4 1 5 1 7.5 0a7.7 7.7 0 0 0 4.4-5c.3-1.1.5-2.4.5-3.7 0-1.3-.2-2.6-.5-3.9-.4-1-1-2-1.7-3zm-1.3 9.5a6 6 0 0 1-1.2 2 5.2 5.2 0 0 1-7.9 0 6 6 0 0 1-1.2-2 9.9 9.9 0 0 1 0-5.8c.3-.7.7-1.5 1.2-2 .5-.6 1-1 1.8-1.4 1.3-.6 3-.6 4.3 0 .7.3 1.3.8 1.8 1.3.5.6.9 1.4 1.2 2.1a10 10 0 0 1 0 5.8zm21.3-9.5a7.3 7.3 0 0 0-2.6-2 8 8 0 0 0-3.6-.8c-1.2 0-2.4.2-3.4.7-1 .4-1.8 1.2-2.3 2.1v-2.4h-3V113h3v-9.2c.3.5.7 1 1.2 1.4l1.5.8 1.6.5h1.5c1.2 0 2.4-.2 3.5-.8 1-.4 1.9-1.1 2.6-2 .7-.8 1.2-1.8 1.5-2.9a12.7 12.7 0 0 0 0-7.2c-.3-1-.9-2-1.5-2.9zm-1.4 9c-.2.8-.4 1.5-.9 2.2a4.7 4.7 0 0 1-4.2 2.1c-.9 0-1.8-.2-2.6-.6a5 5 0 0 1-1.7-1.5c-.5-.6-.8-1.3-1-2.1a10.3 10.3 0 0 1 0-5c.2-.8.5-1.5 1-2.1 1-1.4 2.5-2.2 4.2-2.1.8 0 1.7.1 2.4.5.7.3 1.3.9 1.8 1.5.4.6.8 1.3 1 2.1l.3 2.4c0 .9-.1 1.7-.3 2.6zm21.4-5a9.9 9.9 0 0 0-1.3-3.3 7.3 7.3 0 0 0-6.4-3.5 8 8 0 0 0-7.7 5.6c-.5 1.2-.7 2.5-.7 3.8 0 1.3.3 2.6.7 3.9a7.3 7.3 0 0 0 4.3 4.9c1.1.5 2.4.7 3.7.6 1.8.1 3.6-.4 5-1.5a7.2 7.2 0 0 0 2.7-4.5h-3c-.1 1-.7 2-1.5 2.6a5 5 0 0 1-3 .8 6 6 0 0 1-2.6-.5 4.9 4.9 0 0 1-2.8-3.1c-.2-.8-.3-1.5-.2-2.3h13.3c0-1.2-.2-2.3-.5-3.5zm-13.1.9a6 6 0 0 1 1.5-3.6c.4-.5 1-.8 1.6-1 .6-.3 1.3-.5 2-.4a5 5 0 0 1 2 .3 5.2 5.2 0 0 1 2.7 2.7c.3.6.4 1.3.5 2h-10.3zM238.4 83h-3v5.3h-2.6V88c-1.3 0-2.6.3-3.8 1a8 8 0 0 0-2.6 3.2v-3.8h-2.8V106h2.8v-7.8c0-1 0-2.1.3-3.1.2-.8.6-1.6 1.1-2.3.5-.6 1.2-1.1 2-1.4 1-.3 2-.5 3-.5h2.7v11.5c0 .7 0 1.4.2 2 .1.5.4.9.7 1.2.4.3.8.5 1.3.6h4.2v-2.7h-2.4c-.3 0-.5 0-.7-.2a.9.9 0 0 1-.4-.5v-12h3.6v-2.5h-3.6V83zm12.8 20L246 88.4h-3.3l7 17.7-1.2 3c-.2.5-.6.9-1 1.2-.4.3-.9.5-1.4.4h-.9l-.8-.2v2.6c.3.2.6.2 1 .3h1c.6 0 1.2-.1 1.7-.3l1.4-.8a19.2 19.2 0 0 0 2.1-3.7l7.7-20.2h-3.1l-5 14.6zm31.6-.7L275 81.6h-4.4v24.6h3.1V85.7l7.7 20.5h2.8l7.7-20.5h.1v20.5h3.1V81.6h-4.5zm30.7 1.3V92.8c0-.9-.2-1.7-.6-2.5-.4-.6-1-1.2-1.6-1.5-.6-.4-1.4-.6-2.1-.7h-2.4c-1 0-2 0-2.9.3-.8.2-1.6.5-2.3 1-.7.5-1.3 1.1-1.7 1.8-.4 1-.7 1.9-.7 2.8h3a3 3 0 0 1 1.3-2.6c1-.5 2-.8 3-.7h1.5c.4 0 .8.2 1.2.4.4.2.7.5 1 .9.2.4.3 1 .3 1.5s-.2 1-.5 1.3c-.4.3-.8.5-1.3.6l-1.8.2-2.3.3c-.7 0-1.5.3-2.2.6-.7.2-1.3.5-2 .9a4.6 4.6 0 0 0-1.8 4 4.2 4.2 0 0 0 1.7 3.8 5 5 0 0 0 1.9 1 9.7 9.7 0 0 0 5.7-.4 7 7 0 0 0 2.8-2.1c0 .7.2 1.5.7 2 .5.5 1.1.8 1.8.7.7 0 1.4 0 2-.4v-2.3h-.8c-.6.4-.8.2-1-.1zm-3-3.6c0 .5-.2 1-.4 1.3-.2.5-.5 1-1 1.3-.4.5-1 .8-1.6 1a7 7 0 0 1-2.5.4 6 6 0 0 1-1.3 0c-.4 0-.8-.2-1.1-.4-.4-.2-.6-.5-.8-.8-.2-.4-.3-.8-.3-1.3 0-.6.1-1.2.5-1.7.3-.4.8-.8 1.3-1l1.8-.5 2-.3 1.9-.3c.5 0 1-.3 1.4-.6v2.9zm20.2-10.2c-.5-.6-1.2-1-1.9-1.4-1-.3-2-.5-3-.5a6.2 6.2 0 0 0-5.8 3.3v-2.8h-2.7v17.8h3v-10c0-.8 0-1.6.3-2.3a5 5 0 0 1 1-1.8c.4-.5 1-.9 1.6-1.2a6 6 0 0 1 2.4-.4c1 0 1.9.3 2.6 1 .7.7 1 1.6 1 2.6v12h3V94.6c0-1-.2-1.8-.4-2.7-.2-.7-.6-1.4-1-2zm19.2 13.8V92.9c0-1-.2-1.8-.6-2.6-.4-.6-.9-1.1-1.6-1.5-.6-.3-1.3-.6-2.1-.7h-2.4c-1 0-2 0-2.9.3a7 7 0 0 0-2.3 1c-.7.5-1.3 1.1-1.7 1.9-.4.8-.7 1.8-.7 2.8h3c0-1 .4-2.1 1.3-2.7 1-.5 2-.7 3.1-.7h1.4c.5 0 .9.2 1.3.4s.7.5.9 1c.2.4.4 1 .3 1.4 0 .5-.1 1-.5 1.3-.3.3-.8.5-1.3.7l-1.9.3-2.3.4c-.7 0-1.5.3-2.2.5-.7.2-1.3.5-2 1-.5.3-1 .9-1.3 1.5a6 6 0 0 0 0 4.8c.3.6.7 1.1 1.3 1.5a5 5 0 0 0 1.8.9 9.7 9.7 0 0 0 5.8-.4 7 7 0 0 0 2.8-2c0 .7.2 1.4.7 2 .5.5 1.1.7 1.8.7s1.4-.2 2.1-.5v-2.3a3 3 0 0 1-.9 0c-.6.2-.8 0-1-.3zm-3-3.6c0 .5-.2 1-.4 1.3-.2.5-.5 1-1 1.3-.4.5-1 .8-1.6 1a7 7 0 0 1-2.5.4 6 6 0 0 1-1.3 0c-.4 0-.8-.2-1.1-.4a2.3 2.3 0 0 1-1.1-2c0-.7.1-1.3.5-1.8.3-.4.8-.8 1.3-1l1.8-.5 2-.3 1.9-.3c.5 0 1-.3 1.4-.6v2.9zm19.4-9.1c-.5-1-1.3-1.7-2.2-2.2a8 8 0 0 0-7 .2c-1 .5-1.9 1.2-2.5 2.2-.7.9-1.1 1.9-1.4 3a13.5 13.5 0 0 0 0 6.7c.4 1 .9 2 1.6 3a7.3 7.3 0 0 0 6 2.6c1 0 2.2-.3 3.2-.8a5 5 0 0 0 2.3-2.4v1.2c0 1 0 1.8-.3 2.7-.2.8-.5 1.5-1 2.1-.4.6-1 1-1.6 1.4-.8.4-1.6.5-2.5.5h-1.5c-.5 0-1-.2-1.4-.5-.5-.2-.9-.5-1.2-.9-.3-.3-.5-.8-.5-1.3h-3c0 .9.3 1.7.8 2.4s1 1.3 1.7 1.7a12.4 12.4 0 0 0 4.9 1.2c2.3.1 4.6-.7 6.3-2.3a9.4 9.4 0 0 0 2-6.5V88.4h-2.8v2.5zm-.5 8.5c-.2.8-.5 1.6-.9 2.2a4.8 4.8 0 0 1-4.1 2.2 4.4 4.4 0 0 1-4-2.2 7 7 0 0 1-.8-2.1 12.6 12.6 0 0 1 0-5 6 6 0 0 1 .8-2 4.7 4.7 0 0 1 4-2 4.6 4.6 0 0 1 4 2l.9 2.1.2 2.3v2.5zm22.2-4.7a9.9 9.9 0 0 0-1.4-3.3c-.6-1-1.5-1.8-2.5-2.5a8.1 8.1 0 0 0-9.9 1.6c-.7 1-1.3 2-1.7 3-.4 1.2-.6 2.5-.6 3.8 0 1.3.3 2.6.6 3.9.4 1 1 2 1.6 3 .8.8 1.7 1.4 2.7 1.9 1.2.5 2.5.7 3.8.6 1.8.1 3.6-.4 5-1.5a7.2 7.2 0 0 0 2.7-4.5h-3c-.2 1-.8 2-1.6 2.6a5 5 0 0 1-3.1.8 6 6 0 0 1-2.5-.5 4.8 4.8 0 0 1-2.8-3.2c-.2-.7-.3-1.5-.3-2.2h13.4c0-1.2-.2-2.3-.4-3.5zm-13 .9a6 6 0 0 1 1.4-3.6 4.7 4.7 0 0 1 3.7-1.4 5 5 0 0 1 2 .3l1.6 1.1a6.2 6.2 0 0 1 1.5 3.6h-10.3zm21-6.7a8 8 0 0 0-2.6 3.2v-3.8h-2.8V106h3v-7.8c0-1 0-2.1.3-3.1a6 6 0 0 1 1.1-2.3c.5-.6 1.2-1.1 2-1.4 1-.3 2-.5 3-.5V88c-1.4-.1-2.8.2-4 1zm-93.4-55.7h1.1v-7.5h2.8v-1h-6.7v1h2.8zm9.1-1.4-2.7-7.1h-1.5v8.5h1.1v-7.1l2.6 7.1h1l2.6-7.1h.1v7.1h1v-8.5h-1.5z"/>
    </g>
</svg>
