<svg width="400" height="120" xmlns="http://www.w3.org/2000/svg">
    <g fill="none">
        <path d="M291.411 29.076c-2.52-7.783-6.61-13.813-12.174-17.977C273.808 7.049 267.199 5 259.59 5H145.433c-7.61 0-14.219 2.048-19.647 6.121-5.565 4.165-9.676 10.218-12.197 18C111.159 36.723 110 46.053 110 58.5v48.152c0 1.252.114 2.185.363 2.936.25.774.66 1.388 1.227 1.798.545.41 1.204.614 1.953.614H259.59c7.609 0 14.218-2.048 19.647-6.121 5.565-4.165 9.676-10.218 12.197-18C293.864 80.3 295 70.947 295 58.5s-1.136-21.8-3.589-29.424" fill="#341CFF"/>
        <path fill="#FFF" d="M198 81.124V94h-28V24h12.492v57.124zm19.582-44.248v15.686h15.527v12.876h-15.527v15.686H234V94h-29V24h29v12.876zm-89.939 45.669C125.7 76.465 125 68.427 125 59c0-9.427.7-17.465 2.643-23.545C130.286 27.213 135.323 23 144.426 23 157.143 23 162 31.425 162 49.983v.091h-12.808v-.205c0-10.201-1.332-13.935-5.127-13.935-2.462 0-3.976 1.366-4.947 4.326-1.152 3.53-1.333 10.201-1.333 18.74 0 9.017.271 15.598 1.423 19.218.881 2.55 2.124 3.826 4.156 3.826 3.524 0 5.038-3.826 5.038-14.118h12.807c0 19.332-5.037 27.074-17.573 27.074-8.313 0-13.35-4.213-15.993-12.455m136.88-5.215c1.34-4.121 1.5-11.385 1.5-18.353 0-6.968-.182-14.231-1.5-18.353-.978-3.05-2.568-4.713-5.068-4.713-2.41 0-4 1.662-4.978 4.713-1.34 4.122-1.59 11.385-1.59 18.353 0 6.968.272 14.232 1.59 18.353.978 3.051 2.568 4.714 4.978 4.714 2.477 0 4.09-1.663 5.068-4.714m-21.864 5.215C240.705 76.465 240 68.427 240 59c0-9.427.705-17.465 2.66-23.545C245.317 27.213 250.385 23 259.454 23c9.068 0 14.204 4.213 16.886 12.455C278.295 41.535 279 49.573 279 59c0 9.427-.705 17.465-2.66 23.545C273.683 90.787 268.524 95 259.456 95c-9.069 0-14.137-4.213-16.796-12.455"/>
    </g>
</svg>
