<svg xmlns="http://www.w3.org/2000/svg" viewBox="0 0 400 120">
    <path fill="#FFF" d="M341.36 40.03c-3.76 0-8.38.7-12.6 2.14-.9.3-2.53 1-2.53 1l2.06 7.54.3-.1 2.2-.7s4.9-1.7 9.2-1.7c2.9 0 5.1.6 6.4 1.8 1.2 1.1 1.9 3 1.9 5.6H341c-5.5 0-9.82 1.2-12.85 3.5-2.9 2.2-4.35 5.3-4.35 9.1 0 3.5 1.27 6.4 3.75 8.6 2.22 2 5.07 3 8.72 3.1h.55c2.35 0 5.4-.1 8.46-1.4.92-.4 2.08-.9 3.25-1.6V80h8.5V55.1c0-4.1-1.28-7.55-3.78-10.28-2.82-3.15-6.82-4.75-11.88-4.75zm7.22 23.5v3.34c-1 1.2-2.58 2.44-4.3 3.32-1.9.9-3.54 1.4-5.33 1.5-4.58.3-7.22-1.2-7.22-4.1 0-1.5 1.5-2.8 2.98-3.3 1.8-.7 4.5-.8 7.2-.8h6.7zm-47.14-23.57c-3.52 0-6.67.72-9.38 2.13v-2.2h-9.03v51.2h9.03V77.5c2.7 1.43 5.86 2.15 9.38 2.15 5.7 0 10.37-1.86 13.85-5.5 3.4-3.7 5.2-8.54 5.2-14.38 0-5.84-1.8-10.67-5.3-14.36-3.5-3.6-8.2-5.5-13.9-5.5zm-7 28.9c-.97-.88-1.78-2.1-2.4-3.57-.64-1.5-.96-3.4-.96-5.5s.32-4 .95-5.5c1.77-4.1 4.85-6.2 9.4-6.2 2.76 0 5.1.8 6.97 2.6 2.26 2.1 3.4 5.1 3.4 9 0 4-1.14 7.1-3.38 9.1-1 .8-2.12 1.5-3.34 1.9-2.5.8-4.85.8-7.36 0-1.2-.4-2.3-1.1-3.28-2zm95.5-40.4V42.1c-2.7-1.42-5.86-2.14-9.37-2.14-5.72 0-10.38 1.86-13.86 5.52-3.4 3.7-5.2 8.52-5.2 14.36 0 5.83 1.8 10.66 5.3 14.35 3.5 3.6 8.2 5.5 13.9 5.5 3.5 0 6.7-.7 9.4-2.2v2.1h9V28.4H390zm.98 31.4c0 2.17-.32 4-.95 5.5-1.77 4.1-4.85 6.13-9.4 6.13-2.76 0-5.1-.9-6.97-2.6-2.25-2.1-3.4-5.2-3.4-9 0-4 1.14-7.1 3.38-9.2 1-.9 2.12-1.6 3.34-2 1.25-.5 2.46-.7 3.68-.7 1.23 0 2.43.2 3.68.6 1.2.4 2.32 1 3.3 1.9.95.9 1.76 2.1 2.4 3.6.62 1.5.94 3.3.94 5.5zm-112.08-12.9-5.6-7.15-19.68 15.7v-27h-9.03v51.3h9.03V67.1l4.8-3.8 14.06 16.64 6.87-5.9-13.9-16.4L278.8 47m-101.34-7c-6 0-11 1.9-14.47 5.52-3.5 3.62-5.3 8.44-5.3 14.3 0 5.88 1.8 10.7 5.3 14.35 3.4 3.6 8.4 5.5 14.4 5.5s10.9-1.9 14.4-5.5c3.5-3.65 5.3-8.47 5.3-14.34 0-5.85-1.8-10.7-5.4-14.32-3.5-3.6-8.5-5.5-14.5-5.5zm7.2 28.9c-1.03.87-2.2 1.52-3.46 1.94-1.26.45-2.52.66-3.76.67-1.26 0-2.53-.2-3.78-.6-1.27-.4-2.43-1-3.46-1.9-2.3-2-3.48-5.1-3.48-9.1 0-3.9 1.14-6.8 3.5-9 1.92-1.7 4.34-2.5 7.2-2.5 2.83 0 5.26.9 7.18 2.6 2.36 2.2 3.5 5.1 3.5 9 0 4-1.17 7.1-3.47 9.1zM220.1 40c-6 0-11 1.9-14.45 5.52-3.55 3.62-5.34 8.44-5.34 14.3 0 5.88 1.8 10.7 5.4 14.35 3.5 3.6 8.5 5.5 14.5 5.5s11-1.9 14.5-5.5c3.6-3.65 5.4-8.47 5.4-14.34 0-5.85-1.7-10.7-5.3-14.32-3.4-3.6-8.4-5.5-14.4-5.5zm7.2 28.9a10.24 10.24 0 0 1-3.45 1.94c-1.27.46-2.5.66-3.75.67-1.24 0-2.5-.2-3.77-.6-1.26-.4-2.42-1-3.45-1.9-2.3-2-3.46-5.1-3.46-9.1 0-3.9 1.14-6.8 3.5-9 1.93-1.7 4.35-2.5 7.2-2.5 2.84 0 5.26.9 7.2 2.6 2.35 2.2 3.5 5.1 3.5 9 0 4-1.18 7.1-3.5 9.1zm-99.15-9.05c0 1.64.35 4.2 1.34 6.05.8 1.48 1.9 2.76 3.4 3.8 1.6 1.15 3.8 1.76 6.1 1.76 1.1 0 2.2-.13 3.2-.4 2.8-.7 5.4-2.27 7.7-4.82l.2-.3 5.9 5.8s-1.7 1.9-3.6 3.3c-3.78 2.8-8.3 4.7-13.8 4.7-6.7 0-12.7-3-16-7.67-2.5-3.53-3.7-7.87-3.7-12.18 0-4.3 1.12-8.7 3.63-12.2C126 43 132 40 138.7 40c5.5 0 10.07 1.8 13.8 4.6 1.9 1.4 3.54 3.3 3.54 3.3l-5.9 5.8-.27-.3c-2.3-2.6-4.8-4.2-7.7-4.9-1.1-.3-2.2-.4-3.28-.4-2.4 0-4.5.6-6.2 1.74-1.5 1.04-2.7 2.3-3.5 3.8-1 1.84-1.3 4.4-1.3 6.05"/>
    <path fill="#F93" d="M108.78 59.65C108.78 29.47 84.2 5 53.9 5 23.6 5-.98 29.47-.98 59.65S23.6 114.3 53.9 114.3c30.3 0 54.88-24.47 54.88-54.65"/>
    <path fill="#FFF" d="M76.75 33.97c-3.6 0-6.94 1.25-9.58 3.34-2.36-5.5-7.87-9.5-14.28-9.5-5.5 0-10.3 2.9-13 7.1-2-.9-4.2-1.4-6.5-1.4-8.6 0-15.5 7-15.5 15.6 0 6.8 4.3 12.5 10.2 14.7l-2.8 23.6c-.1.7.1 1.5.6 2 .4.6 1.1.9 1.8.9h42.2c1.2 0 2.3-.9 2.4-2.2l2.8-22.9c.6.1 1.1.1 1.6.1 8.6 0 15.5-7 15.5-15.6S85.3 34 76.7 34"/>
    <path fill="#300" d="M78.5 32.4c-3.85 0-7.38 1.33-10.2 3.55-2.5-5.93-8.35-10.1-15.16-10.1-5.78 0-10.86 3-13.8 7.54-2.1-1-4.42-1.6-6.86-1.6-9.1 0-16.48 7.4-16.48 16.6 0 7.2 4.57 13.3 10.93 15.6l-3.1 25.1c-.1.7.14 1.5.63 2.1.5.5 1.22.9 1.97.9h44.85c1.32 0 2.44-1 2.6-2.4l3-24.4c.54 0 1.08.1 1.62.1 9.08 0 16.47-7.5 16.47-16.6 0-9.2-7.4-16.6-16.47-16.6zm0 27.7c-.32 0-.63-.02-.95-.05l.37-2.94c.18-1.4-.84-2.8-2.27-3-1.44-.2-2.75.9-2.94 2.4l-2 17H36.5c-1.45 0-2.62 1.2-2.62 2.7 0 1.5 1.18 2.7 2.63 2.7H70l-1 8H29.4l3.36-27.2h-.28c-6.2 0-11.24-5-11.24-11.1s5.05-11.1 11.24-11.1c3.53 0 6.68 1.7 8.74 4.2.28.4.66.4.74-.2.55-5.6 5.36-10 11.18-10 5.6 0 10.25 4.1 11.1 9.4-.4.7-.77 1.47-1.07 2.2l4.68 2.5c1.5-4.4 5.7-7.52 10.65-7.52 6.2 0 11.23 5 11.23 11.1 0 6.14-5.04 11.14-11.23 11.14z"/>
</svg>
