<svg xmlns="http://www.w3.org/2000/svg" viewBox="0 0 400 120">
    <path d="M53.9 13.8H71v74.8h8.2v1.5h-17v-9.2H62l-1.2 3c-.7 1.4-1.5 2.5-2.5 3.6A13.8 13.8 0 0 1 48 91.6c-3 0-6.1-.7-8.9-2a26 26 0 0 1-12.4-13.2 24.4 24.4 0 0 1 11.9-31c2.7-1.4 5.7-2 8.6-2 3.9 0 7 .9 9.4 2.8 2.4 1.8 4.1 4.2 5.1 7h.2V15.3H54v-1.5zm-18.3 52c0 3.7 0 7 .3 10 .1 2.7.7 5.3 1.6 7.7.7 2 2 3.7 3.8 5 1.7 1 4 1.6 6.9 1.6 3 0 5.3-.6 7.1-1.9 1.8-1.3 3.2-3 4.2-4.9 1-2.1 1.7-4.4 2-6.7.3-2.4.5-4.8.5-7.2a136 136 0 0 0-.7-12.5 18.2 18.2 0 0 0-3-7.2 12.5 12.5 0 0 0-4.1-3.5c-1.7-.9-3.8-1.4-6.5-1.4-2.4 0-4.5.5-6 1.5-1.7 1-3 2.5-3.7 4.2a22 22 0 0 0-1.9 6.6c-.4 3-.5 5.9-.5 8.8zm45.3 22.8H89V46.2h-8.1v-1.5h17v10.7h.2a21 21 0 0 1 1.4-3.6 15.6 15.6 0 0 1 6.7-7c1.8-.9 3.8-1.3 5.7-1.2 1.5 0 3 .2 4.3.8 1 .4 2 1.1 3 2 .7.8 1.3 1.7 1.6 2.8.4 1 .5 2 .5 3.2 0 2.3-.5 3.8-1.5 4.6a6 6 0 0 1-3.7 1.2c-3.2 0-4.7-1-4.7-3 0-.5 0-1 .2-1.5l.5-1.2.5-1.3a8 8 0 0 0 .2-2.1c0-2.3-1.2-3.4-3.7-3.4-1.3 0-2.6.5-3.6 1.3-1.4 1-2.6 2.2-3.5 3.7a23.3 23.3 0 0 0-4 13.7v24.2h9.2v1.5H80.9v-1.5zm51.4-24.7V66l-.1 2.8c0 2.5.1 5 .4 7.3.2 2.4.9 4.7 1.8 6.9 1 2 2.4 3.8 4.3 5 1.8 1.4 4.3 2 7.4 2 3.1 0 5.7-.4 7.7-1.3a14 14 0 0 0 7.4-7.3c.5-1.3 1-2.4 1.2-3.3l1.6.3c-.3 1.2-.7 2.3-1.2 3.4a17.3 17.3 0 0 1-16.8 9.8c-3.3 0-6.6-.6-9.8-1.7a22.3 22.3 0 0 1-14.6-22.2c0-3.1.6-6.2 1.8-9 2.5-6 7-10.6 12.7-13.3a21 21 0 0 1 22 2.4 19 19 0 0 1 4.8 6.3c1.3 2.6 2 5.9 2 9.8h-32.6zm21.8-1.5.2-2.8V57c0-2-.2-4-.7-6-.4-1.3-1-2.6-2-3.6a6.7 6.7 0 0 0-2.9-2c-1.2-.4-2.4-.6-3.7-.6-2.4 0-4.4.5-6 1.5-1.5.9-2.8 2.2-3.6 3.8-1 1.8-1.7 3.7-2.1 5.6a44 44 0 0 0-1 6.7h21.8zm17.3 12.9h1.2a40 40 0 0 0 1.9 5.1c.8 1.8 1.8 3.4 3.1 4.8 1.4 1.5 3 2.7 4.8 3.5 2.2 1 4.5 1.5 6.9 1.4 2.2 0 4.3-.7 6-2 1.8-1.4 2.7-3.7 2.7-6.8 0-2.7-.7-4.5-2.1-5.6-1.5-1.2-3-2-4.8-2.6l-8.3-2.9-3.4-1.3c-1.3-.6-2.4-1.3-3.4-2.2-1.1-1-2-2.3-2.6-3.7a14 14 0 0 1-1-5.7c0-2 .4-3.8 1.1-5.5a14 14 0 0 1 8-7.4 17 17 0 0 1 9.9-.7 29.3 29.3 0 0 1 4.4 1.5 5 5 0 0 0 2 .3c.6 0 1.3-.2 1.7-.8h1.1v12.1h-1.2c-.4-1.5-1-3-1.7-4.5-.5-1.4-1.3-2.7-2.2-3.9-.9-1-2-2-3.3-2.6-1.4-.7-3-1-4.6-1-3.4 0-6 .8-7.9 2.3a7.4 7.4 0 0 0-2.8 6c0 2.3.8 4 2.4 5.2a25 25 0 0 0 7 3.2l7.7 2.6c3 1 5.8 2.5 8.2 4.6 2.1 2 3.2 4.6 3.2 7.9A14.9 14.9 0 0 1 201 87a16.7 16.7 0 0 1-5.3 3.3 18.8 18.8 0 0 1-11.4.8 63 63 0 0 1-6.6-2c-.9-.3-1.7-.4-2.6-.5-.6 0-1.2.2-1.7.5l-.8 1h-1.2V75.3zm40.9 0h1.1c.5 1.7 1.2 3.5 2 5.1a18 18 0 0 0 3 4.8 15.3 15.3 0 0 0 11.7 4.9c2.2 0 4.3-.7 6-2 1.8-1.4 2.7-3.7 2.7-6.8 0-2.7-.7-4.5-2-5.6-1.5-1.2-3.1-2-4.9-2.6l-8.2-2.9c-1.1-.3-2.2-.8-3.5-1.3-1.2-.6-2.4-1.3-3.4-2.2-1.1-1-2-2.3-2.6-3.7a14 14 0 0 1-1-5.7c0-2 .4-3.8 1.2-5.5a14.3 14.3 0 0 1 8-7.4 17 17 0 0 1 9.8-.7 29.7 29.7 0 0 1 4.4 1.5 5 5 0 0 0 2 .4c.7 0 1.3-.3 1.7-.9h1.1v12.1h-1.1c-.5-1.5-1-3-1.7-4.5a18 18 0 0 0-2.3-3.9c-.9-1-2-2-3.3-2.6-1.4-.7-3-1-4.6-1-3.4 0-6 .8-7.9 2.3a7.4 7.4 0 0 0-2.8 6c0 2.3.8 4 2.4 5.2a25 25 0 0 0 7 3.2l7.8 2.6c3 1 5.8 2.5 8.1 4.6 2.1 2 3.2 4.6 3.2 7.9a14.9 14.9 0 0 1-4.4 10.4 16.7 16.7 0 0 1-5.3 3.3 18.8 18.8 0 0 1-11.4.8 64 64 0 0 1-6.6-2c-.8-.3-1.7-.4-2.5-.5-.6 0-1.2.2-1.7.5l-.9 1h-1.1V75.3zm37.8 13.3h8.2V46.2h-8.2v-1.5h17.3v43.9h8.1v1.5h-25.4zm27.1 29.6h8.1v-72h-8v-1.5h17v9h.2a14.7 14.7 0 0 1 14.7-10.3c3 0 5.9.6 8.5 2a24.4 24.4 0 0 1 7 38.8c-2.2 2.2-4.7 4-7.4 5.4-2.8 1.3-5.8 2-8.9 2a13.8 13.8 0 0 1-13.7-10.3h-.2v37h8.1v1.4h-25.4v-1.5zM321 66c0-3-.2-5.9-.5-8.8-.3-2.2-1-4.5-1.9-6.6-.8-1.7-2-3.2-3.7-4.2-1.6-1-3.6-1.5-6-1.5-2.7 0-4.8.5-6.5 1.4a13.1 13.1 0 0 0-6 6.7 42.7 42.7 0 0 0-1.7 9.4l-.1 7c0 2.5.1 4.9.5 7.3.3 2.3 1 4.6 2 6.7 1 2 2.4 3.6 4.2 4.9 1.8 1.3 4.2 1.9 7.1 1.9 3 0 5.2-.6 6.9-1.7 1.7-1.2 3-2.9 3.8-4.9 1-2.4 1.5-5 1.6-7.6.2-3 .3-6.4.3-10zm14.7 22.6h8.2V46.2h-8.2v-1.5H353v43.9h8.1v1.5h-25.4zm-92-72.9a19.6 19.6 0 1 1 38.2 8.8 19.6 19.6 0 0 1-38.2-8.8zm16-5.4a3.7 3.7 0 1 0-1.6 7.2 3.7 3.7 0 0 0 1.7-7.2zm-2.3 10a3.7 3.7 0 1 0-1.6 7.2 3.7 3.7 0 0 0 1.6-7.1zm12.4-7.7a3.7 3.7 0 1 0-1.6 7.2 3.7 3.7 0 0 0 1.6-7.2zm-2.3 10a3.7 3.7 0 1 0-1.7 7.2 3.7 3.7 0 0 0 1.7-7.1zm68.5.8a19.6 19.6 0 1 1 38.8-6.1 19.6 19.6 0 0 1-38.8 6zm13-11a3.7 3.7 0 1 0 1 7.2 3.7 3.7 0 0 0-1-7.2zm1.5 10.2a3.7 3.7 0 1 0 1.2 7.2 3.7 3.7 0 0 0-1.2-7.2zm8.6-11.8a3.7 3.7 0 1 0 1.2 7.2 3.7 3.7 0 0 0-1.2-7.2zm1.6 10.1a3.7 3.7 0 1 0 1.2 7.3 3.7 3.7 0 0 0-1.2-7.3z" fill="#FFF"/>
</svg>
