<svg xmlns="http://www.w3.org/2000/svg" viewBox="0 0 400 120">
    <g fill="none">
        <path fill="#E32F12" d="M341.1 16.9c1-2.7 1.9-5.5 1.4-7.6a3.8 3.8 0 0 0-2.2-2.8c-1-.4-1.6-.4-2.6-.2-2.2.5-3 2.8-4.3 6.4l-3.9-2.3a4 4 0 0 0-3-.4c-2 .5-2.8 2.6-2.4 4.3.3 1.3.8 2 1.7 3 1.4 1.5 3.5 3 4.6 4 0 0-1 2.2-1.4 3.5-.7 1.8-1 3.1-.8 4.4a2.9 2.9 0 0 0 2.7 2.3c2 0 4.2-2.1 6.4-6.2 1.7.8 3.9 1.6 5.7 1.6 2.6 0 3.6-1.6 3.8-2.3.5-1 .5-2 .3-2.8-.5-2.5-4.2-4-6-5"/>
        <path fill="#FFF" d="M326.7 35.4c-4.4 1.2-7 11.8-10.6 12.7-.8.2-1.6-.2-1.8-1.1-.9-3.5 3.7-13.4 1.2-23.7a10 10 0 0 0-12.5-7.6c-2.6.7-4.5 2-6 3.3l-.3-1.7C295.3 11.5 291 7 285 8.5c-6.9 1.8-10.4 8.8-8.8 15.4 1.1 4.7 4.1 7.1 7.4 8.8h-.1c0 3-.7 5.7-2 7.8a22.7 22.7 0 0 0-8.3-12.2 18 18 0 0 0-15.3-2.8 27.5 27.5 0 0 0-16 11.5 39 39 0 0 0-5.8 28.4c-1.7 4.3-3.8 7.6-5.1 8-1 .1-1-.3-1.2-.7-1-4.5 4.2-17 1.5-28-1.3-5.3-5.2-9.5-12-7.7-5.8 1.4-7.7 5.5-10.9 7.3l-.7-4.4c-1.4-5.8-6-10.2-12-8.7-7 1.7-10.7 8.8-9 15.9a14 14 0 0 0 9.2 9.8c1.1 9.7-7.3 27.1-10.6 28-.5 0-1-.3-1.2-.7-1-4 5-17.2 2.3-28.2-1.3-5.3-5.4-9.4-11.9-7.7-5.5 1.4-7.5 4.3-10 6-.2-1.2-.3-2.3-.6-3.4-1.4-5.8-5.8-10.3-11.8-8.8-6.1 1.6-11 8.4-9.3 15 1.4 5.6 4.8 8.6 8.5 10.3 1.7 11.9-9.4 28.4-23.1 31.8-8.2 2.1-16-1.1-18.2-9.9-1.8-7.3 2-18 6.5-23.4 4 1 7.8 1 11 .3 9-2.3 13.2-8 11.6-14.6-1.1-4.5-5.8-8.5-13.6-6.5-1.2.2-2.5.7-3.7 1 15.4-9 28.4-22 25.4-34.6-1.7-7.3-9-14-22.3-10.6-17.7 4.5-33.5 24.4-28.8 44l-1 .3c-7.2 1.9-22 4-24.1-4.9-1.5-6.1 4-9.9 7-10.7 7.4-1.9 11 1.5 14 .7 1.8-.4 2.3-2 2-3.7-1.5-5.8-10.3-13.3-23.3-10-12.1 3-20.4 14-17.4 26.8 3.4 13.7 21 19.5 42.7 14a64 64 0 0 0 5.3-1.5c.5.8 1.1 1.4 1.8 2.1-11.2 10.4-18.7 25.6-14.9 41.3 3.6 15 18.4 23.4 34.9 19.2C144.9 113 160.6 92 164.3 71c1 .4 1.5.8 1.7 1.5 1.2 4.9-3.7 13-1.7 21.4 1.4 5.8 8 9.2 15.7 7.3 16.5-4.2 26-23.5 28.3-41.2 1 .3 1.6.7 1.7 1.3 1.2 5-3.2 12.5-1 21.3 1.5 6.2 8.5 9 15.9 7.2A27.8 27.8 0 0 0 241.2 77c4.5 5.4 11.4 7.5 19.1 5.6 7.8-2 14-6.9 18-13.4 2.5-4.1 4.1-9 4.6-14.3 5.4-2.8 9.5-9.3 12-16.6 1.2 5.3-3.6 15.5-1.8 22.9 1.4 5.7 7 9 15.4 6.9 15.5-4 22.5-24 20.9-30.7-.4-1.8-1.5-2.3-2.7-2zM126.4 17c1.8-.4 4.2-.2 4.8 2 1.1 4.7-4.3 11.9-15 18-.8-10.7 5-18.7 10.2-20zm131.3 49.8c-.7.2-1.3-.4-1.6-1.6a51.8 51.8 0 0 1 2.5-20.4c1 2.2 2.2 4 3.5 5.6-.3 4.3-1.2 8.6-1.7 10.6-.8 3.6-1.5 5.5-2.7 5.8z"/>
    </g>
</svg>
