<svg xmlns="http://www.w3.org/2000/svg" viewBox="0 0 400 120">
    <g fill="none">
        <path fill="#FFF" d="M73.8 44.1v31.3h-8.1V44.1zm3.1 31.3 5.3-31.3h8.1l6.2 16.7 6.3-16.7h8l5.4 31.3h-8.1l-2.7-18-7.4 18h-3.3l-7-18-2.8 18zm40.9 0 5.4-31.3h8.1l6.2 16.7 6.2-16.7h8.1l5.3 31.3H149l-2.8-18-7.4 18h-3.2l-7-18-2.7 18zM178 51h-9.7v5.2h9.1v6.9h-9.1v5.4h9.7v7h-17.8V44.1H178zm29.8 24.4h-10.1l-7.8-12v12h-8.1V44h12.6c1.6 0 3.1.2 4.6.7 2.4 1 4.3 2.8 5.1 5.2.5 1.2.7 2.5.7 3.8.1 2-.5 4-1.7 5.8a8.7 8.7 0 0 1-5.2 3l10 12.8zM190 58h1.5a6 6 0 0 0 3.7-1c.9-.7 1.4-1.8 1.3-3 0-1-.4-2-1.3-2.8a6 6 0 0 0-3.7-1H190V58zm36.3-6a10 10 0 0 0-2.6-1.5 7 7 0 0 0-2.6-.5c-1 0-1.8.2-2.6.7-.6.4-1 1.2-1 2 0 .5.2 1 .5 1.3l1.3 1 1.9.7 2 .6c2.2.6 4.2 1.8 5.8 3.5 1.3 1.7 2 3.7 1.9 5.8 0 1.5-.3 3-.8 4.4a9.1 9.1 0 0 1-2.4 3.3 11 11 0 0 1-3.8 2.2 18.9 18.9 0 0 1-16.1-2.8l3.4-6.5c1 1 2.3 1.8 3.6 2.4 1.1.5 2.3.8 3.6.8 1 .1 2-.2 3-.9.5-.5.9-1.3 1-2 0-.5-.2-1-.3-1.3-.2-.4-.5-.7-.9-1l-1.5-.8-2.3-.8-3-1.1c-1-.4-2-1-2.8-1.6a7.5 7.5 0 0 1-2.6-6.4c0-1.4.3-2.8.8-4.2 1-2.5 3-4.4 5.5-5.3 1.5-.5 3-.8 4.5-.8a19.7 19.7 0 0 1 9.7 2.6l-3.2 6.3zm15.7-7.9v31.3h-8.1V44.1zm10.1 0 7.6 19 7.6-19h8.8l-13.2 31.3h-6.5l-13.2-31.3zm43 6.9h-9.6v5.2h9.1v6.9h-9.1v5.4h9.6v7h-17.8V44.1h17.8z"/>
        <path fill="#00B4E5" d="M307.1 44.1v24.4h9.7v6.9H299V44.1zm44.4-.1h12.1c2.4-.1 4.7.6 6.6 2.1a7.8 7.8 0 0 1 2.2 6c0 1.4-.2 2.7-.8 4-.7 1-1.5 2-2.6 2.6 1 .2 2 .5 3 1a6.5 6.5 0 0 1 3 4 10.3 10.3 0 0 1-.4 6.5 8 8 0 0 1-2.2 2.9c-1 .8-2.1 1.4-3.3 1.7-1.5.4-3 .6-4.5.6h-13.1V44.1zm8.1 12.4h1.5c2.6 0 3.8-1 3.8-3s-1.2-3.1-3.8-3.1h-1.5v6zm0 12.7h1.8c1.5 0 3-.2 4.4-.8 1-.5 1.5-1.5 1.4-2.5 0-1-.5-2-1.4-2.6a9.1 9.1 0 0 0-4.4-.8h-1.8v6.7zM395.4 52a10 10 0 0 0-2.7-1.5 7 7 0 0 0-2.6-.5c-.9 0-1.8.2-2.6.7-.6.4-1 1.2-1 2 0 .5.2 1 .5 1.3l1.4 1 1.8.7 2 .6c2.2.6 4.3 1.8 5.8 3.5 1.3 1.7 2 3.7 1.9 5.8 0 1.5-.3 3-.8 4.4a9.3 9.3 0 0 1-2.4 3.3 11 11 0 0 1-3.8 2.2 18.9 18.9 0 0 1-16.2-2.8l3.5-6.5c1.1 1 2.3 1.8 3.6 2.4 1.2.5 2.4.8 3.6.8 1 .1 2.1-.2 3-.9.6-.5 1-1.3 1-2 0-.5-.1-1-.3-1.3-.2-.4-.5-.7-.9-1l-1.5-.8-2.2-.8-3.1-1.1c-1-.4-2-1-2.8-1.6a7.5 7.5 0 0 1-2-2.5 11 11 0 0 1 0-8c1.1-2.5 3.1-4.5 5.7-5.4 1.5-.5 3-.8 4.6-.8a19.7 19.7 0 0 1 9.7 2.5l-3.2 6.4zm-56.8-7.9h-8.9l-11.8 31.3h8.5l.1-.3 4.9-13.9-.6-3.7-.2-.9h7.1l-.1.9-.7 3.8 4.9 13.8.2.3h8.5zM0 33v52.9h52.9V33z"/>
        <path fill="#FFF" d="M21.5 73.7h-7.2V45.8h.1l7.1 7.1zm21 0h-16V52.9l7.1-7.1h.2v21.7h8.7z"/>
    </g>
</svg>
