<svg xmlns="http://www.w3.org/2000/svg" viewBox="0 0 400 120">
    <path d="M359.1 88.8h39.5v-4.2h-32.8l17.7-16.1c10.2-9.3 14.6-14.6 14.6-22.5v-.2c0-9-7.4-16-17.2-16-10.2 0-15.6 4.8-20.5 12.5l3.1 2.1c4.7-7 9.7-10.7 17-10.7 7 0 13.2 5 13.2 12.5 0 6.1-3.3 11-12.8 19.8l-21.6 19.5v3.3h-.2zM323.7 86c-14.4 0-24.8-11.8-24.8-26.1v-.2c0-14.4 10.2-26 24.6-26 14.4 0 24.7 11.8 24.7 26.2v.1c0 14.4-10.3 26-24.5 26zm-.2 3.9a29.3 29.3 0 0 0 29.3-30v-.2a29.3 29.3 0 0 0-58.4.2v.1a29 29 0 0 0 29.1 30zm-58.4 0c10.2 0 16.8-4 23-10.2l-3-2.8c-5.8 5.8-11.6 9-20 9-13.9 0-24.6-11.5-24.6-26.2v-.2c0-14.6 10.6-26 24.4-26a26 26 0 0 1 19.5 8.6l3-3.1c-6-5.5-12.1-9.3-22.5-9.3-16.7 0-29 13.5-29 30v.2c.2 16.8 12.5 30 29.2 30zM196.7 86c-14.4 0-24.8-11.8-24.8-26.1v-.2c0-14.4 10.2-26 24.6-26 14.4 0 24.7 11.8 24.7 26.2v.1c0 14.4-10.1 26-24.5 26zm-.2 3.9a29.3 29.3 0 0 0 29.3-30v-.2a29.3 29.3 0 0 0-58.4.2v.1a29 29 0 0 0 29 29.9zm-71.2-1h38.2v-4.1h-33.9V30.9h-4.3v58zM44 16.7a43.1 43.1 0 0 0-42.6 49h.4l.8-.4H3l44.7-12.8s11 8.6 15.1 11a17 17 0 0 0 12.8 1.8c-1-3.3-3.5-7-4.7-8.8l-.2-.3c-3.7-5.6-7.4-8.4-12.5-9.3-3.8-.7-7-.2-10 .9L3 64.2c-.2-1.4-.2-2.8-.2-4.3 0-5.7 1-11 3.3-16.2a41.7 41.7 0 0 1 38.2-25.4c5.7 0 11.1 1 16.2 3.3A41.7 41.7 0 0 1 86 59.8c0 5.7-1 11.1-3.3 16.2a41.7 41.7 0 0 1-38.2 25.4c-5.6 0-11-1-16.2-3.3A41.7 41.7 0 0 1 6.1 76c-.7-1.8-1.4-3.5-1.9-5.4l45.3 3.8h1.4l7.9.2h.7c1 0 2 0 3.1-.2h.4l1.2-.2.9-.1c5-1 8.2-2.3 9.8-3.5.5-.6.9-1.3 1-2-2.7 1-9.4 2-17.3-3.5-7.5-5.2-8-6.1-11.6-9L7.7 66l38-1.6h1.1l2.8 3.7H1.8l.5 2.3A43 43 0 1 0 44 16.7z" fill="#FFF" fill-rule="evenodd"/>
</svg>
