<svg xmlns="http://www.w3.org/2000/svg" xmlns:xlink="http://www.w3.org/1999/xlink" viewBox="0 0 400 120">
  <defs>
    <path id="a" d="M.1.6h399v109.1H.1z"/>
    <path id="c" d="M.3.2h34.3v20H.3z"/>
  </defs>
  <g fill="none" fill-rule="evenodd">
    <g fill="#FFFFFE">
      <path d="M2 5h12.3v10.1h.3C17.8 8.2 26 3.4 36 3.4c12.7 0 23.7 7.6 23.7 25v42H47.4V31.8c0-12.3-7-16.8-14.9-16.8-10.3 0-18.2 6.6-18.2 21.8v33.6H2V5m116 27.3c-.2-10.8-6.3-19-18.8-19a20.2 20.2 0 0 0-20.3 19H118zm-39 10c0 11.4 10.6 19 22 19 7.6 0 13.1-3.9 18-9.8l9.3 7.2a34.2 34.2 0 0 1-29 13.3c-20.7 0-33.6-14.8-33.6-34.3A33.1 33.1 0 0 1 99.4 3.4c23 0 31.9 17.6 31.9 34.5v4.4H78.9z"/>
      <path d="M155 35.5 132 5.1h16l15.7 23.1 15.6-23.1h15L172 35.5l26.5 34.9h-16L163.2 43 144 70.4h-15.3L155 35.5M201.8 5h11.6v10.3h.2c1.3-3.9 9.3-11.9 21-11.9 9.6 0 16.3 4.1 20.4 12.1 4.3-8 12.8-12 20.7-12 20 0 24.8 14.2 24.8 28.8v38H288V34c0-10-2.1-19-14-19-12 0-16.8 8.1-16.8 19.7v35.7H245V36.2c0-12.4-1.8-21.2-13.8-21.2-9 0-17 6.7-17 21.5v33.9h-12.3V5"/>
    </g>
    <path fill="#FFFFFE" d="M351.9 37a8 8 0 1 1-16 0 8 8 0 0 1 16 0"/>
    <path fill="#FFFFFE" d="M343.6 15c11.2 0 20.5 8 22.4 18.7h-4.4L372.3 44 383 33.7h-5.4a34.3 34.3 0 0 0-65.6-9.2l10.7 4.2a23 23 0 0 1 21-13.7m-.1 45.6a23 23 0 0 1-22.3-18h4.9L315.5 32l-10.7 10.5h4.9a34.3 34.3 0 0 0 65.5 8.7L364.5 47a22.8 22.8 0 0 1-20.9 13.6"/>
    <g transform="translate(0 3)">
      <mask id="b" fill="#fff">
        <use xlink:href="#a"/>
      </mask>
      <path fill="#FFFFFE" d="M389.7 8.5h1.4c1.2 0 1.7-.7 1.7-1.5s-.6-1.4-1.6-1.4h-1.5v2.9zm2.6 1 2.3 3.4H393l-2-3.2h-1.3V13h-1.4V4.4h3.1c2 0 2.8 1.1 2.8 2.7 0 1.3-.7 2.2-1.9 2.5zm5.2-.8c0-3.6-2.8-6.5-6.4-6.5a6.5 6.5 0 1 0 0 13c3.6 0 6.4-3 6.4-6.5zm1.6 0a8 8 0 0 1-8 8 8 8 0 0 1 0-16 8 8 0 0 1 8 8zM9.4 92.3H0v-2h21.1v2h-9.4v17.4H9.4V92.3" mask="url(#b)"/>
    </g>
    <path fill="#FFFFFE" d="M23.7 93.3h2.1v7.4a8.9 8.9 0 0 1 6-2.4c1.7 0 5.7.4 5.7 5.2v9.2h-2.2v-8.8c0-3.3-2.3-3.8-3.8-3.8-2.4 0-4.4 1.5-5.7 2.8v9.8h-2.1V93.3m29.7 11c-.5-2.3-2.4-4.2-5.7-4.2-3.2 0-5 1.6-5.6 4.2h11.3zm2 5.5c-1.5 1.5-3 3.3-7.7 3.3s-7.9-3.2-7.9-7.5c0-4.4 3.4-7.3 7.7-7.3 4.4 0 8.3 2.3 8.2 7.8H42c.2 2.7 2.3 5.2 6 5.2 3.6 0 4.8-1.7 5.6-2.8l1.7 1.3z"/>
    <path fill="#E7792B" d="M65.8 93.3h4.1l7.3 15.5 7.4-15.5h4.1l-9.5 19.4h-4l-9.4-19.4m33.4 12.1c0-3.3-2.1-4.7-4.6-4.7-2.6 0-4.7 1.4-4.7 4.7 0 3 1.7 5 4.7 5s4.6-2 4.6-5zm-12.7.1c0-3.9 2.3-7.6 8-7.6 5.8 0 8.1 3.7 8.1 7.6 0 5.7-4.1 7.7-8 7.7-4 0-8-2-8-7.7zm17.7-7.2h3.2v1.8a7 7 0 0 1 5.4-2.2c3 0 5.6 1.2 5.6 5.6v9.2h-3.3v-8c0-2.8-.8-4-3-4-2.7 0-3.8 1-4.6 2.1v9.9h-3.3V98.3"/>
    <g transform="translate(120.2 97.4)">
      <mask id="d" fill="#fff">
        <use xlink:href="#c"/>
      </mask>
      <path fill="#E7792B" d="M12.2 8c-2 .1-3.7.4-5.2.8-2 .5-3 1.2-3 2.4s.7 2 2.3 2c2.6 0 4.6-1 5.9-1.8V8zm3.3 5c0 1 0 2 .2 2.3h-3.4l-.1-1.4c-1.4.8-3.5 1.9-6.3 1.9-2 0-5.6-.8-5.6-4.3 0-4.9 7.2-5.6 11.9-5.8V5c0-1-1-1.9-3.8-1.9-3 0-3.7 1.2-3.8 2H1C2 1 5.7.4 8.4.4c7 0 7 3.3 7 5.3V13zm14.2-7.3c0-2.1-2.2-2.8-4-2.8C24 3 22 3.6 22 5.7c0 2.3 2 2.8 3.8 2.8 1.8 0 4-.7 4-2.8zm-6.4 9.8c-.8 0-1.9.2-1.9 1 0 1.2 1.6 1.3 4.2 1.3s5.4-.2 5.4-1.4c0-1-.6-1-4.3-1h-3.4zM34.6 3.3c-.3-.1-.9-.3-1.2-.2l-1.1.2c.2.3.7 1.2.7 2.4 0 4-3.5 5.3-7.3 5.3a9 9 0 0 1-3-.5c-.4.3-1 .7-1 1.2s.4.9 3.3.8h4.5c3.2.1 5.1 1 5.1 3.3 0 3.4-5 4.4-9.3 4.4-4 0-7.5-.8-7.5-3.2 0-1.7 1.5-2 2.9-2.2-1.3-.1-2.2-.8-2.2-2.2C18.5 11 20 10 21 9.9v-.1a4.4 4.4 0 0 1-2.4-4.1c0-4.2 4-5.2 7.4-5.2 2.6 0 4 .6 5 1.3.5-.6 1.6-1.6 3-1.6h.6v3z" mask="url(#d)"/>
    </g>
    <path fill="#E7792B" d="M168.7 103.9c-.5-2.5-2.2-3.4-4.5-3.4-1.8 0-3.8.6-4.5 3.4h9zm3.3 4.5c-.3 1.2-2.2 4.8-7.5 4.8-5.2 0-8.2-3.2-8.2-7.7 0-4 2.6-7.6 8-7.6 5.3 0 8 3.3 8 8.5h-12.7c.2 1 .7 4 4.8 4.1 2 0 3.4-1 4-2.1h3.6zm3.3-9.2h1c.7 0 1.2 0 1.2-.7s-.6-.8-1.1-.8h-1v1.5zm.9.6h-.9v2h-.6v-4.6h1.9c1 0 1.5.4 1.5 1.3 0 .8-.5 1.2-1.2 1.3l1.4 2h-.7l-1.4-2zm0 3a3.3 3.3 0 1 0 0-6.6 3.3 3.3 0 0 0 0 6.7zm0-7.2a4 4 0 1 1 0 7.9 4 4 0 0 1 0-8z"/>
    <path fill="#FFFFFE" d="M204 105.6 198.6 95l-5.2 10.5H204zm-6.7-12.3h2.9l10 19.4h-2.7l-2.5-5h-12.5l-2.6 5h-2.6l10-19.4zm18.2 9h8.4c3.9 0 5.9-.8 5.9-3.4 0-2.7-2-3.5-6-3.5h-8.3v7zm-2.4-9h11.4c4 0 7.5 1 7.5 5.5s-3.6 5.6-7.5 5.6h-9v8.3H213V93.3zm22.3 19.4h2.3V93.3h-2.3zm19.4-10.4h8.4c3.9 0 5.9-.8 5.9-3.4 0-2.7-2-3.5-6-3.5h-8.3v7zm-2.4-9h11.4c4 0 7.5 1 7.5 5.5s-3.6 5.6-7.5 5.6h-9v8.3h-2.4V93.3zm21.6 19.4h2.2V93.3H274zm17.6-7.7c-6.4.6-10.6 1.2-10.6 3.9 0 2.2 2.4 2.5 3.5 2.5 3 0 5.7-1.5 7.1-2.2V105zm2.2 5.5c0 .9 0 1.4.2 2.2h-2.2l-.2-1.7c-2 1.3-4.3 2.1-7 2.1-2.3 0-5.7-.6-5.7-4.2 0-4.9 7.3-5 12.7-5.7v-.5c0-2-2.3-2.6-4.5-2.6-3.7 0-5 1.5-5.7 2.3l-1.6-1.1c.8-1 2.3-3 7.2-3 3.1 0 6.8 1 6.8 4.5v7.7zm13.1-9.9h-5.6v8.4c0 1.5.7 2.3 2.9 2.3 1 0 1.9-.2 3-.5v2a25 25 0 0 1-3.5.3c-4.5 0-4.5-2.8-4.5-3.9v-8.6h-3v-1.9h3v-4.6h2.1v4.6h5.6v1.9m5.5.3H309V99h3.5v-1c0-2.4.7-5.2 5-5.2 2.2 0 3 .2 3.6.4V95a12 12 0 0 0-3-.5c-3 0-3.4 1.4-3.4 3.5v1h5.7v1.8h-5.7v11.8h-2.2v-11.8m22.9 4.9c0-2.5-1.7-5.6-6-5.6-4.1 0-5.8 3-5.8 5.6 0 3.4 2.2 5.6 5.9 5.6 3.6 0 5.9-2.2 5.9-5.6zm-14-.3c0-4 3.2-7.1 8-7.1 5 0 8.1 3.2 8.1 7.1 0 5-3.3 7.7-8 7.7-4.8 0-8-2.7-8-7.7zm19-6.7h2.1v3c1.3-1.5 3-3.4 5.9-3.4l1.2.1v2.2c-.2 0-.8-.2-1.7-.2-3 0-5.3 3.5-5.4 4v8.3h-2.1v-14m11.7 0h2.1v2a8.3 8.3 0 0 1 5.6-2.4c3 0 3.8 1.5 4.4 2.5 2.2-1.9 3.6-2.5 5.7-2.5 1.3 0 5.1.3 5.1 4.3v10h-2v-9.2c0-.9 0-3.3-3.1-3.3-2.4 0-4.2 1.6-5.1 2.5v10h-2.2v-9.2c0-.9 0-3.3-3-3.3-2.5 0-4.3 1.6-5.2 2.5v10H352V98.8"/>
  </g>
</svg>