<svg xmlns="http://www.w3.org/2000/svg" viewBox="0 0 400 120">
    <g fill="#FFF">
        <path d="M303.333 32.712v76.05H124.286L114 119h200V22.475zM86 2v96.525l10.667-10.238v-76.05h179.047L286 2z"/>
        <path d="M140.662 82.925h12.523V50.019h13.661V39.416H127v10.603h13.662zm38.328 0s-.38 0 0 0l-.38-43.875h21.631c6.83 0 11.764 1.828 14.8 4.753 2.656 2.56 4.174 6.216 4.174 10.238 0 6.946-3.794 11.334-9.487 13.528l11.005 15.356h-14.42l-9.108-13.162h-5.692v13.162H178.99zm12.523-22.669v.366h8.349c4.174 0 6.83-2.56 6.83-5.485 0-3.656-2.656-5.484-6.83-5.484h-8.35v10.603zM259.82 39.05l-7.97 12.431-7.969-12.431h-14.42l14.8 21.572-15.56 22.303h14.421l8.728-13.162 8.728 13.162H275l-15.938-22.669 14.8-21.206z"/>
    </g>
</svg>
