<svg xmlns="http://www.w3.org/2000/svg" viewBox="0 0 400 120">
    <g fill="#FFF">
        <path d="M202.2 7.5c-5.3-5-11.8-7.5-19.3-7.5a27 27 0 0 0-19.2 7.5c-5.3 5-8 11.2-8 18.2s2.7 13.2 8 18.2a27 27 0 0 0 19.2 7.5c7.5 0 14-2.5 19.3-7.5 5.3-5 8-11.1 8-18.2 0-7-2.7-13.1-8-18.2zm-4 34.4c-3.4 4.8-8.5 7.2-15.3 7.2-6.7 0-11.9-2.4-15.3-7.2-3.3-4.7-5-10.1-5-16.2 0-6 1.7-11.5 5.1-16.3 3.4-4.7 8.5-7.2 15.2-7.2 6.8 0 12 2.5 15.4 7.3 3.3 4.7 5 10.2 5 16.3 0 6-1.7 11.4-5 16.1zm23 2a27 27 0 0 0 19.2 7.5c7.5 0 14-2.5 19.2-7.5 5.4-5 8-11.1 8-18.2 0-7-2.6-13.1-8-18.2-5.3-5-11.8-7.5-19.2-7.5a27 27 0 0 0-19.2 7.5c-5.3 5-8 11.2-8 18.2s2.7 13.2 8 18.2zm4-34.5c3.3-4.7 8.5-7.2 15.1-7.2 6.9 0 12 2.5 15.4 7.3 3.4 4.7 5 10.2 5 16.3a28 28 0 0 1-5 16.2 17.8 17.8 0 0 1-15.4 7.2c-6.7 0-11.9-2.5-15.2-7.2-3.4-4.8-5-10.2-5-16.2 0-6.1 1.7-11.6 5-16.4zM107.8 46.6c3-2.5 4.5-5.7 4.5-9.5 0-2.9-.9-5.4-2.8-7.7a15 15 0 0 0-7.4-4.9l-1.1-.3 1-.6c2-1.2 3.5-2.6 4.6-4.3 1-1.6 1.6-3.5 1.6-5.5 0-3.4-1.3-6.2-4-8.4A17.5 17.5 0 0 0 92.8 2H71.4c-.2 0-.4.2-.4.4s.1.3.3.4c3.1 0 5.1.7 6 1.8 1 1.3 1.6 3.8 1.6 8.2v26.7c0 4.3-.5 7-1.6 8.3-1 1.1-3 1.8-6 1.9-.2 0-.3 0-.3.3 0 .2.1.4.4.4H95c5.4 0 9.7-1.3 12.7-3.8zM84.4 4h7.9c3.1 0 5.6 1 7.2 2.8 1.6 1.8 2.4 4.2 2.4 7a10 10 0 0 1-2.4 7c-1.7 1.9-4.1 2.8-7.2 2.8h-7.8V4zm8.4 44.4c-3.6 0-5.9-.7-7-2-1-1.2-1.4-3.8-1.4-8.1V25.6h10.5c3.6 0 6.4 1 8.3 3.3C105 31 106 33.8 106 37c0 3.2-1 6-2.9 8a10.6 10.6 0 0 1-8.2 3.3h-2.1zm21 2h42c.2 0 .3-.1.4-.3l.5-9.2c0-.2-.1-.4-.4-.4h-.1c-.2 0-.4 0-.4.3l-.2 1c-.7 2.6-1.6 4.3-2.8 5.2-1.2 1-3.6 1.4-7.3 1.4h-10c-3.7 0-6-.6-7-1.9-1-1.2-1.5-3.9-1.5-8.2V12.8c0-4.3.4-7 1.5-8.2 1-1.1 3-1.7 6.1-1.8.2 0 .3-.2.3-.4s-.1-.4-.3-.4h-20.9c-.2 0-.3.2-.3.4s0 .3.3.4c3.1 0 5.1.7 6 1.8 1 1.3 1.6 3.9 1.6 8.2v26.8c0 4.3-.5 7-1.6 8.2-1 1.2-3 1.8-6 1.9-.2 0-.3.1-.3.4 0 .2.2.3.4.3zM322.6 4.6c1-1.2 3-1.7 6.2-1.8.2 0 .3-.2.3-.4s-.1-.4-.4-.4h-11.6l-.4.2L299 42.7 281 2.2s-.1-.2-.3-.2H268c-.2 0-.4.2-.4.4s.2.3.4.4c3 0 5 .7 6 1.8 1 1.3 1.5 3.9 1.5 8.1v26.6c0 4.3-.5 7-1.5 8.2-1 1.2-3 1.8-6 1.9-.2 0-.4.1-.4.3 0 .3.2.4.4.4h17.3c.2 0 .3-.1.3-.3 0-.2-.1-.4-.3-.4-3.2-.1-5.2-.7-6.2-1.9-1-1.3-1.5-3.8-1.5-8.2V7.7L297 51.2l.3.2c.1 0 .3 0 .3-.2l18-41v29.1c0 4.3-.4 7-1.5 8.2-1 1.1-3 1.7-6 1.8-.2 0-.4.2-.4.4s.2.4.4.4h20.8c.2 0 .3-.1.3-.4 0-.2 0-.3-.3-.4-3.2 0-5.2-.7-6.2-1.8-1-1.3-1.5-3.9-1.5-8.3V12.6c0-4.2.5-6.8 1.5-8zm-23.8 55.9H277c-.2 0-.4.1-.4.4 0 .2.1.3.3.4 3.2 0 5.2.7 6.1 1.8 1 1.3 1.5 3.9 1.5 8.2V98c0 4.3-.5 7-1.5 8.3-1 1.1-3 1.8-6 1.8-.3 0-.4.2-.4.4s.1.4.4.4h21.7c9 0 16-2.2 20.5-6.7a23.6 23.6 0 0 0 6.8-17.5c0-7-2.3-13-6.8-17.4-4.6-4.5-11.5-6.8-20.5-6.8zm15.9 39.7c-3 4.4-8.4 6.6-15.8 6.6h-.3c-3.6 0-5.9-.5-6.9-1.8-1-1.2-1.4-3.8-1.4-8.2V62.5h8.6c7.4 0 12.8 2.2 15.8 6.6 3 4.3 4.4 9.5 4.4 15.6a27 27 0 0 1-4.4 15.5zM273.4 99h-.2s-.3 0-.3.2l-.2 1c-.7 2.6-1.6 4.3-2.8 5.3-1.3 1-3.6 1.4-7.4 1.4h-10c-3.7 0-6-.6-7-1.9-1-1.3-1.5-3.8-1.5-8.2V71.3c0-4.3.4-7 1.5-8.2 1-1.2 3-1.7 6.1-1.8.2 0 .3-.2.3-.4s-.1-.4-.3-.4h-21s-.3.1-.3.4c0 .2.2.3.3.4 3.2 0 5.2.7 6.2 1.8 1 1.3 1.5 3.9 1.5 8.2V98c0 4.3-.5 7-1.6 8.3-1 1.1-3 1.8-6 1.8-.2 0-.4.2-.4.4s.2.4.4.4h42c.2 0 .4-.1.4-.3l.6-9.2c0-.3 0-.4-.3-.4zM225 60.5h-20.5c-.2 0-.4.1-.4.4 0 .2.1.3.3.4 3.1 0 5 .7 6 1.8 1 1.3 1.5 3.9 1.5 8.2V98c0 4.3-.5 7-1.5 8.3-1 1.1-3 1.8-6 1.8-.2 0-.3.2-.3.4s.1.4.4.4h20.4c.2 0 .4-.1.4-.4 0-.2-.1-.4-.3-.4-3.1 0-5-.7-6-1.9s-1.5-3.9-1.5-8.3V71.2c0-4.3.4-7 1.5-8.2 1-1.1 2.9-1.7 6-1.8.2 0 .3-.2.3-.4s-.2-.3-.4-.3zm-25.2 0H179c-.2 0-.3.2-.3.4s.1.4.3.4h2.2-.5c3 .1 5 .7 5.6 2 .6 1.2.8 2.6 0 4.9L177.8 96c0 .3-.4.3-.5 0L166 60.5h-.8L154 96.1c0 .2-.1.2-.2.2-.2 0-.3 0-.3-.2l-8.8-28c-.7-2.4-.7-3.8 0-4.8.6-.8 2.5-1.6 4.5-2h1.4c.1 0 .3-.2.3-.4s-.2-.4-.4-.4h-20.7c-.1 0-.3.2-.3.4s.1.4.3.4c.5 0 1.2 0 1.8.2 3.9.6 5.5 2.7 7 7.4l13 41h.6l11.3-35.7.3-.1.2.1 11.2 35.7h.7l13-41c1.6-5.3 2.7-7.6 9.4-7.6h-.8 2.2c.2 0 .4-.2.4-.3 0-.4-.1-.5-.3-.5zm-69.3 18.1c-.6-2-2.9-.3-1.4 1.5a10.4 10.4 0 0 1-1.4 3.3l-.3.3c-.3.6-1 1.5-1.6 2l.1-1.5s.2-2.2.1-3c.4-.3 1.1-1 1-1.8-.8-2-2.9 0-1.4 1.7v3.1l-.2 1.8a5 5 0 0 1-2 1.5v-.1c.7-2.8.8-5.9-.1-8.5-3.1 2.6-3.6 10.4-2 13.9a20 20 0 0 0 2-4.9 6 6 0 0 0 2.4-1.6 13 13 0 0 0 2-2.4c.9-.5 2-.7 2.9-1-.2.9.2 1.2.8 1.3 2.2.2.8-3.6-.8-1.7l-2.5.8c.5-1 1-2 1.3-3.1.5-.3 1.3-1 1-1.6zm11.5 14c-.5-.5-1.4 0-1.9.3-1.1-.2-2.2 0-3.3.1l1.7-2c2.4-.9-.5-3.6-1.2-1.4 0 .4 0 .9.8 1.1a15 15 0 0 1-2 2.4c-1.2.3-2.5.6-3 1-.9.2-1.7.8-2.5 1.6-1.8-.2-3.6-.1-5.1 0 2.5 3 9.6 5.4 13.3 3.4-2-1.8-4.8-2.9-7.6-3.3h-.1c.6-.7 1.4-1.1 2.1-1.4l1.8.6c1 .3 1.8.6 2.6 1.1h.1c.9 2.1 3.5.9 2-.6-.5-.5-1.4 0-2 .2-.7-.4-2.7-1-2.7-1l-1.4-.4a24 24 0 0 1 2.2-.7l.3-.1.4-.2a10 10 0 0 1 3.5 0c1.1 2 3.7.6 2-.7zm-31.7 14c-3-2.8-8.4-5.5-13-4.6 1.9 3.8 9.3 5.7 13 4.6zm4.9 13.4c.7-4-1.4-8.5-3.6-11-.9 3.1.7 9.4 3.6 11zm-6.7-8.9a8.8 8.8 0 0 0-.9 6.9c1.5-1.4 2.4-5.3 1.2-7l-.3.1zm8.6-34.5c-4.1 4.5-3.2 15.6.2 20.2 2.2-5.5 3.4-14.1-.2-20.2zm2.3 22.4c2.8 5.2 13.7 8 19.2 6.5-4.5-3.8-12.3-7.6-19.2-6.5zm-15.2 16.5h-2a15 15 0 0 1-6.3-1.2 13 13 0 0 1-4.4-3.2 16 16 0 0 1-3.5-9.7 16.6 16.6 0 0 1 2-8.6l1-1.8v-.2h-.2l-1.8 1c-2 1.2-3.6 3-4.9 5.4a15.4 15.4 0 0 0 1.4 17.3 16 16 0 0 0 4 3.3c1.6.8 3.4 1.2 5.3 1.2a15 15 0 0 0 7.7-2.2l1.6-1 .1-.2c.1 0 0-.1 0-.1zm3.6-36.1v.2h.1l2-1c2-.9 3.8-2.3 5.2-4a9 9 0 0 0 2.3-6c0-2-.7-3.7-2.2-5.3-1.6-1.6-4-2.6-7-2.8h-2.8l-.1.2v.2l2.5 1.2c1.4.6 2.4 1.6 3.1 2.8a8.4 8.4 0 0 1 1.1 4.3c0 3-1 5.9-3 8.5l-1.2 1.7z"/>
        <path d="m136.4 112.4-2.2.7-1.3.2h-1a6 6 0 0 1-2-.2c-.6-.3-1.4-.6-2.2-1.2a95.3 95.3 0 0 1-7-7l-2.1-2.6-1.7-2 .3-.5.7-.7 1.9-2c1.5-1.5 3.3-2.6 5.1-3.7l.2-.1c1.4-.2 4.3-1 7.1-2.5 4-2.3 6.4-5.5 6.4-5.5s-4 .4-8 2.7a23.9 23.9 0 0 0-6 4.9 24 24 0 0 0-5.3 3.7l-2 2-.6.8-.4.3-1.1-1.5-4-5-4.2-5.5c-1.4-1.7-2.6-3.5-3.8-5.1l-3-4.2a36 36 0 0 1-3-5.5c-.8-1.7-1.1-3.4-1.1-5 0-1 .2-2 .6-3 .5-1 1.3-1.9 2.4-2.9l1.4-1.2s.1-.1 0-.2c-2.4-.2-5 1.5-5.1 1.5a12.1 12.1 0 0 0-4.5 5.8 12 12 0 0 0-.7 4c0 1.3.3 2.9 1 4.7a33 33 0 0 0 2.8 5.2l4.4 6.2a456.5 456.5 0 0 0 13.6 17.8l-.3.3a25.7 25.7 0 0 1-4.5 3.7c-.7-.3-1.7-.3-1.7-.3a11 11 0 0 0-6.4 2.6l-.5.5.7.2c.5.2 1.2.3 1.8.3 2.2 0 5-1 6-2.7l.3-.3c1.6-1.1 3.2-2.2 4.6-3.7l.2-.3 5.7 6.7c1.6 1.7 3 3 4.4 3.9a9 9 0 0 0 4.8 1.3c1.9 0 3.5-.5 4.6-1.3l3-2.4 1.8-1.5v-.2c.1-.2 0-.2 0-.2z"/>
    </g>
</svg>
