<svg viewBox="0 0 400 120" xmlns="http://www.w3.org/2000/svg">
    <g fill="none">
        <path d="M303.701 17 280.91 52.739 258.036 17h-18.272v82h18.272V50.902l13.194 20.765h19.22l13.251-20.82V99H322V17zM55.374 35.204 66.71 17H3v82h18.333V71.667h34.041l-.057-18.232H21.333V35.204zM108.508 17c-22.582 0-40.892 18.358-40.892 41s18.31 41 40.892 41C131.09 99 149.4 80.642 149.4 58s-18.31-41-40.892-41Zm0 63.03c-12.54 0-22.721-10.208-22.721-22.781 0-12.573 10.181-22.78 22.721-22.78 12.54 0 22.721 10.207 22.721 22.78S121.048 80.03 108.508 80.03ZM224.21 61.09c2.41-3.452 3.783-7.627 4.064-12.582.168-1.837.224-3.84.056-5.928-.645-8.1-2.018-12.999-7.064-18.482-5.241-5.706-11.156-6.903-18.107-7.098h-42.466v82h18.36V71.667h14.576L207.615 99h20.855l-17.098-29.532c5.438-1.615 10.006-4.287 12.837-8.378Zm-23.49-6.875c-.028.027-21.667 0-21.667 0V34.396h20.882c.112 0 1.43.056 1.542.084a9.88 9.88 0 0 1 8.689 9.825c-.028 5.345-4.204 9.659-9.446 9.91Z" fill="#F9F9F9"/>
        <path d="M351.704 67.027H334C334 84.685 348.329 99 366 99c17.674 0 32-14.315 32-31.973 0-11.373-5.943-21.36-14.894-27.027l-9.462 14.951c3.998 2.533 6.654 6.994 6.654 12.076 0 7.89-6.401 14.286-14.298 14.286-7.894 0-14.296-6.396-14.296-14.286ZM386.426 35H334V17h64z" fill="#00CDCD"/>
    </g>
</svg>
