<svg xmlns="http://www.w3.org/2000/svg" viewBox="0 0 800 240">
  <path fill="#ff380c" fill-rule="evenodd" d="M104 1h1c-1 1 0 2 2 3l1 1a311 311 0 0 0 33 39c-1 1 0 2 2 3l1 1a72 72 0 0 0 10 12l1 1 2 2c-1 1 0 2 2 3l3 3a1499 1499 0 0 1 48 58l1 2 1 2 1-114c-18-1-36-2-54-1V1h69v157h-15l-2-2-1-1a803 803 0 0 1-30-36 1527 1527 0 0 1-53-63l-1-1-2-2a584 584 0 0 0-17-21l-1-2-2-2c-1 41-1 83 1 125h1l2 2c-1 1 0 2 2 3l1 1a803 803 0 0 1 30 37h1l1 1 2 2c-1 1 0 2 2 3l3 3c-1 1 0 2 2 3l4 6c1-3 2-3 3 0l3-3 1-1 2-3 3-3 2-3 3-3 1-1a803 803 0 0 1 14-16l8 6 1 1 4 3c-2 1-3 3-3 5l-1 1-1 1c-3 1-4 2-4 5l-1 1-1 1-1 1c-1 0-2 1-1 2l-1 1-1 1-1 1c-2 0-3 2-3 4l-1 1-1 1c-3 1-4 2-4 5l-1 1-1 1c-2 0-3 2-3 4l-1 1-1 1c-2 0-3 2-3 4l-1 1-1 1c-2 0-3 1-2 3l-1 1h-5l-1-1-3-4-1-1a803 803 0 0 1-31-37l-1-1-9-11a580 580 0 0 0-21-25V1h15Zm1 0 2 1v2c-2-1-3-2-2-3Zm10 12c1 0 2 1 2 3-2-1-3-2-2-3Zm-9 17 1 2c-1 40-2 80-1 121h-1c-1-42 0-83 1-123Zm25 2 2 1v2c-2-1-3-2-2-3Zm10 12 2 1v2c-2-1-3-2-2-3Zm-19 6c1 0 2 1 2 3-2-1-3-2-2-3Zm35 13c1 0 2 1 2 3-2-1-3-2-2-3Zm5 6c1 0 2 1 2 3-2-1-3-2-2-3Zm-19 6c1 0 2 1 2 3l-2-1v-2Zm5 6c1 0 2 1 2 3-2-1-3-2-2-3Zm25 1c1 0 2 1 2 3-2-1-3-2-2-3Zm5 6c1 0 2 1 2 3-2-1-3-2-2-3Zm5 6 2 1v2c-2-1-3-2-2-3Zm-19 6c1 0 2 1 2 3-2-1-3-2-2-3Zm5 6c1 0 2 1 2 3-2-1-3-2-2-3Zm24 0 2 1v2c-2-1-3-2-2-3Zm6 7 2 1v2c-2-1-3-2-2-3Zm5 6c1 0 2 1 2 3-2-1-3-2-2-3Zm-19 6c1 0 2 1 2 3l-2-1v-2Zm-77 30 2 1v2c-2-1-3-2-2-3Zm78 27-2 3c-1-2 0-3 2-3Zm-41 17c1 0 2 1 2 3-2-1-3-2-2-3Zm25 2-2 3c-1-2 0-3 2-3Zm-20 4c1 0 2 1 2 3-2-1-3-2-2-3Zm15 2-2 3v-2l2-1Z"/>
  <path fill="#fff" fill-rule="evenodd" d="M364 162c-14 0-25-9-25-25v-1c0-15 11-24 25-24 12 0 23 5 24 19h-16c0-4-3-7-7-7-6 0-9 4-9 12v1c0 8 3 13 9 13 5 0 8-3 8-8h15c-1 12-9 20-24 20Zm49 0c-14 0-25-9-25-25v-1c0-15 12-24 26-24 11 0 22 5 23 19h-15c-1-4-3-7-8-7-6 0-9 4-9 12v1c0 8 3 13 9 13 5 0 8-3 9-8h14c0 12-8 20-24 20Zm51 0c-15 0-26-9-26-25v-1c0-15 11-24 26-24 13 0 24 7 24 24v4h-34c1 7 4 10 10 10s8-2 8-5h16c-2 10-10 17-24 17Zm74 0c-15 0-26-9-26-25v-1c0-15 11-24 25-24 13 0 25 7 25 24v4h-34c1 7 4 10 10 10 5 0 8-2 8-5h16c-2 10-10 17-24 17Zm75 0c-9 0-16-5-16-15 0-11 9-15 25-15h4v-1c0-5-1-8-6-8-4 0-6 3-6 6h-16c1-12 10-17 23-17s22 5 22 18v30h-16v-5c-3 3-7 7-14 7Zm54 0c-11 0-17-6-17-17v-21h-6v-11h6v-10h16v10h10v11h-10v20c0 3 2 5 5 5l5-1v12l-9 2Zm36 0c-15 0-26-9-26-25v-1c0-15 12-24 26-24 13 0 24 7 24 24v4h-33c0 7 4 10 10 10 5 0 7-2 8-5h15c-1 10-10 17-24 17Zm-428-2 21-65h24l21 65h-20l-3-12h-22l-3 12h-18Zm217 0V92h16v68h-16Zm73 0v-47h16v9c3-7 8-10 16-10v15c-10 0-16 3-16 11v22h-16Zm53-10c5 0 8-2 8-6v-3h-4c-6 0-9 1-9 5 0 3 1 4 5 4Zm-318-15h14l-7-25-7 25Zm154-4h18c0-6-3-9-8-9s-9 3-10 9Zm74 0h18c0-6-3-9-9-9-4 0-8 3-9 9Zm166 0h17c0-6-3-9-8-9s-8 3-9 9ZM369 77c-15 0-26-9-26-25s11-25 26-25c14 0 26 9 26 24v1c0 15-12 25-26 25Zm88 0c-15 0-26-9-26-25s11-25 26-25c14 0 26 9 26 24v1c0 15-12 25-26 25Zm-177-1V10h21l21 37V10h16v66h-18l-23-41v41h-17Zm118 0V28h17v9c3-7 8-10 15-10v15c-10 0-15 3-15 11v23h-17Zm90 0V39h-6V28h6v-4c0-12 8-18 19-18l8 1v12h-5c-4 0-5 2-5 5v4h15v-4c0-12 7-18 19-18l7 1v12h-4c-4 0-6 2-6 5v4h10v11h-10v37h-16V39h-15v37h-17ZM369 64c6 0 9-4 9-12v-1c0-8-3-12-9-12s-10 4-10 12v1c0 8 4 12 10 12Zm88 0c6 0 9-4 9-12v-1c0-8-3-12-9-12s-10 4-10 12v1c0 8 3 12 10 12Z"/>
</svg>