<svg xmlns="http://www.w3.org/2000/svg" viewBox="0 0 400 120">
  <g fill="#004EA4">
    <path d="M42.2 73h9.3c3.3 0 6.1-.9 6.1-4.8 0-3-1.8-4.7-5.5-4.7h-9.9v9.6zm0-19h8.4c3.3 0 5.3-1 5.3-4.3 0-2.6-2.1-3.5-5.3-3.5h-8.4V54zM26.5 34h28c13.5 0 16.4 7.6 16.4 12.8 0 5.2-2.5 8-6.4 10.1 4.6 1.6 9 5.3 9 12.8 0 10.3-9 15.6-18 15.6h-29V34z"/>
    <path d="M83.3 66.4 65.3 34h17.4l8.5 18.9 9-18.9h17.2L99.1 66.4v18.9H83.3"/>
    <path d="M124.2 47.1h-14.4V34h44.5v13.2h-14.4v38h-15.7"/>
    <path d="M152.9 34h42.4v13.2h-26.6v6.3h24.2v12.2h-24.2v6.4h27.4v13.2h-43.2"/>
    <path d="M195.2 34h22.4l7.3 30.1h.2l7.3-30.1h22.5v51.3h-15v-33h-.1l-9 33h-11.7l-8.9-33h-.1v33h-15"/>
    <path d="m282.4 67-4.6-15.8h-.2l-5 15.7h9.8zM270 34h15.4L304 85.3h-16.3l-2.2-7.4h-16.3l-2.2 7.4h-16L270 34z"/>
    <path d="M316.1 56.4h8.3c3 0 7-.5 7-5.1 0-3.2-1.9-5.1-7.9-5.1h-7.4v10.2zM300.4 34h30c9 0 16.7 5 16.7 14.7 0 5.2-2.4 10.8-7.6 12.8 4.3 1.6 7 6.4 7.5 12.8.2 2.5.3 8.6 1.7 11H333a36 36 0 0 1-1.2-8c-.5-4.8-1-10-7.1-10h-8.4v17.9h-15.8V34z"/>
    <path d="M346.8 34h15.7v17.7h.2l14-17.7h19.5l-18.6 20L399 85.3h-19.5l-12.6-20-4.3 4.8v15.2h-15.8M2 65h15.7v14.9H2zm0-24.3h15.7v15H2z"/>
  </g>
</svg>