<svg xmlns="http://www.w3.org/2000/svg" viewBox="0 0 400 120">
  <path fill="#8A2D8E" d="M44.8 91V34.6h-6.9v29.7a35 35 0 0 1-1 8.3c-.6 2.8-1.6 5.2-3 7.3a14.5 14.5 0 0 1-12.9 7c-5.5 0-9.3-1.3-11.6-4A18.4 18.4 0 0 1 6 71.5V34.7h-7v36.6c0 3.3.4 6.3 1.1 9a17 17 0 0 0 3.4 6.6 13 13 0 0 0 6.2 4.2c2.5 1 5.5 1.5 9 1.5 4.3 0 8-1 11.6-3 3.4-2 6-4.9 7.9-8.7h.2v10.2h6.3zm12.9-56.4V91h6.9V58.1c0-2.7.5-5.3 1.4-7.7a16.3 16.3 0 0 1 16.3-11.6c2.8 0 5 .4 7 1.3a12 12 0 0 1 4.4 3.6c1 1.5 1.8 3.3 2.3 5.4.4 2.1.6 4.3.6 6.7v35.3h6.9V54.8c0-3.4-.3-6.4-1-9.1a16 16 0 0 0-3.4-6.9 15.6 15.6 0 0 0-6.4-4.3c-2.6-1-6-1.5-9.9-1.5-4 0-7.7 1-11 3.1a16.1 16.1 0 0 0-7 8.3h-.2v-9.8h-6.9zM116.5 13h6.9v32.4h.2a19 19 0 0 1 3.1-5.4 20 20 0 0 1 10.4-6.2 25.7 25.7 0 0 1 17.3 1.6 23 23 0 0 1 8 6.5 28 28 0 0 1 4.6 9.5 42.7 42.7 0 0 1 .1 22.8c-1 3.7-2.5 6.8-4.7 9.6a21.9 21.9 0 0 1-7.9 6.4 25 25 0 0 1-11.2 2.4 23 23 0 0 1-12.3-3.2 18 18 0 0 1-7.8-9h-.2v10.7h-6.3V13zm45.2 49.9c0-3-.4-5.8-1-8.7-.8-3-1.9-5.5-3.4-7.7a18 18 0 0 0-5.7-5.6 15.9 15.9 0 0 0-8.4-2.1c-3.7 0-6.7.7-9.2 2.1a18.1 18.1 0 0 0-6.2 5.6 22.8 22.8 0 0 0-3.4 7.7 36.8 36.8 0 0 0 0 17.4c.7 2.8 1.9 5.4 3.4 7.7a18 18 0 0 0 6.1 5.5 19 19 0 0 0 9.3 2.1c3.3 0 6-.7 8.4-2.1a18 18 0 0 0 5.7-5.6c1.5-2.2 2.6-4.8 3.3-7.7.7-2.8 1-5.7 1-8.7zM203 38.8a17.6 17.6 0 0 0-14.8 7.5 25 25 0 0 0-3.7 7.7 31.4 31.4 0 0 0 0 17.6c.8 3 2 5.5 3.7 7.7A17.5 17.5 0 0 0 203 87a17.6 17.6 0 0 0 14.8-7.5 27.2 27.2 0 0 0 4.9-16.5 29.2 29.2 0 0 0-5-16.5 17.7 17.7 0 0 0-14.9-7.6zm0-5.8a24.8 24.8 0 0 1 19.8 8.9c2.2 2.7 4 5.8 5.1 9.4a40.2 40.2 0 0 1 .1 23.2 26.4 26.4 0 0 1-5 9.5 25.8 25.8 0 0 1-19.7 8.8c-4.4 0-8.2-.8-11.5-2.3a26 26 0 0 1-13.5-15.8 39 39 0 0 1 0-23 32 32 0 0 1 5.1-9.5 25.5 25.5 0 0 1 19.8-8.8zm52.4 28.8-22 29.3h8.6l17.4-23.8 17.7 23.8h8.7l-22-29.4 20.3-27h-8.7L259.8 56l-16.1-21.5H235l20.2 27.1zm77.7-2.9c-.1-2.6-.6-5-1.4-7.5a21 21 0 0 0-3.6-6.4 16.4 16.4 0 0 0-13-6.2 16.6 16.6 0 0 0-13 6.2 22 22 0 0 0-3.7 6.5 34 34 0 0 0-1.8 7.5h36.5zm-36.5 5.8c0 2.5.3 5.1 1 7.7a19.6 19.6 0 0 0 9.1 12.5 16 16 0 0 0 8.4 2.1c5 0 9-1.3 11.8-3.9s4.8-6 6-10.5h6.8a27.7 27.7 0 0 1-8 15 24 24 0 0 1-16.6 5.2c-4.4 0-8.3-.8-11.5-2.3a21.5 21.5 0 0 1-7.9-6.4c-2-2.7-3.5-5.9-4.5-9.5a42.4 42.4 0 0 1 0-22.3c1-3.6 2.5-6.8 4.6-9.6a23.4 23.4 0 0 1 19.5-9.3 22.8 22.8 0 0 1 19.4 9.9 37.8 37.8 0 0 1 5.4 21.8h-43.4zM399 91.1h-6.4V80.4h-.2c-.7 1.8-1.8 3.5-3.2 5a24.3 24.3 0 0 1-41-11.1 42.4 42.4 0 0 1 0-23c1-3.5 2.6-6.7 4.7-9.4 2-2.8 4.8-5 7.9-6.5a24 24 0 0 1 11.2-2.5 21.7 21.7 0 0 1 11.7 3 17.3 17.3 0 0 1 7.8 9.2h.2V13h6.9v78zM353.8 63c0 3 .4 5.8 1 8.7.8 3 1.8 5.5 3.3 7.7a17 17 0 0 0 5.8 5.5 15 15 0 0 0 8.4 2.2c3.6 0 6.7-.7 9.2-2a18 18 0 0 0 6-5.6c1.6-2.2 2.8-4.8 3.5-7.7a35.7 35.7 0 0 0-.1-17.3c-.7-2.9-1.8-5.4-3.4-7.7a18 18 0 0 0-6.1-5.5 18.8 18.8 0 0 0-9.3-2 15 15 0 0 0-8.4 2.1 18 18 0 0 0-5.8 5.5 25.3 25.3 0 0 0-3.3 7.7 37 37 0 0 0-1.1 8.7z"/>
</svg>