<?xml version="1.0" encoding="UTF-8"?>
<svg width="400px" height="120px" viewBox="0 0 400 120" version="1.1" xmlns="http://www.w3.org/2000/svg" xmlns:xlink="http://www.w3.org/1999/xlink">
    <!-- Generator: Sketch 50.2 (55047) - http://www.bohemiancoding.com/sketch -->
    <title>2.4:1</title>
    <desc>Created with Sketch.</desc>
    <defs></defs>
    <g id="Page-1" stroke="none" stroke-width="1" fill="none" fill-rule="evenodd">
        <g id="Bloom-&amp;-Wild" transform="translate(71.000000, 0.000000)" fill="#FFFFFF" fill-rule="nonzero">
            <path d="M131.165805,7.54703804 C125.852159,2.53074329 119.357703,0 111.909516,0 C104.461329,0 98.0122888,2.53074329 92.6986432,7.54703804 C87.3849975,12.5633328 84.7054667,18.6642318 84.7054667,25.7141595 C84.7054667,32.7640873 87.3849975,38.8649863 92.6986432,43.8812811 C98.0122888,48.8975758 104.461329,51.4283191 111.909516,51.4283191 C119.403119,51.4283191 125.852159,48.8975758 131.165805,43.8812811 C136.47945,38.8649863 139.158981,32.7640873 139.158981,25.7141595 C139.158981,18.6642318 136.47945,12.5633328 131.165805,7.54703804 Z M127.214632,41.9380317 C123.808449,46.7283673 118.676467,49.123535 111.909516,49.123535 C105.187981,49.123535 100.010583,46.6831754 96.6498156,41.9380317 C93.2890482,37.1928881 91.6086646,31.7698667 91.6086646,25.7141595 C91.6086646,19.7036442 93.334464,14.1902392 96.6952314,9.44509551 C100.101415,4.65475999 105.233397,2.21440038 111.909516,2.21440038 C118.721882,2.21440038 123.853865,4.65475999 127.260048,9.49028736 C130.620815,14.235431 132.301199,19.7036442 132.301199,25.7593514 C132.255783,31.7698667 130.5754,37.1928881 127.214632,41.9380317 Z" id="Shape"></path>
            <path d="M150.177353,43.8812811 C155.490998,48.8975758 161.940038,51.4283191 169.388226,51.4283191 C176.881828,51.4283191 183.330869,48.8975758 188.644514,43.8812811 C193.95816,38.8649863 196.637691,32.7640873 196.637691,25.7141595 C196.637691,18.6642318 193.95816,12.5633328 188.644514,7.54703804 C183.330869,2.53074329 176.836413,0 169.388226,0 C161.940038,0 155.490998,2.53074329 150.177353,7.54703804 C144.863707,12.5633328 142.184176,18.6642318 142.184176,25.7141595 C142.184176,32.7640873 144.863707,38.8649863 150.177353,43.8812811 Z M154.128525,9.44509551 C157.534708,4.65475999 162.666691,2.21440038 169.34281,2.21440038 C176.155176,2.21440038 181.287159,4.65475999 184.693342,9.49028736 C188.054109,14.235431 189.734493,19.7036442 189.734493,25.7593514 C189.734493,31.8150586 188.008693,37.2380799 184.647926,41.9832236 C181.241743,46.7735591 176.10976,49.1687269 169.34281,49.1687269 C162.621275,49.1687269 157.443877,46.7283673 154.083109,41.9832236 C150.722342,37.2380799 149.041958,31.8150586 149.041958,25.7593514 C149.041958,19.7036442 150.767758,14.1902392 154.128525,9.44509551 Z" id="Shape"></path>
            <path d="M36.8258284,46.5962538 C39.8532278,44.0771321 41.344335,40.92823 41.344335,37.0595789 C41.344335,34.225567 40.3954486,31.661461 38.5428609,29.3672609 C36.6902732,27.0730608 34.1599095,25.4536254 31.0873251,24.5089548 L30.0028835,24.1940645 L30.996955,23.6092684 C32.9850978,22.4396762 34.5213901,21.0001781 35.6058316,19.3357584 C36.6902732,17.6713387 37.232494,15.8269818 37.232494,13.8476719 C37.232494,10.4288639 35.9221271,7.63983631 33.2110232,5.39062052 C30.4999192,3.14140472 26.6591887,2.01679683 21.7792016,2.01679683 L0.361480524,2.01679683 C0.180740262,2.01679683 0,2.15174977 0,2.37667135 L0,2.42165567 C0,2.60159293 0.135555197,2.73654588 0.316295459,2.7815302 C3.43406498,2.87149883 5.42220786,3.50127925 6.37109424,4.62588715 C7.36516568,5.88544799 7.8622014,8.44955399 7.8622014,12.8130326 L7.8622014,39.5337162 C7.8622014,43.8072263 7.36516568,46.5062852 6.32590917,47.765846 C5.3770228,48.9354383 3.38887991,49.5652187 0.316295459,49.6551873 C0.135555197,49.6551873 0,49.7901403 0,50.0150618 L0,50.0600462 C0,50.2399834 0.135555197,50.4199207 0.361480524,50.4199207 L24.0836399,50.4199207 C29.5058478,50.3749364 33.798429,49.1153755 36.8258284,46.5962538 Z M13.4199645,3.99610672 L21.2821659,3.99610672 C24.4451205,3.99610672 26.885114,4.94077736 28.5117763,6.78513431 C30.0932536,8.58450694 30.9065848,10.9686757 30.9065848,13.8476719 C30.9065848,16.7266681 30.0932536,19.0658525 28.4665913,20.8652252 C26.8399289,22.6645978 24.3999354,23.5642841 21.3273509,23.5642841 L13.4651495,23.5642841 L13.4651495,3.99610672 L13.4199645,3.99610672 Z M21.7792016,48.3506422 C18.1643963,48.3506422 15.9051431,47.7208617 14.8658866,46.4613009 C13.8718151,45.20174 13.3747794,42.637634 13.3747794,38.2741554 L13.3747794,25.5885783 L23.9028997,25.5885783 C27.5177049,25.5885783 30.319179,26.6682019 32.1717667,28.8724334 C34.0243543,31.0316806 34.9732407,33.7757238 34.9732407,37.0595789 C34.9732407,40.2984496 34.0243543,43.0424929 32.1265816,45.1567557 C30.2288088,47.2710186 27.4273348,48.3956265 23.9028997,48.3956265 L21.7792016,48.3956265 L21.7792016,48.3506422 Z" id="Shape"></path>
            <path d="M42.8086864,50.4199207 L84.8019591,50.4199207 C84.9843403,50.4199207 85.1211262,50.285093 85.1667215,50.1053228 L85.7138652,40.8921006 C85.7138652,40.8921006 85.7138652,40.847158 85.7138652,40.847158 C85.7138652,40.6673878 85.5770793,40.4876176 85.3491027,40.4876176 L85.1667215,40.4876176 C85.0299356,40.4876176 84.8475544,40.5775027 84.8475544,40.7572729 L84.5739826,41.746009 C83.9356484,44.3526767 83.0237424,46.0604936 81.7926692,47.0042871 C80.5615961,47.9480806 78.1906404,48.397506 74.4518257,48.397506 L64.4208593,48.397506 C60.7732352,48.397506 58.4934701,47.7683104 57.4903735,46.509919 C56.4872769,45.2515277 55.9857285,42.6448599 55.9857285,38.3303754 L55.9857285,12.8030083 C55.9857285,8.48852369 56.4416816,5.88185593 57.4903735,4.62346459 C58.4478748,3.45495835 60.4540681,2.87070523 63.6001439,2.78082014 C63.7825251,2.78082014 63.919311,2.64599249 63.919311,2.42127976 L63.919311,2.37633721 C63.919311,2.19656702 63.7825251,2.01679683 63.5545486,2.01679683 L42.7174958,2.01679683 C42.5351146,2.01679683 42.3527334,2.15162447 42.3527334,2.37633721 L42.3527334,2.42127976 C42.3527334,2.60104995 42.4895193,2.73587759 42.6719005,2.78082014 C45.8179763,2.87070523 47.8241696,3.4999009 48.7816709,4.62346459 C49.7847675,5.88185593 50.2863158,8.48852369 50.2863158,12.8030083 L50.2863158,39.5887667 C50.2863158,43.8583087 49.7847675,46.5548616 48.7360756,47.8132529 C47.7785743,48.9817592 45.772381,49.6109548 42.6719005,49.7008399 C42.4895193,49.7008399 42.3527334,49.8356676 42.3527334,50.0603803 L42.3527334,50.1053228 C42.443924,50.285093 42.5807099,50.4199207 42.8086864,50.4199207 Z" id="Shape"></path>
            <path d="M251.60323,4.60799781 C252.557966,3.44642496 254.558366,2.86563853 257.786285,2.77628677 C257.968139,2.77628677 258.10453,2.64225913 258.10453,2.41887974 L258.10453,2.37420386 C258.10453,2.19550034 257.968139,2.01679683 257.740821,2.01679683 L246.056666,2.01679683 C245.920275,2.01679683 245.783884,2.10614859 245.738421,2.24017622 L227.916674,42.6718468 L210.049464,2.24017622 C210.004,2.10614859 209.86761,2.01679683 209.731219,2.01679683 L197.0014,2.01679683 C196.819545,2.01679683 196.637691,2.15082446 196.637691,2.37420386 L196.637691,2.41887974 C196.637691,2.59758326 196.774082,2.73161089 196.955936,2.77628677 C200.092927,2.86563853 202.093327,3.49110084 203.048064,4.60799781 C204.048264,5.85892243 204.548364,8.45012342 204.548364,12.7390078 L204.548364,39.3211559 C204.548364,43.6100403 204.048264,46.2459171 203.0026,47.4968417 C202.047864,48.6584146 200.047464,49.2838769 196.955936,49.3732287 C196.774082,49.3732287 196.637691,49.5072563 196.637691,49.7306357 L196.637691,49.7753116 C196.637691,49.9540151 196.774082,50.1327186 197.0014,50.1327186 L214.277582,50.1327186 C214.459437,50.1327186 214.641292,49.998691 214.641292,49.7753116 L214.641292,49.7306357 C214.641292,49.5519322 214.504901,49.4179045 214.323046,49.3732287 C211.140591,49.2838769 209.094728,48.6584146 208.139991,47.4968417 C207.139791,46.2459171 206.639691,43.6547161 206.639691,39.27648 L206.639691,7.73530935 L225.87081,51.2049397 C225.916274,51.3389673 226.052665,51.4283191 226.189056,51.4283191 C226.325447,51.4283191 226.461838,51.3389673 226.507301,51.2049397 L244.556366,10.2818345 L244.556366,39.3211559 C244.556366,43.5653644 244.056266,46.2459171 243.010602,47.4521659 C242.055866,48.6137387 240.055466,49.239201 236.963938,49.3285528 C236.782084,49.3285528 236.645693,49.4625804 236.645693,49.6859598 L236.645693,49.7306357 C236.645693,49.9093392 236.782084,50.0880427 237.009402,50.0880427 L257.786285,50.0880427 C257.968139,50.0880427 258.149994,49.9540151 258.149994,49.7306357 L258.149994,49.6859598 C258.149994,49.5072563 258.013603,49.3732287 257.831748,49.3285528 C254.649294,49.239201 252.60343,48.6137387 251.648694,47.4521659 C250.648494,46.2012412 250.148393,43.6100403 250.148393,39.2318041 L250.148393,12.649656 C250.10293,8.40544754 250.557566,5.81424655 251.60323,4.60799781 Z" id="Shape"></path>
            <path d="M227.780116,60.5039048 L206.077266,60.5039048 C205.895271,60.5039048 205.713276,60.6387325 205.713276,60.8634452 L205.713276,60.9083877 C205.713276,61.0881579 205.849772,61.2229856 206.031767,61.2679281 C209.171173,61.3578132 211.173113,61.9870089 212.128585,63.1105726 C213.129555,64.3689639 213.63004,66.9756317 213.63004,71.2901163 L213.63004,98.0309321 C213.63004,102.300474 213.129555,104.997027 212.083086,106.255418 C211.127614,107.423925 209.125674,108.05312 206.031767,108.143005 C205.849772,108.143005 205.713276,108.277833 205.713276,108.502546 L205.713276,108.547488 C205.713276,108.727258 205.849772,108.907029 206.077266,108.907029 L227.780116,108.907029 C236.879844,108.907029 243.750139,106.659901 248.300003,102.165647 C252.804368,97.7163343 255.124799,91.8288606 255.124799,84.727938 C255.124799,77.671958 252.804368,71.7844843 248.300003,67.2902295 C243.70464,62.7510322 236.788847,60.5039048 227.780116,60.5039048 Z M243.659142,100.233117 C240.656231,104.592544 235.332891,106.839671 227.871114,106.839671 L227.552623,106.839671 C223.958231,106.839671 221.728797,106.255418 220.727827,104.997027 C219.726857,103.783578 219.271871,101.17691 219.271871,96.7725408 L219.271871,62.5263195 L227.871114,62.5263195 C235.332891,62.5263195 240.656231,64.7285043 243.659142,69.0879314 C246.616553,73.3574735 248.118008,78.6157515 248.118008,84.6829955 C248.118008,90.6603543 246.616553,95.9186324 243.659142,100.233117 Z" id="Shape"></path>
            <path d="M202.43071,98.9747256 L202.248067,98.9747256 C202.111084,98.9747256 201.928441,99.0646107 201.928441,99.2443809 L201.654477,100.233117 C201.015226,102.839785 200.102011,104.547602 198.86917,105.491395 C197.63633,106.435189 195.26197,106.884614 191.517787,106.884614 L181.472419,106.884614 C177.819558,106.884614 175.53652,106.255418 174.486323,104.997027 C173.481786,103.738636 172.979518,101.17691 172.979518,96.8174833 L172.979518,71.2901163 C172.979518,66.9756317 173.436125,64.3689639 174.486323,63.1105726 C175.445199,61.9420663 177.454272,61.3578132 180.604865,61.2679281 C180.787508,61.2679281 180.92449,61.1331005 180.92449,60.9083877 L180.92449,60.8634452 C180.92449,60.683675 180.787508,60.5039048 180.559204,60.5039048 L159.692235,60.5039048 C159.509592,60.5039048 159.326949,60.6387325 159.326949,60.8634452 L159.326949,60.9083877 C159.326949,61.0881579 159.463932,61.2229856 159.646575,61.2679281 C162.797167,61.3578132 164.806241,61.9870089 165.765117,63.1105726 C166.769654,64.3689639 167.271922,66.9756317 167.271922,71.2901163 L167.271922,98.0309321 C167.271922,102.300474 166.769654,104.997027 165.719456,106.255418 C164.76058,107.423925 162.751507,108.05312 159.646575,108.143005 C159.463932,108.143005 159.326949,108.277833 159.326949,108.502546 L159.326949,108.547488 C159.326949,108.727258 159.463932,108.907029 159.692235,108.907029 L201.745798,108.907029 C201.928441,108.907029 202.065424,108.772201 202.111084,108.592431 L202.659014,99.3792086 C202.659014,99.3792086 202.659014,99.334266 202.659014,99.334266 C202.750335,99.1095533 202.613353,98.9747256 202.43071,98.9747256 Z" id="Shape"></path>
            <path d="M153.926795,60.5039048 L133.466753,60.5039048 C133.287672,60.5039048 133.108591,60.6387325 133.108591,60.8634452 L133.108591,60.9083877 C133.108591,61.0881579 133.242902,61.2229856 133.421983,61.2679281 C136.511136,61.3578132 138.48103,61.9870089 139.421207,63.1105726 C140.406155,64.3689639 140.898628,66.9756317 140.898628,71.2901163 L140.898628,98.0309321 C140.898628,102.300474 140.406155,104.997027 139.376437,106.255418 C138.43626,107.423925 136.466365,108.05312 133.421983,108.143005 C133.242902,108.143005 133.108591,108.277833 133.108591,108.502546 L133.108591,108.547488 C133.108591,108.727258 133.242902,108.907029 133.466753,108.907029 L153.926795,108.907029 C154.105876,108.907029 154.284957,108.772201 154.284957,108.547488 L154.284957,108.457603 C154.284957,108.277833 154.150646,108.143005 153.971565,108.098063 C150.882412,108.008178 148.912518,107.378982 147.972341,106.210476 C146.987393,104.952084 146.49492,102.345417 146.49492,97.941047 L146.49492,71.2002312 C146.49492,66.8857466 146.942623,64.2790788 147.972341,63.0206875 C148.912518,61.8521813 150.882412,61.2679281 153.971565,61.178043 C154.150646,61.178043 154.284957,61.0432154 154.284957,60.8185027 C154.284957,60.6387325 154.105876,60.5039048 153.926795,60.5039048 Z" id="Shape"></path>
            <path d="M128.779724,60.5039048 L108.12138,60.5494035 C107.940563,60.5494035 107.759746,60.6858994 107.759746,60.9133926 L107.759746,60.9588912 C107.759746,61.1408858 107.895358,61.2773817 108.076175,61.3228803 C108.754239,61.368379 109.567916,61.3228803 110.291184,61.368379 L109.839141,61.368379 C112.867826,61.4138776 114.766405,62.0053599 115.444469,63.3703191 C115.98692,64.5077851 116.212941,65.8727443 115.489673,68.1931749 L106.720048,96.0383421 C106.629639,96.2658353 106.268005,96.2658353 106.177597,96.0383421 L94.9669415,60.5494035 L94.2436734,60.5494035 L83.0330183,96.1293394 C82.987814,96.2658353 82.8974055,96.3113339 82.7617927,96.3113339 C82.62618,96.3113339 82.5357715,96.2203367 82.4905672,96.1293394 L73.7209418,68.1476762 C72.9976737,65.7362483 72.9976737,64.2802919 73.7209418,63.3248205 C74.3085971,62.5058449 76.1619716,61.6868694 78.196163,61.368379 C78.6030013,61.3228803 79.0550439,61.2773817 79.5522907,61.2773817 C79.7331077,61.2773817 79.8687204,61.1408858 79.8687204,60.9133926 L79.8687204,60.8678939 C79.8687204,60.6858994 79.7331077,60.5039048 79.5070864,60.5039048 L58.848742,60.5494035 C58.667925,60.5494035 58.487108,60.6858994 58.487108,60.9133926 L58.487108,60.9588912 C58.487108,61.1408858 58.6227208,61.3228803 58.8035378,61.3228803 C59.3459888,61.3228803 59.9788484,61.368379 60.611708,61.4593762 C64.4992739,62.0963572 66.126627,64.2347932 67.5731632,68.9211531 L80.5467843,109.915427 L81.1796438,109.915427 L92.4807075,74.2444939 C92.5259118,74.107998 92.6163203,74.0624993 92.751933,74.0624993 C92.8875458,74.0624993 92.9779543,74.1534966 93.0231586,74.2444939 L104.233814,109.915427 L104.866673,109.915427 L117.840294,68.9211531 C119.467648,63.6433109 120.55255,61.3228803 127.287984,61.2773817 L126.519511,61.2773817 C127.242779,61.2773817 128.146864,61.2773817 128.73452,61.2773817 C128.915337,61.2773817 129.05095,61.1408858 129.05095,60.9588912 L129.05095,60.9133926 C129.141358,60.6404007 128.960541,60.5039048 128.779724,60.5039048 Z" id="Shape"></path>
            <path d="M59.482897,78.5527766 C58.9184054,76.5080883 56.6170166,78.3204256 58.1368016,80.0862928 C57.8762671,81.2945177 57.3551979,82.2703916 56.7472839,83.2927357 C56.7038614,83.2927357 56.660439,83.3856761 56.660439,83.4321463 L56.4433269,83.7109674 C56.052525,84.2686097 55.3577661,85.1515433 54.8366969,85.6627153 C54.8366969,85.1515433 54.8801194,84.6868414 54.9235418,84.1756693 C54.9235418,84.1756693 55.140654,82.0380407 55.0103867,81.2480475 C55.4011885,80.876286 56.1393699,80.132763 55.9222577,79.4357102 C55.2274988,77.4839623 53.0997997,79.4357102 54.5761624,81.0621667 L54.6195848,81.1086369 C54.6195848,81.1086369 54.6195848,81.1551071 54.6195848,81.2015773 C54.7498521,82.1774512 54.6630072,83.1997954 54.5761624,84.1291991 C54.5327399,84.7333116 54.4458951,85.3838942 54.4458951,86.0344768 C53.9682483,86.6385893 53.230067,87.1497613 52.4050409,87.4750526 L52.4050409,87.3821123 C53.0563773,84.593901 53.230067,81.5268686 52.2747736,78.8780679 C49.191781,81.4803984 48.6707119,89.28739 50.3641867,92.7726541 C51.102368,91.4250186 51.7971268,89.7520918 52.2747736,87.9397545 C53.2734895,87.567993 54.0985156,87.0103508 54.7064297,86.313298 C54.7064297,86.313298 54.7064297,86.313298 54.7064297,86.313298 C55.1840764,85.9880066 56.0091026,84.8727221 56.7038614,83.8968482 L56.7472839,83.850378 C57.57231,83.4321463 58.7012932,83.1533252 59.5697418,82.9674444 C59.4394745,83.7574376 59.8302764,84.1291991 60.3513456,84.1756693 C62.5658895,84.4080203 61.2197942,80.5974649 59.5697418,82.5492127 C58.8315605,82.6886233 57.8762671,82.9674444 57.0512409,83.2927357 C57.6157325,82.3168618 58.0933792,81.3409879 58.3973362,80.1792332 C58.8749829,79.900412 59.6565867,79.2498294 59.482897,78.5527766 Z" id="Shape"></path>
            <path d="M71.0880256,92.569108 C70.5426318,92.1219376 69.6336421,92.6585421 69.1336978,92.9268444 C67.9974607,92.7479762 66.9066731,92.8374103 65.7704359,93.0162785 C66.4067287,92.3902398 66.997572,91.585333 67.4520669,90.9145773 C69.906339,90.1096704 66.997572,87.3819305 66.3158298,89.5730658 C66.2703803,89.9755193 66.3158298,90.4674068 67.088471,90.7357091 C66.5885267,91.4958989 65.8158854,92.4349569 65.1341432,93.0609955 L65.0886937,93.0609955 C63.9070071,93.3740149 62.588972,93.7317513 62.0890277,94.0447706 C62.0890277,94.0447706 62.0890277,94.0447706 62.0890277,94.0447706 C61.2254875,94.3130729 60.3619473,94.9391115 59.5893061,95.7440184 C57.7713267,95.5204332 55.9987968,95.5651502 54.4535143,95.7440184 C56.953236,98.6506265 64.1342545,101.065347 67.7702133,99.142514 C65.8158854,97.264398 62.9980174,96.2359059 60.1801494,95.7887354 L60.0892504,95.7887354 C60.7255432,95.1179797 61.4981844,94.6708093 62.2253762,94.402507 C62.8162195,94.6260922 63.4070628,94.8496774 63.9979061,95.0285456 C64.9068957,95.2968479 65.8158854,95.5651502 66.6339762,96.1017548 C66.6339762,96.1017548 66.6794256,96.1017548 66.6794256,96.1464718 L66.7248751,96.1911889 C67.5884153,98.203456 70.2244854,96.9513787 68.7246524,95.5204332 C68.2247081,95.0285456 67.2702689,95.4757161 66.7248751,95.6993013 C66.0431329,95.2968479 64.0433555,94.7155263 64.0433555,94.7155263 C63.5434112,94.5813752 63.0889164,94.402507 62.6344215,94.2683558 C63.3161638,94.0000535 64.1342545,93.7317513 64.7705473,93.5528831 L65.0886937,93.463449 C65.1341432,93.463449 65.497739,93.3740149 65.497739,93.3292978 C66.6794256,93.1504296 67.7702133,93.0162785 68.9518999,93.2398637 C70.1335864,95.386282 72.6787576,93.9106194 71.0880256,92.569108 Z" id="Shape"></path>
            <path d="M39.3275381,106.580644 C36.2264419,103.848389 30.9169894,101.116134 26.2183588,102.026886 C28.1917836,105.765761 35.61562,107.683132 39.3275381,106.580644 Z" id="Shape"></path>
            <path d="M44.2473525,119.999411 C44.9115001,116.009661 42.7530203,111.49379 40.5530312,108.907029 C39.7228467,112.107598 41.3417066,118.421048 44.2473525,119.999411 Z" id="Shape"></path>
            <path d="M37.4803932,111.140353 C36.1300311,113.089098 36.085019,116.033869 36.6251638,117.982614 C38.0655501,116.553534 38.9657915,112.742655 37.7504656,110.923826 L37.4803932,111.140353 Z" id="Shape"></path>
            <path d="M46.1290379,76.6382794 C41.9776257,81.0653944 42.890024,92.2449777 46.2658977,96.8062477 C48.5468934,91.3058927 49.6873913,82.6752544 46.1290379,76.6382794 Z" id="Shape"></path>
            <path d="M48.4031239,99.0470832 C51.198167,104.173332 62.1078515,106.95005 67.5626937,105.497613 C63.099641,101.652926 55.2554877,97.8509584 48.4031239,99.0470832 Z" id="Shape"></path>
            <path d="M33.194454,115.47304 L31.2337864,115.47304 C28.7829519,115.47304 26.6440417,115.061849 24.9061772,114.285154 C23.1683127,113.508458 21.697812,112.411947 20.5392357,111.132685 C19.3806594,109.807734 18.5340074,108.300032 17.9547193,106.609577 C17.3754311,104.919123 17.0635067,103.182981 17.0635067,101.401151 C17.0635067,99.5736324 17.1971886,97.974554 17.509113,96.6496033 C17.8210374,95.3703406 18.3112043,94.0910779 19.0241743,92.8118152 L20.0490688,91.029985 C20.0936294,90.938609 20.0936294,90.8929211 20.0045082,90.8015452 C19.9599475,90.7558572 19.8708263,90.7558572 19.781705,90.7558572 L18.0438405,91.8066802 C16.0831729,92.994567 14.4344297,94.8220851 13.0976108,97.1978587 C11.760792,99.5736324 11.0923826,102.132158 11.0923826,104.827747 C11.0923826,106.563889 11.4043069,108.300032 11.9835951,109.990486 C12.6074439,111.68094 13.4540958,113.188643 14.5235509,114.513593 C15.6375666,115.838544 16.9743854,116.935055 18.5340074,117.757438 C20.0936294,118.579821 21.8760545,118.991013 23.8367222,118.991013 C25.0398591,118.991013 26.2875567,118.808261 27.5352543,118.488445 C28.7829519,118.16863 30.1197707,117.574686 31.4565895,116.752303 L33.1498934,115.747168 C33.194454,115.70148 33.2390147,115.610104 33.2390147,115.564416 C33.3281359,115.518728 33.2390147,115.47304 33.194454,115.47304 Z" id="Shape"></path>
            <path d="M36.7607058,79.3973695 C36.7148695,79.4417204 36.7148695,79.5304221 36.7607058,79.6191238 C36.8065421,79.6634747 36.8523784,79.6634747 36.8982147,79.6634747 C36.944051,79.6634747 36.944051,79.6634747 36.9898873,79.6634747 L38.9608478,78.6877558 C40.9318083,77.712037 42.7194237,76.3371605 44.1403487,74.6074771 C45.6529464,72.8334428 46.386327,70.7933034 46.386327,68.6201115 C46.386327,66.6686738 45.6529464,64.8946396 44.186185,63.3423596 C42.5819148,61.6570271 40.1984277,60.6813082 37.2190687,60.5039048 C37.2190687,60.5039048 36.8982147,60.5039048 36.4398518,60.5039048 C35.9814889,60.5039048 35.2939445,60.5039048 34.4688912,60.5482557 C34.3772186,60.5482557 34.3313824,60.5926065 34.2855461,60.6813082 C34.2855461,60.77001 34.2855461,60.8143608 34.3772186,60.8587117 L36.7607058,62.0561848 C38.1816308,62.6770968 39.2358655,63.6528156 39.9234099,64.8946396 C40.6567906,66.1808144 41.0234809,67.6000418 41.0234809,69.1523218 C41.0234809,72.2125308 40.0150825,75.0953365 38.044122,77.6676862 L36.7607058,79.3973695 Z" id="Shape"></path>
            <path d="M65.4305974,112.420897 L63.1624097,113.053938 C62.7994997,113.144372 62.3912259,113.234807 61.9375884,113.280024 C61.4839509,113.325241 61.1664046,113.370458 60.8942221,113.370458 C60.2137658,113.370458 59.5333095,113.280024 58.898217,113.053938 C58.2631245,112.827852 57.5373044,112.466114 56.7207569,111.87829 C55.9042093,111.290466 54.9062068,110.431339 53.8174767,109.346126 C52.7287467,108.260913 51.3678341,106.768745 49.7801028,104.960056 C49.3264652,104.417449 48.5552814,103.558322 47.6026426,102.337457 C47.0582776,101.659199 46.5139126,100.980941 45.87882,100.212248 C46.0149113,100.076596 46.1510026,99.9409448 46.2417301,99.8052931 C46.4685488,99.5792071 46.6953676,99.3079038 46.9221864,99.0818177 C47.5119151,98.4035594 48.1470077,97.7253012 48.7821002,97.0922601 C50.279104,95.600092 52.1390179,94.4696615 53.9082042,93.3844483 L54.0896592,93.2940139 C55.4505718,93.0679278 58.353852,92.3896695 61.2117684,90.7618497 C65.1584148,88.5462061 67.5626937,85.3357837 67.5626937,85.3357837 C67.5626937,85.3357837 63.5706835,85.7427386 59.624037,87.9583823 C56.7207569,89.5862021 54.679388,91.7566285 53.772113,92.7514073 C53.7267492,92.7966245 53.6360217,92.8418417 53.5452942,92.8870589 C51.7307441,93.9722721 49.8708303,95.1027026 48.2830989,96.5948707 C47.6026426,97.273129 46.9221864,97.9513872 46.2870938,98.6748627 C46.0602751,98.9009488 45.87882,99.1270349 45.6520013,99.353121 C45.5612738,99.4887726 45.4251825,99.5792071 45.334455,99.6696415 C44.971545,99.2174693 44.5632712,98.7200799 44.1549975,98.2226905 C42.8848124,96.5948707 41.5238998,94.9218337 40.1629872,93.1583622 C38.7567109,91.3496736 37.3504346,89.4957677 35.989522,87.7322962 C34.6286094,85.9688247 33.3584244,84.2053533 32.1789668,82.5775334 C30.9995092,80.9497136 30.0468704,79.5479799 29.2756867,78.3723323 C28.0055016,76.4732091 26.9621353,74.6193032 26.1909515,72.8558318 C25.4197677,71.1827948 25.0568577,69.5097577 25.0568577,67.8819379 C25.0568577,66.8871591 25.2836764,65.8923804 25.737314,64.8976016 C26.1909515,63.94804 26.9621353,62.9984785 28.0962291,62.0489169 L29.5478692,60.828052 C29.5932329,60.7828348 29.6385967,60.6924004 29.5932329,60.6471832 C29.5478692,60.5567487 29.5025054,60.5115315 29.4571417,60.5115315 C27.1435903,60.3758799 24.4671289,62.0941341 24.3764014,62.1393513 C23.4237626,62.7723924 22.5164875,63.6315195 21.7453037,64.5810811 C20.97412,65.5306426 20.3390274,66.661073 19.8853899,67.8819379 C19.4317524,69.14802 19.1595699,70.5045365 19.1595699,71.9062702 C19.1595699,73.2175695 19.5224799,74.8001721 20.2482999,76.5636436 C20.9287562,78.2818978 21.881395,80.0905865 23.0154888,81.8088408 C24.0588551,83.3462261 25.5104952,85.3357837 27.4157728,88.0035995 C29.2756867,90.5809809 31.3170555,93.3844483 33.5398794,96.3235674 C35.7627033,99.2626865 38.0308909,102.201806 40.4351698,105.140925 C40.6166248,105.367011 40.7980798,105.593097 40.9795348,105.819183 C40.8888073,105.909617 40.7980798,106.045269 40.7073523,106.135704 C39.3918034,107.582654 37.8040721,108.713085 36.170977,109.843515 C35.5358845,109.526995 34.4925182,109.526995 34.4925182,109.526995 C32.0428756,109.572212 29.5932329,110.883511 28.1415928,112.104376 L27.5518641,112.601766 L28.2776841,112.827852 C28.7766854,113.008721 29.4571417,113.053938 30.137598,113.053938 C32.3150581,113.008721 35.1276107,112.059159 36.170977,110.431339 L36.3977958,110.069601 C38.0308909,108.984388 39.6186222,107.853958 40.9795348,106.407007 C41.0702623,106.316572 41.115626,106.226138 41.2063535,106.135704 C43.2477224,108.62265 45.153,110.883511 46.8768226,112.782634 C48.4645539,114.546106 49.916194,115.812188 51.2771066,116.671315 C52.6833829,117.530442 54.2711142,117.982614 56.0856643,117.982614 C57.9909419,117.982614 59.5786733,117.530442 60.7127671,116.716532 C61.7561334,115.94784 62.754136,115.13393 63.7067748,114.32002 L65.4759611,112.782634 C65.5213249,112.737417 65.5666886,112.646983 65.5213249,112.556548 C65.6120524,112.420897 65.5213249,112.375679 65.4305974,112.420897 Z" id="Shape"></path>
        </g>
    </g>
</svg>