<?xml version="1.0" encoding="UTF-8"?>
<svg width="400px" height="120px" viewBox="0 0 400 120" version="1.1" xmlns="http://www.w3.org/2000/svg" xmlns:xlink="http://www.w3.org/1999/xlink">
    <!-- Generator: Sketch 50.2 (55047) - http://www.bohemiancoding.com/sketch -->
    <title>2.4:1</title>
    <desc>Created with Sketch.</desc>
    <defs></defs>
    <g id="Page-1" stroke="none" stroke-width="1" fill="none" fill-rule="evenodd">
        <g id="charliehr" fill="#FFFFFF" fill-rule="nonzero">
            <g id="Layer_14">
                <path d="M111.486207,75.2359551 C110.138686,75.1983999 108.867365,75.861201 108.124138,76.988764 L76.5206897,66.741573 C76.6276538,66.5833692 76.6752962,66.3923054 76.6551724,66.2022472 C76.6551724,63.9682864 74.848873,62.1573034 72.6206897,62.1573034 C71.5394841,62.1192324 70.4910866,62.5331568 69.7260874,63.3001395 C68.9610883,64.0671223 68.5482344,65.1182381 68.5862069,66.2022472 C68.5853484,66.9733207 68.820005,67.7261689 69.2586207,68.3595506 C67.3481914,70.448234 64.7884013,71.8265006 61.9965517,72.2696629 C61.5679906,70.6903423 60.232372,69.525607 58.6129423,69.3189634 C56.9935125,69.1123197 55.4094762,69.904499 54.6,71.3258427 C51.3737763,69.7669923 48.9383608,66.9345851 47.8758621,63.505618 C49.7082129,63.0812911 51.0303625,61.4795512 51.1034483,59.5955056 C51.1321143,57.6740383 49.7639085,56.0165029 47.8758621,55.6853933 C48.7914679,52.6394003 50.8048829,50.0440116 53.5241379,48.4044944 C54.2855504,49.5296981 55.5314548,50.2292136 56.8862069,50.2921348 C58.9658943,50.3025839 60.7127444,48.7263423 60.9206897,46.6516854 C62.1168601,46.6667362 63.3008219,46.8950115 64.4172414,47.3258427 C66.2578081,48.0167872 67.914565,49.1241557 69.2586207,50.5617978 C68.8345793,51.2022321 68.6013348,51.95055 68.5862069,52.7191011 C68.5482344,53.8031102 68.9610883,54.8542261 69.7260874,55.6212088 C70.4910866,56.3881915 71.5394841,56.8021159 72.6206897,56.7640449 C74.848873,56.7640449 76.6551724,54.9530619 76.6551724,52.7191011 C76.6551724,52.5842697 76.6551724,52.4494382 76.5206897,52.4494382 L108.796552,41.9325843 C109.617281,42.6612528 110.660375,43.0890797 111.755172,43.1460674 C112.836378,43.1841384 113.884775,42.770214 114.649775,42.0032313 C115.414774,41.2362485 115.827628,40.1851326 115.789655,39.1011236 C115.789655,36.8671628 113.983356,35.0561798 111.755172,35.0561798 L110.813793,35.0561798 C106.916536,27.1341999 101.257409,20.2149304 94.2724138,14.8314607 C94.5008751,14.3727664 94.5941763,13.8582793 94.5413793,13.3483146 C94.5793519,12.2643056 94.1664979,11.2131897 93.4014988,10.4462069 C92.6364996,9.67922421 91.5881021,9.26529979 90.5068966,9.30337079 C89.4395565,9.30337079 88.4188552,9.74194845 87.6827586,10.5168539 L86.7413793,9.97752809 L86.6068966,9.97752809 C79.4981089,6.04007195 71.5870482,3.7804958 63.4758621,3.37078652 C63.1529772,1.4533989 61.5149923,0.0376816597 59.5758621,0 C57.6054593,0.0264078705 55.9226056,1.43242214 55.5413793,3.37078652 C42.5058237,4.34948956 30.2265076,9.88473771 20.8448276,19.011236 C20.2545777,18.5897334 19.5520336,18.3549448 18.8275862,18.3370787 C16.5994029,18.3370787 14.7931034,20.1480617 14.7931034,22.3820225 C14.7787158,23.388772 15.1660325,24.3595744 15.8689655,25.0786517 C9.22547066,33.68356 5.20862119,44.032694 4.30344828,54.8764045 C2.91011248,54.8523192 1.60980097,55.5753266 0.892328511,56.7730769 C0.174856056,57.9708273 0.149223787,59.4613537 0.825087132,60.6831893 C1.50095048,61.9050249 2.77562972,62.6725439 4.16896552,62.6966292 C4.80258918,74.9459463 9.43317728,86.6471801 17.3482759,96 C16.7661809,96.7292621 16.4358439,97.628216 16.4068966,98.5617978 C16.4068966,100.795759 18.213196,102.606742 20.4413793,102.606742 C21.385319,102.651238 22.3070304,102.31078 22.9965517,101.662921 C32.0435489,109.747922 43.464554,114.66885 55.5413793,115.685393 C55.8612885,117.61037 57.5064395,119.031883 59.4526278,119.064955 C61.3988162,119.098027 63.0910707,117.733227 63.4758621,115.820225 C84.0356081,114.409675 102.236424,101.986596 111.082759,83.3258427 L111.486207,83.3258427 C113.71439,83.3258427 115.52069,81.5148597 115.52069,79.2808989 C115.450841,77.076597 113.684808,75.3059853 111.486207,75.2359551 Z M47.4724138,77.3932584 C47.5005518,77.722306 47.5918832,78.0427948 47.7413793,78.3370787 L22.9965517,95.4606742 L36.3103448,61.8876404 C37.2513677,61.8173834 38.052654,61.1746922 38.3275862,60.2696629 L43.0344828,60.2696629 C43.3014901,61.71701 44.3315958,62.9047032 45.7241379,63.3707865 C46.0188883,64.6138303 46.5188865,65.7987086 47.2034483,66.8764045 L49.0862069,74.9662921 C48.1206412,75.3886195 47.4898748,76.3372224 47.4724138,77.3932584 Z M56.3482759,6.60674157 L44.5137931,36.5393258 L44.3793103,36.5393258 C43.8451913,36.5749078 43.3321578,36.7619491 42.9,37.0786517 L26.4931034,26.2921348 L22.5931034,23.8651685 C22.7467551,23.3846288 22.8371744,22.8860333 22.862069,22.3820225 C22.8251733,21.7205021 22.6413901,21.0755928 22.3241379,20.494382 C31.3520666,11.7054389 43.1369203,6.32180412 55.6758621,5.25842697 C55.8166428,5.74500886 56.0444855,6.20187581 56.3482759,6.60674157 Z M38.3275862,58.5168539 C38.1931034,58.247191 38.1931034,57.9775281 37.9241379,57.8426966 L39.9413793,52.8539326 L40.7482759,52.8539326 L43.9758621,57.0337079 C43.5835035,57.5720085 43.2667503,58.1617898 43.0344828,58.7865169 L38.3275862,58.5168539 Z M40.0758621,47.7303371 L39.2689655,47.7303371 L22.5931034,26.0224719 L26.0896552,28.3146067 L41.9586207,38.5617978 C41.9586207,38.8314607 41.8241379,38.9662921 41.8241379,39.1011236 C41.8131652,39.8463635 42.1642835,40.550421 42.7655172,40.988764 L42.2275862,42.0674157 L40.0758621,47.7303371 Z M46.1275862,37.2134831 L57.8275862,7.82022472 L59.5758621,8.08988764 L59.9793103,8.08988764 L66.0310345,34.247191 C65.3161708,34.7240906 64.9067872,35.5449809 64.9551724,36.4044944 C64.9833104,36.7335419 65.0746418,37.0540307 65.2241379,37.3483146 L59.4413793,43.1460674 C58.751858,42.4982092 57.8301466,42.1577508 56.8862069,42.2022472 C55.5501117,42.2125975 54.2999184,42.8643837 53.5241379,43.9550562 L46.9344828,39.6404494 L46.9344828,39.1011236 C46.9243776,38.3898357 46.6343556,37.711363 46.1275862,37.2134831 Z M107.72069,39.1011236 C107.72069,39.505618 107.855172,39.7752809 107.855172,40.0449438 L75.9827586,50.5617978 C75.2535604,49.4019958 73.9880317,48.6914621 72.6206897,48.6741573 L71.2758621,48.9438202 L68.8551724,38.4269663 C69.562574,37.9901755 70.0140052,37.2358394 70.0655172,36.4044944 C70.0557043,36.0295381 69.9638869,35.6613163 69.7965517,35.3258427 L88.3551724,16.8539326 C88.9939505,17.2790734 89.740333,17.5129228 90.5068966,17.5280899 C91.5110424,17.5425148 92.4793341,17.1541939 93.1965517,16.4494382 C99.936505,21.7100421 105.330098,28.5041793 108.931034,36.2696629 C108.182745,37.0245671 107.749869,38.0372304 107.72069,39.1011236 Z M60.6517241,44.7640449 C60.6517241,44.6292135 60.6517241,44.6292135 60.5172414,44.494382 L66.4344828,38.6966292 L67.1068966,38.6966292 L69.2586207,47.8651685 C68.0898356,46.8960925 66.7729634,46.1221313 65.3586207,45.5730337 C63.8475158,45.0348246 62.2553458,44.7611735 60.6517241,44.7640449 Z M86.7413793,12.1348315 C86.5756306,12.565586 86.4846613,13.0216116 86.4724138,13.4831461 C86.4902337,14.2094718 86.7244151,14.9138377 87.1448276,15.505618 L78.1344828,24.4044944 L68.5862069,33.9775281 L67.7793103,33.9775281 L61.7275862,7.5505618 C62.5228252,6.97585869 63.1310299,6.17845189 63.4758621,5.25842697 C71.6604087,5.6964863 79.6286435,8.05159429 86.7413793,12.1348315 Z M18.8275862,26.4269663 L20.4413793,26.1573034 L37.7896552,48.9438202 C37.6239064,49.3745748 37.5329372,49.8306004 37.5206897,50.2921348 C37.5307948,51.0034227 37.8208168,51.6818954 38.3275862,52.1797753 L36.4448276,56.8988764 L35.9068966,56.8988764 C34.933072,56.9413928 34.0584031,57.5088224 33.6206897,58.3820225 L8.87586207,57.9775281 C8.6149605,56.4817081 7.51385384,55.2726071 6.05172414,54.8764045 C6.9533238,44.4060946 10.8788889,34.4261728 17.3482759,26.1573034 C17.8057838,26.386357 18.3189404,26.4799001 18.8275862,26.4269663 Z M8.87586207,59.7303371 L33.6206897,60.2696629 C33.7752084,60.7763326 34.1102946,61.2082747 34.562069,61.4831461 L21.3827586,94.6516854 L20.4413793,94.6516854 C19.879476,94.6594971 19.3270498,94.7979617 18.8275862,95.0561798 C11.1413107,86.0092694 6.60855917,74.6953465 5.91724138,62.8314607 C7.3978556,62.4229687 8.53460137,61.2314712 8.87586207,59.7303371 Z M24.0724138,96.8089888 L48.9517241,79.6853933 L50.0275862,79.9550562 L50.2965517,79.9550562 L57.8275862,111.370787 C56.7511257,111.841576 55.955394,112.788957 55.6758621,113.932584 C43.9648084,112.879027 32.8940062,108.1086 24.0724138,100.314607 C24.3457989,99.7714639 24.4842106,99.1701246 24.4758621,98.5617978 C24.4698623,97.9550951 24.3321917,97.3569753 24.0724138,96.8089888 Z M51.9103448,79.1460674 C52.3268429,78.6555043 52.5640341,78.0372081 52.5827586,77.3932584 L52.5827586,77.1235955 L54.8689655,75.6404494 C55.2513088,76.3324663 55.8732502,76.8600889 56.6172414,77.1235955 L58.2310345,105.707865 L51.9103448,79.1460674 Z M66.1655172,73.0786517 C67.8897364,72.3166706 69.4444067,71.2164108 70.737931,69.8426966 C71.3269898,70.1183693 71.9706867,70.2566621 72.6206897,70.247191 C73.9567848,70.2368407 75.2069781,69.5850545 75.9827586,68.494382 L103.551724,77.5280899 L78.8068966,74.5617978 L66.1655172,73.0786517 Z M54.062069,73.0786517 L54.062069,74.0224719 L51.7758621,75.505618 C51.6413793,75.2359551 51.237931,75.1011236 50.9689655,74.9662921 L49.7586207,69.9775281 C51.0190493,71.2346237 52.471875,72.2815497 54.062069,73.0786517 Z M45.9931034,55.6853933 L45.4551724,55.6853933 L42.0931034,51.505618 C42.3505256,51.1027683 42.4902852,50.6356951 42.4965517,50.1573034 C42.539512,49.4357268 42.2404526,48.7361121 41.6896552,48.2696629 L43.3034483,44.494382 L44.3793103,41.6629213 C44.9664089,41.6979546 45.5443902,41.5047946 45.9931034,41.1235955 L52.9862069,45.7078652 C52.8792428,45.866069 52.8316004,46.0571328 52.8517241,46.247191 C52.8487808,46.435659 52.8951484,46.6216102 52.9862069,46.7865169 C49.5424334,48.6727177 47.0163734,51.8871841 45.9931034,55.6853933 Z M63.4758621,113.932584 C63.0431602,112.463409 61.8659091,111.334423 60.3827586,110.966292 L58.3655172,77.3932584 C60.0888073,77.1881229 61.520576,75.9653056 61.9965517,74.2921348 L107.451724,79.6853933 C107.555388,80.9592732 108.253466,82.1090895 109.334483,82.7865169 C100.80276,100.729367 83.2602189,112.643837 63.4758621,113.932584 Z" id="Shape"></path>
            </g>
            <g id="Working" transform="translate(131.000000, 23.000000)">
                <g id="type-2">
                    <path d="M49.982,0.683673469 L62.31,0.683673469 L62.31,30.0816327 C63.5912935,28.446655 65.1874921,27.0970992 67,26.1163265 C69.2465396,24.8456758 71.8089416,24.2751967 74.37,24.4755102 C77.452,24.4755102 81.874,24.8857143 85.224,28.3040816 C88.574,31.722449 88.976,36.7816327 88.976,39.7897959 L88.976,64.5387755 L76.648,64.5387755 L76.648,44.4387755 C76.648,41.8408163 76.514,38.6959184 74.638,36.644898 C73.266143,35.5417511 71.560136,34.9614766 69.814,35.0040816 C67.978719,34.9507247 66.1969664,35.6386601 64.856,36.9183673 C62.444,39.3795918 62.31,43.0714286 62.31,44.9857143 L62.31,64.5387755 L49.982,64.5387755 L49.982,0.683673469 Z" id="Shape"></path>
                    <path d="M126.362,25.4326531 L138.69,25.4326531 L138.69,64.5387755 L126.362,64.5387755 L126.362,59.8897959 C123.885632,63.8212366 119.547542,66.1126648 114.972,65.9061224 C109.478,65.9061224 104.922,64.5387755 100.634,59.8897959 C96.9535032,55.9526708 94.9328547,50.6997702 95.006,45.2591837 C94.8576771,39.4027532 97.0318695,33.7330907 101.036,29.5346939 C104.564748,25.9924918 109.35377,24.0674056 114.302,24.2020408 C117.652,24.2020408 122.878,24.8857143 126.362,29.8081633 L126.362,25.4326531 Z M110.684,37.8755102 C108.7525,39.7080643 107.679882,42.2950837 107.736,44.9857143 C107.698459,47.6684625 108.735573,50.250631 110.607416,52.1348642 C112.47926,54.0190974 115.023661,55.0421488 117.652,54.9673469 C120.050007,55.0127933 122.366142,54.0772797 124.084,52.3693878 C128.093549,48.3942135 128.213166,41.8640683 124.352,37.7387755 C122.407486,36.0352277 119.946072,35.0692095 117.384,35.0040816 C114.869268,35.0335932 112.46522,36.0638997 110.684,37.8755102 Z" id="Shape"></path>
                    <path d="M148.338,25.4326531 L160.8,25.4326531 L160.8,31.5857143 C161.88224,29.343045 163.551932,27.4499702 165.624,26.1163265 C167.617388,24.9488962 169.893529,24.380098 172.19,24.4755102 C173.562178,24.4128777 174.931901,24.6458237 176.21,25.1591837 L175.54,36.9183673 C173.795089,36.018402 171.867141,35.5499988 169.912,35.5510204 C167.588815,35.4834311 165.347276,36.4281792 163.748,38.1489796 C161.068,41.1571429 160.8,45.3959184 160.8,48.677551 L160.8,64.5387755 L148.338,64.5387755 L148.338,25.4326531 Z" id="Shape"></path>
                    <polygon id="Shape" points="194.166 0.683673469 194.166 64.5387755 181.704 64.5387755 181.704 0.683673469"></polygon>
                    <path d="M211.184,1.36734694 C215.180332,1.36734694 218.42,4.67313015 218.42,8.75102041 C218.42,12.8289107 215.180332,16.1346939 211.184,16.1346939 C207.187668,16.1346939 203.948,12.8289107 203.948,8.75102041 C203.948,4.67313015 207.187668,1.36734694 211.184,1.36734694 Z M217.348,25.4326531 L217.348,64.5387755 L204.886,64.5387755 L204.886,25.4326531 L217.348,25.4326531 Z" id="Shape"></path>
                    <path d="M254.734,52.0959184 C254.10654,53.3118785 253.239776,54.3825316 252.188,55.2408163 C250.654183,56.0320347 248.947142,56.408657 247.23,56.3346939 C244.833158,56.5372313 242.473328,55.6342351 240.798,53.8734694 C239.281977,51.9876405 238.474318,49.6121718 238.52,47.1734694 L267.062,47.1734694 L267.062,45.9428571 C267.062,41.0204082 266.258,35.0040816 261.702,30.0816327 C257.146,25.1591837 250.714,24.2020408 246.426,24.2020408 C242.138,24.2020408 236.376,25.022449 231.82,29.8081633 C227.968466,33.9853927 225.854903,39.5241816 225.924,45.2591837 C225.809395,50.8549436 227.882718,56.2670337 231.686,60.3 C236.108,64.8122449 241.2,65.9061224 246.962,65.9061224 C251.209664,66.1293627 255.433743,65.1346817 259.156,63.0346939 C262.014063,61.1717816 264.291891,58.5154227 265.722,55.377551 L254.734,52.0959184 Z M241.066,35.4142857 C242.729921,33.7222082 245.018076,32.8280094 247.364,32.9530612 C249.492855,32.8746005 251.56521,33.6614461 253.126,35.1408163 C254.3315,36.4036717 255.206935,37.955195 255.672,39.6530612 L238.922,39.6530612 C239.217045,38.0572894 239.962188,36.5841103 241.066,35.4142857 Z" id="Shape"></path>
                    <path d="M23.852,54.0102041 C18.5235567,54.0102041 14.204,49.6024931 14.204,44.1653061 C14.1241179,39.470563 17.3045072,35.3716514 21.8010249,34.3741985 C26.2975426,33.3767456 30.8585731,35.7583946 32.696,40.0632653 L43.55,36.5081633 C40.5417923,28.0710974 32.6502221,22.4835633 23.852,22.5612245 C15.910449,21.9150001 8.28567567,25.8725299 4.12070626,32.802471 C-0.0442631485,39.7324121 -0.0442631485,48.4614654 4.12070626,55.3914065 C8.28567567,62.3213477 15.910449,66.2788775 23.852,65.6326531 C32.6502221,65.7103142 40.5417923,60.1227801 43.55,51.6857143 L32.696,48.1306122 C31.1531897,51.7081528 27.6824308,54.0155528 23.852,54.0102041 Z" id="Shape"></path>
                </g>
            </g>
        </g>
    </g>
</svg>