<?xml version="1.0" encoding="UTF-8"?>
<svg width="400px" height="120px" viewBox="0 0 400 120" version="1.1" xmlns="http://www.w3.org/2000/svg" xmlns:xlink="http://www.w3.org/1999/xlink">
    <!-- Generator: Sketch 50.2 (55047) - http://www.bohemiancoding.com/sketch -->
    <title>2.4:1</title>
    <desc>Created with Sketch.</desc>
    <defs></defs>
    <g id="Page-1" stroke="none" stroke-width="1" fill="none" fill-rule="evenodd">
        <g id="creditspring" transform="translate(78.000000, 0.000000)" fill-rule="nonzero">
            <g id="Group" transform="translate(0.000000, 81.290323)" fill="#FFFFFF">
                <path d="M2.66755029,29.2623506 C0.947860508,27.7329122 0.0947860508,25.6756147 0.0947860508,23.0633882 L0.0947860508,16.1064742 C0.0947860508,13.4942477 0.947860508,11.4234153 2.66755029,9.90751184 C4.38724006,8.37807354 6.70272788,7.62012181 9.64109545,7.62012181 C12.5117587,7.62012181 14.7866239,8.36453869 16.4656911,9.86690729 C18.1447583,11.3692759 18.970751,13.4130386 18.970751,16.0252651 L18.970751,16.2824273 L14.1366624,16.2824273 L14.1366624,16.0252651 C14.1366624,14.8206632 13.7439774,13.8596887 12.9721481,13.1288067 C12.2003188,12.3979247 11.0899679,12.0324836 9.65463631,12.0324836 C8.09743691,12.0324836 6.93292257,12.3979247 6.13401157,13.1152718 C5.34864144,13.832619 4.9424155,14.8071284 4.9424155,16.0387999 L4.9424155,23.1445973 C4.9424155,24.3762689 5.33510057,25.3507783 6.13401157,26.0681254 C6.91938171,26.7854726 8.09743691,27.1509136 9.65463631,27.1509136 C11.0899679,27.1509136 12.2003188,26.7854726 12.9721481,26.0545906 C13.7439774,25.3237085 14.1366624,24.3491992 14.1366624,23.1581322 L14.1366624,22.7656215 L18.970751,22.7656215 L18.970751,23.0769231 C18.970751,25.6620799 18.1176766,27.7193774 16.3979868,29.2623506 C14.678297,30.8053237 12.4305135,31.5768103 9.64109545,31.5768103 C6.71626874,31.5497406 4.38724006,30.7917889 2.66755029,29.2623506 Z" id="Shape"></path>
                <path d="M24.1839838,8.14798105 L26.6077985,8.14798105 L28.4493561,10.6925333 C30.2638319,8.63523573 32.3626659,7.62012181 34.745858,7.62012181 L35.6260142,7.62012181 L35.6260142,12.2355064 L34.9625119,12.2355064 C32.4168294,12.2355064 30.4263223,13.0611324 29.0180724,14.6988495 L29.0180724,31.0218813 L24.1839838,31.0218813 L24.1839838,8.14798105 Z" id="Shape"></path>
                <path d="M41.6787806,29.3029551 C39.9184682,27.8141214 39.038312,25.7568238 39.038312,23.1445973 L39.038312,16.1064742 C39.038312,13.5213174 39.9320091,11.4640199 41.7058623,9.9210467 C43.4797156,8.37807354 45.8493668,7.60658696 48.8148161,7.60658696 C51.6854794,7.60658696 53.9738855,8.35100383 55.6800344,9.85337243 C57.3861833,11.3422062 58.2257169,13.3995037 58.2257169,16.0117302 L58.2257169,21.1549741 L43.8724006,21.1549741 L43.8724006,23.0498534 C43.8724006,24.2815249 44.2921674,25.2695691 45.1452419,26.013986 C45.9983163,26.7584029 47.2169941,27.1373788 48.8012753,27.1373788 C51.3875804,27.1373788 52.8906163,26.1222648 53.3374648,24.1055718 L58.1715534,24.1055718 C57.9413587,26.4200316 57.0070391,28.2337018 55.3821354,29.5601173 C53.7572316,30.872998 51.5636116,31.5362057 48.8012753,31.5362057 C45.8087442,31.5497406 43.439093,30.8053237 41.6787806,29.3029551 Z M53.3780874,17.4734942 L53.3780874,16.0252651 C53.3780874,14.7935935 52.9718615,13.8190841 52.1458688,13.101737 C51.3198761,12.3843898 50.1553617,12.0189488 48.625244,12.0189488 C47.0951264,12.0189488 45.930612,12.3843898 45.1046193,13.101737 C44.2786266,13.8190841 43.8724006,14.7935935 43.8724006,16.0252651 L43.8724006,17.4734942 L53.3780874,17.4734942 Z" id="Shape"></path>
                <path d="M65.9440096,29.3976991 C64.4003511,27.9630047 63.6285218,25.8786375 63.6285218,23.1581322 L63.6285218,16.0387999 C63.6285218,13.2776901 64.4003511,11.1933228 65.9440096,9.77216332 C67.4876681,8.35100383 69.4781752,7.63365667 71.9019899,7.63365667 C74.691408,7.63365667 76.8308646,8.55402662 78.3203597,10.4083014 L78.3203597,0.0270697045 L83.1544482,0.0270697045 L83.1544482,31.0354162 L80.3379485,31.0354162 L78.5370135,28.490864 C76.8308646,30.5481615 74.5559994,31.5632754 71.7124178,31.5632754 C69.4104709,31.5497406 67.4741273,30.8323934 65.9440096,29.3976991 Z M78.3203597,24.2003158 L78.3203597,14.9695466 C76.4788021,13.006993 74.6101628,12.0189488 72.7279827,12.0189488 C71.5228457,12.0189488 70.5072809,12.4114595 69.694829,13.2100158 C68.8823772,14.0085721 68.4626104,15.0507557 68.4626104,16.3771712 L68.4626104,22.7926912 C68.4626104,24.1055718 68.8823772,25.1612903 69.7219108,25.9598466 C70.5614444,26.744868 71.5770092,27.1509136 72.7821461,27.1509136 C74.6237037,27.1509136 76.4788021,26.1764042 78.3203597,24.2003158 Z" id="Shape"></path>
                <path d="M90.2498612,0.0135348522 L95.0839498,0.0135348522 L95.0839498,4.8454771 L90.2498612,4.8454771 L90.2498612,0.0135348522 Z M90.2498612,8.14798105 L95.0839498,8.14798105 L95.0839498,31.0218813 L90.2498612,31.0218813 L90.2498612,8.14798105 Z" id="Shape"></path>
                <path d="M121.921943,29.3300248 C120.121008,27.8547259 119.21377,25.7838935 119.21377,23.1445973 L124.047859,23.1445973 C124.047859,24.4033386 124.548871,25.3913828 125.564436,26.0951951 C126.58,26.7990074 127.934087,27.1509136 129.640236,27.1509136 C130.926618,27.1509136 131.955724,26.9208211 132.714012,26.474171 C133.4723,26.013986 133.851445,25.4049177 133.851445,24.6469659 C133.851445,23.5100383 133.011911,22.7114821 131.346385,22.2783668 L125.401945,20.7353936 C123.736419,20.3022784 122.395873,19.6255358 121.393849,18.7187007 C120.391825,17.8118656 119.904354,16.4583803 119.904354,14.6717798 C119.904354,12.5603429 120.716806,10.8549515 122.328169,9.56914054 C123.939532,8.28332957 126.160234,7.63365667 128.976733,7.63365667 C131.820315,7.63365667 134.081639,8.33746898 135.774247,9.74509362 C137.466855,11.1527182 138.306389,13.1694112 138.306389,15.8087074 L133.4723,15.8087074 C133.4723,14.5770359 133.038993,13.6431311 132.158836,12.9934582 C131.27868,12.3437852 130.114166,12.0324836 128.678834,12.0324836 C127.36537,12.0324836 126.376887,12.2625761 125.726926,12.7092263 C125.076964,13.1694112 124.765525,13.737875 124.765525,14.4416873 C124.765525,15.4703361 125.605058,16.2012181 127.270584,16.6343334 L133.16086,18.0825626 C136.857516,18.9893977 138.699074,21.0466952 138.699074,24.2409204 C138.699074,26.4064967 137.832459,28.1660275 136.099228,29.5195127 C134.365997,30.872998 132.077591,31.5362057 129.23401,31.5362057 C126.173774,31.5497406 123.722878,30.8053237 121.921943,29.3300248 Z" id="Shape"></path>
                <path d="M113.634934,26.7990074 L111.901703,26.7990074 C109.81641,26.7990074 108.773764,25.4996616 108.773764,22.8874351 L108.773764,12.370855 L114.230732,12.370855 L114.230732,8.14798105 L108.773764,8.14798105 L108.773764,3.39724791 L103.939675,3.39724791 L103.939675,8.14798105 L100.41905,8.14798105 L100.41905,12.370855 L103.939675,12.370855 L103.939675,22.8332957 C103.939675,28.2878412 106.593685,31.0218813 111.901703,31.0218813 L115.869177,31.0218813 C114.66404,29.9120235 113.905751,28.5043988 113.634934,26.7990074 Z" id="Shape"></path>
                <path d="M144.074797,8.14798105 L146.891297,8.14798105 L148.692232,10.6925333 C150.398381,8.63523573 152.673246,7.62012181 155.516828,7.62012181 C157.832315,7.62012181 159.768659,8.33746898 161.298777,9.77216332 C162.842435,11.2068577 163.614264,13.2912249 163.614264,16.0117302 L163.614264,23.1445973 C163.614264,25.9057072 162.842435,27.9900744 161.298777,29.4112339 C159.755118,30.8323934 157.778152,31.5497406 155.340796,31.5497406 C152.551378,31.5497406 150.411922,30.6293706 148.922427,28.7750959 L148.922427,38.0600045 L144.074797,38.0600045 L144.074797,8.14798105 Z M157.507335,25.9598466 C158.346868,25.1748252 158.766635,24.1191067 158.766635,22.7926912 L158.766635,16.3771712 C158.766635,15.0642905 158.360409,14.0085721 157.534416,13.2100158 C156.708424,12.4249944 155.7064,12.0189488 154.501263,12.0189488 C152.619083,12.0189488 150.763984,13.006993 148.908886,14.9695466 L148.908886,24.2003158 C150.750443,26.1628694 152.605542,27.1509136 154.447099,27.1509136 C155.652236,27.1509136 156.681342,26.7584029 157.507335,25.9598466 Z" id="Shape"></path>
                <path d="M169.80244,8.14798105 L172.226254,8.14798105 L174.067812,10.6925333 C175.882288,8.63523573 177.981122,7.62012181 180.364314,7.62012181 L181.24447,7.62012181 L181.24447,12.2355064 L180.580968,12.2355064 C178.035285,12.2355064 176.044778,13.0611324 174.636528,14.6988495 L174.636528,31.0218813 L169.80244,31.0218813 L169.80244,8.14798105 Z" id="Shape"></path>
                <path d="M186.796224,0.0135348522 L191.630313,0.0135348522 L191.630313,4.8454771 L186.796224,4.8454771 L186.796224,0.0135348522 Z M186.796224,8.14798105 L191.630313,8.14798105 L191.630313,31.0218813 L186.796224,31.0218813 L186.796224,8.14798105 Z" id="Shape"></path>
                <path d="M198.685103,8.14798105 L201.501603,8.14798105 L203.302538,10.6925333 C205.008687,8.63523573 207.25647,7.62012181 210.07297,7.62012181 C212.442621,7.62012181 214.365424,8.37807354 215.814297,9.90751184 C217.263169,11.4369501 217.994376,13.5619219 217.994376,16.2824273 L217.994376,31.0218813 L213.160287,31.0218813 L213.160287,16.7290774 C213.160287,15.1725694 212.767602,14.0085721 211.995773,13.2100158 C211.223944,12.4114595 210.208379,12.0189488 208.97616,12.0189488 C206.985653,12.0189488 205.157636,13.006993 203.519192,14.9695466 L203.519192,31.0218813 L198.685103,31.0218813 L198.685103,8.14798105 Z" id="Shape"></path>
                <path d="M227.45944,36.5711708 C225.726209,35.2176855 224.859594,33.3769456 224.859594,31.0354162 L229.693683,31.0354162 C229.693683,31.8610422 230.086368,32.5919242 230.858197,33.2280623 C231.630026,33.8777352 232.808082,34.1890368 234.35174,34.1890368 C237.425516,34.1890368 238.969175,32.7543424 238.969175,29.8849538 L238.969175,26.4471013 C237.47968,28.301376 235.326682,29.221746 232.550805,29.221746 C230.11345,29.221746 228.122942,28.5179337 226.592825,27.0832393 C225.049166,25.6620799 224.290878,23.5777126 224.290878,20.8166028 L224.290878,16.0252651 C224.290878,13.3047598 225.062707,11.2203925 226.592825,9.78569817 C228.136483,8.35100383 230.059286,7.63365667 232.374774,7.63365667 C235.218355,7.63365667 237.493221,8.66230544 239.19937,10.7060681 L241.000304,8.1615159 L243.816804,8.1615159 L243.816804,29.7631401 C243.816804,32.6595985 242.977271,34.8657794 241.284663,36.3546131 C239.592055,37.8434469 237.290108,38.6013986 234.35174,38.6013986 C231.494618,38.5878637 229.192671,37.9111211 227.45944,36.5711708 Z M238.996257,21.9670652 L238.996257,14.8883375 C237.33073,12.9799233 235.529795,12.0324836 233.634074,12.0324836 C232.32061,12.0324836 231.237341,12.4114595 230.397808,13.1694112 C229.558274,13.927363 229.138507,14.9695466 229.138507,16.2959621 L229.138507,20.5594406 C229.138507,21.8723212 229.558274,22.9145048 230.397808,23.6859914 C231.237341,24.4439432 232.30707,24.822919 233.634074,24.822919 C235.529795,24.822919 237.317189,23.8619445 238.996257,21.9670652 Z" id="Shape"></path>
            </g>
            <g id="Group" transform="translate(94.838710, 0.000000)">
                <path d="M34.0789142,63.4772316 L52.4032258,49.8354906 C54.2867821,48.4335725 55.2823761,46.1419757 55.0132966,43.809939 L52.3897718,21.0961706 C52.1206924,18.7641339 50.6273013,16.7556167 48.4746656,15.825498 L27.5268293,6.73999061 C25.3741935,5.80987191 22.8986625,6.09295151 21.0151062,7.49486956 L2.67734068,21.1231306 C0.793784422,22.5250486 -0.201809599,24.8166454 0.0672698662,27.1486822 L2.70424862,49.8759305 C2.97332809,52.2079673 4.46671912,54.2164845 6.61935484,55.1466032 L27.5671912,64.2321105 C29.7198269,65.1757092 32.195358,64.8791496 34.0789142,63.4772316 Z" id="Shape" fill="#A4DAF6"></path>
                <path d="M27.8900865,6.8882704 C25.4683714,12.5498625 28.0649882,19.1011334 33.702203,21.56797 C39.3528718,24.0213265 45.9184107,21.4331701 48.3804878,15.785058 L27.8900865,6.8882704 Z" id="Shape" fill="#0003FF"></path>
                <ellipse id="Oval" fill="#0003FF" cx="27.647915" cy="35.2366709" rx="5.5833989" ry="5.59419221"></ellipse>
                <path d="M48.3804878,15.785058 C48.3804878,15.785058 48.3804878,15.771578 48.3939418,15.771578 C50.8560189,10.1099859 48.259402,3.5182751 42.5952793,1.05143854 C36.9446105,-1.41539803 30.3656176,1.18623835 27.9035405,6.86131044 C27.9035405,6.87479042 27.8900865,6.8882704 27.8900865,6.90175039 L48.3804878,15.785058 Z" id="Shape" fill="#FF1A45"></path>
            </g>
        </g>
    </g>
</svg>