<?xml version="1.0" encoding="UTF-8"?>
<svg width="400px" height="120px" viewBox="0 0 400 120" version="1.1" xmlns="http://www.w3.org/2000/svg" xmlns:xlink="http://www.w3.org/1999/xlink">
    <!-- Generator: Sketch 50.2 (55047) - http://www.bohemiancoding.com/sketch -->
    <title>2.4:1</title>
    <desc>Created with Sketch.</desc>
    <defs></defs>
    <g id="Page-1" stroke="none" stroke-width="1" fill="none" fill-rule="evenodd">
        <g id="github" transform="translate(1.000000, 6.000000)" fill="#FFFFFE">
            <path d="M76.4419173,46.2242572 L43.0907935,46.2242572 C42.2302118,46.2242572 41.5327108,46.9272119 41.5327108,47.7931544 L41.5327108,64.2006037 C41.5327108,65.0665462 42.2302118,65.7717184 43.0907935,65.7717184 L56.1008942,65.7717184 L56.1008942,86.1562943 C56.1008942,86.1562943 53.1797646,87.1586145 45.1028579,87.1586145 C35.5747524,87.1586145 22.2638338,83.6549289 22.2638338,54.2029033 C22.2638338,24.7431164 36.1245991,20.8679958 49.1369037,20.8679958 C60.4015992,20.8679958 65.2532527,22.8626573 68.3418707,23.8250621 C69.3126422,24.1244277 70.2095865,23.152044 70.2095865,22.2849927 L73.9295916,6.43303287 C73.9295916,6.02611749 73.7929563,5.53937129 73.3345671,5.20785167 C72.080608,4.30753752 64.4301355,0 45.1028579,0 C22.8390241,0 0,9.53091185 0,55.35158 C0,101.172248 26.1480215,108 48.1826607,108 C66.4267733,108 77.4942292,100.155514 77.4942292,100.155514 C77.9504146,99.9016077 78,99.2596349 78,98.966922 L78,47.7931544 C78,46.9272119 77.302499,46.2242572 76.4419173,46.2242572" id="Fill-3"></path>
            <path d="M249,5.57722817 C249,4.70382283 248.312672,4 247.451308,4 L228.679754,4 C227.822796,4 227.125555,4.70382283 227.125555,5.57722817 C227.125555,5.58055332 227.131062,42.0806946 227.131062,42.0806946 L197.87004,42.0806946 L197.87004,5.57722817 C197.87004,4.70382283 197.180508,4 196.321348,4 L177.550895,4 C176.697242,4 176,4.70382283 176,5.57722817 L176,104.419447 C176,105.291744 176.697242,106 177.550895,106 L196.321348,106 C197.180508,106 197.87004,105.291744 197.87004,104.419447 L197.87004,62.1401995 L227.131062,62.1401995 C227.131062,62.1401995 227.079292,104.416122 227.079292,104.419447 C227.079292,105.291744 227.775432,106 228.634593,106 L247.450207,106 C248.310469,106 248.997797,105.291744 249,104.419447 L249,5.57722817" id="Fill-4"></path>
            <path d="M112,18.4949322 C112,11.584711 106.628202,6 99.999454,6 C93.377258,6 88,11.584711 88,18.4949322 C88,25.3995225 93.377258,31 99.999454,31 C106.628202,31 112,25.3995225 112,18.4949322" id="Fill-5"></path>
            <path d="M111,83.4590438 C111,80.9125153 111,37.5836398 111,37.5836398 C111,36.7121364 110.301535,36 109.439245,36 L90.6338113,36 C89.771522,36 89,36.8960214 89,37.7664103 C89,37.7664103 89,92.9697983 89,103.493592 C89,105.424941 90.1954717,106 91.7418365,106 C91.7418365,106 99.7692075,106 108.684327,106 C110.54395,106 111,105.080575 111,103.462387 C111,99.9395966 111,86.1381924 111,83.4590438" id="Fill-6"></path>
            <path d="M165.176996,36.9417509 L151.044018,36.9417509 C151.044018,36.9417509 151.023013,18.0760299 151.023013,18.0715604 C151.023013,17.3564419 150.658191,17 149.841211,17 L130.583038,17 C129.833495,17 129.432191,17.3329771 129.432191,18.0603867 L129.432191,37.5607754 C129.432191,37.5607754 119.780994,39.916197 119.127631,40.105033 C118.478691,40.2961038 118,40.9017198 118,41.6246599 L118,53.8788865 C118,54.7604936 118.696478,55.4711426 119.557679,55.4711426 L129.432191,55.4711426 C129.432191,55.4711426 129.432191,68.2874077 129.432191,84.9519044 C129.432191,106.849058 144.62868,109 154.882386,109 C159.568689,109 165.17368,107.478138 166.099001,107.133988 C166.658394,106.925039 166.983417,106.339536 166.983417,105.70375 L167,92.223766 C167,91.3455111 166.264829,90.6326273 165.437899,90.6326273 C164.613181,90.6326273 162.507163,90.9723086 160.338131,90.9723086 C153.395461,90.9723086 151.044018,87.7095803 151.044018,83.4870288 C151.044018,79.266712 151.042912,55.4711426 151.042912,55.4711426 L165.176996,55.4711426 C166.038197,55.4711426 166.735781,54.7604936 166.735781,53.8788865 L166.735781,38.5295375 C166.735781,37.6501652 166.038197,36.9417509 165.176996,36.9417509" id="Fill-9"></path>
            <path d="M321.431682,37 L302.714795,37 C301.857034,37 301.157544,37.7141971 301.157544,38.5924365 L301.157544,87.3866088 C301.157544,87.3866088 296.401677,90.8951023 289.652486,90.8951023 C282.904401,90.8951023 281.113619,87.8073156 281.113619,81.1451953 C281.113619,74.4730316 281.113619,38.5924365 281.113619,38.5924365 C281.113619,37.7141971 280.416342,37 279.556368,37 L260.559464,37 C259.70281,37 259,37.7141971 259,38.5924365 C259,38.5924365 259,64.5769374 259,84.3657781 C259,104.157967 269.93949,109 284.988482,109 C297.335806,109 307.290255,102.121389 307.290255,102.121389 C307.290255,102.121389 307.76396,105.747055 307.978677,106.175573 C308.192287,106.604092 308.751215,107.03819 309.355521,107.03819 L321.440536,106.983509 C322.29719,106.983509 323,106.269312 323,105.39442 L322.993359,38.5924365 C322.993359,37.7141971 322.294976,37 321.431682,37" id="Fill-7"></path>
            <path d="M365.374509,90.03344 C358.909086,89.8360418 354.523488,86.8828322 354.523488,86.8828322 L354.523488,55.5652804 C354.523488,55.5652804 358.849568,52.8970783 364.157696,52.4202175 C370.870009,51.8147153 377.337636,53.8552357 377.337636,69.9664747 C377.337636,86.9549158 374.419048,90.3073576 365.374509,90.03344 Z M372.72609,34.3128172 C362.139594,34.3128172 354.939012,39.0647899 354.939012,39.0647899 L354.939012,5.57807635 C354.939012,4.70420132 354.244635,4 353.389339,4 L334.551878,4 C333.695479,4 333,4.70420132 333,5.57807635 L333,104.473448 C333,105.346215 333.695479,106.054852 334.554082,106.054852 C334.556287,106.054852 347.619395,106.054852 347.623804,106.054852 C348.212371,106.054852 348.657654,105.749883 348.987208,105.216464 C349.312353,104.684154 349.780782,100.655236 349.780782,100.655236 C349.780782,100.655236 357.482858,108 372.063676,108 C389.182829,108 399,99.2634677 399,68.7798678 C399,38.2962679 383.320302,34.3128172 372.72609,34.3128172 Z" id="Fill-8"></path>
        </g>
    </g>
</svg>