<svg xmlns="http://www.w3.org/2000/svg" width="331" height="254" viewBox="0 0 331 254">
  <g fill="none">
    <path fill="#A61416" d="M185.8 21.2c.9 1 .2 1.6.2 1.6-.8 1-5.2 8.5-8 13.2 0 0 1 .3.9 1-.2 1.1-1.3 2-1.8 2.6-.7.5-3.5.6-3.5.6l-20.5.2c-1.2 0-1.8-.3-2-.4-.2-.2-1.2-2.8 4-3.4 5.6-.7 16.7-1.3 17.1-1.9.7-.8 4-4.6 7.3-11.2.5-.8-.2-1.2-.3-1.2-5-4.4-9.5-8.5-17.3-15-.9-.7-1.4.2-1.4.2l-16.1 13.2s-.7.4 3 6.2c1.6 2.4 2.7 4 3.2 7.5.4 3.2-1.7.8-2.2.3-.5-.5-6.6-7.1-8.6-10.3-2-3.1-1.6-4.6-.8-5.4.8-.7 16.2-14.6 21-17.8 2.2-1.5 1.7-2.6 8.8 4.8 3.8 3.9 13 10.4 17 15.2zm3.4 137c.6-2 8.2-13.5 8.2-13.5 31.1-42.4 29-38.3 32.4-44.8 1.3-2.5-.4-6.4 5.3-4.9l34.8 9.4s7.7 1.2-.7 8.3c-11.3 9.5-21.7 17-42 29.1 0 0-19 12.2-11.4 4.6 5.1-5 47.1-36.2 47.7-36.5 1.6-1.2-24.8-6.5-26.2-5.7-5.8 3.5-22.4 26.6-29 35.5-9.9 13.4-20 21.6-19 18.5zm-51.9 2.3c-1.9-1-9-6.3-9-6.3s-41.6-29.5-59-42.2c-1-.8-3.8-1-4.7-1.6-2-1-2.4-2.4-2.5-3.4-.2-4.4 4.1-3.3 20-6.3a1944 1944 0 0 0 26.2-5.4s19.5 28.8 20.6 31c.4.9 3.8 5.6 4.7 11.4.6 3.9 1 6.2-3.1.4a545.5 545.5 0 0 0-26-35c-1.8-1.9-26.8 4.8-30.7 5.2-2.5.3 36.4 23.7 57 42.7 6.6 6 8.8 10.6 6.4 9.4zM77.3 86l17.9-17.8 3.2 18.6s-8.3 2.5-14.5 3.9c-3.3.7-9.8 5.9-7.2 6.1 2.6.3 24.8-5 26.4-5.4 2.7-.5 2.3-4.2 1.7-6.2-.6-1.9-5-26.5-7-25.7-2 .9-28.4 27-28.4 27-2.7 2.7-6.5 6.8-3.8 6.8 5.6 0 11.7-7.4 11.7-7.4zm87.5 72.2c10.7-22.4 43.9-62 45.3-64.9 1.2-2.4-84.3.7-84.3.7s32.6 44.5 42.7 61.4a6 6 0 0 0 2.7 5.3c-.2 4.3-3.4 6.9-8.3-.7a862.3 862.3 0 0 0-12.6-18.5l-30-43.3s-1.4-3.3-2.1-3.4a7.7 7.7 0 0 1-5.3-3.5c-.5-.9-2.2-3.5 2.7-3.7 0 0-1.2-2.3.2-2.7 4.8-1.3 8.4 2.2 8.4 2.2l93.1-1c4.8 0 3.3 3 1.5 7.7-1.8 4.6-54 72.9-54 72.9s-3 3-5.2 3.6c-3 1 .4-6 6.1-15.3M152.6 50.3c-1.3-.2-4.6 2.8-4.6 2.8l-10.8 9.6c-7.6 6.9-10.8 9.6-10.8 9.6s-7.5 6.4-3.3 6.8c3.2.3 7 0 7 0h.6l74.6-1s3 .5 4.8-.8c.7-.5 1.2-1.6 1-2.4-.2-1.1-3.3-1.6-3.3-1.6-12-6.7-16-8.8-25.6-14.4-15-8.6-22.4-12.6-22.4-12.6s-1.9-1-3.4-1c-.5 0-.7 2.3 6.1 7.8 1.7 1.4 10.7 6.8 10.7 6.8s25.8 13.8 23.6 13.8c-2.3 0-66.4 1.5-64.9.3l14.7-13s4.5-4.5 5.6-6.7c1.5-3.1 1-3.9.4-4zm46.6 8.5c.4 1 2.8 3.3 3.9 4.4 5 5.6 20 13.3 22.7 14 1.6.5.8-.7 6.3-10.4 3-5.3 3.6-8.7 5.7-9.8 1.2-.7 2.8-1.6 1.3-3.6-.3-.4-2.4-1.6-4.7-2-2-.3-6.1-.5-7.8-.6-13.4-.7-31.5-2.7-33.8-2.3-3.1.7-.7 1.8-.7 1.8s1.3 1 5.5 1.8c20.2 4 34.5 2.9 33.8 4.5a89 89 0 0 1-7.1 14c-2 0-19-10.9-19-10.9s-4.6-3-5.9-3.3c-1-.2-.2 2.4-.2 2.4zm49.6 2.7c-.7.3-3.1 1-2.5 2.8.2.4-8 13.6-8 13.6l-4.1 7s-2.4 4.4 2.3 4.5c8.4.1 25 1.7 29.7 1 2.3-.4.5-4-6-4.8-6.5-.7-18.4-1.5-18.4-1.3l6.9-11.5s1.4-2.5 2-1.7c2.4 3.4 7 9.7 10.6 11.6 1.4.7 3.8-.9.3-5a119 119 0 0 1-10.4-15c-.2-.4-1.5-1.6-2.4-1.2zm-231.5 34s-7.3 9.6-8 11.5c0 0 4.3 14.3 6.2 20 2 5.8 4.6 9.5 4.6 4s-4.5-21.1-4.5-21.1c-.4-.8 0-3.2 5-8.4 0 0 1.2-1.6 3.3-1.6 2 0 4.3.4 4.3.4s5.4 5.3 5.3 9.3c-.2 4-7.8 23.2-7.7 28.9a33 33 0 0 0 1 9c.7 1.2 1.7-1.1 1.7-1.1s11.3-35.4 11-37.8a85 85 0 0 0-5.6-14c-.5-.9-1.5-.8-1.5-.8l-13.5.7s-1 0-1.6 1zm304.9 8.8c.3-3.8-8.7-13.8-10.8-16.3-.3-.5-1.4-.6-1.4-.6l-10-.2h-.6c.3 0-1 0-1.7 1.3-2.2 3.8-6.3 14-6.6 16.3-.3 2.8 3.1 24.4 3.1 24.4s3 14.4 3.7-2.2c.3-4.8-1.1-15-1.5-19.6-.4-4.6 5-13.6 5-13.6s.8-1.7 3.4-2l4.8.4s7.5 7.6 6.8 12.3c0 0-7.7 24.7-7.4 31 .3 6.2.6 9.1 7.2-12.6 2-6.8 6-18.6 6-18.6zM130.6 55.6S115.5 73 113.5 73.4c-2 .4-7.1-16-7.1-16-1.7-4 0-3.4 1.8-2.6 1 .4 2.3 2.7 2.3 2.7l4.1 7.4L126 53.8l-6.6.4a11 11 0 0 1-6-1.4c-2.6-1.6.3-2.5 4.8-2.9 2-.2 5.4.2 9.8-.3 0 0 4.2-.4 5-.3 3.4.3.2 3.8-2.3 6.3zm155.9 4.7c-1.4 1.7-.4 3.3-.4 3.3 2.3 3.7 5.7 8.2 6.8 11l.8 2.2c.5 1.2 3.1 1.6 4.5 2a84 84 0 0 0 8.4 1.6s3.4.7 6.9-.6c1.3-.5.7-2.6.6-2.7-1.5-2.1-5-2.3-7.9-2.7-5.9-1-7.5-2.5-7.5-2.5-.8-.8-2.2-3-5.1-8.5-.6-1.2.2-1.7.3-1.8 4.9-4.7 8.8-8 14-13 1.3-1.3 3.8.4 3.8.4l6.1 6.2c2.5 2.9 5.1 4.6 4.2 6.1l-3 5.4c-1.7 2.8.2 5.7 2.4 3 .5-.8 2.6-2.6 5.2-5.7 2.7-3.4 3-4.5-.1-8-.8-1-8.4-8.5-14.2-13.1-2.3-1.8-3.3-5.2-10.1 1.8-3.4 3.5-10.4 9.6-15.7 15.6zM48.3 62.2c1.2 1.6.7 2.3.7 2.3a93.2 93.2 0 0 1-8.8 17.1c-1.3 1.3-6 3.1-11.4 3-.8 0-5 .1-7.3-2.6-.3-.3-1.3-2 4.8-2.7 6.6-.7 10.2-1.2 10.7-1.9.8-1 2-3.9 5.1-11.5.7-1.6-2.1-4.3-2.2-4.4-6.2-6.3-6.4-6.3-12.9-11.5-1-.8-2.5.5-2.5.5L7.9 65l-.4.4c-.7.7.6 2.6 3 5.6 3.7 4.8 5.8 6.8 5.7 9.1-.1 3.7-2.2 3.1-2.7 2.6-.7-.7-8.7-11-11-14.2-2.6-3.4-1.3-4.9-.3-5.8 1-1 13.1-12.4 19.3-17 4.5-3.3 4.3-5.3 12.5 1.7 4.5 3.7 10 9 14.3 14.7z"/>
    <path fill="#FFF" d="M285.7 228.7l3.7-.5.2-.2c.2-3.6-1.2-44.6-.9-46.1.9-3.7 3.3-5.7 3.3-5.7l.6-7.9-14 3.4.8 7.8s2.3 0 2.6 4.8c.2 1.5.3 11.5.5 21.3l-12.2-32-14.4 2.9.7 8.6s2.8-.4 3.4 1.7a497.6 497.6 0 0 1 1 35 7.2 7.2 0 0 1-3.2 4.7l.1 6.8 12.6-1.7-.2-7.4s-1.3-.3-2-1.9l-.5-2v-.3l-.6-25c12 29.2 12 30.7 13.5 34.7l5-1zm-76-13.4v-.1s-.5 10.2-.7 11.3a5.3 5.3 0 0 1-3.6 3.9l-.5 8.8h.1l16.6-1.4v-9.5s-4 0-4.1-4.4c-.1-2.3-.3-33.5 1-33.7 3.4-.6 2.8 4 2.8 4l5.7-1 .5-12.1s-11.5 1.6-26.8 3l.1 11.3 5.9-.2s-.2-4.3 3.2-4.4c0 0 .1 13.3-.1 24.5zM77 217l-.1 2.4a46 46 0 0 1-.6 4.6c-.5.9-1.5 1.5-2.6 1.4l-.4 8.9 12.9 1.7v-7.8s-1.8-.4-2.2-3.2l.3-15.3.1.2 6.1 14.3c1 2.1.6 3.9-1 4.1l-.1 8 12.3 1.5-.4-9.1-1.7-1.7c-.7-.8-5.2-13.4-7.4-19.2l-.5-2.5c12-6 8-21.1 1.2-24.6-3.4-1.7-15.1-3-20.5-4.3l.8 8.6.1.4s2.8 1.1 3.2 3.4c.5 3.4.5 8.5.5 11.3 0 6.3.3 11.7 0 16.9zm-33 1c-.2 1.3-.8 2.7-2.4 3l-.2 8.2 10.8 1.6s22.1 6.6 20.7-18c-.8-14.2-8.6-17.6-8.6-17.6s7.2-6 1.8-15.5c-4.3-7.5-26.3-10.6-26.3-10.6l.8 8.4s2.8 0 3.1 3l.4 37.6zm127-42.3c37.4-1.8 76.1-9.5 76.1-9.5 69.6-14.3 83.2-6 82.5-5.4-27 22.3-29.9 39.4-29.9 39.4 16.6 13 30.6 40.5 30.6 40.5-18.4-1-88 5.6-112 8.9-8.8 1.2-18.2 2.2-27.5 2.8h-4.4c-25.6 2.3-43.6.2-43.6.2-9.3-.6-24-1.8-32.8-3-24-3.3-82.1-11.6-105.8-9.2 0 0 13.2-26.6 29.7-39.6 0 0-6.7-20-33.7-42.2-.7-.6 3.1-11.6 81 7.6 0 0 49 9.8 89.9 9.5zM56.3 198.4c2.8 2.7 6 6.1 5.4 16.8-.2 4.5-2.2 6.4-5.9 7.5-5.1 1.6-4.5-4.1-4.5-4.1l.4-18.3c2.4-.7 4.6-2 4.6-2zm-5-5.1l.3-13.4s4.3-.5 5.3 4.8c1.3 6.8-5.6 8.6-5.6 8.6zm33.7 8.2l-.9-13.8s4.3-.4 5.8 5c1.8 7-5 8.8-5 8.8zm21 28.2l.2 9.4 14.8 1-.1-8.8a4 4 0 0 1-3.7-3.6l-.5-31.4c0-4.5 3-5 3-5l.5-7.4-16.4-1.8.4 9.3c4 0 4 5.9 4 5.9l.4 26.2s.4 6.6-2.5 6.2zm47.5-44.5s-5.8-.9-7.4-.4c-.7.2-.2 2.9-1.2 2.2-4.7-3.5-13.4-4-17.7 2.4-6.8 10.2-7 35-1.4 45.3 4 7.3 10.8 6.9 17.7 1.9.7-.5 2.4 1.2 2.3 3.4l8 .4V212l-12-.6.2 5.6s1.1.2 1.8 2c.8 2.4.3 8.6-3 9.4-2.6.6-8.3.6-8.7-9.4-.4-10 .6-25 8-24.7 5.8.2 6.9 7.5 6.9 7.5l6 .7.5-17.3zm42 45c-3.8-1.2-3.2-5.6-3.2-5.6s-1.2-26-.1-28.4c1-2.3 4.1-2.5 4.1-2.5l.4-9.7-16.6 1.2v7.8c5.4.8 4 12 4 12l-12.6.5s0-5.6-.3-7.8c-.2-2.3 3.4-5 3.4-5l.3-7.3h-16.3l.3 7.5s3.2 1.1 3.9 4.5c.3 1.4.4 26.6.5 30 0 3.4-3.4 3.9-3.4 3.9l-.2 9.3 14.5.3.2-10.2s-2-.7-2.8-2.8c-.7-1.6-.5-16-.5-16l13 .3c.6 9 .4 12.6.3 13.5-.5 5-3.4 4.7-3.4 4.7v10l14.6-.8-.1-9.4zm40.7-49.6c-12 5.3-11 53.3 1.7 55 18.9 2.4 20.9-18 18-41.3-3-23.3-19.7-13.7-19.7-13.7zm.7 16.1s1.6-7.5 4.9-8.1c2-.4 4.9.7 5.6 6.9 1 7.7 2.6 33.4-7.1 28.7-6-3-4.9-20.7-3.4-27.5z"/>
  </g>
</svg>
