<svg viewBox="0 0 1420 200" xmlns="http://www.w3.org/2000/svg">
  <path d="M724.3 198c-2.3 0-4.7-.9-6.7-2.8-25.3-24.2-50.7-47.5-73.6-74a8.5 8.5 0 0 1-1.5-9.6c.2-.6.5-1.3 1-2 10-16.5 20-34 32.6-48.6.6-.8 1.3-1.4 2-1.9 1.2-1 2.9-1.8 5-2 31.7-3.2 65.5-7.6 96.7 1.6a8 8 0 0 1 5.6 4.8c.5 1 1 2 1.2 3.2 3.5 15.8 11.5 30 17.2 45 2.2 2.8 2.6 6.5-.5 10-22 24.8-47.6 46.3-69 71.6a9.7 9.7 0 0 1-4.5 3.1 11 11 0 0 1-5.5 1.6Zm175.5-1.8c-3.4-.2-5.3-1.8-6.1-5.3-6.2-30.3-14.2-60.3-22.8-90.6-.5-2.2-3.7-1.6-3.7.8-.3 33.2 0 66.7.2 88.7 0 3.8-1.9 5.6-5.9 6-7.8.2-18.2.2-26.5 0-3.8 0-5.6-2.2-5.6-6 .5-44.5.5-136.1 0-176.3 0-3.8 2.1-5.7 5.9-6 9-.2 18 0 26.2 0l6 .6v.3c8.2 27.3 17 54.9 24.8 82.2.8 3 3.5 2.5 3.5-.5.3-30 0-58.4-.2-76.6 0-3.8 1.8-5.7 5.9-6 7.7-.2 17.4-.2 25.2 0 3.7 0 5.6 2.2 5.6 6-.6 40.2-.6 131.8 0 176.3 0 3.8-2.7 5.6-8 6-9.4.2-17.7.4-24.5.4Zm-313.5-1c-4 0-6.2-1.9-6.2-5.7.5-31 .8-95.1.5-141.5 0-2.1-1.3-3.2-3.5-3-5.3.9-14.2 1.4-22.7.3-3.8-.2-5.4-2.6-5.4-6.4.5-8 .5-16.3.3-24.6-.3-4 1.8-6 5.9-5.4 42 4.6 211.4-10 255.7-2.2 3.4.6 4.8 3 4.8 6.5-.5 8-.5 15.5-.3 23.6.3 4-1.9 5.9-5.9 5.6-29.2-3-131.3-3.8-184.1.5-1.9.3-3 1.4-3 3.5l-.2 10.7c-.6 21-.3 93.6.5 132.2 0 4-2.1 5.9-6.2 5.9-9.9-.6-20.3-.6-30.2 0Zm138-21.2c2.2-19.7 10.7-38.5 16.1-57.7l-40.2-1.5c4 14.7 10.2 28.9 16.5 42.7l7.6 16.5Zm7.8-6.1c16.1-17.1 33.5-33 49.5-50.1a2100 2100 0 0 1-34-1.2c-4.6 17-12.3 33.9-15.5 51.3Zm-20.4-4.2-3.1-7c-6-13.7-11.9-27.6-15.8-42.1a938 938 0 0 0-29.8-.3c15.5 17.4 32 33.4 48.7 49.4Zm71.5-53c-4-9.4-8.4-18.8-11.6-28.5-7.2 9-13.8 18.4-20.8 27.5 10.8.4 21.6.8 32.4 1Zm-42.2-1.4c-2-11.9-8.8-21.9-14.8-32.1l3-3.2-5.4-1.2a161 161 0 0 0 2.4 4.4c-8.7 9.6-15 21.2-24 30.6 13 .4 25.9 1 38.8 1.5Zm-41.3-1.6c-.3-2-.6-4.1-1.1-6.2 8.3-9.1 14.4-20 22.6-29.2-11 .7-21.8 2-32.4 3 3.5 8.4 7.7 17.3 9.8 26.2-1.5 1.6-3 3.1-4.7 4.6l4.6 1.6h1.2Zm-7.2-.1c-1.2-8.7-5.2-17.7-8.8-26.1a383 383 0 0 0-17 25.8c8.7 0 17.3 0 25.8.3Zm54.4-4.4c7-9.4 14-19 21.4-28.2a143 143 0 0 0-37-3.2c5.7 10.3 12.5 20 15.6 31.4ZM467.5 7.6c-9.6-.3-18.2-.3-27.9 0-4 .2-6.1 2.1-6.1 5.9.8 35.9.8 141.7 0 176.3 0 3.8 2.1 5.6 5.9 6 9.9.2 18.5.2 28.1 0 3.8-.4 6-2.2 6-6-.4-15.5-.6-44.7-.6-76.1 0-2.2 1-3.2 3.2-3.2a207 207 0 0 1 19.3 0c2.1 0 3.2 1 3.2 3.2 0 31.4-.3 60.8-.5 76.1 0 3.8 2.1 5.6 5.9 6 9.6.2 18.5.2 28.1 0 3.8-.4 6-2.5 5.6-6.3a7727 7727 0 0 1 .3-176c0-3.8-2.1-5.7-5.9-6a658 658 0 0 0-28.1 0c-3.8.3-6 2.2-6 6 .3 14.4.6 39.6.6 67.2 0 2.2-1 3.2-3.2 3.2-6.4 0-12.9 0-19.3-.2-2.2 0-3.2-1.1-3.2-3.2 0-27.1.2-52.6.5-67 0-3.8-2.1-5.7-5.9-6Zm-50.1 58.7C413 22 388.4 2.7 364.6 2.7c-30.3 0-57.1 23.9-57.1 102.4 0 70 26.5 94.9 55.8 94.9 30.5 0 56-17.7 55.4-102.1 0-4.3-2.1-6.5-5.9-6.2-14.7.3-29 .3-43.4 0-3.7-.3-5.9 1.9-6.1 5.6-.3 6.7-.3 12.1 0 18.5.2 4 2.4 6 6.1 6h10.7c2 0 3.3 1 3.3 3.2 0 18.7-4 37.2-17.5 37.2-12.8 0-20.6-17.7-20.6-57 0-44.8 6.7-63.3 20.1-63.3 8.8 0 13.7 11.2 15 24.9.3 3.7 2.1 5.6 5.9 5.9 8.6.3 17.2.3 25.7 0 3.8-.3 6-2.4 5.4-6.4ZM140.5 195.7c10.2.3 19.3.3 29.5 0 3.8-.3 5.9-2.4 5.9-6.2-.3-11-.3-31.3-.5-53.8 0-2.2 1-3.2 3.2-3.2h2.1c2.2 0 3.2.8 3.5 2.9 5.1 43.2 33.2 58.7 61.7 60.6 18.4 1 36.1.2 44.7-.3 3.8 0 5.6-2.1 6-5.9.2-8 .7-15 .2-22.8-.3-3.7-2.4-5.9-6-5.9-9.6.3-18.1 2.4-41-1.6-20.6-3.7-27.8-22.5-30.2-35.9-.3-1.9.5-3.2 1.9-4.3a58.6 58.6 0 0 0 22.5-49c0-43.4-23.3-63.3-76-62.5-9.4.3-18.5 0-27.6 0-3.7 0-5.9 2.2-5.6 6 .8 36.4.8 145 0 175.7-.3 3.8 1.9 6 5.6 6.2Zm34.9-103.2.2-49c0-1.1 1.1-1.6 3.2-1.6 18 0 28 7.5 28 28.1 0 22.3-14.3 25.2-28.2 25.7-2.2 0-3.2-1-3.2-3.2Zm86.3 56.8c9 .3 18 .3 27 0 3.8-.2 6-2.1 6-6.1-.9-33.3-.9-99.2-.3-129.7.2-3.8-2-5.7-5.7-6-9-.2-18-.2-27 0-3.8.3-6 2.5-5.7 6.2.6 30.3.6 96.2-.2 129.5 0 3.7 2.1 5.9 5.9 6.1ZM13.5 195.4c9.4-.2 18.5-.2 27.8-.2l3.8.2h2.1c43.5-.8 74-13.4 74-53 0-21-8.3-36-18.5-42.1-1.9-1-2.1-2.4-.5-4a54 54 0 0 0 13.1-34.9c0-36.7-22.8-51.2-71.5-52.5L13.5 8c-3.8 0-6.2 1.9-6 5.6.9 36.5 1.1 144 0 175.8-.2 3.8 2 6 6 6ZM49.7 113c18.2-.3 31.3 7.5 31.3 23.8 0 26-18 25.8-31 25.5-2.2 0-3.3-1-3.6-3.2-.2-10.5-.2-31.6 0-42.9 0-2.1 1.1-3.2 3.3-3.2Zm-3-30c-.3-14-.3-31.1.3-39.4 0-1.1 1-1.6 3.2-1.6 15.5-.6 26.3 1.8 26.3 19.8 0 23-11.3 26.3-26.8 24.4-2 0-3-1.4-3-3.2Z"/>
  <path d="M1411 71.9c0-3.5 0-25.5-.6-47.5 0-11-2.4-16.6-6.1-16.6-8.3.3-17.2.3-25.5 0-3.7 0-5.9 2.2-5.9 6 .6 5.3 1.1 3.1.6 27.3 0 30.8 5 55.7-13.7 55.7-15.8 0-14.2-25.2-14.2-55 0-26 0-19.2.5-27.5.6-4.3-1.6-6.5-5.6-6.5-9.1.3-18.8.3-27.3 0-4 0-6 2.4-6 6.5.9 11.7-.2.5 0 27.6.9 60 6.5 93 51 93 2.4 0 4-.6 5.6-1.4 2.4-1 4.3 0 3.8 2.7-4.3 28.4-28 28.7-51.5 18.5-4-1.9-7-.3-7.2 4.3-.6 9.6-.3 16 .2 26.5.3 3.5 2 5.7 5.1 6.5 63.3 18.2 96.8-14.5 96.8-120.1Zm-225.2 123.5c9.4-.2 18.5-.2 28-.2l3.7.2h2.1c43.4-.8 74-13.4 74-53 0-21-8.3-36-18.5-42.1-1.9-1-2.2-2.4-.5-4a54 54 0 0 0 13-34.9c0-36.7-22.7-51.2-71.5-52.5l-30.3-.8c-3.7 0-6.1 1.9-5.9 5.6.8 36.5 1.1 144 0 175.8-.2 3.8 2 6 6 6ZM1222 113c18.2-.3 31.4 7.5 31.4 23.8 0 26-18 25.8-31.1 25.5-2.2 0-3.2-1-3.5-3.2-.3-10.5-.3-31.6 0-42.9 0-2.1 1-3.2 3.2-3.2Zm-3-30c-.2-14-.2-31.1.3-39.4 0-1.1 1.1-1.6 3.3-1.6 15.5-.6 26.2 1.8 26.2 19.8 0 23-11.2 26.3-26.8 24.4-1.9 0-3-1.4-3-3.2ZM954.4 195.7c10.1.3 19.3.3 29.4 0 3.8-.3 6-2.4 6-6.2-.3-11-.3-31.3-.6-53.8 0-2.2 1-3.2 3.2-3.2h2.2c2.1 0 3.2.8 3.4 2.9 5.1 43.2 33.3 58.7 61.7 60.6 21.7 1.3 81 0 99.7-.3 3.8-.3 5.6-2.1 5.9-5.9.3-8.3.8-15.8.3-23.8-.3-3.8-2.7-6-6.5-5.7-29.7 2-70.2 3.8-95.4-.8-20.6-3.7-27.9-22.5-30.3-35.9-.2-1.9.6-3.2 2-4.3a58.6 58.6 0 0 0 22.4-49c0-43.4-23.3-63.3-75.8-62.5-9.4.3-18.5 0-27.6 0-3.8 0-6 2.2-5.7 6 .8 36.4.8 145 0 175.7-.2 3.8 2 6 5.7 6.2ZM989 92.5c0-20.4.3-38.6.3-49 0-1.1 1-1.6 3.2-1.6 18 0 27.9 7.5 27.9 28.1 0 22.3-14.2 25.2-28.2 25.7-2.1 0-3.2-1-3.2-3.2Zm80.7-78.8c.5 17.2-.3 42.1 0 62.5.5 50.6 8.3 76.6 49.6 76.6 28.6 0 47.4-18 46.9-64.3a3729 3729 0 0 1-1.4-74.8c0-3.7-2.1-5.9-5.9-5.6-7.2 0-16.6 0-24-.3-3.8 0-6 2.2-5.7 6 .3 16.8-.6 41.5-1 61.6 0 23 0 41.5-9.2 41.5-11.8 0-11.8-18.5-11.8-40.7 0-20.4-.5-45.3-.3-62.5.3-3.7-1.8-5.9-5.9-5.6-7.7 0-18 0-25.4-.3-4 0-6 2.2-6 6Z" fill="#9a111e"/>
</svg>