<svg viewBox="0 0 1420 200" xmlns="http://www.w3.org/2000/svg">
    <g id="brighton" fill="#000000" stroke="none">
        <path d="M 724.285156 197.951172 C 721.99176 197.934174 719.643738 197.108398 717.613281 195.164063 C 692.328979 170.952911 666.924011 147.715622 643.974609 121.128906 C 641.262634 117.986702 641.153015 114.503578 642.498047 111.642578 C 642.729797 110.980301 643.041138 110.31604 643.443359 109.652344 C 653.464478 93.115929 663.442444 75.658356 676.087891 60.960938 C 676.725647 60.219788 677.414551 59.611572 678.136719 59.121094 C 679.340637 58.050797 680.976685 57.308228 683.083984 57.09375 C 714.844666 53.85965 748.644043 49.523041 779.804688 58.695313 C 782.773926 59.56958 784.555786 61.369278 785.373047 63.507813 C 785.940247 64.416962 786.379028 65.478058 786.644531 66.703125 C 790.0625 82.473839 798.101379 96.725571 803.837891 111.703125 C 805.979797 114.465141 806.394531 118.220253 803.275391 121.732422 C 781.260986 146.517487 755.745178 167.955078 734.382813 193.322266 C 733.026306 194.933105 731.432617 195.931564 729.769531 196.4375 C 728.132935 197.397171 726.228882 197.965576 724.285156 197.951172 Z M 899.849609 196.248047 C 896.365173 195.979996 894.489685 194.371094 893.685547 190.886719 C 887.520874 160.599213 879.479309 130.580475 870.902344 100.292969 C 870.366333 98.14872 867.150391 98.683411 867.150391 101.095703 C 866.882385 134.331573 867.149902 167.835938 867.417969 189.814453 C 867.417969 193.566879 865.541992 195.442932 861.521484 195.710938 C 853.748596 195.978989 843.295288 195.978989 834.986328 195.710938 C 831.233826 195.710938 829.357422 193.566879 829.357422 189.814453 C 829.893494 145.321304 829.893494 53.655823 829.357422 13.451172 C 829.357422 9.698776 831.501404 7.820831 835.253906 7.552734 C 844.366943 7.284729 853.212524 7.552734 861.521484 7.552734 L 867.417969 8.089844 L 867.417969 8.357422 C 875.726929 35.696609 884.572754 63.303421 892.345703 90.642578 C 893.149719 93.590935 895.830078 93.05574 895.830078 90.107422 C 896.098083 60.087967 895.830505 31.677292 895.5625 13.451172 C 895.5625 9.698776 897.438538 7.820831 901.458984 7.552734 C 909.231934 7.284729 918.879456 7.284729 926.652344 7.552734 C 930.404846 7.552734 932.28125 9.698776 932.28125 13.451172 C 931.745117 53.655823 931.745117 145.321304 932.28125 189.814453 C 932.28125 193.566879 929.60083 195.442932 924.240234 195.710938 C 914.859131 195.978989 906.550415 196.248047 899.849609 196.248047 Z M 586.253906 195.175781 C 582.233459 195.175781 580.087891 193.299347 580.087891 189.546875 C 580.623962 158.455322 580.893005 94.394768 580.625 48.025391 C 580.625 45.881134 579.284851 44.810074 577.140625 45.078125 C 571.779968 45.882187 562.934448 46.417831 554.357422 45.345703 C 550.605042 45.077698 548.998047 42.666489 548.998047 38.914063 C 549.534119 30.873154 549.53363 22.562866 549.265625 14.253906 C 548.997559 10.233429 551.141602 8.358429 555.162109 8.894531 C 597.24292 13.451035 766.638123 -1.022934 810.863281 6.75 C 814.347717 7.286026 815.6875 9.697266 815.6875 13.181641 C 815.151489 21.222595 815.151917 28.728622 815.419922 36.769531 C 815.687927 40.789963 813.543945 42.666443 809.523438 42.398438 C 780.308105 39.450073 678.188843 38.645065 625.386719 42.933594 C 623.510559 43.201614 622.4375 44.273712 622.4375 46.417969 C 622.4375 49.90239 622.169922 52.850174 622.169922 57.138672 C 621.63385 78.04509 621.90094 150.682816 622.705078 189.279297 C 622.705078 193.299774 620.561523 195.175781 616.541016 195.175781 C 606.62384 194.639679 596.171082 194.639679 586.253906 195.175781 Z M 724.265625 174.009766 C 726.504089 154.261993 735.023071 135.487854 740.433594 116.306641 C 727.013794 115.749214 713.593628 115.179604 700.171875 114.791016 C 704.263184 129.487885 710.413208 143.693802 716.695313 157.548828 C 719.171875 163.012283 721.620667 168.565521 724.265625 174.009766 Z M 732.097656 167.871094 C 748.203918 150.775391 765.613281 134.951233 781.638672 117.771484 C 770.302185 117.493507 758.966125 117.063408 747.630859 116.601563 C 742.995605 133.574707 735.273376 150.474182 732.097656 167.871094 Z M 711.65625 163.658203 C 710.626892 161.335831 709.609009 159.014481 708.59375 156.708984 C 702.565063 143.016693 696.721191 129.079193 692.837891 114.599609 C 682.903015 114.365608 672.967468 114.248306 663.029297 114.330078 C 678.483887 131.698792 694.944214 147.719666 711.65625 163.658203 Z M 783.195313 110.771484 C 779.179565 101.285072 774.841064 91.927307 771.550781 82.189453 C 764.403137 91.178375 757.755127 100.553017 750.783203 109.681641 C 761.58667 110.116989 772.390503 110.514099 783.195313 110.771484 Z M 740.986328 109.279297 C 738.995239 97.398499 732.192322 87.431526 726.232422 77.154297 C 727.209412 76.074013 728.215454 75.017662 729.261719 73.990234 C 727.438965 73.598351 725.615662 73.206291 723.792969 72.814453 C 724.578857 74.271713 725.397949 75.71534 726.232422 77.154297 C 717.495972 86.814674 711.235352 98.362808 702.230469 107.808594 C 715.14978 108.194939 728.068848 108.742081 740.986328 109.279297 Z M 699.652344 107.734375 C 699.432739 105.662247 699.054688 103.573524 698.558594 101.476563 C 706.914856 92.397835 713.002441 81.510246 721.222656 72.275391 C 710.264771 72.986366 699.357239 74.260979 688.808594 75.361328 C 692.273376 83.693459 696.470459 92.649384 698.558594 101.476563 C 697.09552 103.06617 695.563721 104.60067 693.9375 106.060547 C 695.452576 106.607498 696.968445 107.154152 698.484375 107.701172 C 698.873901 107.711823 699.262878 107.723396 699.652344 107.734375 Z M 692.529297 107.552734 C 691.304932 98.883766 687.345703 89.916481 683.75 81.486328 C 677.651001 89.721169 672.1297 98.49855 666.789063 107.289063 C 675.370239 107.252869 683.950439 107.357246 692.529297 107.552734 Z M 746.867188 103.179688 C 753.975403 93.76326 760.818787 84.146378 768.292969 75.015625 C 756.325806 72.162346 743.830505 71.465347 731.275391 71.804688 C 737.008179 82.070877 743.786438 91.851532 746.867188 103.179688 Z M 467.515656 7.553513 C 457.866486 7.285507 449.28952 7.285507 439.64035 7.553513 C 435.619934 7.821609 433.475677 9.697845 433.475677 13.450241 C 434.279755 49.36644 434.279755 155.2388 433.475677 189.814835 C 433.475677 193.567261 435.619934 195.443497 439.372345 195.711502 C 449.28952 195.979553 457.866486 195.979553 467.515656 195.711502 C 471.268066 195.443497 473.412323 193.567261 473.412323 189.814835 C 473.144287 174.269043 472.876251 145.053619 472.876251 113.693962 C 472.876251 111.549713 473.948395 110.477592 476.092621 110.477592 C 482.52536 110.209541 488.95816 110.209541 495.3909 110.477592 C 497.535126 110.477592 498.607269 111.549713 498.607269 113.693962 C 498.607269 145.053619 498.339203 174.537048 498.071198 189.814835 C 498.071198 193.567261 500.215454 195.443497 503.967865 195.711502 C 513.617004 195.979553 522.462036 195.979553 532.111145 195.711502 C 535.863586 195.443497 538.007874 193.299255 537.739868 189.546783 C 537.203796 155.2388 537.203796 49.36644 538.007874 13.450241 C 538.007874 9.697845 535.863586 7.821609 532.111145 7.553513 C 522.194031 7.285507 513.617004 7.285507 503.967865 7.553513 C 500.215454 7.821609 498.071198 9.697845 498.071198 13.450241 C 498.339203 27.923935 498.607269 53.118881 498.607269 80.726112 C 498.607269 82.870354 497.535126 83.942482 495.3909 83.942482 C 488.95816 83.942482 482.52536 83.942482 476.092621 83.674431 C 473.948395 83.674431 472.876251 82.602303 472.876251 80.458061 C 472.876251 53.386932 473.144287 27.923935 473.412323 13.450241 C 473.412323 9.697845 471.268066 7.821609 467.515656 7.553513 Z M 417.393799 66.252411 C 413.105286 22.027222 388.446411 2.729004 364.591614 2.729004 C 334.304077 2.729004 307.500946 26.583801 307.500946 105.116974 C 307.500946 175.07312 334.036072 200 363.251434 200 C 393.807037 200 419.269989 182.309967 418.733917 97.880119 C 418.733917 93.591629 416.589661 91.44738 412.83725 91.715393 C 398.09552 91.983406 383.889862 91.983406 369.416168 91.715393 C 365.663727 91.44738 363.519501 93.591629 363.251434 97.344017 C 362.983429 104.044846 362.983429 109.405464 363.251434 115.838203 C 363.519501 119.858688 365.663727 121.734886 369.416168 121.734886 L 380.137451 121.734886 C 382.013641 121.734886 383.353821 122.807007 383.353821 124.951294 C 383.353821 143.713455 379.333344 162.207596 365.931793 162.207596 C 353.066284 162.207596 345.293365 144.517517 345.293365 105.116974 C 345.293365 60.355728 351.994141 41.861542 365.395721 41.861542 C 374.240723 41.861542 379.065308 53.118881 380.405457 66.788467 C 380.673492 70.540939 382.549713 72.417137 386.302124 72.685188 C 394.87915 72.953194 403.456146 72.953194 412.033173 72.685188 C 415.785614 72.417137 417.92984 70.272888 417.393799 66.252411 Z M 140.517456 195.711502 C 150.702652 195.979553 159.815704 195.979553 170.000916 195.711502 C 173.753342 195.443497 175.897583 193.299255 175.897583 189.546783 C 175.629562 178.557541 175.629562 158.187149 175.361526 135.672516 C 175.361526 133.52829 176.433655 132.456146 178.577896 132.456146 C 179.381989 132.456146 180.186081 132.456146 180.722137 132.456146 C 182.866409 132.456146 183.938538 133.260223 184.206558 135.40451 C 189.299149 178.557541 217.442444 194.103363 245.853745 195.979553 C 264.3479 197.051682 282.037994 196.247604 290.61496 195.711502 C 294.367432 195.711502 296.243652 193.567261 296.511658 189.814835 C 296.779694 181.773911 297.315765 174.805069 296.779694 167.032196 C 296.511658 163.279724 294.367432 161.135468 290.882996 161.135468 C 281.233887 161.403519 272.656891 163.54776 249.874237 159.527328 C 229.235825 155.774857 221.998962 137.012665 219.586685 123.611122 C 219.318665 121.734886 220.122757 120.394707 221.462906 119.322586 C 234.864471 109.137413 243.977539 93.055527 243.977539 70.272888 C 243.977539 26.851822 220.658813 7.017502 168.12468 7.821609 C 158.743591 8.089615 149.630524 7.821609 140.517456 7.821609 C 136.765015 7.821609 134.620773 9.965851 134.888809 13.718246 C 135.692902 50.170517 135.692902 158.723206 134.888809 189.546783 C 134.620773 193.299255 136.765015 195.443497 140.517456 195.711502 Z M 175.361526 92.519501 C 175.361526 72.149086 175.629562 53.922989 175.629562 43.469772 C 175.629562 42.397644 176.701675 41.861542 178.845932 41.861542 C 196.804031 41.861542 206.721191 49.36644 206.721191 70.004837 C 206.721191 92.251457 192.515533 95.199776 178.577896 95.735878 C 176.433655 95.735878 175.361526 94.66375 175.361526 92.519501 Z M 261.667603 149.342117 C 270.78067 149.610123 279.625702 149.610123 288.73877 149.342117 C 292.49118 149.074097 294.635468 147.197876 294.635468 143.177383 C 293.83136 109.94149 293.83136 44.005829 294.367432 13.450241 C 294.635468 9.697845 292.49118 7.821609 288.73877 7.553513 C 279.625702 7.285507 270.78067 7.285507 261.667603 7.553513 C 257.915161 7.821609 255.770905 9.965851 256.03894 13.718246 C 256.575012 44.005829 256.575012 109.94149 255.770905 143.177383 C 255.770905 146.929855 257.915161 149.074097 261.667603 149.342117 Z M 13.470628 195.443497 C 22.851723 195.175491 31.964787 195.175491 41.345882 195.175491 C 42.686043 195.175491 43.758163 195.443497 45.09832 195.443497 C 45.634384 195.443497 46.438477 195.443497 47.242569 195.443497 C 90.663643 194.639389 121.2192 182.041916 121.2192 142.373276 C 121.2192 121.466835 112.91024 106.457108 102.725044 100.292381 C 100.848831 99.220253 100.580803 97.880119 102.188988 96.271896 C 109.693855 88.230972 115.322517 74.561378 115.322517 61.427856 C 115.322517 24.707565 92.539856 10.233871 43.758163 8.893738 L 13.470628 8.089615 C 9.71819 8.089615 7.305908 9.965851 7.57394 13.718246 C 8.378034 50.170517 8.646065 157.651093 7.57394 189.546783 C 7.305908 193.299255 9.450158 195.443497 13.470628 195.443497 Z M 49.654854 112.889847 C 67.880981 112.621834 81.014511 120.394707 81.014511 136.744644 C 81.014511 162.743698 63.056416 162.475647 49.922882 162.207596 C 47.778633 162.207596 46.706509 161.135468 46.438477 158.991226 C 46.170448 148.53801 46.170448 127.363548 46.438477 116.106216 C 46.438477 113.961967 47.510601 112.889847 49.654854 112.889847 Z M 46.706509 82.870354 C 46.438477 68.932709 46.438477 51.778748 46.974541 43.469772 C 46.974541 42.397644 48.046661 41.861542 50.190914 41.861542 C 65.736732 41.325516 76.457985 43.737778 76.457985 61.695862 C 76.457985 84.746552 65.200668 87.962959 49.654854 86.086723 C 47.778633 86.086723 46.706509 84.746552 46.706509 82.870354 Z"/>
    </g>
    <g id="ruby" fill="#9a111e" stroke="none">
        <path d="M 1410.985718 71.881073 C 1410.985718 68.396652 1410.985718 46.418091 1410.449707 24.439514 C 1410.449707 13.450241 1408.037476 7.821609 1404.284912 7.821609 C 1395.975952 8.089615 1387.130981 8.089615 1378.822021 7.821609 C 1375.06958 7.821609 1372.925293 9.965851 1372.925293 13.718246 C 1373.461426 19.078949 1373.997437 16.934692 1373.461426 41.057465 C 1373.461426 71.881073 1378.553955 96.807999 1359.791748 96.807999 C 1343.977905 96.807999 1345.58606 71.613068 1345.58606 41.861542 C 1345.58606 15.862488 1345.58606 22.563324 1346.12207 14.254349 C 1346.658325 9.965851 1344.514038 7.821609 1340.49353 7.821609 C 1331.380371 8.089615 1321.731323 8.089615 1313.154419 7.821609 C 1309.133911 7.821609 1307.25769 10.233871 1307.25769 14.254349 C 1308.061768 26.047699 1306.989624 14.790451 1307.25769 41.861542 C 1308.061768 101.900604 1313.69043 134.868408 1358.183594 134.868408 C 1360.595825 134.868408 1362.204102 134.332397 1363.812256 133.52829 C 1366.224487 132.456146 1368.100708 133.52829 1367.564697 136.208588 C 1363.276245 164.619888 1339.689331 164.887939 1316.102661 154.702728 C 1312.082153 152.826492 1309.133911 154.434723 1308.865845 158.991226 C 1308.329834 168.640381 1308.597778 175.07312 1309.133911 185.526337 C 1309.401978 189.010757 1311.010132 191.154999 1314.22644 191.959122 C 1377.481812 210.185211 1410.985718 177.485413 1410.985718 71.881073 Z M 1185.839478 195.443497 C 1195.220581 195.175491 1204.33374 195.175491 1213.714722 195.175491 C 1215.054932 195.175491 1216.127075 195.443497 1217.467163 195.443497 C 1218.003296 195.443497 1218.807251 195.443497 1219.61145 195.443497 C 1263.032471 194.639389 1293.588135 182.041916 1293.588135 142.373276 C 1293.588135 121.466835 1285.279053 106.457108 1275.093872 100.292381 C 1273.217651 99.220253 1272.949707 97.880119 1274.557861 96.271896 C 1282.062744 88.230972 1287.691406 74.561378 1287.691406 61.427856 C 1287.691406 24.707565 1264.908691 10.233871 1216.127075 8.893738 L 1185.839478 8.089615 C 1182.087036 8.089615 1179.674805 9.965851 1179.942749 13.718246 C 1180.746948 50.170517 1181.014893 157.651093 1179.942749 189.546783 C 1179.674805 193.299255 1181.81897 195.443497 1185.839478 195.443497 Z M 1222.023682 112.889847 C 1240.249878 112.621834 1253.383301 120.394707 1253.383301 136.744644 C 1253.383301 162.743698 1235.425293 162.475647 1222.291748 162.207596 C 1220.147461 162.207596 1219.075439 161.135468 1218.807251 158.991226 C 1218.539307 148.53801 1218.539307 127.363548 1218.807251 116.106216 C 1218.807251 113.961967 1219.879395 112.889847 1222.023682 112.889847 Z M 1219.075439 82.870354 C 1218.807251 68.932709 1218.807251 51.778748 1219.343384 43.469772 C 1219.343384 42.397644 1220.415527 41.861542 1222.559814 41.861542 C 1238.105591 41.325516 1248.826782 43.737778 1248.826782 61.695862 C 1248.826782 84.746552 1237.569458 87.962959 1222.023682 86.086723 C 1220.147461 86.086723 1219.075439 84.746552 1219.075439 82.870354 Z M 954.260498 195.711502 C 964.445618 195.979553 973.558716 195.979553 983.743896 195.711502 C 987.496277 195.443497 989.640564 193.299255 989.640564 189.546783 C 989.372559 178.557541 989.372559 158.187149 989.104492 135.672516 C 989.104492 133.52829 990.176636 132.456146 992.320862 132.456146 C 993.125 132.456146 993.929138 132.456146 994.465149 132.456146 C 996.609375 132.456146 997.681519 133.260223 997.949524 135.40451 C 1003.042114 178.557541 1031.185425 194.103363 1059.59668 195.979553 C 1081.307251 197.319733 1140.542236 195.979553 1159.304443 195.711502 C 1163.056763 195.443497 1164.933105 193.567261 1165.20105 189.814835 C 1165.469116 181.50589 1166.005127 174.000992 1165.469116 165.960068 C 1165.20105 162.207596 1162.788818 160.063354 1159.036377 160.33139 C 1129.284912 162.207596 1088.812134 164.083832 1063.617188 159.527328 C 1042.97876 155.774857 1035.741943 137.012665 1033.329712 123.611122 C 1033.061646 121.734886 1033.865723 120.394707 1035.205933 119.322586 C 1048.607422 109.137413 1057.720581 93.055527 1057.720581 70.272888 C 1057.720581 26.851822 1034.401733 7.017502 981.867676 7.821609 C 972.486572 8.089615 963.373474 7.821609 954.260498 7.821609 C 950.507996 7.821609 948.36377 9.965851 948.631775 13.718246 C 949.435913 50.170517 949.435913 158.723206 948.631775 189.546783 C 948.36377 193.299255 950.507996 195.443497 954.260498 195.711502 Z M 989.104492 92.519501 C 989.104492 72.149086 989.372559 53.922989 989.372559 43.469772 C 989.372559 42.397644 990.444641 41.861542 992.588928 41.861542 C 1010.546997 41.861542 1020.464172 49.36644 1020.464172 70.004837 C 1020.464172 92.251457 1006.258484 95.199776 992.320862 95.735878 C 990.176636 95.735878 989.104492 94.66375 989.104492 92.519501 Z M 1069.781982 13.718246 C 1070.317993 30.872299 1069.513916 55.799179 1069.781982 76.169563 C 1070.317993 126.827492 1078.090942 152.826492 1119.367676 152.826492 C 1148.047119 152.826492 1166.809326 134.868408 1166.273193 88.499023 C 1165.737183 64.644226 1164.933105 32.212433 1164.933105 13.718246 C 1164.933105 9.965851 1162.788818 7.821609 1159.036377 8.089615 C 1151.799438 8.089615 1142.418335 8.089615 1134.913574 7.821609 C 1131.161133 7.821609 1129.016846 9.965851 1129.284912 13.718246 C 1129.552856 30.604248 1128.748779 55.263123 1128.212769 75.365456 C 1128.212769 98.416145 1128.212769 116.910332 1119.099731 116.910332 C 1107.306274 116.910332 1107.306274 98.416145 1107.306274 76.169563 C 1107.306274 55.799179 1106.770264 30.872299 1107.03833 13.718246 C 1107.306274 9.965851 1105.162109 7.821609 1101.141602 8.089615 C 1093.368774 8.089615 1083.183472 8.089615 1075.678711 7.821609 C 1071.658203 7.821609 1069.781982 9.965851 1069.781982 13.718246 Z"/>
    </g>
</svg>
