<svg xmlns="http://www.w3.org/2000/svg" viewBox="253 35 527 289">
  <path fill-rule="evenodd" d="M704.1 262.7c2.75 0 5.92.72 8.8 2.16-1.44 2.73-2.3 5.47-2.74 8.2-.14.72-.14 1.3-.14 2.02 0 5.47 2 9.94 5.04 13.1 1.58 1.6 4.6 2.6 6.04 2.6.58 0 1.16.14 1.6.14 2 0 3.16-.72 4.02-2.88 0-.14.14-.14.14-.3l-.14.16c.14-.72.43-1.44.58-2.45.14-.87.14-1.87.14-2.88 0-4.47-1-9.8-4.75-13.25-1.8-1.58-3.6-3.02-5.5-4.32 1-2.02 2.3-3.9 3.9-5.76 3.1-3.6 6.7-6.62 10.9-9.36 2.3-1.44 8.9-3.6 9.5-3.74 2.6-.44 5.9-.72 8.6-.72 6.4 0 10.8.14 19.6 4.32 3 1.44 6.6 5.18 6.6 8.5 0 1.14-.2 2.44-.9 3.3-1.6 2.16-10.8.3-12.1-.28-1.5-.58-2.3.86-3.5 3.74 3.4 1.3 7.8 2.02 11.7 2.02 1.7 0 3.7-.15 5.3-1.6.7-.7 2.2-3 2.2-5.17 0-5.04-3.6-9.36-8.4-11.8l-3.6-1.6c-5.5-2.44-10-2.6-15.7-2.6-3.5 0-7.2.16-10.5.73-3.1.58-8.7 2.16-10.8 3.46-4.1 2.45-6.9 4.32-9.2 6.48-2.9 2.6-5.4 4.9-7.1 8.06-2.8-1.44-5.8-3.02-10-3.02-10.7 0-17.3 21.46-28.1 21.46-1.6 0-2.5-.3-2.5-1.88 0-1.44.9-2.44 1-3.02l9.2-21.3c.3-1.74 1.7-4.9 1.7-7.36v-1.72c0-2.16-.2-3.32-2.2-3.32-5.6 0-9.1 4.47-13.5 9.22l-15.1 15.56c-2.5 1.8-5.9 6-7.8 5.9v-.8c2.4-5.6 4-11.4 5.3-17 .7-3.6 2.8-6.38 2.8-10.2 0-1.5 0-3.5-1.7-3.5h-.4c-2.5.3-4.9 1.7-6.9 3.14-.5.3-3.8 3.3-4.6 4.5-7.5 9.5-14.7 16.25-18.8 19.85v2.1l14.4-13.5c.4-.4.9-1.5 1.4-.7.2.1 0 1.4-.4 2.4-.7 2.4-5.2 14.2-5.9 16.7-.3 1-.3 2.1-.3 3.1 0 2.9 1 4.9 4.2 4.9 1.7 0 4.6-.7 5.9-2l27.1-27.2c.5-.6 1.3-1.3 2-1.3.4 0 .7.3.7.6 0 5.3-6.1 15.1-7.3 20 0 .3-1.6 4.6-1.6 5-.3 1.7-.9 2.6-.9 4.3 0 3.1 2.5 3.9 5.2 3.9 15.6 0 27.6-25.4 37-25.4zm10.24 11.66c.28-2.74 1-5.47 2.16-7.92 1.72 1 3.45 2.16 5.18 3.9 3.3 2.87 4.46 7.48 4.46 11.5 0 2.74-.57 5.34-1.44 6.78-.14.28-.43.43-.72.72-.57.28-1.3.43-1.87.43-.5 0-1-.15-1.5-.43-3.3-1.88-6.6-6.2-6.6-11.67 0-1 .2-2.16.5-3.3z"/>
  <path fill-rule="evenodd" d="M582.3 254.78c-4.33 4.6-8.65 12.8-9.8 17.28l-.58 5.6.43 1.3c.87 6.06 4.18 7.78 9.8 7.78 9.8 0 17.7-6.04 23.75-12.8 2.16-2.46 3.6-4.33 6.2-8.65 1.87 4.8 5.47 6.7 8.78 6.7.43 0 1.3-.2 1.73-.3v-2.2c-1.1.4-2.1.5-3.1.5-1.3 0-4.2-1.7-5-7.4.2 0 1.9-2.8 2.2-3.3.6-1.2 1-2.5 1-4.4 0-.6 0-1.4-.1-2.2-.4-2.6-1.8-5.4-4.9-5.4-2.8 0-3.4 1.2-4.3 2.8 0 .1-.4 2.4-.4 3.1 0 .7 0 1.6.2 2.3.9 3.5 1.3 4 2.2 5.6 0 .1.3.6.3.7-1.1 3.7-11.7 13.2-13.7 13.9-.4 0-2.3 1.1-3.1 1.4l-2.3.3c-4.3-.2-5.9-4.4-5.9-7.8 0-3.3 1-6.6 3.1-10.4 3.5-5.9 7.8-10.6 12-13.5 1.9-1.3 6.3-3.2 9.6-3.2 5.6 0 6.8 3.3 7.2 3.3h.2c.3.3.5.4.8.4.5 0 .7-.4.7-1 0-.4-.1-1-.5-1.6-.7-1-2.2-3.5-7.5-3.5-6.3 0-10.9 2-14.1 3.3-3.5 1.4-8.8 5.2-14.4 10.6z"/>
  <path fill-rule="evenodd" d="M574.22 269.6c-5.76 3.9-17.13 7.78-19.58 7.78-2.74 0-5.76-1.58-5.76-6.48 0-5.04 2.16-10.36 4.6-16.12 2.46-5.76 10.8-18.87 10.8-18.87.44-.7 3.9-1.5 4.47-1.5.3 0 3.17-.6 4.47-.7 2.6-.3 5.18-.3 8.06-.7 0 0 .58-.1.86-.1 1-.8 1.6-2.7 1.6-3.7l-.3-.7c-2.45.2-4.6 0-6.77.2l-6.77.7-.72-.5.15-.4c0-.3.3-.9.3-.9l8.63-13.1v-.1c0-.4-1-.7-1-.7-4.62.6-8.65 7.5-10.67 10.7-5.4 7.1-1.5 1.9-6.7 8.5l-1 .6c-9.3 2.9-11.7 3.1-20.5 8.1-.7.5-1.2 1.2-1.2 1.6 0 .4.1.6.6.6.1 0 .4 0 .7-.1l15.2-5.3 2.4-1-.2.7s-3.3 3.9-4.5 5.2l-3.2 4.3c-1.1 1-2.2 3.1-3.2 4.5 0 0-2.3 3.1-4.2 7.4-1 2.2-2.6 5.5-3.1 6.8-.9 2.9-1.4 5.3-1.4 8.2 0 .7 0 1.3.1 2 .9 7.9 4.9 9.5 8.2 9.5 3.9 0 8.8-1.6 14-3.9 5.4-2.9 10-6.5 15.1-9.6V270z"/>
  <path fill-rule="evenodd" d="M509.42 244.84c.87-1 2.74-3.02 4.04-3.74 1.3-.87 2.73-2.6 3.6-3.03l.57-.43 6.05-5.04c0-.14.58-.72.58-.72.14-.3 2.88-2.45 2.88-2.88 3.3-3.46 6.62-6.48 9.5-9.94l3.9-4.75 6.32-8c0-.1.3-.6.3-.7.28-.4 2.44-3 2.58-3.6 2.88-4 9.65-19.8 9.65-24.2 0-3.1-2.3-5-5.4-5-15.9 0-36 33.4-43.5 46.7l-4.2 7.2c-1.9 3.8-3.8 8.1-6.1 11.8-3.9 8.4-6.8 12.6-9.8 19-.9 1.3-1.2 2.9-2.3 4.5l-5.8 11.1c-1.3 2.3-1.8 3.8-2.3 5.2-1.1 1.9-1.2 3.1-1.2 4.6 0 2.6 1.8 3.2 4.1 3.2 5.6 0 7.6-5.3 10.2-9l.3-.6 6.2-10.4c3-2.4 9-10.6 15.4-15.2.6-.5 1.3-1.3 2-1.3.4 0 .7.3.7.6 0 5.3-4.5 12.7-5.8 17.6 0 .3-2.7 9.5-2.7 10-.3 1.8-.9 2.6-.9 4.4 0 3.2 2.4 3.9 5.2 3.9 8 0 17.4-8.9 23.6-13.8V270c-.6.6-5.9 4.3-8.1 5.6-1.2.7-5.9 4.3-7.8 4.3-1.6 0-1.3-1.1-1.3-1.84 0-.15.7-2.6.9-3.17l8.8-24.4c.2-1.8 1.4-4.3 1.4-6.8V242c0-2.16-1.5-3.32-3.5-3.32-7.5 0-13.1 9.08-19 13.25l-5.8 5.6 3.6-6.62c.6-1.7.7-1.8 2.6-5.9zM515.9 229c.44-.58 4.9-9.94 5.76-11.1 6.63-12.52 14.26-27.35 24.92-37.14 1.72-2.88 5.47-4.75 7.05-4.75.3 0 1.6 1.2 1.87 1.9v1.6c0 .2-.72 2.8-.72 2.9 0 2.2-7.2 17.5-8.64 19.2-1.3 2.3-3.16 4.8-4.75 6.8-1.2 1.6-2.1 3.1-3.1 4.3-2.8 3.6-23.5 25.7-26.7 25.8 0-.1 4.1-9.2 4.1-9.3z"/>
  <path fill-rule="evenodd" d="M485.66 269.6c-.72.44-4.46 3.75-5.18 4.04-1.58 1.3-8.93 4.9-9.94 4.9-.14 0-.28-.3 0-1 1.88-4.62 5.9-10.96 7.64-14.12l7.2-13.54c.28-1 1-2.45 1-3.46 0-1.44-1.87-1.72-3.16-1.72-6.05 0-11.96 10.36-15.12 14.54l-.72.72c-6.63 4.9-12.82 10.5-18.58 14.7-.86.7-3.17 1.43-5.04 1.43-1.3 0-2.45-.5-2.45-1.8 0-3.6 1.2-6.4 2.4-9.5 5.2-13.7 13.6-24.2 29-25.9h.5c2.8 0 2.5 2.7 4.2 2.7.3 0 .8 0 1-.3 0-.3.8-2.2.8-2.5v-.3c0-1.4-2.4-1.9-3.4-1.9-10.2 0-26.2 6.7-33.5 13.1-3.9 3.1-9.2 6.7-14.1 18.1-1 2.3-1.7 6-1.7 8.5 0 5.2 2.9 8.3 7.5 8.3 8.1 0 16.3-7.1 21.6-12 .7-.7 7.6-6.9 8.7-6.9 0 2.4-3.4 6.3-4.2 8.3-1.4 3.2-5.2 9.8-7.3 12.7-1 1.3-1 1.4-2.7 2.3l-20.3 9.5c-6.3 2.9-13.1 10.1-13.1 16.1 0 3.6 3.3 5 6.1 5 5.7 0 9.1-1.9 13.4-5.3 1.8-1.7 6.9-5.9 7.4-6.4l19.9-21c2.6-2.6 3.6-3.8 6.8-5.6 0 0 12.9-6.8 16.1-9.9v-2.2zm-64.22 44.36c0-4.9 4.6-9.07 8.5-11.52 1-.72 7.34-4.18 9.07-5.33l6.4-3.1c1.3-.7 2-1.3 3.5-1.3 0 6.7-17.5 24.2-24.4 24.2H423c-.73-.3-1-.6-1.45-1.4V314z"/>
  <path fill-rule="evenodd" d="M427.78 269.6c-3.03 2.9-8.8 7.2-12.24 8.5l-2.88.72c-.72 0-1.73-.57-1.73-1.44 0-.72 1-3.16 1.3-4.03 1-2.73 2.3-5.04 2.87-7.2l.72-1.3c2.16-5.32 4.04-9.8 6.77-15.1.8-1.74 4.3-6.93 4.3-8.65l-.5-.87c-.5 0-2.2-.43-2.6-.43h-.8c-8.9 0-10.7 9.65-14.6 14.98l-.5.43c-1 1.8-2.3 5.1-3.2 6.8-2.3 5.1-4.3 9.1-4.9 13.8 0 .5-.2 1-.2 1.8 0 2.6 1 6.6 7.6 6.6 4.4 0 9.5-4 13.4-6.7 1.8-1.3 5.7-4.4 6.9-5.6v-2.1zm-4.18-45.2c-.43 1.14-.72 2.15-.72 3.02 0 1.58.72 2.73 2.6 3.3.86.3 1.72.44 2.44.44 3.02 0 5.33-2.16 6.34-5.18.43-1 .57-1.88.57-2.74 0-1.87-.86-3.46-2.88-4.18-.43-.14-1-.28-1.44-.28-3.1 0-6 3.3-6.9 5.6z"/>
  <path fill-rule="evenodd" d="M402.72 269.6c-2.88 1.88-14.54 11.53-17.28 11.53-1.73 0-1.87-1.73-1.87-2.3 0-1.16 1.58-4.33 2.45-5.77 2.16-3.45 6.2-10.36 8.35-13.96.72-1.3 4.9-8.8 5.6-10.52.73-1.72 1.02-3.45 1.02-5.18 0-7.78-9.1-9.5-14.7-12.24v-1.87c0-2.8 1.4-5.7 1.4-8.8V218c-.5-.58-1.2-1-1.9-1-4.9 0-9.8 5.03-9.8 10.07v.86c.4 2.44 2.1 3.88 2.1 5.18 0 2.8-1.9 8-3.9 11.4l-5.1 9c-3.6 5.4-8.5 10.2-14.1 16.2v2.2c7.3-7.2 12.1-11.8 15.7-17.4 1.7-2.3 3.1-4.4 4.6-6.4.7-1.1 4.7-7 5.2-8.2 1.4-1.7 1.7-3.6 4.1-3.6 1.4 0 6.6.6 6.6 3.2v.3c0 .3-.3 1.5-.3 1.5l-2.5 4.9c-.3.7-3.2 4.9-3.9 6.3 0 .3-1.3 1.8-1.3 2.1l-5.5 9.2c-4.1 7.5-3.3 15.4-2.6 18.6.6 2.5 3.1 3.9 5.5 3.9 3.1 0 5.3-1 8-3.3 1-.8 4-3 5.2-4 3.3-2.7 5.3-4.3 8.5-6.7V270zm-21.3-42.76c0-2.02.28-5.62 2.72-5.62 0 3.17 0 4.9-1.3 7.35h-.42c-1 0-1-1-1-1.73z"/>
  <path fill-rule="evenodd" d="M308.4 179.9c-3.74 1-8.78 3.02-11.38 4.17-18.43 6.77-33.12 23.9-38.3 40.03-2.45 5.9-3.3 16.56-3.3 22.32 0 5.76 1.28 7.35 1.43 10.08.43 2.88 3.02 11.24 5.6 14.98.3.43 6.06 9.8 8.37 12.82 2.16 1.58 3.16 3.16 5.47 4.6l6 3.6 2.3 1.3 15.4 4.75c.6.15 22.3 6.05 36.6 8.64 11.8 2.1 12.9 1.7 35.8 4.4l16.4 1.4c-25.4 1.5-37.8 1.8-47.8 2.4-7.2.3-16.8.7-18.6.7h-5.2c-.4.1-2.2.3-3.8.3-2.2 0-4.8-.2-6.9-.2-5.8 0-11.4-.6-16.2-.9-2-.2-18-1.5-20.6-2.2-5.2-.9-9.1-1.5-16.7-4.2.7 2 7.6 4 7.7 4 2.7.4 5.2 1.4 7.6 1.8l20 2c7.9.7 17.4 1.6 27.9 1.6 2 0 4.2-.2 6.3-.2 19.4-.8 43-.3 69.2-2.2l17.9-1.3 8.6.7 19.5 1.1c16.1 1 32.5 1.3 45.8 2.3 26.2 1.9 49.8.9 69.2 1.6 2.1 0 4.3.1 6.3.1 10.5 0 20-.9 27.9-1.6l20-2c2.4-.5 3.4-.7 6.2-1.2.1 0 7.5-2 7.5-2.1 1.4-.5 4.1-.9 4.6-1.5.1-.6 1.4-.9 1.4-2 0-.9-.9-2.6-3.3-3.5-4.9-2.6-19-5.4-37-6.5-5.9-.3-13.3-.2-27.2-.3-23.8.5-30.3 1-37.3 2.1-12.8 1.5-36.6 3.5-53 4.8l-44.9 3.1c-32.6-3.3-59.1-5.3-80.2-7.77-11.8-1.46-23.4-5.3-32.2-7.37-4.9-1.14-15.6-4.3-15.6-4.3-1.9-1-14.7-4.6-19-8.07-3.7-3.3-9.2-10.3-11.8-15-3.3-4.5-6.2-17.6-6.2-25.4 0-9.2 1.6-18.4 4.9-24.5 8.1-17.7 28.7-30.7 38.9-33.1 0 0 5.9-1.9 9.5-2.76l3.6-.7c4.8-.8 15.6-1.53 21-1.3.3.2 2.7.2 3.2.3 1.9.6 4.9.3 6.9.77 2 .4 15.3 3.6 15.3 6.3 0 1-1.7 2.6-2 2.9l-8.9 8.4c-.3.3-5.9 6.9-8 9.1-1 1.3-.3.6-1.6 1.9-1 .9-5.1 6.2-5.6 7.5-1.8 2.2-6.9 11.2-7.7 12.8l-13.8 27.3c-3 5.7-11.2 18.2-18.1 20.3l-7.9 2.2h-.3c-3 0-6.08-3.7-6.08-6.6 0-5.2 5.6-7.8 5.6-11.5 0-1.14-.6-1.86-1.9-1.86-.4 0-1.7.44-2 .7-5.9 2.5-8.6 4.35-8.6 10.8 0 4.2 1.3 7.2 5.1 9.7 2.6 1.9 5.2 2.12 8.2 2.12 9.2 0 16.8-3.6 23-9.2h.7c0 1.6-1 2.73-1 4.3 0 3.2 3.3 7.2 6.6 7.2 4.9 0 12.83-1.3 17.44-3.17l5.6-2.15 8.4-5.6c2.3-1.6 4.5-3.6 5.8-5.8.3-.7 3.43-5.8 3.7-6.4 0-.3.7-1 .7-1.3 2-5 3-13.4 3-18.7 0-3.1-2.1-6.2-3.4-9.1-.5-1.4-2.54-2.4-2.54-4.3 0-2.8 2.3-2.5 3.86-4.1 1.73-1.55 4.04-3.7 6.34-4.6 5.9-6.02 9.5-9.8 9.5-18.12 0-3.76-.9-6.9-2.9-10.2-.7-1.3-2.7-2.9-2.7-4.5 0-2.76 5.6-2.76 5.6-5.6 0-.9 0-1.9-1.3-1.9-.6 0-.6 0-1.3.3l-5.9 3.7c-.7.4-1 .4-1.3.4h-.4c-.3 0-1.3-1-1.6-1-.3-.3-3.6-2-3.9-2-3.3-1.5-5.2-2.1-8.6-3.3-.3 0-3.47-.7-3.76-.8-3.15-.6-5.6-1.15-8.9-.7-10.4-.4-21.6.45-31.56 3.2zm181.73 127.87c9.5-1.15 18.14-2.3 23.6-2.88 6.2-.8 6.06-.8 6.2-.8.15 0 .3 0 1.45-.2 19.15-2 22.03-2.2 23.47-2.2h.86c3.6 0 10.3-.5 15.6-.5 10 0 19.3-.5 19.3-.5 10 .4 30 2.4 37.9 5.1 3.2 1 4.6 2.4 4.6 3.9 0 1.6-2.8 2.3-6 3.2-3.1 1.1-5.6 1.5-10.8 2.4-2.6.7-18.5 2-20.6 2.1-4.7.3-10.3.8-16.1.8-2.4 0-5.7.1-8 .1-1.1 0-1.8 0-2.3-.2h-5.4l-18.5-.9c-11.2-.6-21.1-.3-53.1-2.5-13.4-.9-26-2.1-37.8-3.1l9-.87c8.2-.5 19.3-1.53 30.3-2.83l6.9-.84zm-148.47-83.23c6.63-11.24 13.25-23.48 23.2-32.12h1c1.58 0 2.3 1.6 2.6 3.03v3.45c0 12.82-8.65 22.18-20.46 27.8-1.73.86-5.62 2.44-7.92 2.44 0-1.58 1.3-3.16 1.58-4.6zm-19.44 54.14c0-1.87 1-3.46 1-5.33 0-.86-.28-3.74-1.72-3.74-1.58.5-2.3.8-3.6.8-.28 0-1.3 0-1.3-.7 1.02-1.4 5.9-9.2 6.92-10.8 2.3-3.7 12.24-21.9 14.26-25.6h.57c0 .3 1.44 1.6 1.73 1.6h1c3.32 0 5.62-2.4 8.94-2.4 1.58 0 2.6 1.2 2.6 2.8 0 2.6.42 5.6-.3 7.5l-3.74 13.1c-.44.6-4.6 10.2-6.63 13.7-2.88 5.4-8.78 7.8-14.4 10.7-1.3.6-1.3.6-2.73.6-1.3 0-2.6-.5-2.6-1.8z"/>
  <path fill="#AE1515" fill-rule="evenodd" d="M495.95 297.7l-5.34-5.93c3 0 6.1.04 9.6.2 6.3.27 10.1 2.2 13.8 3.18l-.7.87c-6 1.08-12 1.52-17.1 1.7zm181.25-66.53V136.5h-25v92.82c.3-.08.62-.13.94-.13 10.7 0 3.5 14.9 19.28 5 1.62-1.1 3.22-2.1 4.78-3.1zM352.2 169v-32.5h-25v32.42c11.76-1.75 19.7-1.24 25 .1zm-25 42.08v-20.03c8.83-1.87 19.28-5.3 10.6 5.04-3.54 4.2-7.17 9.5-10.6 14.9zm92.04 1.26l-42.3-47.08 49.24-58.68h155.48l45.27 58.68-38.35 44.06c.07-16.55-21.1-.3-24.36-4.73-3.74-5.1 13.45-27.1 4.73-38-8.72-10.9-30.22-6.2-42.2 4.6-12 10.8-16.85 17.7-30.9 42-14.03 24.3-9.64 11.1-26.56 13.1-17 2-19.9 6.5-22.7 4.7-5.5-3.6 3.9-17.3-8.2-21.7-6.7-2.4-14.3-.9-19.3 2.7zM338.9 66l38.1 42.4-14.78 17.6h-46.64L302 108.4 338.9 66zm325 0l38.1 42.4-14.78 17.6h-46.64L627 108.4 663.9 66zm-163-30L539 78.4 524.22 96h-46.64L464 78.4 500.9 36z"/>
</svg>
