<?xml version="1.0" encoding="UTF-8"?>
<svg width="400px" height="120px" viewBox="0 0 400 120" version="1.1" xmlns="http://www.w3.org/2000/svg" xmlns:xlink="http://www.w3.org/1999/xlink">
    <!-- Generator: Sketch 50.2 (55047) - http://www.bohemiancoding.com/sketch -->
    <title>2.4:1</title>
    <desc>Created with Sketch.</desc>
    <defs></defs>
    <g id="Page-1" stroke="none" stroke-width="1" fill="none" fill-rule="evenodd">
        <g id="suse" transform="translate(105.000000, 0.000000)" fill="#FFFFFF" fill-rule="nonzero">
            <path d="M166.610837,15.7832512 C164.653419,15.7127527 162.797616,16.4042956 161.379369,17.7344631 C159.961064,19.0646305 159.124374,20.8665222 159.065261,22.817734 C158.929478,26.849734 162.086424,30.2417734 166.109202,30.3901478 C168.065557,30.4492611 169.9307,29.7577537 171.357281,28.4275862 C172.781793,27.0912118 173.600808,25.2882562 173.663054,23.3443153 C173.798837,19.3133793 170.642956,15.9261872 166.610837,15.783133 L166.610837,15.7832512 Z M167.805222,23.7706404 C166.013675,23.7706404 164.566345,22.8013005 164.566345,21.6131232 C164.566345,20.4135961 166.013675,19.449399 167.805222,19.449399 C169.596709,19.449399 171.048177,20.4135961 171.048177,21.6131232 C171.048177,22.8012414 169.595704,23.7706404 167.805222,23.7706404 Z M184.82867,32.4774384 C184.881103,32.436532 185.003178,32.3290345 184.987271,32.2296473 C184.582516,29.7003665 180.814345,17.4341793 177.962246,14.4844256 C177.176394,13.6809576 176.547074,12.8888394 175.272887,12.1434207 C164.955251,6.1310069 140.477025,2.50263251 139.330227,2.33652414 C139.330227,2.33652414 139.215115,2.31252414 139.13533,2.39043547 C139.073379,2.45094975 139.061675,2.56772217 139.061675,2.56772217 C139.061675,2.56772217 138.96733,7.63958424 138.952847,8.20665813 C136.453182,7.36689458 118.279744,1.49670739 101.243882,0.905574384 C86.7965911,0.397560591 65.7563941,-1.47066207 37.8744236,15.6720768 L37.0502069,16.185269 C23.9329655,24.3671409 14.8768079,34.4571901 10.1430148,46.1787665 C8.65832512,49.8675547 6.66153695,58.1905892 8.64070936,66.0225103 C9.49294581,69.4458798 11.0823251,72.8861557 13.2253005,75.9647764 C18.0690443,82.9224118 26.1971232,87.5391606 34.9488473,88.318865 C47.3058916,89.4240473 56.662936,83.8742542 59.9910148,73.4820177 C62.2791724,66.3115744 59.9910148,55.7905892 51.2191921,50.4231015 C44.0842167,46.0541557 36.4119015,47.0473773 31.9612611,49.9918108 C28.1003941,52.5515941 25.9139704,56.5297419 25.9523941,60.8988059 C26.0415369,68.6485596 32.7173202,72.7675744 37.5173202,72.7799882 C38.9117438,72.7799882 40.3124335,72.5373813 41.8914089,72.0231606 C42.4533399,71.8520926 42.9820493,71.6395567 43.5647291,71.2787468 L43.7472118,71.1719586 L43.8623054,71.0952414 L43.8238818,71.1180591 C44.9176552,70.3726404 45.576,69.1606404 45.576,67.8605616 C45.576,67.5059941 45.5263448,67.1462365 45.4246108,66.7844039 C44.8575369,64.8218424 42.918798,63.6347291 40.9095369,64.0006995 L40.6379113,64.0649793 L40.2708768,64.1769517 L39.7379704,64.3604571 C38.6327882,64.6320887 37.8054384,64.655935 37.6281576,64.6621596 C37.0662266,64.625864 34.3032709,63.7985143 34.3032709,60.7722089 L34.3032709,60.7307113 C34.3032709,59.6193222 34.7491034,58.8396768 34.9947783,58.4135291 C35.8542857,57.0657458 38.2077044,55.7428493 41.3872906,56.0196177 C45.5602759,56.3804099 48.5689655,58.5202877 50.5616749,62.5575488 C52.4112709,66.3106522 51.9270739,70.927401 49.3144433,74.3092729 C46.7194286,77.6601103 42.099665,79.0846227 35.9560197,78.4231448 C29.7603547,77.7378443 24.5235074,74.1724256 21.5897143,68.6227507 C18.7188768,63.1973911 18.5623448,56.7652138 21.1843153,51.823933 C27.4556453,39.98413 39.3019507,40.1076768 45.7973202,41.2302384 C55.4091429,42.8973517 66.3439212,51.7636374 70.2223448,62.0020611 C70.848532,63.6339429 71.1678621,64.9278148 71.4467586,66.110731 L71.8655764,67.8783961 L82.7246897,73.1803862 C82.9579389,73.2942739 83.0367842,73.3327685 83.1300887,73.2633458 C83.2420552,73.1800374 83.1779704,72.9502463 83.1779704,72.9502463 C83.1105813,72.7076453 82.9529852,72.4837005 82.7021084,69.4449458 C82.4957438,66.7483153 82.0758621,59.3655369 85.79267,55.7070148 C87.2358621,54.2773005 89.4348177,53.0010443 91.1713892,52.5925714 C98.2886305,50.853931 106.634837,52.0534581 114.525281,61.1870542 C118.610128,65.9042956 120.601537,68.0554286 121.601143,69.0189754 C121.601143,69.0189754 121.828694,69.2338463 121.949498,69.3331153 C122.081503,69.4415882 122.167496,69.5328532 122.360039,69.6399961 C122.689809,69.8234956 135.928906,75.9184197 135.928906,75.9184197 C135.928906,75.9184197 136.085758,75.9963429 136.201537,75.8531054 C136.315992,75.7115113 136.207448,75.5700709 136.207448,75.5700709 C136.11931,75.4695015 127.813951,64.7357852 129.292374,55.8977557 C130.45667,48.8579527 136.059074,49.4957852 143.809419,50.3707803 C146.339113,50.6662522 149.219232,50.9969675 152.201143,51.0633517 C160.52666,51.1162581 169.494148,49.5787212 175.021241,47.1609872 C178.597005,45.6068985 180.878956,44.5721793 182.308729,43.2721005 C182.822956,42.8459882 183.089438,42.1544453 183.367271,41.4100906 L183.562167,40.918664 C183.79336,40.3152946 184.133438,39.0441813 184.282759,38.3474719 C184.342877,38.0405911 184.413281,37.7401419 184.159389,37.5440039 C183.927281,37.3646719 183.394227,37.6860355 183.394227,37.6860355 C180.967153,39.1468433 174.900236,41.912932 169.227724,42.0310995 C162.184966,42.1731369 147.915015,34.9014443 146.436591,34.1335626 C145.447094,31.7774837 144.458778,29.4208138 143.455034,27.0707054 C153.663901,33.7972079 162.131291,37.5148433 168.613064,38.0882424 C175.829025,38.7310404 181.454246,34.7942128 183.895626,33.1562424 C184.215216,32.9437655 184.53399,32.7058936 184.827015,32.477267 L184.82867,32.4774384 Z M155.867882,22.8011823 C155.971507,20.0050049 157.14201,17.4099901 159.186562,15.506601 C161.232059,13.5968867 163.90067,12.6098719 166.69868,12.6990739 C172.468256,12.9053911 177.002128,17.7760788 176.804099,23.5392709 C176.695271,26.3354483 175.524768,28.9304631 173.485419,30.8279409 C171.439921,32.749064 168.777517,33.7360788 165.966798,33.641734 C160.203429,33.429198 155.674581,28.5698719 155.867882,22.8015369 L155.867882,22.8011823 Z" id="Geeko"></path>
            <path d="M79.791133,83.355665 C75.1899901,83.355665 72.6591133,87.2456158 72.6591133,89.9349754 L72.6591133,93.3873695 C72.6591133,97.3477833 75.8948571,99.8017537 78.8955665,99.8017537 L89.4289655,99.8017537 C90.756,99.8017537 91.0338325,100.670542 91.0338325,101.403547 L91.0338325,103.631527 C91.0338325,103.867909 90.9859507,106.007764 89.4289655,106.007764 L75.0626601,106.007764 C73.6350148,106.007764 72.6034286,107.000985 72.6034286,108.360177 L72.6034286,108.97602 C72.6034286,110.33001 73.6350148,111.317025 75.0626601,111.317025 L90.2098522,111.317025 C94.1692611,111.317025 96.7241379,108.562345 96.7241379,104.294956 L96.7241379,100.569872 C96.7241379,96.5628177 93.8450246,94.7712709 90.9867192,94.7712709 L80.6223842,94.7712709 C79.0620887,94.7712709 78.3550345,93.6007685 78.3550345,92.7734187 L78.3550345,90.7165123 C78.3550345,89.4215764 79.2206897,88.6709557 80.7344039,88.6709557 L92.2071133,88.6709557 C93.6140099,88.6709557 94.6725517,87.6601182 94.6725517,86.3237438 L94.6725517,85.7089655 C94.6725517,84.3673892 93.5963941,83.3554877 92.159468,83.3554877 L79.7917833,83.3554877 L79.791133,83.355665 Z" id="Shape"></path>
            <path d="M122.861084,83.355665 C121.500887,83.355665 120.405044,84.4608473 120.405044,85.8211034 L120.405044,103.45933 C120.405044,104.872433 119.252158,106.007704 117.85667,106.007704 L109.849773,106.007704 C108.449143,106.007704 107.302463,104.872433 107.302463,103.45933 L107.302463,85.8211034 C107.302463,84.4608473 106.197281,83.355665 104.838089,83.355665 L104.063645,83.355665 C102.683704,83.355665 101.598207,84.4442956 101.598207,85.8211034 L101.598207,104.12731 C101.598207,108.389438 104.952118,111.481005 109.572,111.481005 L118.134562,111.481005 C122.748177,111.481005 126.100079,108.390443 126.100079,104.12731 L126.100079,85.8211034 C126.100079,84.4442956 125.018719,83.355665 123.640847,83.355665 L122.861202,83.355665 L122.861084,83.355665 Z" id="Shape"></path>
            <path d="M138.189163,83.355665 C133.590089,83.355665 131.051823,87.2456158 131.051823,89.9349754 L131.051823,93.3873695 C131.051823,97.3477833 134.293773,99.8017537 137.296552,99.8017537 L147.826995,99.8017537 C149.156158,99.8017537 149.435054,100.670542 149.435054,101.403547 L149.435054,103.631527 C149.435054,103.867909 149.387172,106.007764 147.826995,106.007764 L133.454187,106.007764 C132.032808,106.007764 130.995015,107.000985 130.995015,108.360177 L130.995015,108.97602 C130.995015,110.33001 132.032808,111.317025 133.454187,111.317025 L148.6067,111.317025 C152.567172,111.317025 155.133399,108.562345 155.133399,104.294956 L155.133399,100.569872 C155.133399,96.5628177 152.24601,94.7712709 149.387645,94.7712709 L139.02331,94.7712709 C137.458818,94.7712709 136.753833,93.6007685 136.753833,92.7734187 L136.753833,90.7165123 C136.753833,89.4215764 137.619547,88.6709557 139.133202,88.6709557 L150.612414,88.6709557 C152.016177,88.6709557 153.070581,87.6601182 153.070581,86.3237438 L153.070581,85.7089655 C153.070581,84.3673892 151.995429,83.3554877 150.552296,83.3554877 L138.189931,83.3554877 L138.189163,83.355665 Z" id="Shape"></path>
            <path d="M162.407882,83.355665 C161.042483,83.355665 160.010897,84.3675665 160.010897,85.7091429 L160.010897,108.974956 C160.010897,110.310325 161.018601,111.315961 162.35397,111.315961 L180.894266,111.315961 C182.321911,111.315961 183.353498,110.328946 183.353498,108.974956 L183.353498,108.359113 C183.353498,106.999921 182.321911,106.0067 180.894266,106.0067 L165.709833,106.0067 L165.709833,100.083547 L176.836138,100.083547 C178.26065,100.083547 179.295369,99.0841182 179.295369,97.730069 L179.295369,97.1152906 C179.295369,95.7550345 178.26065,94.7680788 176.836138,94.7680788 L165.709833,94.7680788 L165.709833,88.6675862 L180.122837,88.6675862 C181.545281,88.6675862 182.58201,87.6868374 182.58201,86.3203744 L182.58201,85.7055961 C182.58201,84.3453399 181.545281,83.3521182 180.122837,83.3521182 L162.407764,83.3521182 L162.407882,83.355665 Z" id="Shape"></path>
            <g id="Group" transform="translate(0.407468, 94.046660)">
                <path d="M4.40634975,0.383611626 C2.08290745,0.383611626 0.191805813,2.19177021 0.191805813,4.42086479 L0.191805813,13.1931296 C0.191805813,15.4574749 2.02173695,17.3019211 4.26534656,17.3019211 L9.93968826,17.3019211 C12.1832979,17.3019211 14.013229,15.4574749 14.013229,13.1931296 L14.013229,4.42086479 C14.013229,2.192807 12.1210906,0.383611626 9.79868506,0.383611626 L4.40634975,0.383611626 Z M3.17879255,12.8447687 L3.17879255,4.83454327 C3.17879255,3.89521318 3.95016296,3.12695314 4.8936402,3.12695314 L9.31450499,3.12695314 C10.2372465,3.12695314 11.0231319,3.91283858 11.0231319,4.83454327 L11.0231319,12.8447687 C11.0231319,13.7903195 10.2579822,14.5585796 9.31450499,14.5585796 L4.86046298,14.5585796 C3.91491216,14.5585796 3.17879255,13.8069082 3.17879255,12.8447687 Z" id="Shape"></path>
                <path d="M26.8631817,0.279932808 C25.2271299,0.279932808 23.993352,0.86468134 23.0032193,1.34367748 C22.3998086,1.63294138 21.8772673,1.88280733 21.4718832,1.88280733 C21.2883716,1.88280733 21.1318166,1.79986428 21.0488736,1.66404502 L20.6714827,0.942440453 C20.577135,0.752708217 20.1987073,0.381538049 19.7311158,0.381538049 L19.1702134,0.381538049 C18.6310835,0.381538049 18.1997797,0.865718128 18.1997797,1.45668739 L18.1997797,23.7071985 C18.1997797,24.4049569 18.7503142,24.9544546 19.4470358,24.9544546 L19.9322527,24.9544546 C20.6237904,24.9544546 21.1857296,24.3987362 21.1857296,23.7071985 L21.1857296,16.3242299 C21.1857296,16.1054675 21.3277696,15.8690798 21.4718832,15.8690798 C21.8772673,15.8690798 22.3998086,16.1065043 23.0032193,16.3833268 C23.993352,16.8384768 25.2271299,17.3993792 26.8631817,17.3993792 L27.3867597,17.3993792 C30.2835459,17.3993792 32.0854837,15.7436285 32.0854837,13.0842668 L32.0854837,4.59089805 C32.0854837,1.97197111 30.2451847,0.280969596 27.3867597,0.280969596 L26.8631817,0.280969596 L26.8631817,0.279932808 Z M21.1867664,12.6716251 L21.1867664,5.00976047 C21.1867664,3.95119974 22.0141234,3.12487957 23.0716473,3.12487957 L27.2156897,3.12487957 C28.2742504,3.12487957 29.1005706,3.95223653 29.1005706,5.00976047 L29.1005706,12.6716251 C29.1005706,13.7115236 28.2524778,14.556506 27.2156897,14.556506 L23.0716473,14.556506 C22.0338223,14.556506 21.1867664,13.7115236 21.1867664,12.6716251 Z" id="Shape"></path>
                <path d="M40.4762104,0.383611626 C38.1527681,0.383611626 36.2668504,2.19177021 36.2668504,4.42086479 L36.2668504,13.1278119 C36.2668504,15.3859366 38.0998919,17.3008843 40.2626321,17.3008843 L46.1173749,17.3008843 C46.8410531,17.3008843 47.3646311,16.7990788 47.3646311,16.117909 L47.3646311,15.7342974 C47.3646311,15.0489804 46.8410531,14.5575428 46.1173749,14.5575428 L41.3077146,14.5575428 C39.9598899,14.5575428 39.2486532,13.8950352 39.2486532,12.6353375 L39.2486532,10.087949 L47.9255335,10.087949 C49.3210504,10.087949 50.1463338,9.23674587 50.1463338,7.79457352 L50.1463338,4.41879121 C50.1463338,2.19073342 48.2573057,0.381538049 45.9431945,0.381538049 L40.4762104,0.381538049 L40.4762104,0.383611626 Z M39.24969,4.8055132 C39.24969,3.86514633 39.98892,3.12695314 40.9303237,3.12695314 L45.4880445,3.12695314 C46.4273746,3.12695314 47.1603838,3.86514633 47.1603838,4.8055132 L47.1603838,7.5239718 L39.2486532,7.5239718 C39.24969,7.16939025 39.24969,4.8055132 39.24969,4.8055132 Z" id="Shape"></path>
                <path d="M62.2072906,0.279932808 C60.5764228,0.279932808 59.3457553,0.86468134 58.3525122,1.33849354 C57.7345864,1.62879423 57.2068613,1.88280733 56.7755574,1.88280733 C56.5858251,1.88280733 56.5091028,1.8589612 56.3618789,1.60391131 L56.018702,0.977691251 C55.8217123,0.581638167 55.4868297,0.381538049 55.03479,0.381538049 L54.5526835,0.381538049 C53.9700086,0.381538049 53.5449254,0.835651271 53.5449254,1.45668739 L53.5449254,16.0515546 C53.5449254,16.7430923 54.0913128,17.2988107 54.795292,17.2988107 L55.2773985,17.2988107 C55.9689362,17.2988107 56.5329489,16.7368715 56.5329489,16.0515546 L56.5329489,5.00976047 C56.5329489,3.97504587 57.3779313,3.12487957 58.4126459,3.12487957 L62.5587618,3.12487957 C63.5965868,3.12487957 64.4415692,3.97504587 64.4415692,5.00976047 L64.4415692,16.0515546 C64.4415692,16.7430923 64.9910669,17.2988107 65.6888253,17.2988107 L66.1761158,17.2988107 C66.8676535,17.2988107 67.4295927,16.7368715 67.4295927,16.0515546 L67.4295927,4.58986126 C67.4295927,1.97093433 65.5882569,0.279932808 62.7277583,0.279932808 L62.2072906,0.279932808 Z" id="Shape"></path>
            </g>
            <g id="Group" transform="translate(184.955764, 105.451330)">
                <path d="M2.55049892,0.238461281 C3.81330692,0.238461281 4.81899145,1.26488158 4.81899145,2.54946213 C4.81899145,3.85270487 3.81227013,4.86875728 2.54013103,4.86875728 C1.27732303,4.86875728 0.250902739,3.85270487 0.250902739,2.54946213 C0.250902739,1.26591836 1.27732303,0.238461281 2.54013103,0.238461281 L2.55049892,0.238461281 Z M2.54013103,0.59718999 C1.52407862,0.59718999 0.692574502,1.47016564 0.692574502,2.54842534 C0.692574502,3.64742081 1.52407862,4.50899178 2.55049892,4.50899178 C3.57691921,4.52039645 4.39805545,3.64742081 4.39805545,2.55879322 C4.39805545,1.47016564 3.57691921,0.59718999 2.55049892,0.59718999 L2.54013103,0.59718999 Z M2.10882715,3.89313961 L1.69825903,3.89313961 L1.69825903,1.31672099 C1.91391098,1.28561734 2.11919503,1.25451369 2.42712112,1.25451369 C2.81799027,1.25451369 3.07407695,1.33641996 3.2275216,1.44942987 C3.38200303,1.561403 3.46494609,1.73558341 3.46494609,1.98337578 C3.46494609,2.32136873 3.23892627,2.52665279 2.96210382,2.60959584 L2.96210382,2.63136839 C3.18812365,2.67180313 3.3415683,2.87708719 3.3934077,3.25758845 C3.455615,3.65882548 3.51574871,3.81227013 3.55722024,3.89417639 L3.12591635,3.89417639 C3.06370906,3.81227013 3.00253856,3.57588242 2.95173594,3.23685269 C2.88952865,2.90922763 2.72571612,2.78481304 2.39705427,2.78481304 L2.10986394,2.78481304 L2.10986394,3.89313961 L2.10882715,3.89313961 Z M2.10882715,2.46548229 L2.40638536,2.46548229 C2.74541509,2.46548229 3.03260542,2.34314128 3.03260542,2.02381052 C3.03260542,1.7977907 2.86879289,1.57177088 2.40638536,1.57177088 C2.27263968,1.57177088 2.18036554,1.58213876 2.10882715,1.59354343 L2.10882715,2.46548229 Z" id="Shape"></path>
            </g>
        </g>
    </g>
</svg>