<svg xmlns="http://www.w3.org/2000/svg" xmlns:xlink="http://www.w3.org/1999/xlink" width="400px" height="120px"
  viewBox="0 0 670 120" version="1.1">
  <g>
    <path style=" stroke:none;fill-rule:nonzero;fill:rgb(241, 241, 241);fill-opacity:1;"
      d="M 176.621094 32.867188 L 176.621094 45.539062 L 194.167969 45.539062 L 194.167969 91.691406 L 209.609375 91.691406 L 209.609375 45.539062 L 227.328125 45.539062 L 227.328125 32.867188 Z M 272.886719 32.867188 L 272.886719 56.867188 L 249.011719 56.867188 L 249.011719 32.867188 L 233.570312 32.867188 L 233.570312 91.691406 L 249.011719 91.691406 L 249.011719 69.117188 L 272.886719 69.117188 L 272.886719 91.691406 L 288.328125 91.691406 L 288.328125 32.867188 Z M 299.804688 32.867188 L 299.804688 91.691406 L 347.304688 91.691406 L 347.304688 79.4375 L 315.242188 79.4375 L 315.242188 68.363281 L 343.425781 68.277344 L 343.425781 56.109375 L 315.242188 56.109375 L 315.242188 45.117188 L 346.460938 45.117188 L 346.460938 32.867188 Z M 351.605469 32.867188 L 351.605469 45.539062 L 369.15625 45.539062 L 369.15625 91.691406 L 384.597656 91.691406 L 384.597656 45.539062 L 402.316406 45.539062 L 402.316406 32.867188 Z M 429.484375 48.558594 L 437.585938 69.535156 L 421.21875 69.535156 Z M 421.976562 32.867188 L 396.582031 91.691406 L 412.441406 91.691406 L 416.578125 81.285156 L 442.140625 81.285156 L 446.191406 91.691406 L 462.644531 91.691406 L 437.835938 32.867188 Z M 421.976562 32.867188 " />
    <path style=" stroke:none;fill-rule:nonzero;fill:rgb(212, 212, 212);fill-opacity:1;"
      d="M 471.265625 32.949219 L 471.265625 91.691406 L 503.054688 91.691406 L 503.054688 86.480469 L 477.082031 86.480469 L 477.082031 32.949219 Z M 535.101562 39.085938 L 549.269531 70.847656 L 521.101562 70.847656 Z M 532.234375 32.949219 L 505.671875 91.691406 L 511.910156 91.691406 L 518.824219 76.058594 L 551.546875 76.058594 L 558.546875 91.691406 L 564.871094 91.691406 L 538.308594 32.949219 Z M 625.824219 32.949219 L 625.824219 91.691406 L 666.386719 91.691406 L 666.386719 86.480469 L 631.644531 86.480469 L 631.644531 64.378906 L 661.75 64.378906 L 661.75 59.167969 L 631.644531 59.167969 L 631.644531 38.160156 L 665.289062 38.160156 L 665.289062 32.949219 Z M 610.199219 32.867188 L 577.480469 68.664062 L 577.480469 32.867188 L 571.660156 32.867188 L 571.660156 91.691406 L 577.480469 91.691406 L 577.480469 76.0625 L 589.453125 63.121094 L 611.800781 91.691406 L 618.96875 91.691406 L 593.585938 58.582031 L 617.28125 32.867188 Z M 610.199219 32.867188 " />
    <path style=" stroke:none;fill-rule:nonzero;fill:rgb(10.588235%,70.980392%,46.27451%);fill-opacity:1;"
      d="M 115.242188 10.019531 C 115.070312 10.015625 114.902344 10.015625 114.730469 10.015625 L 115.242188 10.015625 Z M 115.242188 10.019531 " />
    <path style=" stroke:none;fill-rule:nonzero;fill:rgb(3.137255%,42.745098%,27.843137%);fill-opacity:1;"
      d="M 60.457031 62.628906 C 60.457031 88.75 79.476562 110.425781 104.410156 114.542969 L 35.136719 114.539062 L 4.894531 62.277344 L 35.136719 10.015625 L 113.03125 10.015625 C 83.996094 10.015625 60.457031 33.574219 60.457031 62.628906 " />
    <path style=" stroke:none;fill-rule:nonzero;fill:rgb(10.588235%,70.980392%,46.27451%);fill-opacity:1;"
      d="M 34.8125 10.019531 C 34.980469 10.015625 35.152344 10.015625 35.320312 10.015625 L 34.8125 10.015625 Z M 34.8125 10.019531 " />
    <path style=" stroke:none;fill-rule:nonzero;fill:rgb(10.588235%,70.980392%,46.27451%);fill-opacity:1;"
      d="M 89.59375 62.628906 C 89.59375 88.75 70.574219 110.425781 45.640625 114.542969 L 114.914062 114.542969 L 145.15625 62.277344 L 114.914062 10.015625 L 37.019531 10.015625 C 66.054688 10.015625 89.59375 33.574219 89.59375 62.628906 " />
  </g>
</svg>