<svg xmlns="http://www.w3.org/2000/svg" width="400" height="120">
    <defs>
        <linearGradient id="a" x1="50%" x2="50%" y1="-9.14%" y2="103.616%">
            <stop offset=".001%" stop-color="#E22F4C"/>
            <stop offset="32%" stop-color="#E43546"/>
            <stop offset="66%" stop-color="#E73F3C"/>
            <stop offset="100%" stop-color="#EB4930"/>
        </linearGradient>
    </defs>
    <g fill="none">
        <path fill="#FFF" d="M43.448 56.882c1.71.741 3.196 1.744 4.457 3.026 1.262 1.274 2.264 2.783 2.998 4.501A13.841 13.841 0 0 1 52 69.887c0 1.928-.363 3.812-1.097 5.513-.734 1.7-1.728 3.192-2.998 4.466-1.26 1.282-2.755 2.285-4.457 3.026A13.481 13.481 0 0 1 38.023 84H9.058c-1.158 0-2.151-.41-2.998-1.247-.846-.829-1.261-1.85-1.261-3.062 0-1.212.423-2.163 1.261-2.992.847-.828 1.84-1.238 2.998-1.238h28.965c1.555 0 2.86-.541 3.93-1.614 1.072-1.073 1.598-2.399 1.598-3.969 0-1.57-.535-2.887-1.598-3.969-1.062-1.081-2.375-1.613-3.93-1.613H15.986c-1.952 0-3.775-.367-5.46-1.108a14.236 14.236 0 0 1-4.431-3.027c-1.27-1.282-2.264-2.782-2.998-4.5A13.841 13.841 0 0 1 2 50.183c0-1.928.363-3.75 1.097-5.478a14.564 14.564 0 0 1 2.998-4.536c1.27-1.3 2.738-2.32 4.431-3.061 1.685-.742 3.508-1.108 5.46-1.108H44.95c1.158 0 2.15.427 2.998 1.282.846.855 1.26 1.858 1.26 3.027s-.423 2.163-1.26 2.992c-.847.828-1.84 1.247-2.998 1.247H15.986c-1.555 0-2.86.55-3.93 1.649-1.063 1.099-1.599 2.433-1.599 4.003 0 1.57.536 2.835 1.598 3.934 1.063 1.1 2.376 1.649 3.93 1.649h22.038c1.909 0 3.714.366 5.425 1.107v-.008Zm72.654-13.894c2.3 2.286 4.01 4.886 5.143 7.8C122.42 53.657 123 56.727 123 60c0 3.272-.588 6.325-1.755 9.282-1.176 2.958-2.888 5.54-5.143 7.73-2.387 2.286-5.222 4.022-8.486 5.208C104.342 83.407 100.7 84 96.689 84h-3.378c-4.011 0-7.653-.593-10.927-1.78-3.273-1.186-6.099-2.922-8.486-5.208-2.255-2.155-3.993-4.728-5.204-7.73a26.098 26.098 0 0 1 0-18.495 23.521 23.521 0 0 1 5.204-7.799c2.387-2.286 5.222-4.022 8.486-5.208C85.65 36.593 89.291 36 93.311 36h3.378c4.011 0 7.653.593 10.927 1.78 3.264 1.186 6.099 2.922 8.486 5.208Zm-19.413 32.48c2.703 0 5.152-.358 7.337-1.073 2.185-.716 4.046-1.745 5.582-3.097a13.635 13.635 0 0 0 3.554-4.877c.834-1.902 1.246-4.048 1.246-6.421s-.412-4.52-1.246-6.42a13.712 13.712 0 0 0-3.554-4.878c-1.536-1.343-3.397-2.373-5.582-3.097-2.185-.715-4.634-1.073-7.337-1.073h-3.378c-2.756 0-5.222.358-7.407 1.073-2.186.716-4.046 1.745-5.582 3.097-1.536 1.344-2.703 2.967-3.52 4.877-.815 1.902-1.219 4.048-1.219 6.421s.404 4.52 1.22 6.42c.816 1.903 1.983 3.534 3.519 4.878 1.536 1.343 3.396 2.381 5.582 3.097 2.185.715 4.65 1.073 7.407 1.073h3.378Zm95.045 1.225c.841.829 1.266 1.831 1.266 2.99 0 1.16-.425 2.233-1.266 3.061-.85.829-1.847 1.247-3.01 1.247h-6.815c-1.292 0-2.342-.444-3.14-1.342l-12.964-14.117H147.49v11.16c0 1.213-.425 2.233-1.266 3.061-.85.828-1.847 1.247-3.01 1.247-1.161 0-2.15-.41-2.974-1.247-.824-.828-1.24-1.848-1.24-3.06v-15.46c0-1.168.408-2.17 1.24-3.025.824-.855 1.813-1.273 2.975-1.273h29.814c1.066 0 2.064-.2 2.974-.602a8.14 8.14 0 0 0 2.437-1.648 7.71 7.71 0 0 0 1.674-2.424c.398-.915.598-1.918.598-2.99 0-1.073-.2-2.076-.598-2.991a7.833 7.833 0 0 0-1.674-2.45 8.09 8.09 0 0 0-2.437-1.683c-.91-.401-1.908-.602-2.974-.602h-29.814c-1.162 0-2.151-.41-2.975-1.247-.824-.828-1.24-1.822-1.24-2.99 0-1.169.408-2.172 1.24-3.026.824-.855 1.813-1.282 2.975-1.282h29.814c2.185 0 4.249.419 6.183 1.247 1.942.828 3.685 2.005 5.246 3.531 3.165 3.183 4.744 7.01 4.744 11.492 0 4.482-1.587 8.31-4.744 11.492-2.142 2.154-4.64 3.567-7.484 4.238l6.816 7.464h4.943c1.162 0 2.16.41 3.01 1.238l-.01-.009Zm36.096-31.096c-2.17.715-4.016 1.744-5.54 3.097a13.631 13.631 0 0 0-3.527 4.876c-.827 1.902-1.245 4.048-1.245 6.421s.409 4.52 1.245 6.421c.828 1.902 2.003 3.533 3.527 4.877 1.524 1.343 3.37 2.382 5.54 3.097 2.168.715 4.598 1.073 7.28 1.073h3.354c5.678 0 10.094-1.5 13.22-4.502.897-.81 1.925-1.212 3.092-1.212s2.151.445 2.952 1.343c.81.855 1.211 1.859 1.211 3.028s-.444 2.172-1.341 3.027C252.808 81.714 246.433 84 238.464 84h-3.354c-3.98 0-7.594-.593-10.843-1.78-3.248-1.186-6.053-2.922-8.421-5.208a22.04 22.04 0 0 1-5.104-7.73C209.575 66.325 209 63.228 209 60c0-3.228.584-6.342 1.742-9.213 1.115-2.914 2.822-5.513 5.104-7.799 2.368-2.286 5.182-4.022 8.421-5.208 3.24-1.187 6.855-1.78 10.843-1.78h3.354c3.98 0 7.594.593 10.843 1.78 3.24 1.186 6.053 2.922 8.421 5.208.854.855 1.272 1.858 1.272 3.027 0 1.17-.4 2.173-1.21 3.028-.81.854-1.803 1.29-2.988 1.308-1.184.026-2.203-.392-3.057-1.239-3.179-3.044-7.612-4.571-13.29-4.571h-3.353c-2.683 0-5.113.358-7.281 1.073l.008-.017Z"/>
        <path fill="url(#a)" d="M318.734 0c1.157 0 2.15.427 2.997 1.282.846.855 1.269 1.858 1.269 3.027s-.423 2.163-1.27 2.992c-.846.828-1.839 1.247-2.996 1.247h-41.537c-1.157 0-2.142-.41-2.962-1.247-.82-.829-1.235-1.823-1.235-2.992s.406-2.172 1.235-3.027C275.055.427 276.04 0 277.197 0h41.537Zm0 19.765c1.157 0 2.15.419 2.997 1.248.846.828 1.269 1.823 1.269 2.991 0 1.17-.423 2.172-1.27 3.027-.846.855-1.839 1.274-2.996 1.274h-41.537c-1.157 0-2.142-.428-2.962-1.274-.82-.855-1.235-1.858-1.235-3.027 0-1.168.406-2.163 1.235-2.991.829-.83 1.805-1.248 2.962-1.248h41.537Zm0 19.696c1.157 0 2.15.41 2.997 1.238.846.829 1.269 1.832 1.269 2.992s-.423 2.233-1.27 3.062c-.846.828-1.839 1.247-2.996 1.247h-41.537c-1.157 0-2.142-.41-2.962-1.247-.82-.829-1.235-1.85-1.235-3.062 0-1.212.406-2.163 1.235-2.992.829-.828 1.805-1.238 2.962-1.238h41.537Z" transform="translate(2 36)"/>
        <path fill="#FFF" d="M396.734 76.693c.841.829 1.266 1.831 1.266 2.99 0 1.16-.425 2.233-1.266 3.061-.85.829-1.847 1.247-3.01 1.247h-6.815c-1.292 0-2.342-.444-3.14-1.342l-12.964-14.117H352.49v11.16c0 1.213-.425 2.233-1.266 3.061-.85.828-1.847 1.247-3.01 1.247-1.161 0-2.15-.41-2.974-1.247-.824-.828-1.24-1.848-1.24-3.06v-15.46c0-1.168.408-2.17 1.24-3.025.824-.855 1.813-1.273 2.975-1.273h29.814c1.066 0 2.063-.2 2.974-.602a8.14 8.14 0 0 0 2.437-1.648 7.71 7.71 0 0 0 1.674-2.424c.398-.915.598-1.918.598-2.99 0-1.073-.2-2.076-.598-2.991a7.833 7.833 0 0 0-1.674-2.45 8.09 8.09 0 0 0-2.437-1.683c-.91-.401-1.908-.602-2.974-.602h-29.814c-1.162 0-2.151-.41-2.975-1.247-.824-.828-1.24-1.822-1.24-2.99 0-1.169.408-2.172 1.24-3.026.824-.855 1.813-1.282 2.975-1.282h29.814c2.185 0 4.249.419 6.183 1.247 1.942.828 3.685 2.005 5.246 3.531 3.165 3.183 4.744 7.01 4.744 11.492 0 4.482-1.587 8.31-4.744 11.492-2.142 2.154-4.64 3.567-7.484 4.238l6.816 7.464h4.943c1.162 0 2.16.41 3.01 1.238l-.01-.009Z"/>
    </g>
</svg>
