<svg xmlns="http://www.w3.org/2000/svg" viewBox="0 0 400 120">
  <path fill="#f1f1f1" d="M176.6 32.9v12.6h17.6v46.2h15.4V45.5h17.7V33Zm96.3 0v24H249v-24h-15.4v58.8H249V69h24v22.6h15.4V32.9Zm26.9 0v58.8h47.5V79.4h-32v-11l28.1-.1V56h-28.2V45h31.3V33Zm51.8 0v12.6h17.6v46.2h15.4V45.5h17.7V33Zm77.9 15.7 8 21h-16.3ZM422 32.9l-25.4 58.8h15.8l4.2-10.4H442l4 10.4h16.5l-24.8-58.8Zm0 0"/>
  <path fill="#d4d4d4" d="M471.3 33v58.7H503v-5.2h-26V32.9Zm63.8 6 14.2 31.8H521Zm-2.9-6-26.5 58.7h6.2l7-15.6h32.6l7 15.6h6.4l-26.6-58.8Zm93.6 0v58.7h40.6v-5.2h-34.8V64.4h30.1v-5.2h-30v-21h33.6v-5.3Zm-15.6-.1-32.7 35.8V32.9h-5.8v58.8h5.8V76l12-13 22.3 28.6h7.2l-25.4-33.1 23.7-25.7Zm0 0"/>
  <path fill="#1bb576" d="M115.2 10h-.5.5Zm0 0"/>
  <path fill="#086d47" d="M60.5 62.6c0 26.1 19 47.8 44 52H35L5 62.2 35 10h78c-29 0-52.6 23.6-52.6 52.6"/>
  <path fill="#1bb576" d="M34.8 10h.5-.5Zm54.8 52.6c0 26.1-19 47.8-44 52H115l30.3-52.3L114.9 10H37c29 0 52.6 23.6 52.6 52.6"/>
</svg>