<svg xmlns="http://www.w3.org/2000/svg" viewBox="0 0 400 120">
    <path fill="#fff" d="M39.044 58.39 19.941 16H0l28.604 64.393a.352.352 0 0 0 .642 0ZM80.698 16s-25.86 58.373-29.106 65.516c-7.736 17.075-13.472 21.343-19.308 22.261a.112.112 0 0 0 .018.223h18.264c8.041 0 13.543-5.41 21.29-22.484C74.566 75.546 100.991 16 100.991 16ZM206.3 38c-12.904 0-21.203 8.36-21.203 22s8.299 22 21.202 22c12.903 0 21.202-8.36 21.202-22s-8.328-22-21.202-22Zm0 37.048c-8.241 0-13.637-5.368-13.637-15.048s5.396-15.048 13.636-15.048c8.24 0 13.642 5.368 13.642 15.048s-5.43 15.048-13.642 15.048Zm64.976-36.08v42.064h-8.733l-20.798-30.823v30.823h-7.434V38.968h8.762L263.871 70V38.968Zm128.786 7.04v-7.04h-30.235v42.064h30.235v-7.04h-22.786V62.933h21.008v-7.04h-21.008v-9.885h22.786ZM175.745 38.97l-15.073 33.1a.22.22 0 0 1-.4 0L145.2 38.97h-8.519s14.745 32.529 15.892 35.051c2.322 5.13 4.243 7.495 7.9 7.495s5.572-2.364 7.903-7.495l15.889-35.05Zm130.205 7.05c-2.252-5.163-3.938-7.495-7.443-7.495-3.504 0-5.19 2.332-7.442 7.495-1.094 2.508-15.223 35.05-15.223 35.05h7.853l4.349-10.184h20.924l4.349 10.184h7.856s-14.135-32.542-15.223-35.05Zm-14.888 17.793 7.24-17.013a.223.223 0 0 1 .408 0l7.24 17.013Zm50.709-5.603v6.375h12.61c-.554 5.652-5.965 10.387-12.36 10.387-7.57 0-13.062-5.533-13.062-14.667 0-9.504 5.082-15.341 13.742-15.341 5.164 0 9.422 2.47 10.85 6.746h7.707C359.586 43.107 351.944 38 342.71 38c-13.167 0-21.308 8.624-21.308 22.47 0 13.434 8.9 21.53 19.988 21.53 9.525 0 13.14-5.544 14.153-7.319v6.351h6.598V58.211Z"/>
</svg>
