<svg xmlns="http://www.w3.org/2000/svg" viewBox="0 0 400 120">
  <!-- #434343 -->
  <g fill="#FFF">
    <path d="M80.7 11.6C69 6 57.2 12.8 51 20.7c-3.8 5.1-5.9 13.8-5.6 26-.7 17.6 7.1 43.4 7.1 43.4l16-4.2-8.7 22.2 3.9 2.7 14.8-36L65 78.6s-7-15.5-4.3-36.3c1.2-14 8.3-21.8 15.3-20.4 7 2 10 13.9 3.7 22.8a42 42 0 0 1-16.6 13l.6 5.4s31.8-10.6 29.6-36.3a20.3 20.3 0 0 0-12.5-15.2zm-50 84.1s-8.8-23.9-9.5-47c-.6-7.4-1-31.2 8-35.3 1.7-2.7 4.3-4.7 4.3-4.7S10.5 7 11.7 49.1c2.3 28.3 7.9 41.3 7.9 41.3L5.2 94.3l23.3 18.1 1.7-3.9-12.5-9.2L31 95.7z"/>
    <path d="M50.5 93.5C38.6 52.2 41.3 31.3 47 18.9c6.5-14 15.7-10.1 15.7-10.1s3.7-1.5 7.7-1.5c.3-1.4-16-13.2-33 .3-27 23.5-3 90-3 90l-10.7 2.8L51 121l13.4-31.3-13.7 3.9z"/>
    <path d="m63.1 41.1-.6 5.3s15-7.7 11.8-22.3a14 14 0 0 0-5.9 2.6c1.4 10.2-5.3 14.4-5.3 14.4zM128.8 30h-17.6v60.5h8.8v-24h8.6c12 0 21.4-5.4 21.4-18.3.1-12.9-9.3-18.3-21.2-18.3zm0 28.6H120V38.1h8.7c6.6 0 12.5 2.7 12.5 10.3 0 7.6-5.9 10.1-12.6 10.1zm61.5 12.1c0 7.3-4 12.9-11.5 12.9s-11.4-5.6-11.4-12.9V30h-8.8v41c0 5.9 1.7 11.5 6.2 15.6 3.8 3.5 8.9 5.1 14 5.1 5.2 0 10.4-1.6 14.1-5a20 20 0 0 0 6.2-15.6V30h-8.7v40.7zm27.8-25.4c0-4.4 3.7-8.3 8-8.3 5.4 0 8.5 3.5 8.5 8.7h8.8c0-10.3-7.2-16.7-17.2-16.7-9.2 0-16.9 7-16.9 16.5 0 11.8 7.6 14.5 17 18.1 5 2 9.7 3.5 9.7 10 0 5.8-3.6 10.2-9.7 10.2-6.3 0-9.8-5-9.8-10.9h-8.7c0 11 7.5 19.1 18.6 19.1C237 92 245 84.5 245 73.6c0-23-26.7-15.4-26.7-28.3zm69.6 10.9h-25V29.9H254v60.5h8.8V64.1h25v26.3h8.7V30h-8.8m21.2 60.5h32.5v-8.1h-23.8V63.9h23.7v-8.1h-23.7V38h23.7v-8.2h-32.5M381 66.7c8-2.7 11.5-9.2 11.5-17.4 0-5.3-1.7-10.6-5.6-14.4-4.2-4.2-10.4-5-16-5h-18.7v60.5h8.8v-28h.1l20 28h11L375.2 68c2 0 4.1-.5 5.9-1.2zm-20-5.5V38.1h9.4c6.9 0 13.4 3.6 13.4 11.3 0 9.7-8.7 11.8-16.6 11.8H361z"/>
  </g>
</svg>