<svg xmlns="http://www.w3.org/2000/svg" viewBox="0 0 400 120">
  <g fill="#CF272D">
    <path d="M369.5 39.8c17.8 0 30.5 13 30.5 28.3v.2c0 15.3-12.8 28.5-30.7 28.5s-30.6-13-30.6-28.4v-.2c0-15.4 12.8-28.6 30.8-28.6zm8.8 28.7v-.2c0-5.4-4-9.7-9-9.7-5.1 0-8.8 4.3-8.8 9.5v.2c0 5.3 3.9 9.6 8.9 9.6s8.8-4.3 8.8-9.5zM281 22.7h-21.3c-.6 0-1 .4-1 1V36c0 .5.4 1 1 1H281c.6 0 1-.5 1-1.1V23.7c0-.6-.4-1-1-1m26.5 0H287a1 1 0 0 0-1 1v71.1c0 .6.4 1 1 1h20.5c.6 0 1-.4 1-1V23.7c0-.6-.4-1-1-1m27 18.3H314c-.6 0-1.1.5-1.1 1v52.8c0 .6.5 1 1 1h20.6a1 1 0 0 0 1-1V42.1c0-.6-.4-1-1-1m.4-18.4h-21.3a1 1 0 0 0-1 1v12.4c0 .6.4 1 1 1H335c.6 0 1.1-.4 1.1-1V23.7c0-.6-.4-1-1-1M280.6 41h-40.8c-.6 0-1.2.5-1.3 1L233 63.3l-6.4-21.4c-.2-.5-.8-1-1.4-1h-15.9c-.6 0-1.2.5-1.4 1.1L202 62l-.3 1-5.4-20.9c0-.6-.7-1-1.3-1h-32V23.7c0-.6-.8-1.2-1.5-1l-20.1 6.4c-.6.2-1 .4-1 1V41H135a1 1 0 0 0-1 1v15.4c0 .6.4 1 1 1h5.3v18.8c0 13.3 7.2 19.5 20.6 19.5a32 32 0 0 0 14.4-3.1v-16c0-.8-.7-1-1-.9-2.2 1-4 1.2-5.8 1.2-3.6 0-5.5-1.5-5.5-5.6V58.5h11.5a1 1 0 0 0 1-1v-13l15.2 50.4c.2.6.8 1 1.4 1h16.8c.6 0 1.2-.4 1.4-1l7.1-22.3 7 22.4c.2.6.8 1.1 1.4 1.1h16.8c.6 0 1.2-.4 1.4-1l15-50.7v50.5c0 .6.5 1 1 1h20.6c.6 0 1-.4 1-1V42.1c0-.6-.4-1-1-1M60.2-1a60.2 60.2 0 1 1 0 120.5A60.2 60.2 0 0 1 60.2-1zm0 104.5a44.3 44.3 0 1 0 0-88.6 44.3 44.3 0 0 0 0 88.6z"/>
    <path d="M61.7 44.3A12.5 12.5 0 1 1 74 57c-7 0-12.5-5.6-12.5-12.5m0 30a12.5 12.5 0 1 1 25 0 12.5 12.5 0 0 1-25 0m-30 0a12.5 12.5 0 1 1 25 0 12.5 12.5 0 0 1-25 0m0-29.9a12.5 12.5 0 1 1 25.1.1 12.5 12.5 0 0 1-25 0"/>
  </g>
</svg>