<svg xmlns="http://www.w3.org/2000/svg" viewBox="0 0 400 120">
  <g fill="#FFF">
    <path d="M29 55v15.7a9.4 9.4 0 0 0 4 8.7l27 19.5L88.4 118a9.9 9.9 0 0 0 11.2 0l28.9-20c10.7-7.5 15.7-18 14.7-28.2v-13c-.7 8.6-5.6 17-14.7 23.4l-29 20.1a10 10 0 0 1-11.1 0L60 81.2 33 61.6a9.5 9.5 0 0 1-4-6.6z"/>
    <path d="M29 19.7v15.7a9.4 9.4 0 0 0 4 8.7l27 19.5 28.4 19.2a10 10 0 0 0 11.2 0l28.9-20.1c10.8-7.5 15.7-18 14.8-28.2v-13A32.4 32.4 0 0 1 128.5 45l-29 20a10 10 0 0 1-11.1 0L60 45.9 33 26.3a9.5 9.5 0 0 1-4-6.6z"/>
    <path d="m117 8.7-5.3-3.6c-12-7-24.3-6.7-36.9.2L56.4 18a1 1 0 0 0-.5.8c0 .4.2.7.5.8l12.8 9.1 8.3-5.6-.4.1.9-.5-.5.4a35.2 35.2 0 0 1 36.6-.3l-.3-.2.3.2.2.1 5.3 3.6.5.4C126 21 125 14.1 117 8.7zM170 78c-.5-.6-.7-1.3-.6-2V29.8c-.1-.8.1-1.6.6-2.2.5-.4 1.2-.6 2.2-.6h15.2c8.5 0 15 2 19.6 6.1 4.5 4.1 6.8 10.7 6.8 19.7 0 17.2-8.8 25.8-26.4 25.8h-15.2c-1 0-1.8-.3-2.2-.7zm18-6.7c5.3 0 9.4-1.4 12-4.2 2.8-2.8 4.1-7.5 4.1-14.2 0-6.8-1.3-11.5-4-14.3-2.7-2.7-6.8-4.1-12.1-4.1h-9v36.8h9zm40.2 6.5a17 17 0 0 1-7.7-6.2 18.4 18.4 0 0 1-2.8-10.5c0-6.6 1.8-11.5 5.3-15 3.5-3.3 8.4-5 14.9-5 6.3 0 11.2 1.6 14.4 5 3.3 3.2 5 8 5 14.2 0 1.8-.9 2.7-2.5 2.7h-27.9c0 3.3 1.2 5.9 3.5 7.7 2.3 1.8 5.6 2.7 9.7 2.7 3.8 0 7.5-1 10.8-2.8l.8-.3c.4 0 .8.3.9.7l1.8 3.3.2.8c0 .4-.3.8-.6 1a24.3 24.3 0 0 1-6.8 2.8 33.8 33.8 0 0 1-19-1.1zm20.2-20.5a10 10 0 0 0-2.7-7.3c-1.7-1.8-4.3-2.7-7.8-2.7-3.6 0-6.3.9-8.2 2.7a9.6 9.6 0 0 0-2.8 7.3h21.5zm13.8 36a3 3 0 0 1-.6-2V45.7A35.8 35.8 0 0 1 279 41c14.8-.1 22.1 6.4 22.1 19.4 0 6-1.6 10.6-4.8 14a17.3 17.3 0 0 1-13.3 5.3 151.8 151.8 0 0 1-11.8-.4v11.9c.1.7-.1 1.5-.6 2-.4.4-1.2.6-2.2.6h-4c-1 0-1.6-.2-2-.6zm26.5-23.7c1.8-2.2 2.7-5.3 2.7-9.4 0-4.4-1-7.6-3.1-9.4-2.1-1.9-5.3-2.8-9.6-2.8-3.1 0-5.6.5-7.4 1.4l-.1.2v22.6l.1.1c1 .1 7 .5 9.4.5 3.6 0 6.3-1 8-3.2zm19.7 8.4a3 3 0 0 1-.7-2V49.3h-3.5c-1 0-1.7-.2-2.1-.7-.5-.6-.7-1.3-.6-2v-1.8c0-.7.1-1.5.6-2 .3-.5 1-.7 2-.7h3.6v-2.8c0-4.3 1.1-7.6 3.4-10 2.3-2.3 5.7-3.5 10.3-3.5 4.6 0 8.2 1 10.8 3 .4.1.7.5.7 1 0 .3 0 .6-.3.8l-1.9 3.2c-.1.4-.4.6-.8.7-.3 0-.6-.1-.8-.3l-2.8-1.2c-1-.3-2-.5-3-.5-2.1 0-3.6.6-4.5 1.6-1 1.1-1.3 2.8-1.3 5v3h9.3c1 0 1.7.2 2.1.6.5.6.7 1.3.6 2v1.8a3 3 0 0 1-.6 2.1c-.4.5-1 .7-2.1.7h-9.3v26.5c0 .8-.2 1.5-.7 2.1-.4.5-1.2.7-2.2.7h-4c-1 0-1.8-.2-2.2-.7zm43-5.1c-2.5 0-4.4-.6-5.6-1.7-1.3-1.2-2-3-2-5.4V45c.1-.7-.1-1.5-.6-2.1a3 3 0 0 0-2.2-.7h-4c-1 0-1.8.2-2.2.7a3 3 0 0 0-.7 2.1v21.1c0 4.5 1.6 7.6 3.8 10.3 2.9 3.4 8.8 3.4 13 3.4h2.5c4.2 0 10.1 0 13-3.4a16 16 0 0 0 3.8-10.3V45a3 3 0 0 0-.7-2.1c-.4-.5-1.1-.7-2.1-.7h-4c-.9 0-1.7.2-2.3.7a3 3 0 0 0-.7 2.1v20.8c0 2.4-.6 4.2-1.9 5.4-1.2 1.1-3.1 1.7-5.6 1.7"/>
  </g>
</svg>