<svg xmlns="http://www.w3.org/2000/svg" viewBox="0 0 400 120">
  <!-- #430098 -->
  <path fill="#FFF" d="M364.9 62.4V38.1h11v24.3c0 5.6 1.8 8.1 6.2 8.1s6.1-2.5 6.1-8.1V38H399v24.3c0 10.8-5.2 17-17 17-11.9 0-17.1-6.2-17.1-17zm-46.3-24.3h11v14.7l11.2-14.7h12.7l-13.7 16 15 24.6h-12.5l-9.6-16.2-3.1 3.6v12.6h-11V38zm-52.2 20.3c0-14.9 10.1-21.1 20-21.1 9.8 0 20 6.2 20 21.1 0 14.9-10.2 21.1-20 21.1-9.9 0-20-6.2-20-21.1zm29 0c0-7.5-3.3-12-9-12-5.8 0-9 4.5-9 12s3.2 12.3 9 12.3c5.7 0 9-4.8 9-12.3zm-73.2-20.3h15.9c10.4 0 16.8 3.4 16.8 13.2 0 6.4-2.7 10.1-8 12l8.6 15.5H244l-8-14.2h-3v14.1h-10.8V38.1zm15.5 18.2c4.5 0 6.5-1.3 6.5-4.7 0-3.4-2-4.6-6.5-4.6H233v9.3h4.7zM180.2 38h29v9h-18v6.6H204v8.6h-12.8V70h19v8.8h-30V38zm-49.7 0h11v15H155V38h11v40.6h-11V62.3h-13.5v16.4h-11V38.1zM96.7 0c5.9 0 10.7 4.8 10.7 10.7v97.9c0 5.9-4.8 10.7-10.7 10.7h-86c-5.9 0-10.7-4.8-10.7-10.7V10.7C0 4.8 4.8 0 10.7 0h86zm4.7 108.6V10.7c0-2.6-2.1-4.7-4.7-4.7h-86A4.8 4.8 0 0 0 6 10.7v97.9c0 2.6 2.1 4.7 4.7 4.7h86c2.6 0 4.7-2.1 4.7-4.7zm-73-7.2 13.4-11.9-13.5-12v24zm48.4-48.3a19.1 19.1 0 0 0-14.1-5.4 76 76 0 0 0-22.4 4V18h-12v51.8l8.5-3.9c.1 0 13.7-6.1 25.8-6.1 6.1 0 7.4 3.3 7.5 6.1v35.6h12V65.6c0-.7 0-7.3-5.2-12.5zM61.2 37.3H73a35 35 0 0 0 9-19.4H70a46.3 46.3 0 0 1-9 19.4z"/>
</svg>