<svg xmlns="http://www.w3.org/2000/svg" viewBox="0 0 400 120">
  <path fill="#D5303B" d="M10 65.1v24H0v-57h10v23.7h27.3V32.1h10v57h-10v-24H10m89.3 24h10v-57h-10m98.6 57-14-19.8h-12.6v19.9h-10V32h25.4c13.2 0 21.2 7 21.2 18.1 0 9.5-5.6 15.2-13.6 17.4l15.4 21.6H198zm-12-47.9h-14.6v19.2H186c7.2 0 11.8-3.8 11.8-9.6 0-6.3-4.4-9.6-11.9-9.6zm113.4-.1H267v14.8h28.7v9H267v15.3h32.7v9H257V32h42.4v9m70.3 48h-21.3V32h21.3c17.9 0 30.3 12.3 30.3 28.5 0 16.1-12.4 28.6-30.4 28.6zm0-47.9h-11.3V80h11.3c12 0 19.8-8.1 19.8-19.4 0-11.2-7.9-19.4-19.9-19.4z"/>
</svg>