<svg xmlns="http://www.w3.org/2000/svg" viewBox="0 0 400 120">
  <path xmlns="http://www.w3.org/2000/svg" fill="#FFF" d="M260 60a60 60 0 1 1-120 0 60 60 0 0 1 120 0zm-35.4-8.7v19.4h5.4V60.5c0-4 1.2-5.5 4-5.5 2.5 0 3.5 1.5 3.5 4.7v11h5.3v-12c0-4.7-1.4-8-7.1-8a7 7 0 0 0-6 3.3h-.1v-2.7h-5.1zm-21.7 6h5.3c.2-2.1 1.5-3 3.5-3 1.8 0 3.4.4 3.4 2.7 0 2.1-3.1 2-6.3 2.5-3.3.5-6.6 1.5-6.6 6 0 4 2.9 5.7 6.6 5.7 2.3 0 4.8-.6 6.5-2.4 0 .7.2 1.3.4 2h5.4c-.5-.9-.7-2.6-.7-4.4V56.3c0-4.7-4.7-5.5-8.6-5.5-4.4 0-8.8 1.5-9.1 6.5zm12.3 3.9V63c0 1-.2 4.4-4.4 4.4-1.8 0-3.3-.5-3.3-2.5s1.5-2.5 3-2.9c1.7-.3 3.6-.3 4.5-1.1zm-22 11.9 8-22h-5.4l-4.3 13.3h-.1L187 51.2h-5.7l6.8 18.2c.6 1.5 0 3.5-1.8 3.6-1 0-2.1 0-3.1-.2v4.4l3.2.2c3.7 0 5.6-1.3 6.7-4.4zM180.9 43h-6.6L166 56.3l9.1 14.3h7.2l-9.8-14.7L181 43zM158 70.5h6.2V43H158v27.6z"/>
</svg>