<svg xmlns="http://www.w3.org/2000/svg" viewBox="0 0 400 120">
  <g fill="#224B61">
    <path d="m387 107.2-7.9-11.5h4.6l5.9 8.4 6-8.4h4l-8.3 11.5v10h-4v-10M365.5 97h-6.2v-2.1H376v2h-6.3v19.5h-4.1V97m-224 19.4h4.8V91.2h-4.9m183.8 3.7h5.7c4.4 0 10 .5 10 5.7 0 3.4-3.3 4.6-5.5 5 4 .6 4.5 2.7 5.1 5.2l1.4 5.6h-4.2l-1.4-5.7c-.5-1.9-1.3-3.9-5.3-3.9h-1.5v9.6h-4V94.9zm4.2 9.9h1.5c2.6 0 6-.7 6-4.1 0-2.9-2-3.7-6-3.7h-1.5v7.8zm-12.7 4c0 3.9-.8 8-8.8 8s-8.7-4.1-8.7-8V94.9h4v13.9c0 3.4.4 6 4.7 6 4.4 0 4.7-2.6 4.7-6V94.9h4.1v13.9m-24.4 6.6a15 15 0 0 1-6.9 1.3c-8 0-10.9-5.4-10.9-11.5 0-5.2 2.3-10.6 10.2-10.6 5.8 0 8.7 2.6 8.7 6.1h-4.8c0-1.7-.7-4.3-4-4.3-4.8 0-5.6 5.3-5.6 8.3 0 4.8 1.4 9.8 7.2 9.8 3.2 0 5.2-1.4 6.2-2.1v2.9M255 94.9h13.6v2h-9.5v7.2h9v2h-9v7.9h9.9v2.2h-14V95m-9.7 0c-1-.5-4.2-1.7-7.5-1.7-2.7 0-4.6 1.3-4.6 3.2 0 5.3 14.3 5.1 14.3 13 0 5.3-4.9 7.4-11 7.4-3.4 0-6.8-.7-7.7-1V112c1.4.6 4.9 2.2 8.5 2.2 3.1 0 5.4-1.1 5.4-3.7 0-5.7-14.3-5.4-14.3-13.2 0-4 3.7-6.4 10-6.4 2.8 0 5.8.5 7 .7V95m-43.5 10.7c0-6.5 2.8-11.1 10-11.1 7.4 0 10.2 4.7 10.2 11.1 0 6.5-2.9 11.1-10.1 11.1-7.2 0-10.1-4.7-10.1-11.1zm10 9.2c5.2 0 5.8-5.4 5.8-9.2s-.7-9.2-5.7-9.2-5.7 5.4-5.7 9.2c0 3.8.7 9.2 5.7 9.2zm-28.3-20h13.2V97h-9v7.2h8.5v2h-8.6v10.2h-4.1V94.9m-27.2 0h4.6l10.3 17v-17h3.5v21.5h-4.3L160 98.9v17.5h-3.5V94.9m192.8 21.5h4V94.9h-4M398.2 79h-15.5l-16.6-34.7h-5l-3 34.7h-14.8l5.5-61.3c.8-9.8.8-9.8-8.3-11.3l-1.2-.2V5l.3-3.6h28.6c6 0 19.9 0 26.8 7.6 3.2 3.5 4.5 8.1 4 13.7-1 10.7-6.8 17-18 19.3l17.3 37zm-36.4-42.5h5c10.8 0 16.6-4.5 17.4-13.3.4-5-.4-8.3-2.5-10.6-2.1-2.4-5.8-3.6-11.1-3.6-6.3 0-6.4.8-7.1 8.9l-1.7 18.6zM311.5 79H299l-13.4-56.8L264 79h-12.3L243 17.1c-1.2-9-1.5-9-9.7-10.6l-1.9-.4.5-4.7h22.4L263 59l21.8-57.6h9.5L308.1 59l16.7-57.6h9.8L311.5 79m-93.2 0h-13.6l5.4-60.9L183.3 79h-9.7l-16-60.4-5.4 60.4h-9.5l5.5-62.2c.7-8.5.3-8.6-7.2-10.1l-3-.6.5-4.7h27.4l16 59.4L208 1.4h17.2L218.3 79"/>
    <path fill="#CA5133" d="M78.5 79.4c-7.2 6.7-14.2 10-21.3 10-5.5 0-11-2.2-16.7-6.3-5.6-4-7.4-8.9-8-12.7a118 118 0 0 0-7.7 9.2A22 22 0 0 0 19.7 94c.4 8.1 5.6 13.6 7 14.6.4.3 0 0 0 0A58 58 0 0 0 113 38.8a33.2 33.2 0 0 1-8.1 14.2C97.7 60.5 89 68.8 78.5 79.4"/>
    <path d="M38.7 39.2C28.2 49.7 19.4 57.9 12 65.6a33 33 0 0 0-8 14.1 58.3 58.3 0 0 1 86.6-69.3s-.4-.4 0 0a21 21 0 0 1 7 14.5c.1 4.8-1.6 9.6-5.2 14.3-2.5 3.2-5.2 6.3-7.8 9-.5-3.7-2.3-8.6-7.8-12.7A28.9 28.9 0 0 0 60 29c-7.1 0-14.1 3.2-21.3 10zm12 15.8c4.6-3.8 9.4-5.6 14.2-5.5A22 22 0 0 1 77.5 54L69 63c-11.5 10.2-22.3 6-28 1.1 3-3 6.3-6 9.9-9z"/>
  </g>
</svg>