<svg xmlns="http://www.w3.org/2000/svg" viewBox="0 0 400 120">
  <path fill="#A33686" d="M11.8 35.8v17H0V3h19.5c3.8 0 7 .7 10 2 2.8 1.5 5 3.5 6.6 6 1.6 2.6 2.3 5.6 2.3 8.8 0 4.8-1.7 8.7-5.1 11.6a21 21 0 0 1-14.1 4.4h-7.4zm0-9.2h7.7c2.3 0 4-.6 5.3-1.8 1.2-1.1 1.8-2.8 1.8-5a8 8 0 0 0-1.8-5.5c-1.2-1.4-3-2-5-2.1h-8v14.4zM67 43.5H50.7L48 52.7H35.4L53.3 3h11l18.2 49.7H69.7L67 43.5zm-13.3-9.3H64l-5.3-17.3-5.2 17.3zm44 9.3h20.6v9.2H85.9V3h11.8v40.5m54.2 0h-16.1l-2.9 9.2h-12.6L138.2 3h11l18.2 49.7h-12.7l-2.8-9.2zm-13.3-9.3h10.5l-5.3-17.3-5.2 17.3zm66-22h-14.7v40.5h-11.8V12.3h-14.3V3h40.8v9.3M223 52.7h-11.7V3H223m48.4 49.7h-11.7l-17.4-31v31h-11.8V3h11.8l17.3 31V3h11.7v49.7m36.2-9.2h-16.2l-2.8 9.2h-12.6L294 3h11l18.2 49.7h-12.8l-2.8-9.2zm-13.3-9.3h10.4l-5.2-17.3-5.2 17.3zm66-22h-14.6v40.5h-11.8V12.3h-14.4V3h40.9m36 28.5h-18.6v12h21.9v9.2h-33.7V3h33.8v9.3h-22v10.5h18.5M270.2 70h-15.7v44.4h-6.3V70h-15.7v-5.3h37.8V70m35.4 21.4h-21.2V109H309v5.4h-31V64.8h30.7V70h-24.2v16h21.2m47.4 13.3a18 18 0 0 1-5.8 12.1 18.5 18.5 0 0 1-12.8 4.3 17 17 0 0 1-13.9-6.3 26 26 0 0 1-5.2-16.9V88c0-4.6.8-8.6 2.4-12.2 1.6-3.5 4-6.2 6.9-8.2 3-1.8 6.5-2.7 10.3-2.7 5.2 0 9.4 1.4 12.5 4.4 3.2 3 5 7 5.5 12.2h-6.5c-.6-4-1.8-6.9-3.6-8.6A10.5 10.5 0 0 0 335 70c-4.1 0-7.4 1.5-9.7 4.6a21.7 21.7 0 0 0-3.5 13.3v4.8a22 22 0 0 0 3.3 13 11 11 0 0 0 9.3 4.8c3.5 0 6.4-.9 8.3-2.5 1.9-1.7 3.1-4.5 3.8-8.7h6.6zm46.4 15.1H393v-23h-24.6v23h-6.5V64.8h6.5v21.4H393V64.8h6.5"/>
</svg>