<svg xmlns="http://www.w3.org/2000/svg" viewBox="0 0 400 120">
  <defs>
    <path id="a" d="M39 28.5A32 32 0 0 0 21.4.1 44 44 0 0 0 2.8 7.4C.9 8.8 0 10.5.2 12.2c.4 4.9 8.5 9.2 8.6 9.2l.7.5c4.6 2.9 11.5 7.3 13 13.8.7 3.3 0 6.9-2.3 10.4A44 44 0 0 1 4.9 60.6c0 .2 0 .3.2.2A33.1 33.1 0 0 0 39 28.5z"/>
    <path id="c" d="M45.6 2.9a.4.4 0 0 0-.3-.5 35.1 35.1 0 0 0-11-1.8A33.1 33.1 0 0 0 .3 33c0 7.3 2.6 14.3 7.2 20 9.6-1.2 17.4-2.5 23.8-9 2.2-2.1 3.2-4.2 3-6.3 0-3.8-4-7.1-7.4-10l-.8-.7c-3.3-2.8-4.9-5.8-4.6-8.7.3-3.3 2.7-6.3 7.3-9.1A53 53 0 0 1 45.2 3c.2 0 .4-.2.4-.4z"/>
  </defs>
  <g fill="none" fill-rule="evenodd" transform="translate(0 25)">
    <path fill="#001F5F" fill-rule="nonzero" d="M123.4 36.9c2.3 2.1 3.6 5.2 3.5 8.3 0 3.4-1.3 6.6-3.7 9-3.2 3-7.8 4.4-13.8 4.4a19 19 0 0 1-13-4.3c-3-2.4-4.7-6-4.7-9.8l.5-.4h8l.5.5c0 1.8.8 3.5 2.1 4.7 1.5 1.4 3.7 2.1 7 2.1 3.2 0 5.6-.7 7-2 1-.9 1.6-2.2 1.6-3.5 0-2.4-1.5-3.9-4.7-4.4L109 41l-4.7-.5c-3-.4-5.8-1.7-8-3.8-2-2-3.3-5-3-8a11 11 0 0 1 3.8-8.3c1.6-1.4 3.6-2.5 5.6-3.2a20 20 0 0 1 7.2-1 18 18 0 0 1 12.3 4c3.1 2.7 4.5 5.7 4.5 9l-.4.5h-8l-.4-.4a5.7 5.7 0 0 0-1.7-3.8 10.3 10.3 0 0 0-6.2-2.1c-2.9 0-5.2.8-6.6 2.1-.8.8-1.3 2-1.3 3.1 0 2.3 1.3 3.6 4 4l5 .6 4.3.5c3.2.3 6.3 1.7 8.7 3.8zm35.8-9-.3-.8h-9.5l-.3.2L138 38.6V16l-.5-.4H130l-.4.4v41.4l.4.4h7.6l.5-.4v-7.7l4.5-4.6 8.4 12.5.4.2h8.8l.4-.7-12.2-18 11-11.2zm2.9-.8-.5.5v29.8l.5.5h7.6l.4-.4v-30l-.5-.4H162zm-.2-11.5-.5.5v7.4l.5.5h8.1l.5-.4V16l-.4-.5h-8zM186.6 51h-.7c-1 0-1.7-.2-2-.5-.4-.5-.6-1.2-.5-1.8V16l-.5-.5h-7.6l-.4.5v33.7c0 2.9.8 5 2.4 6.4 1.6 1.4 3.8 2 6.5 2 1 0 2.3-.1 3.4-.3l.3-.5v-6l-.5-.4h-.6zm14.6 0h-.7c-1 0-1.8-.2-2-.5a3 3 0 0 1-.6-1.8V16l-.4-.5h-7.6l-.5.5v33.7c0 2.9.8 5 2.4 6.4 1.6 1.4 3.8 2 6.6 2a21 21 0 0 0 3.4-.3l.3-.5v-6l-.5-.4h-.6zm21.7-11.6-6.7-.8c-3.2-.4-3.2-2-3.2-2.5 0-1.3.7-2.2 2.1-2.7 1-.3 2-.4 3.1-.4 1.4 0 2.7.4 3.8 1.3.7.7 1 1.6 1 2.5l.5.5h7l.5-.4a9.1 9.1 0 0 0-3-6.4c-2.3-2.4-5.7-3.6-10.1-3.6-4 0-7.3 1.1-9.8 3.1a8.9 8.9 0 0 0-3.4 7.1c0 2 .7 4 2 5.4a9.4 9.4 0 0 0 5.5 3c1 .2 2.7.5 4.8.7l3.8.5c1.9.3 2.7 1.1 2.7 2.7 0 .8 0 3.3-6 3.3-1.6.1-3.2-.3-4.5-1.2a4 4 0 0 1-1.5-3.2l-.4-.4H204l-.5.5c0 2.8 1.3 5.5 3.5 7.3a15 15 0 0 0 10.4 3.5c4.8 0 8.5-1.2 11-3.5a9.2 9.2 0 0 0 2.8-6.9c.1-2.2-.8-4.4-2.5-5.9-1.8-1.6-4-2.6-6.4-2.9zm37.3-7.2c2 3 2.9 6.5 2.8 10.7l-.1 2-.5.5h-20.5c-.1 2 .7 3.8 2 5.1a6.1 6.1 0 0 0 4.4 1.7c1.9 0 3.3-.4 4.2-1.3.6-.6 1-1.4 1.3-2.3l.4-.3h7.2l.4.5c-.3 2.2-1.3 4.2-2.8 5.8a14 14 0 0 1-11 4.3c-3.7.1-7.3-1.3-10.1-3.8-3.3-3-5-7-5-12.2s1.5-9.2 4.6-12.2a14 14 0 0 1 10.3-3.9c5.2 0 9 2 11.8 5.7zM241.9 39h12.6a6.8 6.8 0 0 0-1.7-4.5 6 6 0 0 0-4.5-1.5c-1.9-.2-3.7.6-4.9 2a7 7 0 0 0-1.5 4zm52.5 12.3.5.4V57l-.3.4a11 11 0 0 1-4 .8 6 6 0 0 1-4-1.3 5 5 0 0 1-1.4-2.2c-1 1-2 1.9-3.3 2.5-1.9.9-4 1.4-6 1.3-3.6 0-6.5-1-8.6-2.8a9.2 9.2 0 0 1-3-7 8.5 8.5 0 0 1 3.1-6.9 14 14 0 0 1 7.8-2.8l8.8-.6v-1.5c.1-1.2-.3-2.3-1-3.2-.6-.7-1.9-1-3.8-1-3.3 0-5 1.2-5.2 3.8l-.4.4h-7.3l-.4-.5a9.5 9.5 0 0 1 4.1-7.6c2.5-1.7 5.6-2.5 9.4-2.5 6.4 0 10.4 2 12.2 6.3.7 2 1 4 1 6.2v11c0 .5.1.9.3 1.2.3.2.7.3 1 .3l1-.1zm-18-6.2c-1 0-2 .4-3 1-.7.6-1.1 1.5-1 2.5a3 3 0 0 0 1.1 2.3c.8.6 2 1 3 1 2 0 4-.6 5.4-1.8a5.7 5.7 0 0 0 2.1-4.6v-1l-7.4.6zm40-17.8-.4-.5-2.4-.2c-1.9 0-3.8.4-5.6 1.3a7.6 7.6 0 0 0-3 2.6l-.4-3.1-.5-.4h-6.4l-.4.4v29.8l.4.4h7.6l.4-.5V42c-.1-2.1.6-4.2 2-5.8a7 7 0 0 1 5.6-2.3c.8 0 1.6 0 2.5.3l.5-.5V27zm14.6 6c2 0 3.5.7 4.4 2 .5.8.8 1.7.8 2.6l.5.4h7.4l.4-.5c-.1-2.5-1-5-2.5-6.8a14.1 14.1 0 0 0-11.1-5c-2.3 0-4.5.5-6.5 1.5-1.8.8-3.5 1.9-4.8 3.4-2.4 2.8-3.5 6.5-3.5 11s1.2 8.4 3.5 11.2c1.3 1.5 2.9 2.7 4.7 3.5 2 .9 4.2 1.4 6.4 1.4 4.6 0 8.3-1.7 11-5 1.5-1.8 2.4-4.2 2.5-6.6l-.5-.5h-7.5l-.5.4a5 5 0 0 1-1 2.5c-.8 1.3-2.3 2-4.4 2A6 6 0 0 1 326 49c-1.3-1.4-2-3.8-2-7.2 0-3.4.7-6 2-7.3a5.6 5.6 0 0 1 4.3-1.6zm32.8-7c-1.7 0-3.4.3-5 1a12 12 0 0 0-3 2V15.9l-.4-.4H348l-.4.4v41.4l.5.5h7.6l.4-.4V41.7c0-2 .6-3.8 1.6-5.5A4.8 4.8 0 0 1 362 34c1.8 0 3 .4 3.7 1.2a6 6 0 0 1 1.1 3.9v18.4l.5.4h7.5l.5-.5v-20c.1-3-.9-5.8-2.9-8-1.9-2-4.7-3.1-8-3.1zm35.8-.4c.1 2.8-1 5.5-3 7.4a12.1 12.1 0 0 1-15.6 0 10.7 10.7 0 0 1 0-14.8 11.9 11.9 0 0 1 15.6 0 9.5 9.5 0 0 1 3.1 7.4h.1zm-2.7 0c.1-2.1-.7-4.2-2.2-5.7-3.3-3-8.4-3-11.7 0-3 3.2-3 8 0 11.3a9 9 0 0 0 11.8 0 7.6 7.6 0 0 0 2.2-5.7l.1-.1zm-5.4 1 1.8 3.9h-2.8l-1.5-3.3h-1.4v3.3H385V20.6h4.2c1.1 0 2.1.3 3 1 .7.5 1.1 1.5 1.1 2.5.1 1.2-.5 2.4-1.6 2.9zm-1-3c0-.3-.2-.6-.4-.8l-.9-.3h-1.5V25h1.6c1 0 1.3-.4 1.3-1.1z"/>
    <ellipse cx="37.2" cy="36" fill="#FFF" fill-rule="nonzero" rx="37" ry="35.4"/>
    <ellipse cx="37.2" cy="36" fill="#FFF" fill-rule="nonzero" rx="37" ry="35.4"/>
    <path fill="#001F5F" fill-rule="nonzero" d="M48.5 5.8c0-.2 0-.3-.3-.4a34.6 34.6 0 0 0-11-1.8A33.1 33.1 0 0 0 3.4 36c0 7.3 2.5 14.3 7.2 20 9.5-1.2 17.3-2.5 23.7-8.9 2.2-2.2 3.2-4.2 3.1-6.3-.1-3.8-4-7-7.4-9.9l-.8-.7c-3.2-2.7-4.8-5.7-4.6-8.7.3-3.2 2.8-6.3 7.4-9a50.3 50.3 0 0 1 16.3-6.2c.2 0 .3-.2.3-.4z"/>
    <path fill="#34D9C3" fill-rule="nonzero" d="M71 36c0-12-6.8-22.8-17.6-28.5-4.5.8-12.8 2.7-18.6 7.3-2 1.5-2.8 3.1-2.7 4.9.5 4.8 8.5 9 8.6 9.1l.8.5c4.6 3 11.5 7.3 13 13.9.7 3.3 0 6.8-2.3 10.4a43.8 43.8 0 0 1-15 14.2c-.2 0-.2.2-.2.3l.3.2A33 33 0 0 0 71 35.9z"/>
    <g transform="translate(32 7.4)">
      <mask id="b" fill="#fff">
        <use href="#a"/>
      </mask>
      <path fill="#FFF" fill-rule="nonzero" d="M50.3 6.8c.2-.3.5-.4.9-.4a1.2 1.2 0 0 1 0 2.5 1.2 1.2 0 0 1-.9-2.1zM45.9 13c.3.2.6.4 1 .4s.8-.2 1-.4c.6-.6.6-1.5 0-2.1a1.5 1.5 0 0 0-1-.4c-.3 0-.7.1-1 .4-.5.6-.5 1.5 0 2zm6.6 2.4.7.2c.3 0 .5-.1.7-.3.4-.4.4-1 0-1.4a1 1 0 0 0-.7-.3 1 1 0 0 0-.7.3c-.4.3-.4 1 0 1.4zm-36.4.4c-.2-.2-.5-.3-.8-.3s-.5 0-.7.3c-.4.4-.4 1 0 1.5.2.2.4.3.7.3.3 0 .6-.1.8-.3.4-.5.3-1.1 0-1.5zm17-28h-.8l-.2.3c-.2.2-.4.4-.4.7v.5l.1.4.3.5c.1 0 .2 0 .3.2h.3c.6.3 1.2.2 1.6-.2l.1-.1.3-.4.1-.4v-1.1l-.3-.3c0-.2-.2-.2-.4-.3l-.4-.1c-.2-.1-.3-.1-.4 0l.1-.1zm-12.2-2.3a1.4 1.4 0 0 0-1-2.5c-.4 0-.7.2-1 .5-.6.5-.6 1.4 0 2 .5.5 1.4.5 2 0zM38 21c.3.2.6.4.9.4.3 0 .6-.2.9-.4.4-.5.4-1.3 0-1.8a1 1 0 0 0-1-.4c-.3 0-.6 0-.8.3-.5.5-.5 1.2-.1 1.7zm-1.7 10.9c.2.2.5.3.8.3.3 0 .6-.1.8-.3.4-.5.4-1.2 0-1.7-.2-.2-.5-.3-.8-.3-.3 0-.6.2-.8.4-.5.5-.5 1.2 0 1.7zM18 32a.9.9 0 0 0-1.2 0c-.3.4-.3.9 0 1.2l.6.3.6-.3c.3-.3.3-.8 0-1.2zm12.6-3.6c.2.2.5.3.8.3.3 0 .5-.1.7-.3a1 1 0 0 0 0-1.5 1 1 0 0 0-.7-.3 1 1 0 0 0-.8.3 1 1 0 0 0 0 1.5zm16.3 0c-.3.5-.3 1 0 1.5.2.3.5.5.9.6.4.1.7 0 1-.3.5-.4.5-1.2 0-1.7-.3-.2-.6-.4-1-.3-.4.1-.7.3-.9.6v.1zm4-2.3c.3.3.6.4 1 .4.3 0 .7 0 .9-.4.5-.5.5-1.3 0-1.9-.3-.2-.6-.4-1-.4s-.7.2-1 .4c-.6.5-.6 1.4-.1 2zm-10.9 2c.3.2.6.3 1 .3.3 0 .6 0 .8-.3.5-.5.5-1.3 0-1.7-.2-.2-.5-.3-.8-.3-.3 0-.6.2-.8.4-.5.5-.5 1.2 0 1.7h.1zm-.4 9.5c.2.2.5.3.8.3.2 0 .5 0 .7-.3a1 1 0 0 0 0-1.5c-.2-.2-.5-.3-.8-.3s-.6.1-.8.3c-.4.4-.5 1.1-.1 1.5zm-13.8 4.8c.1.2.4.3.6.3l.6-.3a1 1 0 0 0 0-1.2.8.8 0 0 0-.6-.3l-.6.3c-.3.3-.4.9 0 1.2zM15.6 24.9a.9.9 0 0 0-.9.2 1 1 0 0 0 0 1.2c.1.2.4.3.6.3l.6-.3a1 1 0 0 0 0-1.2c-.1 0-.2 0-.3-.2zm-9-9.1a.8.8 0 0 0-1 .2c-.3.3-.3.8 0 1.2l.7.2c.2 0 .4 0 .6-.2.3-.3.3-1 0-1.2l-.3-.2zm17.1 18.4a1 1 0 0 0 0 1.2l.6.3.6-.3c.3-.3.3-.8 0-1.2a.9.9 0 0 0-1.2 0zm8.9 1.3c.2.2.4.4.7.4s.6-.2.8-.4a1 1 0 0 0-.8-1.8 1 1 0 0 0-.7.4 1 1 0 0 0 0 1.4h-.1zM43.2 34c.2.3.5.4.8.4.3 0 .5-.1.8-.4.4-.4.4-1.1 0-1.6-.3-.2-.5-.3-.8-.3-.3 0-.6 0-.8.3a1 1 0 0 0 0 1.6zM32.7 44.5c0 .2.4.3.6.3l.6-.3a1 1 0 0 0 0-1.2 1 1 0 0 0-.6-.2c-.2 0-.5 0-.6.2-.4.4-.4.9 0 1.2zm26.9-27.2c.1.2.3.3.6.3.2 0 .4-.1.5-.3.4-.3.4-.8 0-1 0-.2-.3-.3-.5-.3s-.4.1-.5.3c-.3.3-.3.8 0 1.1zM47.9 20c.3.3.6.4 1 .4s.8-.1 1-.4c.6-.6.6-1.5 0-2-.2-.3-.6-.5-1-.5s-.7.2-1 .5a1.5 1.5 0 0 0 0 2zm-24.8-2.2a1 1 0 0 0-.8-.3 1 1 0 0 0-.7.3 1 1 0 0 0 0 1.5c.2.2.4.3.7.3.3 0 .6 0 .8-.3a1 1 0 0 0 0-1.5zm18.8-.8c.2.3.6.4 1 .4.3 0 .6-.1.9-.4a1.4 1.4 0 0 0-1-2.3c-.3 0-.7.1-.9.4-.3.3-.4.6-.4 1 0 .3.1.7.4 1zm-7.7 7.8c.2.2.5.3.8.3.3 0 .6 0 .8-.3.4-.5.4-1.2 0-1.6a1 1 0 0 0-.8-.4 1 1 0 0 0-.8.4 1.2 1.2 0 0 0 0 1.6zm-9.1.1H25a1 1 0 0 0-1.4 0 1 1 0 0 0 0 1.5c.2.2.4.3.7.3.3 0 .6-.1.8-.3.3-.4.3-1 0-1.5zm30-3c.2.2.5.3.8.3.3 0 .6 0 .8-.3A1.1 1.1 0 0 0 56 20c-.3 0-.6.2-.8.4-.4.5-.4 1.2 0 1.7zm-46.5 1a.8.8 0 0 0-.9.1c-.3.4-.3.9 0 1.2.4.4.9.4 1.2 0a1 1 0 0 0 0-1.2.8.8 0 0 0-.3-.2zm35.3-.7c-.5.6-.5 1.4 0 2s1.4.5 1.9 0 .5-1.4 0-1.9c-.3-.2-.6-.4-1-.4-.3 0-.7.2-.9.4zM2.4 29.7a.7.7 0 0 0-.5-.2.7.7 0 0 0-.5.2l-.2.5.2.4a.6.6 0 0 0 1 0c.2-.2.2-.6 0-.9zm3.9 6c.2-.3.2-.7 0-.9H6c-.2-.2-.5-.1-.6 0-.2.3-.2.6 0 .8.2.2.5.2.8 0zm5 3.1a.7.7 0 0 0-.4-.2l-.5.2a1 1 0 0 0 0 1c.2.2.3.2.5.2s.3 0 .5-.2.2-.6 0-.9zm-3 3.1h-.4l-.4.1c-.2.3-.2.6 0 .8l.4.2h.4c.2-.3.2-.6 0-.8V42zm13.3-4.2-.6-.2a1 1 0 0 0-.5.2l-.2.6.3.6.6.3c.2 0 .4 0 .6-.2.2 0 .3-.3.3-.5L22 38zm-7-2-.6-.2c-.2 0-.3.1-.5.3l-.2.6c0 .2 0 .4.2.6 0 .2.3.3.5.3l.5-.2.2-.5c0-.2-.1-.4-.3-.5zM3.3 38.5c.2-.2.2-.5 0-.6a.4.4 0 0 0-.3-.2c-.1 0-.3 0-.3.2-.2.1-.2.4 0 .6v.1c.2.2.5.1.6 0zm-4-5.7a.5.5 0 0 0-.4-.2c-.2 0-.3 0-.4.2-.2.2-.2.5 0 .7h.4l.4-.1c.2-.2.2-.6 0-.8zm13.2-3.3c.2-.1.3-.3.3-.5s-.1-.4-.3-.5a.5.5 0 0 0-.5-.3l-.5.3-.2.5c0 .2.1.4.3.5l.6.3.6-.3zm-18.2-.8-.2-.1h-.5l-.1.3v.3h.4l.3-.1v-.7zm15 3.9c.3-.3.3-.7 0-1-.1-.2-.3-.2-.4-.2-.2 0-.4 0-.5.2-.3.2-.3.6 0 .9h.2c.2 0 .5 0 .7-.2zm-13 3.8c.2-.2.2-.5 0-.7l-.3-.2h-.4v.7h.7zm32-4.4c.4-.4.4-1 0-1.4a.9.9 0 0 0-.6-.3c-.2 0-.4 0-.6.3-.3.4-.3 1 0 1.3.2.2.5.3.7.3.3 0 .5-.1.7-.3zm2.1 7c.4-.4.4-1 0-1.4a.8.8 0 0 0-.7-.3c-.2 0-.5 0-.6.2-.4.4-.4 1 0 1.3.1.2.4.3.6.3.3 0 .5-.1.7-.3zm-3 10.9c-.2-.2-.4-.2-.5-.2-.2 0-.4 0-.5.2-.3.2-.3.6 0 .9l.5.2.4-.2.2-.5c0-.2 0-.4-.2-.5zm-13 4-.4-.1h-.4c-.2.3-.2.6 0 .7h.3l.3-.1v-.8H14zm2.9-2.9-.4-.1h-.4c-.3.3-.3.7 0 .9h.4l.4-.1.1-.4-.2-.4zm4 5.7c.2-.2.2-.5 0-.7h-.7c-.2.3-.2.5 0 .7h.3l.4-.1zm2.9-3.6a.6.6 0 0 0-.4-.2c-.1 0-.3 0-.4.2-.2.2-.2.5 0 .8l.4.1.4-.1.2-.5-.2-.4zm6.3-6.4-.5-.2c-.2 0-.4 0-.5.2-.2.1-.3.3-.3.5l.3.6.5.2.5-.2.2-.6c0-.2-.1-.4-.3-.5zm-12.2-5.8a.7.7 0 0 0-.5-.2.7.7 0 0 0-.4.2l-.2.5c0 .1 0 .3.2.4.1.2.3.2.5.2.1 0 .3 0 .4-.2.2 0 .2-.3.2-.4 0-.2 0-.4-.2-.5zm5.3 3.8a.8.8 0 0 0-.6-.2c-.2 0-.4 0-.5.2a.8.8 0 0 0-.2.5c0 .2 0 .4.2.6l.5.2c.2 0 .4 0 .5-.2l.2-.6c0-.2-.1-.4-.3-.5zm-18.3.9c.2-.2.2-.5 0-.7h-.7c-.2.3-.2.6 0 .7v.1l.6-.1zm7 1.4-.4-.1-.4.1c-.2.2-.2.5 0 .6l.3.2h.3v-.4l-.1-.3zm25-5.8c.4-.4.4-1 0-1.4a1 1 0 0 0-.6-.2 1 1 0 0 0-.7.3 1 1 0 0 0 0 1.3c.2.2.4.3.7.3.2 0 .5-.1.6-.3zm-17 6.8c-.2-.2-.3-.2-.5-.2l-.5.2c-.3.2-.3.6 0 .9l.4.2s.3 0 .4-.2l.2-.5-.2-.5zm-5.1-4a.5.5 0 0 0-.4-.2c-.1 0-.3 0-.4.2-.2.2-.2.6 0 .8l.4.2.4-.2.2-.5c0-.2 0-.3-.2-.4zM14 8.8a1 1 0 0 0-.7-.3 1 1 0 0 0-.8.3 1 1 0 0 0 0 1.5c.2.2.5.3.8.3s.6-.1.8-.3c.2-.2.4-.5.4-.8a1 1 0 0 0-.3-.8zm-16.1-2-.3-.1a.8.8 0 0 0-1 .2.9.9 0 0 0 .7 1.4c.2 0 .4 0 .6-.2.3-.4.3-.9 0-1.2zm-3.4 4.5.2-.5c0-.2 0-.4-.2-.6-.2-.2-.7-.2-1 0l-.2.6c0 .2.1.4.3.5l.6.3c.2 0 .4 0 .6-.2zm5.4 2.6a1 1 0 0 0-.6-.2c-.2 0-.4 0-.6.2a1 1 0 0 0 0 1.3l.2.2c.4.2.8.1 1-.2a1 1 0 0 0 0-1.2zm-8.6.5a.7.7 0 0 0 0-.9.7.7 0 0 0-.5-.2c-.1 0-.3 0-.4.2a.7.7 0 0 0 0 1l.4.1c.2 0 .4 0 .5-.2zM5-.4c-.2-.2-.5-.3-.8-.3s-.5.1-.7.3a1 1 0 0 0 0 1.5c.2.2.5.4.8.4L5 1c.2-.2.3-.4.3-.7a1 1 0 0 0-.4-.8v.1zm2 7.1a1 1 0 0 0-.7-.3 1 1 0 0 0-.8.3 1 1 0 0 0 0 1.5c.2.2.5.3.8.3s.6 0 .8-.3c.2-.2.3-.4.3-.7a1 1 0 0 0-.3-.8zm-9.8 19.9a.6.6 0 0 0 0-.8.5.5 0 0 0-.8 0c-.2.2-.2.5 0 .8.2.2.6.2.8 0zm-9.9.7a.5.5 0 0 0 0-.6.5.5 0 0 0-.7 0 .5.5 0 0 0 0 .6l.4.2s.2 0 .3-.2zm9.2-10-.5-.2a1 1 0 0 0-.5.2 1 1 0 0 0-.3.6l.3.6c0 .2.3.2.5.2s.4 0 .5-.2c.2 0 .2-.3.2-.5l-.2-.5zm-6.3 6.4h-.4l-.4.1c-.2.2-.2.6 0 .8l.4.2h.4c.2-.2.2-.3.2-.5 0 0 0-.3-.2-.4v.1zm15.4 2.8-.6-.2-.5.2-.2.6c0 .2 0 .4.2.6 0 .2.3.3.5.3s.4 0 .5-.2l.2-.5c0-.2-.1-.4-.3-.5v.1zM.3 23.6a.6.6 0 0 0 0-1 .6.6 0 0 0-.9 0 .7.7 0 0 0 0 1h.1l.1.2c.3 0 .5 0 .7-.2zm-12-7a.6.6 0 0 0-.5-.1c-.1 0-.3 0-.4.2-.2.2-.2.6 0 .8l.4.1.4-.1.2-.4-.2-.5zm5 5c.3-.3.3-.7 0-1H-7c-.2-.2-.5 0-.7.1-.3.3-.3.7 0 1 0 .2.3.2.4.2.2 0 .4 0 .5-.2zm10.2-1.1c.2-.1.3-.3.3-.5l-.3-.6-.5-.2c-.2 0-.4.1-.5.3-.2.1-.3.3-.3.5s.1.4.3.5l.2.2c.3.1.6 0 .8-.2zm-18.2-.2c.2-.2.2-.5 0-.6a.4.4 0 0 0-.3-.2c-.2 0-.3 0-.4.2a.5.5 0 0 0 0 .6l.4.2s.2 0 .3-.2zM16.8-5.2a1.4 1.4 0 0 0 1 2.3c.3 0 .7-.1 1-.4.4-.5.4-1.4 0-1.9h-.2c-.6-.5-1.3-.5-1.8 0zm-2-5.2c.3.3.6.4 1 .4s.7-.1 1-.4c.5-.5.5-1.3 0-1.9-.2-.2-.6-.4-.9-.4s-.7.2-.9.4-.4.6-.4 1 .2.7.4.9v-.1zm19.3 5.7c-.6.6-.6 1.6 0 2.2l.3.2c.6.5 1.4.4 2 0 .5-.7.5-1.7 0-2.3l-.3-.2c-.6-.4-1.4-.3-1.9.3zM21-7.4c.3.3.6.4 1 .4s.8-.1 1-.4c.6-.5.6-1.4 0-2-.3-.2-.6-.4-1-.4s-.7.2-1 .5c-.6.6-.6 1.5 0 2.1zm-10-.8a6 6 0 0 0-.3.6v.6h.1l.2.4c.3.3.7.4 1.1.3.4-.1.8-.4 1-.8v-1l-.3-.4c-.5-.5-1.3-.5-1.8 0zm17.8.4h-.2l-.2.1-.3.2c-.6.7-.6 1.6 0 2.1.2.3.6.5 1 .5.3 0 .7-.2 1-.5.5-.5.5-1.4 0-2l-.4-.3h-.8zM31-.7h-.4l-.2.1c-.2 0-.4.2-.5.3-.5.6-.5 1.5 0 2 .2.3.5.4.8.4h.7l.2-.1.4-.2h.1c.6-.6.6-1.5 0-2.1 0-.2-.2-.3-.4-.3l-.5-.1zm10-1.9A1.5 1.5 0 0 0 42.2 0c.4 0 .8-.1 1.1-.4.6-.6.6-1.6 0-2.2l-.2-.2c-.6-.4-1.4-.3-2 .2zM7.2-4.2c-.4.4-.4 1.1 0 1.6l.4.2c.5 0 1 0 1.3-.3.5-.5.5-1.2 0-1.6-.2-.2-.5-.4-.8-.4-.3 0-.6 0-.8.3v-.1zM13 .6c.3.3.6.4.9.4.3 0 .7 0 .9-.3.5-.5.5-1.3 0-1.7-.2-.2-.6-.4-.9-.4-.3 0-.6.2-.9.4-.2.3-.3.6-.3 1 0 .3.1.6.3.8zM23.8-3c-.5.5-.5 1.4 0 1.9.2.2.6.4 1 .4.3 0 .6-.2.9-.4a1.4 1.4 0 0 0-1-2.3c-.3 0-.7.1-1 .4zM3.6-17.2c-.2-.3-.5-.4-.9-.4-.3 0-.6 0-.8.3a1.2 1.2 0 0 0 .8 2c.4 0 .7-.2 1-.4.2-.3.3-.6.3-1 0-.3 0-.6-.3-.8zm4-4.1c-.5-.5-1.3-.5-1.8 0s-.5 1.3 0 1.9c.3.2.6.4 1 .4.3 0 .7-.2 1-.4.2-.3.3-.6.3-1s0-.8-.4-1zm10.8-1.3a.8.8 0 0 0-.2-.3c-.3-.3-.8-.5-1.3-.4-.4 0-.8.3-1 .7-.4.6-.4 1.4.1 2 .3.2.7.4 1.1.4.4 0 .8-.2 1.1-.5.6-.5.7-1.3.3-2zm-6.6-3c-.2-.2-.6-.4-1-.4s-.7.2-1 .5c-.5.6-.5 1.5 0 2.1.3.3.6.5 1 .5s.8 0 1-.4c.6-.5.6-1.4 0-2zm2 7.1a.8.8 0 0 0-.6-.3h-.7c-.2.1-.5.2-.6.4-.6.6-.6 1.5 0 2.1.2.3.6.4 1 .4s.7 0 1-.4c.5-.6.5-1.5 0-2zM9.2 3c-.4.4-.4 1.2 0 1.6.5.4 1.2.4 1.6 0a1 1 0 0 0 0-1.6c-.4-.5-1-.5-1.5 0zM25-11.8l.1.2c.3.3.7.5 1.1.5.5 0 .8-.2 1.1-.5.6-.6.6-1.6 0-2.2-.3-.3-.6-.4-1-.4-.5 0-.9.1-1 .4-.6.6-.6 1.4-.2 2zm-32.2-3.6c-.2-.2-.5-.3-.8-.3-.3 0-.6 0-.8.3-.4.4-.4 1.2 0 1.6.2.2.5.3.8.3.3 0 .6-.2.8-.4.5-.5.5-1.2 0-1.7zm8-8c-.3-.3-.6-.4-1-.4-.3 0-.6.1-.9.4-.5.5-.5 1.3 0 1.9.3.2.6.4 1 .4s.7-.2 1-.4c.6-.5.6-1.4.1-2H.7zM9.2-32c-.3-.3-.7-.5-1.1-.5-.4 0-.8.2-1.1.5-.6.6-.6 1.6 0 2.2.3.3.7.4 1 .4s.9-.1 1.2-.4c.6-.6.6-1.6 0-2.2zM23-20.8c-.6.6-.6 1.6 0 2.2.2.3.6.4 1 .4s.8-.1 1.1-.4c.6-.6.6-1.6 0-2.2 0-.1 0-.2-.2-.2-.6-.5-1.4-.4-1.9.2zM16-30c-.2-.3-.6-.5-1-.5a1.6 1.6 0 0 0-1.1 2.7c.3.2.6.4 1 .4.5 0 .9 0 1-.4.4-.3.5-.7.5-1 0-.5-.2-.9-.5-1.2v.1zM5-27.6c-.3-.3-.7-.4-1.1-.4s-.8.1-1 .4c-.6.5-.6 1.4 0 2 .2.3.6.4 1 .4s.7-.1 1-.4c.5-.6.5-1.5 0-2zM22 9.8c.2.3.5.4.9.4.3 0 .6 0 .8-.3a1.2 1.2 0 0 0-.8-2c-.4 0-.7.2-1 .4-.4.5-.4 1.3 0 1.8zm3.2 4.3c-.4.4-.4 1.2 0 1.6.2.2.5.4.8.4.3 0 .6 0 .8-.3.5-.4.5-1 0-1.6-.2-.2-.5-.3-.8-.3-.3 0-.6.2-.8.4zm5.8 3.1a1 1 0 0 0-.2.4v1.1l.1.2.2.2.2.2c.5.4 1.2.3 1.6 0 .5-.6.5-1.4 0-1.8-.2-.2-.5-.4-.8-.4-.3 0-.6.2-.9.4H31zm3.9-2.2c.3.3.6.4 1 .4.3 0 .7-.1.9-.4a1.4 1.4 0 0 0-1-2.3c-.3 0-.6.1-.9.4-.5.5-.5 1.3 0 1.9h.1zm-6-4.9c-.4.5-.4 1.3 0 1.8.3.2.6.3 1 .3.3 0 .6-.2.8-.4.5-.5.5-1.3 0-1.8l-.3-.2v-.1c-.6-.2-1.1-.2-1.5.2zm-39.2-5.3a.9.9 0 0 0 .6 1.5l.6-.3a1 1 0 0 0 0-1.2.8.8 0 0 0-.6-.3 1 1 0 0 0-.6.3zm37.5 16.3c-.4.5-.4 1.2 0 1.7.2.2.5.3.8.3a1.2 1.2 0 0 0 .8-2 1 1 0 0 0-.8-.3c-.3 0-.6.1-.8.3zm16-16.6c-.7.6-.7 1.5 0 2.2l.2.2.2.1h1.1v-.1c.2 0 .3-.1.3-.2.7-.7.7-1.6 0-2.3l-.3-.2c-.6-.3-1.3-.2-1.8.3zm-6.3-2.7c-.5.5-.5 1.4 0 2 .3.3.7.5 1.1.5s.8 0 1-.4c.6-.5.6-1.4 0-2-.2-.2-.6-.4-1-.4s-.7.2-1 .5zm-11 4c.3.3.6.4 1 .4s.7-.1 1-.4c.5-.5.5-1.3 0-1.9a1.2 1.2 0 0 0-1.8 0c-.2.3-.4.6-.4 1 0 .3.1.7.4.9zM16.2 5c-.4.5-.4 1.2 0 1.6.3.3.5.4.8.4.3 0 .6-.2 1-.4A1 1 0 0 0 18 5c-.5-.4-1.2-.4-1.7 0zm2.1 7c-.4.5-.4 1.3 0 1.7.2.2.5.3.8.3.3 0 .6 0 .8-.3a1 1 0 0 0 0-1.6c-.2-.2-.5-.4-.8-.4-.3 0-.6.2-.8.4zM20 1c-.5.5-.5 1.3 0 1.8.2.2.5.4.9.4.3 0 .6-.2.8-.4.5-.5.5-1.3 0-1.8-.2-.2-.5-.3-.8-.3-.4 0-.7 0-1 .3zm19 8c-.6.5-.6 1.4 0 2h.1l.3.3c.6.2 1.2 0 1.6-.4.6-.6.6-1.5 0-2.1l-.2-.2-.3-.2c-.5-.3-1.2-.1-1.6.3h.1zm-5-3.3h-.2c-.3 0-.6.1-.9.4-.5.5-.5 1.4 0 1.9l.5.3h1.2c.1 0 .2 0 .3-.2h.1c.5-.6.5-1.5 0-2l-.4-.2H34h.1zm-24.3-20c-.3-.2-.6-.4-1-.4-.3 0-.7.1-1 .4-.5.5-.5 1.4 0 1.9.3.3.6.4 1 .4s.7-.1.9-.4c.5-.5.4-1.4-.1-1.9zM-3-18.9c0-.2-.2-.3-.3-.5-.2-.2-.5-.3-.9-.3-.3 0-.6.1-.8.3-.5.5-.5 1.3 0 1.8.2.3.5.4.8.4.4 0 .7 0 1-.3.3-.3.3-.8.2-1.3zm-18.7 36.4-.3-.1-.3.1c-.2.2-.2.5 0 .7h.3l.4-.1.1-.4v-.3zm32.8 3.3c.2.2.4.3.7.3.2 0 .4 0 .6-.3.3-.3.3-1 0-1.3l-.2-.1a1 1 0 0 0-1.2 0 1 1 0 0 0 0 1.4zm7.3 2.3c.4.1.8 0 1-.2.4-.4.4-1 0-1.4l-.6-.2a1 1 0 0 0-.7.3 1 1 0 0 0 0 1.4l.3.3zm1.7 6.9.6.2c.3 0 .5 0 .7-.2.4-.4.4-1 0-1.4l-.6-.2c-.2 0-.5.1-.6.3-.3.4-.3 1 0 1.4zM5.7-8.5c.4-.5.4-1.2 0-1.7a1.2 1.2 0 0 0-1.8 0c-.4.4-.4 1.2 0 1.7.3.3.6.4 1 .4.3 0 .6-.1.8-.4zM-2-1c.4-.4.4-1 0-1.5-.2-.2-.5-.3-.8-.3s-.5.1-.7.3a1 1 0 0 0 0 1.5c.2.2.4.3.7.3s.5 0 .7-.3zm-16.2-3.4a.8.8 0 0 0-.6-.2c-.2 0-.4 0-.6.2-.3.3-.3.8 0 1.2l.6.2c.3 0 .5-.1.6-.3.4-.4.4-1 0-1.2zm10.5-1.5-.6-.2c-.2 0-.5 0-.6.2-.3.4-.3 1 0 1.4.2.2.4.3.7.3.3 0 .5-.1.7-.3.4-.4.4-1 0-1.3zm-13.8 5c0-.2-.3-.3-.5-.3s-.4.1-.5.3l-.2.6.3.6.6.3c.2 0 .4 0 .6-.2.2 0 .3-.3.3-.5l-.2-.5zm16 3.5c.3-.4.3-1 0-1.4C-5.8 1-6 1-6.3 1s-.5.1-.6.3c-.3.4-.3 1 0 1.4.2.2.4.3.7.3.3 0 .5-.1.7-.3zm-5.6-4.9c0-.2-.4-.3-.6-.3a1 1 0 0 0-.6.3c-.3.3-.3.8 0 1.2l.6.2c.2 0 .5-.1.6-.3.4-.4.4-1 0-1.2zm-13.6 4.6L-25 2s-.3 0-.4.2l-.2.4.2.5.5.2c.2 0 .4 0 .5-.2.3-.2.3-.7 0-1zm26.5-7c.5-.4.5-1.1 0-1.6-.2-.2-.5-.3-.8-.3-.3 0-.6.1-.8.3a1.2 1.2 0 0 0 .8 2c.3 0 .6-.1.8-.3zM-11-11.5c-.2-.2-.5-.3-.8-.3s-.5.1-.7.3a1 1 0 0 0 0 1.5 1 1 0 0 0 1.5 0c.4-.4.4-1 0-1.5zm10.7-1.7a1 1 0 0 0-.8-.4 1 1 0 0 0-.8.4 1.2 1.2 0 0 0 0 1.6c.2.2.5.3.8.3.3 0 .6-.1.8-.4.4-.5.4-1.2 0-1.7zM-14.6-8c-.2-.2-.4-.3-.7-.3s-.5.1-.7.3a1 1 0 0 0 0 1.4l.7.2c.2 0 .5 0 .6-.2.3-.4.3-1 0-1.4zM-4-9.5a1 1 0 0 0-.8-.3A1 1 0 0 0-5.6-8c.3.2.5.3.8.3s.5-.1.7-.3a1 1 0 0 0 0-1.5v-.1zm-14.8 24a.6.6 0 0 0-.8 0c-.2.2-.2.6 0 .8l.4.2.4-.2c.2-.2.2-.6 0-.8zm-5-4c0-.2-.1-.2-.3-.2l-.3.1v.7h.4l.3-.1.1-.4-.1-.4zm9.3-9.4-.6-.3c-.2 0-.4 0-.5.2l-.2.5c0 .2 0 .4.2.5l.5.2c.2 0 .4-.1.5-.3l.2-.5-.2-.6zm-6.3 6.3-.4-.2h-.4c-.2.3-.2.7 0 .9h.4l.4-.1c.2-.2.2-.6 0-.8zM2 11.6l.7.2c.2 0 .5-.1.6-.3.3-.4.3-1 0-1.4a1 1 0 0 0-.7-.3 1 1 0 0 0-.7.3c-.4.4-.4 1 0 1.3zm7.3 2.2c.4 0 .8 0 1-.2.4-.4.4-1 0-1.4V12l-.3-.2a.8.8 0 0 0-1 .2c-.3.4-.3 1 0 1.3l.4.2v-.1zm-25-2.6a.8.8 0 0 0-.5-.2c-.2 0-.3 0-.5.2s-.2.7 0 .9h.5l.5-.1c.2-.3.2-.6 0-1zm16-6.4c.4.1.8 0 1-.2.4-.4.4-1 0-1.4A1 1 0 0 0 .7 3a1 1 0 0 0-.7.2 1 1 0 0 0 0 1.4l.3.2zm-28.1.6a.6.6 0 0 0-.8 0c-.2.2-.2.5 0 .8l.4.1h.4c.1-.3.1-.6 0-.8zm10-1.1a.7.7 0 0 0-.4-.2.7.7 0 0 0-.5.2l-.2.5.2.4c.2.2.3.2.5.2l.5-.2c.2-.2.2-.6 0-.8v-.1zm5.3 3.8-.5-.2c-.2 0-.4 0-.6.2l-.2.5.3.6.6.2c.2 0 .4 0 .6-.2.3-.3.3-.7 0-1v-.1zm-18.3.2a.5.5 0 0 0-.3 0h-.3V9l.4.2h.4c.2-.2.2-.5 0-.7z" mask="url(#b)"/>
    </g>
    <path stroke="#FFF" stroke-width=".5" d="M71 36c0-12-6.8-22.8-17.6-28.5-4.5.8-12.8 2.7-18.6 7.3-2 1.5-2.8 3.1-2.7 4.9.5 4.8 8.5 9 8.6 9.1l.8.5c4.6 3 11.5 7.3 13 13.9.7 3.3 0 6.8-2.3 10.4a43.8 43.8 0 0 1-15 14.2c-.2 0-.2.2-.2.3l.3.2A33 33 0 0 0 71 35.9z"/>
    <g transform="translate(3 3)">
      <mask id="d" fill="#fff">
        <use href="#c"/>
      </mask>
      <path fill="#57C1E8" fill-rule="nonzero" d="M9.8 55.8 52.9 8.6l3.5 3.5L9.8 55.7zM53 8.8l-3.5-3.5-43.1 47L53 8.9zm6.7 6.8L56.2 12 13.1 59l46.6-43.6zm3.3 3.3-3.5-3.5-43 47.1L63 18.9zM49.7 5.4 46.2 2 3.1 49 49.7 5.5zM46.3 2 43-1.5-.3 45.6 46.3 2zM43-1.3l-3.5-3.5-43.1 47L43-1.3zm-3.4-3.4-3.4-3.5L-7 39 39.7-4.7zm-3.3-3.4-3.5-3.5-43 47L36.2-8z" mask="url(#d)"/>
    </g>
    <path stroke="#FFF" stroke-width=".5" d="M48.5 5.8c0-.2 0-.3-.3-.4a34.6 34.6 0 0 0-11-1.8A33.1 33.1 0 0 0 3.4 36c0 7.3 2.5 14.3 7.2 20 9.5-1.2 17.3-2.5 23.7-8.9 2.2-2.2 3.2-4.2 3.1-6.3-.1-3.8-4-7-7.4-9.9l-.8-.7c-3.2-2.7-4.8-5.7-4.6-8.7.3-3.2 2.8-6.3 7.4-9a50.3 50.3 0 0 1 16.3-6.2c.2 0 .3-.2.3-.4z"/>
  </g>
</svg>