<svg xmlns="http://www.w3.org/2000/svg" viewBox="0 0 400 120">
    <g transform="translate(78)">
        <path fill="#3F3F3F" d="M33.32 37.6H.16V26H50.4v9.32l-32.96 43.6H50.4V90.5H.13v-9.3m102 10.26c-5.6 0-9.1-2.3-10.52-7.2-3.4 3.97-8.8 7.12-15.7 7.12-13.8 0-23.2-10.6-23.2-25.52 0-15.06 9.4-25.78 23.2-25.78 6.5 0 11.5 1.78 14.8 5.12v-4.27H104v34.33c0 2.84.78 5 3.42 5l-5.26 11.2zM90.7 56.08c-2.3-2.37-6.64-4.47-11.1-4.47-8.24 0-13.48 5.7-13.48 14.3 0 8.4 5.32 14 13.47 14 4.3 0 8.4-1.9 11.1-4.4V56.1zm23.02-16.12c5.2 0 8.82 1.9 10.46 6.45 3.3-3.8 8.54-6.3 15.84-6.3 13.83 0 23.3 10.7 23.3 25.8 0 14.9-9.47 25.6-23.3 25.6-6.37 0-11.38-1.9-14.8-4.9v21.8l-13.28-5.1v-47c0-3-.66-5-3.42-5l5.2-11.3zM125.2 56.2v19.2c2.55 2.43 6.7 4.45 11.1 4.45 8.15 0 13.55-5.6 13.55-14.02 0-8.54-5.33-14.2-13.56-14.2-4.6 0-9 2.17-11.1 4.53zm44.9-16.25c5.2 0 8.8 1.9 10.42 6.45 3.3-3.8 8.55-6.35 15.85-6.35 13.82 0 23.3 10.72 23.3 25.8 0 14.86-9.48 25.58-23.3 25.58-6.37 0-11.38-1.9-14.8-4.93v21.77l-13.28-5.1v-46.9c0-3.03-.7-5-3.5-5l5.2-11.3zm11.5 16.23v19.2c2.54 2.44 6.7 4.46 11.1 4.46 8.14 0 13.53-5.6 13.53-14.02 0-8.54-5.3-14.2-13.53-14.2-4.58 0-8.93 2.17-11.1 4.53zm42.6 31.32V41.1h13.28v52.38"/>
        <path d="m193.55 109.17-1.16-.5c-1.8-.8-2.6-1.4-2.6-2.73 0-1.2.9-2.06 2.3-2.06s2.1.55 2.8 1.7l2.2-1.3c-1.1-1.9-2.7-2.8-5-2.8-3 0-5 1.86-5 4.5 0 2.76 1.5 4.04 4.1 5.2l1.1.5c1.9.86 3 1.56 3 3.08 0 1.47-1.3 2.44-3.1 2.44-2.2 0-3.26-1.08-4.1-2.48l-2.27 1.24c1 2.02 3.02 3.7 6.4 3.7 3.34 0 5.8-1.8 5.8-4.9-.06-2.84-1.7-4.24-4.7-5.6zm9.9 8.23c-.65 0-1.1-.35-1.1-1.63v-5.1h2.93v-2.2h-2.9v-5.7h-2.65v5.7h-1.67v2.2h1.63v5.06c0 2.9 1.4 3.96 3.4 3.96 1.4 0 2.2-.6 2.8-1.1l-1.3-1.8c-.3.3-.7.5-1.3.5zm8.2-9.17c-3.3 0-5.94 2.45-5.94 5.7 0 3.27 2.6 5.72 6 5.72s5.9-2.45 5.9-5.7c0-3.27-2.5-5.72-5.9-5.72zm0 9.17c-1.94 0-3.22-1.44-3.22-3.46s1.24-3.42 3.22-3.42c1.94 0 3.18 1.4 3.18 3.42s-1.24 3.46-3.18 3.46zm9.85-6.95-.18-.6c-.3-.88-1.05-1.27-2.06-1.27l-1.05 2.25c.6 0 .7.4.7 1v7.63h2.7v-5.83c.1-2.06 1.2-2.87 2.7-2.87.6 0 1 .15 1.5.35l.9-2.3c-.43-.2-1-.4-1.8-.4-1.2 0-2.5.6-3.2 2.2zm10.3-2.22c-3.3 0-5.86 2.45-5.86 5.7 0 3.3 2.45 5.72 6.18 5.72 2.17 0 3.6-.74 4.62-1.8l-1.56-1.62c-.62.6-1.67 1.17-3.1 1.17-2.02 0-3.15-1-3.46-2.6h8.82c.2-3.8-1.9-6.57-5.63-6.57zm-3.18 4.78c.3-1.6 1.48-2.6 3.2-2.6 1.8 0 2.74 1.1 2.98 2.6h-6.18z" fill="#3F3F3F"/>
        <circle fill="#FDDA24" cx="220.27" cy="20" r="10.87"/>
        <circle fill="#C0DF16" cx="222.72" cy="4.58" r="4.31"/>
        <circle fill="#C5299B" cx="221.83" cy="9.75" r="3.65"/>
        <path d="M220.7 21.4c0-5.17 4.2-9.36 9.36-9.36 4.3 0 7.92 2.9 9.05 6.87 3.8-1.1 6.5-4.6 6.5-8.7 0-5-4-9.1-9.1-9.1-5 0-9 4-9.1 9-3 .4-5.5 2.2-6.9 4.7-.4-.1-.9-.2-1.5-.2-3.1 0-5.7 2.6-5.7 5.8 0 3.2 2.6 5.8 5.8 5.8 1 0 1.96-.2 2.7-.6-.6-1.2-.9-2.6-.9-4z" fill="#F93822"/>
        <path d="M239.38 20.47c.04.3.04.62.04.93 0 5.16-4.2 9.36-9.36 9.36-1.05 0-2.06-.16-3-.47.6 4.5 4.44 7.9 9.1 7.9 5.04 0 9.16-4.1 9.16-9.2.04-4-2.45-7.3-5.94-8.7z" fill="#FF8200"/>
        <circle fill="#C5299B" cx="219.73" cy="31.11" r="3.53"/>
        <circle fill="#05C3DE" cx="222.8" cy="32.89" r="2.8"/>
        <circle fill="#05C3DE" cx="237.36" cy="7.11" r="3.73"/>
        <circle fill="#05C3DE" cx="230.06" cy="21.4" r="7.69"/>
        <circle fill="#B72B87" cx="232.58" cy="18.17" r="2.76"/>
    </g>
</svg>
